# This file uses centimeters as units for non-parametric coordinates.

mtllib TET_RockMountain_1.mtl
g default
v -81.397865 -7.715142 46.201702
v 78.649536 -7.715142 46.201683
v 7.662264 -7.715142 -113.272217
v 6.426074 -7.715142 112.528130
v 85.372581 -7.715142 -61.748684
v -90.434303 -7.715142 -56.636066
v -0.000002 0.000000 0.000000
v -93.777557 -7.715142 0.000010
v -47.575855 -7.715142 80.023705
v -0.118623 -1.674587 31.669512
v -27.529495 -1.654438 -15.826492
v -28.225307 -2.545472 16.191786
v 36.844181 -7.715142 93.851273
v 99.012596 -7.715142 -13.827602
v 36.251312 -2.465578 -23.001583
v 27.978455 -2.723466 16.264750
v 56.065548 -7.715142 -91.714821
v -58.818092 -7.715142 -106.544373
v -0.054197 -0.765018 -30.923744
v -26.237537 198.724686 -15.148244
v -26.237535 204.537491 15.148252
v -0.471870 206.167801 27.702042
v -0.000002 203.037415 0.000000
v 26.383638 204.311401 14.574555
v 34.147446 193.320038 -21.562784
v -0.000005 194.742157 -30.296495
v -63.101688 142.588104 -40.745316
v -67.056770 117.361305 3.135906
v -55.240582 98.237961 34.416252
v -35.511486 88.352249 66.912804
v 9.992482 81.253334 98.258377
v 34.523689 90.192360 73.394066
v 59.250420 105.641296 31.901289
v 73.737572 138.564728 -12.280204
v 65.924606 154.083084 -41.814487
v 46.352245 157.326736 -65.324135
v 11.382681 161.846085 -82.203514
v -39.389854 156.170212 -80.783562
v 23.068174 -7.715142 -106.410942
v -39.938782 -5.957489 -76.692009
v -62.968658 -7.715142 -99.992447
v -72.429382 27.186573 -47.224720
v -67.202003 67.441399 2.971642
v 73.415184 67.796417 -11.908205
v 62.516701 33.798714 -44.694481
v 43.622845 7.599519 -70.363609
v -57.041328 99.386902 36.019653
v -34.730728 122.920235 61.499481
v 9.670276 155.258194 82.206863
v 30.388952 140.087204 65.128654
v -58.077316 99.046532 33.046078
v -56.497585 97.925720 36.050209
v 11.307220 70.912407 -82.973335
v -38.926399 72.499565 -80.305878
v -34.381767 103.391075 62.552860
v 9.284743 113.436943 90.463577
v 34.673256 105.894478 70.244820
v -53.621925 96.953445 37.126663
v -65.889503 80.520477 -43.579937
v -69.257919 89.779381 4.955140
v 71.411110 85.794846 -11.145081
v 66.647705 78.237312 -41.763157
v 44.816833 73.827255 -64.444649
v 50.425106 100.206932 48.095589
v -61.223320 95.783997 32.524086
v 68.127663 90.892029 12.919938
v -65.064369 148.017090 -42.764301
v -67.912941 161.478699 4.393619
v 61.168282 185.736084 31.005320
v 72.903358 173.871017 -11.895429
v 62.148865 157.320358 -41.467430
v 59.158894 153.891083 -47.639576
v -59.300556 145.422409 -50.419193
v -57.662109 172.008774 37.772015
v -35.429146 182.649353 61.567863
v 8.977687 189.388565 80.917023
v 24.305929 190.645035 62.503532
v 9.540657 141.346008 -79.876869
v -38.973038 138.415314 -79.129120
v 45.361992 146.949020 -64.521637
v 6.310847 -6.622838 86.049271
v 12.372035 -7.715142 110.137794
v -59.951111 60.291618 39.525047
v -37.045464 29.649378 68.822655
v 41.821308 2.198239 83.247360
v 57.860622 33.886162 33.569077
v 75.498001 72.903595 -12.971059
v 71.082344 70.495270 -6.885471
v -63.557953 133.546829 -40.934402
v -66.843994 94.892143 2.687221
v 63.149319 108.990044 -41.414307
v 46.133865 132.487656 -65.174561
v -65.960945 80.391380 18.683311
v -67.745422 90.681122 9.647989
v 70.733727 83.559464 -17.524654
v 10.762207 148.212158 -81.391533
v -38.653282 152.068161 -78.236732
v -54.132881 142.620926 -59.338428
v 23.224102 144.021820 -75.988564
v -69.531937 126.374008 5.123599
v 60.546906 116.340607 31.426218
v -68.307091 125.614227 -15.756718
v 64.358810 115.674767 21.125240
v -58.080067 127.972794 38.388187
v -34.915752 125.026031 62.416183
v -30.838360 125.261375 60.269497
v 49.539165 117.694046 41.715931
v 9.754114 113.724030 -81.102943
v -39.060604 118.815063 -77.884705
v 8.356791 132.985626 83.557381
v 35.588181 123.215889 67.221306
v -63.896214 123.702606 -41.967640
v 75.444962 112.128548 -13.205767
v 43.710682 111.237823 -64.317474
v 61.553703 110.822327 -40.919594
v -67.340874 124.578751 -32.423344
v 62.714970 110.886604 -44.891987
v -49.369781 193.555191 -34.227795
v -59.827885 183.881363 -38.343636
v -51.646271 203.298706 -0.910483
v -62.524509 192.889862 1.159350
v -44.822239 204.537491 25.878136
v -54.188236 193.794037 32.765488
v -27.150993 206.277084 44.145187
v -33.687817 196.660751 55.233166
v 7.066820 201.522949 65.982628
v 8.415871 191.526199 79.690269
v 18.438164 204.314713 54.237144
v 24.305929 190.646301 62.503532
v 45.840225 204.971893 25.438616
v 57.068806 195.387177 30.328548
v 56.844227 199.786194 -9.290829
v 68.466667 190.924347 -10.122058
v 48.627502 190.791489 -35.700474
v 58.458969 180.244019 -40.783371
v 32.587681 187.036346 -52.841042
v 40.382545 176.506149 -61.762398
v 4.497329 187.036346 -65.374687
v 7.944046 176.839630 -77.209244
v -32.414665 187.036346 -61.363289
v -38.181908 176.478806 -73.122040
vt 0.194061 0.424451
vt 0.114144 0.368833
vt 0.257829 0.313934
vt 0.124626 0.454127
vt 0.103682 0.298684
vt 0.283054 0.401680
vt 0.146559 0.533878
vt 0.277192 0.275444
vt 0.298635 0.306034
vt 0.274146 0.487806
vt 0.228899 0.241029
vt 0.308736 0.311485
vt 0.334662 0.490847
vt 0.151157 0.547293
vt 0.123754 0.217602
vt 0.321276 0.253078
vt 0.300791 0.296358
vt 0.354823 0.393718
vt 0.351531 0.413108
vt 0.058783 0.246644
vt 0.213415 0.152271
vt 0.328167 0.242976
vt 0.333826 0.250518
vt 0.359295 0.360378
vt 0.363779 0.501128
vt 0.141269 0.100191
vt 0.012768 0.123042
vt 0.350991 0.320315
vt 0.379263 0.419050
vt 0.367280 0.416919
vt 0.012768 0.139692
vt 0.164754 0.067807
vt 0.226714 0.122871
vt 0.368929 0.321641
vt 0.423473 0.352618
vt 0.377490 0.461214
vt 0.224860 0.084493
vt 0.338175 0.245610
vt 0.382759 0.441621
vt 0.388050 0.425388
vt 0.386699 0.508705
vt 0.015164 0.128565
vt 0.401429 0.260993
vt 0.449997 0.438242
vt 0.398403 0.511743
vt 0.468138 0.313552
vt 0.433449 0.502957
vt 0.475439 0.381647
vt 0.451400 0.218748
vt 0.500617 0.339332
vt 0.476000 0.441828
vt 0.526055 0.288365
vt 0.539364 0.310710
vt 0.522654 0.357120
vt 0.500248 0.394035
vt 0.152279 0.904516
vt 0.171303 0.832280
vt 0.310433 0.890068
vt 0.326615 0.828480
vt 0.152654 0.914511
vt 0.368961 0.881406
vt 0.228255 0.747262
vt 0.354391 0.824227
vt 0.344629 0.775553
vt 0.384965 0.819399
vt 0.355068 0.742378
vt 0.405578 0.873895
vt 0.291395 0.668846
vt 0.376518 0.768261
vt 0.416574 0.822232
vt 0.142555 0.649126
vt 0.328933 0.704366
vt 0.445238 0.868911
vt 0.286109 0.658882
vt 0.144070 0.759222
vt 0.319368 0.660384
vt 0.374970 0.741706
vt 0.496120 0.739841
vt 0.507742 0.824204
vt 0.295432 0.657247
vt 0.233015 0.589010
vt 0.366882 0.658368
vt 0.373148 0.722145
vt 0.506175 0.866602
vt 0.149548 0.562074
vt 0.315911 0.648113
vt 0.475918 0.662023
vt 0.514240 0.742064
vt 0.507745 0.824204
vt 0.363601 0.603862
vt 0.413691 0.661049
vt 0.507041 0.666117
vt 0.510515 0.865497
vt 0.309651 0.602906
vt 0.367679 0.604366
vt 0.491502 0.605857
vt 0.532252 0.672885
vt 0.305112 0.546528
vt 0.367477 0.597307
vt 0.442594 0.608293
vt 0.450512 0.605426
vt 0.541422 0.738375
vt 0.189416 0.530510
vt 0.370858 0.549140
vt 0.444254 0.593111
vt 0.408669 0.552492
vt 0.488954 0.556641
vt 0.452958 0.555123
vt 0.434484 0.554044
vt 0.843660 0.644450
vt 0.844662 0.693039
vt 0.797807 0.666417
vt 0.891718 0.667057
vt 0.797973 0.720843
vt 0.797053 0.615568
vt 0.905807 0.733645
vt 0.876381 0.597771
vt 0.845006 0.747999
vt 0.752658 0.694599
vt 0.856616 0.576902
vt 0.765024 0.646497
vt 0.946309 0.709563
vt 0.925991 0.646858
vt 0.788642 0.804968
vt 0.757417 0.756722
vt 0.783052 0.590870
vt 0.743036 0.628485
vt 0.902933 0.790037
vt 0.931282 0.759079
vt 0.893271 0.572794
vt 0.853264 0.810951
vt 0.858600 0.546913
vt 0.952760 0.775447
vt 0.949627 0.632780
vt 0.735249 0.771285
vt 0.860146 0.838548
vt 0.774439 0.564907
vt 0.919384 0.812701
vt 0.970905 0.717712
vt 0.777328 0.832460
vt 0.857912 0.455075
vt 0.846499 0.355321
vt 0.735704 0.403191
vt 0.727198 0.347273
vt 0.776038 0.505453
vt 0.810729 0.278601
vt 0.682995 0.384110
vt 0.692513 0.437762
vt 0.823276 0.539002
vt 0.741417 0.230017
vt 0.673537 0.329046
vt 0.675353 0.576537
vt 0.818040 0.551673
vt 0.629257 0.364325
vt 0.626928 0.435150
vt 0.613340 0.561036
vt 0.704293 0.583746
vt 0.645672 0.236114
vt 0.590075 0.231829
vt 0.637358 0.190050
vt 0.514611 0.438446
vt 0.531701 0.327594
vt 0.553094 0.517776
vt 0.627739 0.196024
vt 0.287506 0.099481
vt 0.357541 0.186831
vt 0.268940 0.138969
vt 0.290295 0.239013
vt 0.246385 0.067783
vt 0.429815 0.118325
vt 0.387196 0.146968
vt 0.375713 0.067791
vt 0.460370 0.174333
vt 0.315604 0.133367
vt 0.623429 0.067685
vt 0.621504 0.132200
vt 0.613084 0.129624
vt 0.609788 0.142760
vt 0.408704 0.072921
vt 0.406455 0.067798
vt 0.411944 0.069492
vt 0.447344 0.134668
vt 0.042276 0.075893
vt 0.036659 0.073010
vt 0.039609 0.070805
vt 0.034399 0.067789
vt 0.557873 0.176578
vt 0.558987 0.067807
vt 0.629060 0.171574
vt 0.523263 0.906397
vt 0.575098 0.763092
vt 0.639925 0.922727
vt 0.663698 0.774082
vt 0.664447 0.696706
vt 0.669233 0.922012
vt 0.578544 0.682758
vt 0.730852 0.701732
vt 0.734877 0.881921
vt 0.665856 0.647463
vt 0.732234 0.766347
vt 0.735187 0.664438
vt 0.580001 0.648379
vt 0.691376 0.643210
vt 0.581385 0.624336
vt 0.668055 0.635111
vt 0.735443 0.638954
vt 0.580782 0.615700
vt 0.737127 0.620420
vt 0.546009 0.654157
vt 0.669765 0.611190
vt 0.666587 0.583002
vt 0.731026 0.584393
vt 0.584635 0.577480
vt 0.464716 0.089103
vt 0.470699 0.095091
vt 0.462696 0.093793
vt 0.555212 0.067807
vt 0.465117 0.195109
vt 0.550425 0.104477
vt 0.553226 0.145151
vt 0.551433 0.205776
vt 0.549641 0.209881
vt 0.450329 0.134048
vt 0.441065 0.067659
vt 0.455590 0.131885
vt 0.243572 0.090706
vt 0.057693 0.067801
vt 0.413188 0.202047
vt 0.449903 0.215130
vt 0.269689 0.161267
vn 0.029501 0.999551 -0.005238
vn 0.034923 0.976758 -0.211483
vn -0.012944 0.993366 -0.114264
vn 0.003780 0.971182 -0.238309
vn 0.018844 0.966021 -0.257775
vn 0.028329 0.989760 -0.139902
vn 0.041806 0.970919 -0.235728
vn 0.073155 -0.996891 0.029286
vn 0.073694 -0.997112 0.018381
vn 0.088700 -0.996028 -0.007796
vn 0.072979 -0.996432 -0.042404
vn 0.073151 -0.996435 -0.042040
vn 0.047921 -0.996273 -0.071716
vn 0.020147 -0.998944 -0.041296
vn 0.011712 -0.997037 -0.076021
vn -0.000152 -0.997723 -0.067441
vn -0.010750 -0.999796 -0.017079
vn -0.073998 -0.996439 -0.040419
vn -0.050304 -0.996815 -0.061876
vn -0.023583 -0.998947 -0.039364
vn -0.073130 -0.996422 -0.042363
vn -0.083659 -0.996484 -0.004611
vn -0.072770 -0.996432 0.042746
vn -0.071207 -0.997226 0.021696
vn -0.048676 -0.996420 0.069117
vn -0.000904 -0.997784 0.066524
vn -0.011682 -0.996493 0.082859
vn 0.032926 -0.997231 0.066674
vn 0.009952 -0.998571 0.052500
vn 0.046440 -0.998488 0.029419
vn -0.824979 0.497762 -0.267661
vn -0.934358 0.350809 0.062522
vn -0.897485 0.339959 -0.280977
vn -0.980751 0.194357 -0.018760
vn -0.830531 0.318808 0.456706
vn -0.973067 0.133687 0.187800
vn -0.756463 0.204345 0.621294
vn -0.559775 0.378709 0.737042
vn -0.619522 0.199661 0.759163
vn -0.603411 0.200699 0.771761
vn 0.801576 0.103321 0.588898
vn -0.064618 0.170518 0.983234
vn 0.763445 0.208841 0.611177
vn 0.369699 0.132680 0.919630
vn 0.603042 0.128788 0.787245
vn 0.573821 0.446377 0.686642
vn 0.769708 0.500830 0.395877
vn 0.875940 0.233350 0.422229
vn 0.904114 0.423839 0.054202
vn 0.916438 0.226918 -0.329620
vn 0.909520 0.125328 0.396315
vn 0.664906 0.612273 -0.427810
vn 0.774075 0.272580 -0.571409
vn 0.303764 0.849152 -0.432052
vn 0.626160 0.404215 -0.666734
vn 0.607305 0.382708 -0.696215
vn -0.176890 0.345342 -0.921655
vn -0.426939 0.257650 -0.866799
vn 0.009812 0.340692 -0.940124
vn 0.220018 0.213763 -0.951786
vn -0.936404 0.078542 -0.342021
vn -0.817077 0.389076 -0.425446
vn -0.948677 0.102300 -0.299244
vn -0.991022 -0.009582 -0.133353
vn -0.990076 0.106003 0.092266
vn -0.995653 0.031453 -0.087673
vn -0.981943 -0.012141 0.188788
vn -0.852759 -0.013675 0.522125
vn -0.817317 -0.151215 0.555992
vn -0.959302 0.066698 0.274392
vn -0.985535 -0.108899 0.129855
vn -0.461248 -0.405386 0.789248
vn -0.637996 0.044889 0.768730
vn -0.790483 0.154679 0.592630
vn -0.665610 0.133759 0.734215
vn -0.107706 0.248057 0.962740
vn -0.651196 0.104327 0.751705
vn 0.729408 0.103340 0.676228
vn 0.861318 0.023209 0.507536
vn 0.916694 -0.000619 0.399589
vn 0.943615 0.037632 0.328899
vn 0.879307 -0.002456 0.476249
vn 0.999976 0.002816 -0.006302
vn 0.907867 0.016962 -0.418916
vn 0.994361 0.071641 0.078186
vn 0.827342 0.283772 -0.484746
vn 0.736717 0.199779 -0.646016
vn -0.006092 -0.999178 0.040082
vn -0.999743 0.008271 -0.021113
vn -0.929994 0.287608 0.228894
vn 0.915492 -0.146933 0.374547
vn 0.997405 0.004246 -0.071875
vn 0.990979 -0.066406 0.116408
vn 0.884357 -0.007658 -0.466748
vn 0.957490 0.012175 -0.288209
vn 0.935248 0.097483 -0.340305
vn 0.600676 0.034109 -0.798765
vn -0.612979 -0.003433 0.790092
vn -0.383936 0.072412 0.920516
vn 0.711834 0.078728 0.697921
vn 0.676243 0.110934 0.728278
vn -0.047757 0.030146 0.998404
vn 0.009587 0.064783 0.997853
vn 0.869485 0.078084 0.487749
vn 0.773348 0.040980 0.632656
vn -0.889707 0.171879 0.422940
vn -0.515045 0.171888 0.839752
vn 0.136044 0.038314 -0.989962
vn -0.464313 0.027118 -0.885256
vn -0.848530 0.055189 -0.526261
vn -0.120486 0.206986 0.970897
vn 0.747093 0.221201 0.626835
vn -0.997231 0.045206 0.059055
vn -0.996321 0.017179 -0.083955
vn 0.959787 -0.006381 -0.280658
vn 0.957500 0.064563 -0.281113
vn 0.563771 -0.012017 -0.825844
vn 0.794093 -0.011037 -0.607696
vn -0.833871 0.080929 -0.545994
vn -0.371820 -0.015428 -0.928177
vn -0.280450 -0.147700 -0.948437
vn 0.022984 -0.015677 -0.999613
vn 0.138980 -0.108506 -0.984333
vn -0.825229 -0.117718 -0.552394
vn 0.596024 -0.013012 -0.802861
vn 0.610336 0.167764 -0.774174
vn 0.182008 0.162447 -0.969786
vn 0.398646 0.013954 -0.916999
vn -0.874062 0.038356 -0.484297
vn 0.618360 -0.028279 -0.785387
vn -0.471078 0.198187 -0.859539
vn -0.859445 0.078767 0.505125
vn -0.570643 0.080256 0.817267
vn -0.888891 0.323605 -0.324274
vn -0.935394 0.352935 0.021819
vn -0.262432 0.916637 -0.301507
vn -0.293115 0.943277 -0.155927
vn -0.137985 0.903379 -0.406039
vn -0.359289 0.924105 0.130160
vn -0.827919 0.408953 0.383807
vn -0.148763 0.962432 0.227143
vn -0.498869 0.591288 0.633648
vn 0.004312 0.907704 0.419589
vn -0.075537 0.711284 0.698834
vn 0.533919 0.639976 0.552594
vn 0.238279 0.922866 0.302558
vn 0.281686 0.947898 0.148804
vn 0.662399 0.622364 0.417003
vn 0.263643 0.941249 -0.211049
vn 0.850879 0.517459 -0.090780
vn 0.755154 0.387360 -0.528862
vn 0.251944 0.889584 -0.381005
vn 0.518021 0.467311 -0.716432
vn 0.182352 0.915281 -0.359179
vn 0.104394 0.526664 -0.843639
vn 0.045531 0.923563 -0.380734
vn -0.477069 0.466135 -0.745066
s 1
g pDisc1
usemtl initialShadingGroup
f 22/110/1 23/111/2 21/112/3
f 21/112/3 23/111/2 20/114/4
f 25/116/5 23/111/2 24/113/6
f 24/113/6 23/111/2 22/110/1
f 20/114/4 23/111/2 26/118/7
f 26/118/7 23/111/2 25/116/5
s 3
f 6/141/8 11/143/9 8/142/10
f 11/143/9 12/144/11 8/142/10
f 8/142/10 12/144/11 1/146/12
f 12/144/11 9/150/13 1/146/12
f 4/160/14 9/150/13 81/158/15
f 81/158/15 9/150/13 10/151/16
f 9/150/13 12/144/11 10/151/16
f 10/151/16 12/144/11 7/147/17
f 12/144/11 11/143/9 7/147/17
f 16/154/18 13/159/19 10/151/16
f 10/151/16 13/159/19 81/158/15
f 81/158/15 13/159/19 82/164/20
f 13/159/19 16/154/18 2/162/21
f 16/154/18 14/161/22 2/162/21
f 5/163/23 14/161/22 15/155/24
f 14/161/22 16/154/18 15/155/24
f 15/155/24 16/154/18 7/147/17
f 16/154/18 10/151/16 7/147/17
f 5/163/23 15/155/24 17/156/25
f 15/155/24 19/148/26 17/156/25
f 17/156/25 19/148/26 39/152/27
f 19/148/26 40/145/28 39/152/27
f 18/153/29 40/145/28 41/149/30
f 11/143/9 19/148/26 7/147/17
f 19/148/26 15/155/24 7/147/17
s 1
f 6/4/31 8/2/32 42/1/33
f 42/1/33 8/2/32 43/3/34
f 8/2/32 1/5/35 43/3/34
f 43/3/34 1/5/35 93/8/36
f 1/5/35 83/11/37 93/8/36
f 9/20/38 84/15/39 1/5/35
f 1/5/35 84/15/39 83/11/37
f 9/187/38 4/188/40 84/189/39
f 32/59/41 31/58/42 85/57/43
f 4/60/44 82/56/45 31/58/42
f 82/56/45 85/57/43 31/58/42
f 13/165/46 2/166/47 85/167/43
f 85/167/43 2/166/47 86/168/48
f 2/75/47 14/71/49 86/62/48
f 44/74/50 88/68/51 14/71/49
f 14/71/49 88/68/51 86/62/48
f 5/85/52 45/81/53 14/71/49
f 14/71/49 45/81/53 44/74/50
f 17/170/54 46/171/55 5/172/52
f 5/172/52 46/171/55 45/174/53
f 17/170/54 39/173/56 46/171/55
f 18/190/57 54/191/58 3/192/59
f 3/192/59 54/191/58 53/193/60
f 59/6/61 54/10/58 42/1/33
f 18/14/57 41/7/62 54/10/58
f 41/7/62 42/1/33 54/10/58
f 67/40/63 27/29/64 68/35/65
f 27/29/64 102/24/66 68/35/65
f 102/24/66 100/34/67 68/35/65
f 104/43/68 100/34/67 47/38/69
f 47/38/69 100/34/67 51/23/70
f 28/28/71 51/23/70 100/34/67
f 47/179/69 29/181/72 48/182/73
f 29/42/72 58/27/74 48/227/73
f 58/230/74 55/33/75 48/226/73
f 31/26/42 56/32/76 30/21/77
f 30/21/77 56/32/76 55/33/75
f 31/58/42 32/59/41 56/61/76
f 56/61/76 32/59/41 57/63/78
f 32/59/41 64/64/79 57/63/78
f 33/66/80 103/83/81 101/77/82
f 34/91/83 35/100/84 70/87/85
f 70/175/85 35/176/84 71/177/86
f 35/176/84 72/178/87 71/177/86
s 3
f 39/152/27 40/145/28 3/157/88
f 40/145/28 18/153/29 3/157/88
f 19/148/26 11/143/9 40/145/28
f 11/143/9 6/141/8 40/145/28
f 40/145/28 6/141/8 41/149/30
s 1
f 42/1/33 43/3/34 59/6/61
f 59/6/61 43/3/34 60/9/89
f 43/3/34 93/8/36 60/9/89
f 60/9/89 93/8/36 94/17/90
f 33/66/80 66/72/91 103/83/81
f 103/83/81 66/72/91 113/82/92
f 66/72/91 61/76/93 113/82/92
f 62/94/94 95/86/95 45/81/53
f 95/86/95 87/80/96 45/81/53
f 44/74/50 45/81/53 87/80/96
f 46/103/55 63/98/97 45/81/53
f 45/81/53 63/98/97 62/94/94
f 3/192/59 53/193/60 39/195/56
f 39/195/56 53/193/60 46/198/55
f 46/198/55 53/193/60 63/200/97
f 42/1/33 41/7/62 6/4/31
f 47/179/69 51/180/70 29/181/72
f 105/49/98 104/43/68 48/229/73
f 47/38/69 48/228/73 104/43/68
f 48/214/73 106/215/99 105/216/98
f 50/70/100 77/79/101 49/73/102
f 49/73/102 77/79/101 76/84/103
f 77/79/101 50/70/100 69/78/104
f 50/70/100 107/69/105 69/78/104
f 107/69/105 101/77/82 69/78/104
f 65/16/106 52/22/107 51/23/70
f 51/183/70 52/184/107 29/185/72
f 52/184/107 58/186/74 29/185/72
f 53/193/60 54/191/58 108/194/108
f 108/194/108 54/191/58 109/196/109
f 54/10/58 59/6/61 109/13/109
f 109/13/109 59/6/61 112/19/110
f 55/33/75 58/230/74 30/21/77
f 55/33/75 56/32/76 48/37/73
f 48/214/73 56/217/76 106/215/99
f 56/217/76 110/219/111 106/215/99
f 57/63/78 111/65/112 56/61/76
f 56/61/76 111/65/112 110/67/111
f 33/66/80 107/69/105 64/64/79
f 107/69/105 111/65/112 64/64/79
f 57/63/78 64/64/79 111/65/112
f 60/9/89 90/12/113 59/6/61
f 112/19/110 59/6/61 116/18/114
f 59/6/61 90/12/113 116/18/114
f 60/9/89 94/17/90 90/12/113
f 66/72/91 88/68/51 61/76/93
f 61/76/93 88/68/51 87/80/96
f 115/95/115 113/82/92 91/90/116
f 61/76/93 95/86/95 113/82/92
f 95/86/95 91/90/116 113/82/92
f 63/98/97 114/104/117 62/94/94
f 114/104/117 117/99/118 62/94/94
f 62/94/94 117/99/118 91/90/116
f 63/200/97 53/193/60 114/197/117
f 114/197/117 53/193/60 108/194/108
f 67/40/63 73/39/119 27/29/64
f 79/202/120 97/204/121 78/199/122
f 78/199/122 97/204/121 96/205/123
f 79/25/120 98/36/124 97/41/121
f 72/105/87 80/109/125 36/108/126
f 37/210/127 36/208/126 96/205/123
f 36/208/126 80/206/125 96/205/123
f 80/206/125 99/203/128 96/205/123
s 3
f 82/164/20 4/160/14 81/158/15
s 1
f 52/22/107 65/16/106 83/11/37
f 93/8/36 83/11/37 65/16/106
f 84/15/39 30/21/77 83/11/37
f 52/223/107 83/224/37 58/225/74
f 83/11/37 30/21/77 58/230/74
f 30/21/77 84/15/39 31/26/42
f 84/15/39 4/31/40 31/26/42
f 85/167/43 82/169/45 13/165/46
f 85/57/43 86/62/48 32/59/41
f 32/59/41 86/62/48 64/64/79
f 86/62/48 33/66/80 64/64/79
f 86/62/48 88/68/51 33/66/80
f 33/66/80 88/68/51 66/72/91
f 94/17/90 93/8/36 65/16/106
f 87/80/96 95/86/95 61/76/93
f 98/36/124 89/30/129 73/39/119
f 73/39/119 89/30/129 27/29/64
f 89/30/129 116/18/114 27/29/64
f 27/29/64 116/18/114 102/24/66
f 28/28/71 90/12/113 51/23/70
f 90/12/113 94/17/90 51/23/70
f 94/17/90 65/16/106 51/23/70
f 87/80/96 88/68/51 44/74/50
f 91/90/116 95/86/95 62/94/94
f 91/90/116 117/99/118 115/95/115
f 92/201/130 99/203/128 80/206/125
f 97/204/121 38/207/131 96/205/123
f 96/205/123 38/207/131 37/210/127
f 97/204/121 98/209/124 38/207/131
f 38/45/131 98/36/124 73/39/119
f 96/205/123 99/203/128 78/199/122
f 100/34/67 102/24/66 28/28/71
f 100/34/67 104/43/68 68/35/65
f 68/35/65 104/43/68 74/46/132
f 69/78/104 101/77/82 70/87/85
f 101/77/82 103/83/81 70/87/85
f 103/83/81 34/91/83 70/87/85
f 103/83/81 113/82/92 34/91/83
f 104/43/68 105/49/98 74/46/132
f 74/46/132 105/49/98 75/52/133
f 76/221/103 75/218/133 49/220/102
f 105/216/98 106/215/99 75/218/133
f 106/215/99 49/220/102 75/218/133
f 101/77/82 107/69/105 33/66/80
f 108/194/108 109/196/109 78/199/122
f 78/199/122 109/196/109 79/202/120
f 109/13/109 112/19/110 79/25/120
f 112/19/110 89/30/129 79/25/120
f 89/30/129 98/36/124 79/25/120
f 106/215/99 110/219/111 49/220/102
f 111/65/112 50/70/100 110/67/111
f 110/67/111 50/70/100 49/73/102
f 111/65/112 107/69/105 50/70/100
f 112/19/110 116/18/114 89/30/129
f 113/82/92 115/95/115 34/91/83
f 34/91/83 115/95/115 35/100/84
f 117/99/118 114/104/117 92/106/130
f 114/197/117 108/194/108 92/201/130
f 92/201/130 108/194/108 99/203/128
f 108/194/108 78/199/122 99/203/128
f 116/18/114 90/12/113 102/24/66
f 102/24/66 90/12/113 28/28/71
f 115/95/115 117/99/118 35/100/84
f 117/99/118 92/106/130 35/100/84
f 35/100/84 92/106/130 72/105/87
f 92/106/130 80/109/125 72/105/87
f 119/44/134 121/48/135 118/51/136
f 118/51/136 121/48/135 120/55/137
f 118/125/136 140/124/138 119/135/134
f 120/55/137 121/48/135 122/54/139
f 122/54/139 121/48/135 123/50/140
f 122/121/139 123/127/140 124/115/141
f 124/115/141 123/127/140 125/126/142
f 124/115/141 125/126/142 126/120/143
f 126/120/143 125/126/142 127/132/144
f 127/132/144 129/130/145 126/120/143
f 126/120/143 129/130/145 128/117/146
f 128/117/146 129/130/145 130/123/147
f 130/123/147 129/130/145 131/134/148
f 130/102/147 131/88/148 132/97/149
f 132/97/149 131/88/148 133/92/150
f 133/139/150 135/133/151 132/122/149
f 132/122/149 135/133/151 134/129/152
f 135/133/151 137/138/153 134/129/152
f 134/129/152 137/138/153 136/128/154
f 137/138/153 139/136/155 136/128/154
f 136/128/154 139/136/155 138/131/156
f 138/131/156 139/136/155 140/124/138
f 118/125/136 120/119/137 20/114/4
f 20/114/4 120/119/137 21/112/3
f 120/119/137 122/121/139 21/112/3
f 21/112/3 122/121/139 124/115/141
f 126/120/143 22/110/1 124/115/141
f 124/115/141 22/110/1 21/112/3
f 126/120/143 128/117/146 22/110/1
f 22/110/1 128/117/146 24/113/6
f 128/117/146 130/123/147 24/113/6
f 24/113/6 130/123/147 132/122/149
f 134/129/152 25/116/5 132/122/149
f 132/122/149 25/116/5 24/113/6
f 134/129/152 136/128/154 25/116/5
f 25/116/5 136/128/154 26/118/7
f 136/128/154 138/131/156 26/118/7
f 26/118/7 138/131/156 140/124/138
f 118/125/136 20/114/4 140/124/138
f 140/124/138 20/114/4 26/118/7
f 36/208/126 37/210/127 137/212/153
f 137/212/153 37/210/127 139/211/155
f 37/210/127 38/207/131 139/211/155
f 139/211/155 38/207/131 141/213/157
f 38/45/131 73/39/119 141/47/157
f 119/44/134 141/47/157 67/40/63
f 73/39/119 67/40/63 141/47/157
f 67/40/63 68/35/65 119/44/134
f 119/44/134 68/35/65 121/48/135
f 74/46/132 123/50/140 68/35/65
f 68/35/65 123/50/140 121/48/135
f 70/87/85 133/92/150 69/78/104
f 69/78/104 133/92/150 131/88/148
f 71/101/86 135/96/151 70/87/85
f 70/87/85 135/96/151 133/92/150
f 71/101/86 72/105/87 135/96/151
f 135/96/151 72/105/87 137/107/153
f 72/105/87 36/108/126 137/107/153
f 75/52/133 125/53/142 74/46/132
f 74/46/132 125/53/142 123/50/140
f 76/221/103 127/222/144 75/218/133
f 75/137/133 127/132/144 125/126/142
f 77/79/101 129/89/145 76/84/103
f 76/84/103 129/89/145 127/93/144
f 129/89/145 77/79/101 131/88/148
f 77/79/101 69/78/104 131/88/148
f 119/135/134 140/124/138 141/140/157
f 141/140/157 140/124/138 139/136/155
