# This file uses centimeters as units for non-parametric coordinates.

mtllib BookStack.mtl
g default
v -49.028717 82.787321 64.256753
v -49.052070 81.658273 63.104361
v -50.181119 80.699152 64.301953
v -50.181119 81.588751 65.885277
v 49.818881 81.588751 65.885277
v 49.818881 80.660427 64.324162
v 48.666261 81.634707 63.104361
v 48.666479 82.787321 64.256753
v -50.181119 61.728502 64.324162
v -49.028499 60.754223 63.104361
v -49.052493 59.601608 64.232972
v -50.181119 60.821772 65.935384
v 49.818881 60.821772 65.935384
v 48.666479 59.601608 64.256753
v 48.689832 60.730657 63.104361
v 49.818881 61.728502 64.324162
v -48.985420 60.574119 130.544494
v -50.181119 60.747502 129.389092
v -48.985420 59.601608 129.161157
v 48.623182 59.601608 129.161157
v 49.818881 60.747502 129.389092
v 48.623182 60.574119 130.544494
v -48.990102 63.492420 126.900661
v -50.181119 62.376613 128.138553
v -49.035557 62.944063 129.203510
v -46.703930 63.492420 127.626394
v 46.341692 63.492420 127.626394
v 48.631857 62.924214 129.227529
v 49.818881 62.381369 128.140257
v 48.627864 63.492420 126.900661
v 48.627864 78.896510 126.900661
v 49.818881 80.012317 128.138553
v 48.673318 79.444866 129.203510
v 46.341692 78.896510 127.626394
v -46.703930 78.896510 127.626394
v -48.994096 79.464715 129.227529
v -50.181119 80.007561 128.140257
v -48.990102 78.896510 126.900661
v 48.659341 63.492420 68.972345
v 49.818881 62.319958 67.695458
v 49.818881 63.602429 66.603219
v 48.671557 64.639743 67.812808
v 48.671557 77.749186 67.812808
v 49.818881 78.787217 66.611069
v 49.818881 80.082967 67.694064
v 48.659341 78.896510 68.972345
v -49.033795 64.639743 67.812808
v -50.181119 63.601712 66.611069
v -50.181119 62.305962 67.694064
v -49.021579 63.492420 68.972345
v -49.021579 78.896510 68.972345
v -50.181119 80.068972 67.695458
v -50.181119 78.786500 66.603219
v -49.033795 77.749186 67.812808
v -48.985420 62.205169 130.097689
v -50.181119 61.176651 129.543462
v -48.985420 60.574315 130.544559
v 48.623182 60.574315 130.544559
v 49.818881 61.176651 129.543462
v 48.623182 62.205169 130.097689
v -48.985420 81.814614 130.544559
v -50.181119 81.212278 129.543462
v -48.985420 80.183761 130.097689
v -48.985420 82.787321 129.161157
v -50.181119 81.641427 129.389092
v -48.985420 81.814810 130.544494
v 48.623182 80.183761 130.097689
v 49.818881 81.212278 129.543462
v 48.623182 81.814614 130.544559
v 48.623182 81.814810 130.544494
v 49.818881 81.641427 129.389092
v 48.623182 82.787321 129.161157
v -41.729771 63.492420 122.769026
v -40.880288 63.492420 124.224708
v -39.317970 64.671416 123.074220
v -40.496968 64.650955 121.915678
v 40.134729 64.650955 121.915678
v 38.952912 64.674235 123.074220
v 40.512334 63.492420 124.207566
v 41.367532 63.492420 122.769026
v 41.367532 78.896510 122.769026
v 40.518050 78.896510 124.224708
v 38.955732 77.717513 123.074220
v 40.134729 77.737975 121.915678
v -40.496968 77.737975 121.915678
v -39.315151 77.714695 123.074220
v -40.874572 78.896510 124.207566
v -41.729771 78.896510 122.769026
v 40.134729 64.668599 68.988992
v 41.310908 63.492420 68.988992
v 41.310908 64.668599 67.812808
v 40.134729 77.720330 68.988992
v 41.310908 77.720330 67.812808
v 41.310908 78.896510 68.988992
v -41.673146 64.668599 67.812808
v -41.673146 63.492420 68.988992
v -40.496968 64.668599 68.988992
v -40.496968 77.720330 68.988992
v -41.673146 78.896510 68.988992
v -41.673146 77.720330 67.812808
vt 0.595319 0.215406
vt 0.603676 0.209907
vt 0.929559 0.210148
vt 0.928390 0.215406
vt 0.595551 0.205825
vt 0.589405 0.210226
vt 0.589405 0.114313
vt 0.595665 0.118784
vt 0.607360 0.197049
vt 0.612965 0.202933
vt 0.603933 0.114623
vt 0.612958 0.121433
vt 0.607400 0.127378
vt 0.595197 0.109025
vt 0.928390 0.109025
vt 0.929559 0.114282
vt 0.935489 0.113487
vt 0.935489 0.113488
vt 0.930352 0.116251
vt 0.923142 0.121757
vt 0.916790 0.126877
vt 0.619518 0.126877
vt 0.928607 0.124361
vt 0.933196 0.120971
vt 0.923151 0.202652
vt 0.928730 0.200161
vt 0.933196 0.203460
vt 0.930352 0.208179
vt 0.916790 0.197554
vt 0.619518 0.197554
vt 0.613567 0.132141
vt 0.613567 0.192290
vt 0.935489 0.210943
vt 0.935489 0.210944
vt 0.920514 0.126877
vt 0.920514 0.197554
vt 0.904715 0.103389
vt 0.912875 0.109025
vt 0.587669 0.109025
vt 0.586527 0.103637
vt 0.912537 0.099024
vt 0.895652 0.096309
vt 0.901078 0.090216
vt 0.918649 0.103605
vt 0.912537 0.010006
vt 0.918649 0.005314
vt 0.904464 0.005742
vt 0.901118 0.018817
vt 0.895645 0.012787
vt 0.912875 0.000005
vt 0.586527 0.005393
vt 0.587669 0.000005
vt 0.580738 0.004578
vt 0.585753 0.007411
vt 0.580737 0.004579
vt 0.592784 0.013076
vt 0.587336 0.015628
vt 0.582976 0.012247
vt 0.598995 0.018300
vt 0.889247 0.018300
vt 0.592793 0.095977
vt 0.598995 0.090730
vt 0.889247 0.090730
vt 0.587457 0.093309
vt 0.585753 0.101619
vt 0.582976 0.096783
vt 0.895057 0.023695
vt 0.895057 0.085335
vt 0.580737 0.104451
vt 0.580738 0.104452
vt 0.595359 0.018300
vt 0.595359 0.090730
vt 0.433386 0.443918
vt 0.440778 0.446684
vt 0.442083 0.676829
vt 0.434954 0.677705
vt 0.433550 0.436998
vt 0.441985 0.439664
vt 0.498198 0.447032
vt 0.498244 0.676123
vt 0.441305 0.683854
vt 0.496906 0.439810
vt 0.505573 0.444224
vt 0.505377 0.676979
vt 0.499105 0.683301
vt 0.505375 0.437323
vt 0.533297 0.666374
vt 0.526180 0.669784
vt 0.507062 0.437815
vt 0.514241 0.438077
vt 0.535183 0.673464
vt 0.526950 0.676646
vt 0.512787 0.430995
vt 0.570149 0.432713
vt 0.590547 0.661956
vt 0.589927 0.669052
vt 0.570342 0.425648
vt 0.598144 0.664099
vt 0.577181 0.431249
vt 0.598554 0.671009
vt 0.612797 0.845972
vt 0.609729 0.836032
vt 0.624683 0.810893
vt 0.630967 0.814627
vt 0.612947 0.432499
vt 0.627573 0.457898
vt 0.864027 0.848112
vt 0.864209 0.816242
vt 0.602407 0.846086
vt 0.605658 0.422508
vt 0.616174 0.422609
vt 0.633841 0.454239
vt 0.867406 0.424476
vt 0.867080 0.456345
vt 0.323969 0.445621
vt 0.327037 0.455561
vt 0.312082 0.480700
vt 0.305798 0.476965
vt 0.323801 0.859094
vt 0.309177 0.833694
vt 0.072739 0.443470
vt 0.072555 0.475340
vt 0.334360 0.445507
vt 0.331090 0.869086
vt 0.320574 0.868984
vt 0.302908 0.837353
vt 0.069342 0.867106
vt 0.069669 0.835237
vt 0.326703 0.446121
vt 0.290369 0.024348
vt 0.570809 0.000000
vt 0.607176 0.422148
vt 0.036272 0.446236
vt 0.000000 0.023976
vt 0.280473 0.000003
vt 0.316807 0.421777
vt 0.178823 0.903873
vt 0.177688 0.896968
vt 0.594758 0.822239
vt 0.596004 0.829198
vt 0.612100 0.918420
vt 0.194919 0.993095
vt 0.196051 1.000000
vt 0.613235 0.925325
vt 0.341028 0.863280
vt 0.333707 0.862500
vt 0.380987 0.441813
vt 0.388275 0.442632
vt 0.341062 0.863324
vt 0.388318 0.442594
vt 0.348321 0.864142
vt 0.395587 0.443454
vt 0.400456 0.443963
vt 0.353296 0.864920
vt 0.998478 0.004094
vt 0.997633 0.011118
vt 0.965956 0.007158
vt 0.966870 0.000003
vt 0.990359 0.067508
vt 0.958714 0.063300
vt 0.989394 0.074517
vt 0.957783 0.070453
vt 0.580737 0.025391
vt 0.580798 0.018317
vt 0.612669 0.018300
vt 0.612661 0.025514
vt 0.580742 0.082248
vt 0.612666 0.082120
vt 0.580804 0.089323
vt 0.612674 0.089334
vt 0.978999 0.422502
vt 0.971695 0.423106
vt 0.936811 0.001210
vt 0.944120 0.000606
vt 0.966819 0.423547
vt 0.931780 0.001408
vt 0.979004 0.422498
vt 0.944125 0.000609
vt 0.986310 0.421898
vt 0.951435 0.000001
vt 0.903594 0.560153
vt 0.896966 0.567435
vt 0.871106 0.215378
vt 0.878685 0.221602
vt 0.935101 0.217437
vt 0.960010 0.555988
vt 0.941729 0.210155
vt 0.967589 0.562212
vn -0.008744 0.999813 -0.017267
vn -0.875665 0.482855 -0.007855
vn -0.925284 0.379257 0.003711
vn -0.011981 0.999823 0.014506
vn -0.005295 0.053027 -0.998579
vn 0.008752 0.999813 -0.017222
vn 0.005373 0.053021 -0.998579
vn -0.829686 0.012759 -0.558085
vn -0.005380 -0.052625 -0.998600
vn -0.830152 -0.013774 -0.557367
vn -0.996192 -0.025252 0.083450
vn -0.957647 -0.287930 0.002979
vn 0.874980 0.484087 -0.008381
vn 0.011981 0.999823 0.014506
vn 0.924815 0.380398 0.003722
vn 0.831749 0.013270 -0.554993
vn 0.957488 -0.288457 0.002933
vn 0.996139 -0.025420 0.084028
vn 0.831255 -0.012975 -0.555740
vn 0.005336 -0.052520 -0.998606
vn -0.877562 -0.479395 -0.008137
vn -0.956968 0.290180 0.002951
vn -0.996178 0.025293 0.083608
vn -0.008759 -0.999814 -0.017183
vn 0.008793 -0.999812 -0.017265
vn -0.012086 -0.999822 0.014501
vn -0.925990 -0.377529 0.003740
vn 0.876411 -0.481498 -0.007949
vn 0.996143 0.025412 0.083980
vn 0.957115 0.289692 0.002997
vn 0.925154 -0.379574 0.003651
vn 0.012084 -0.999822 0.014500
vn -0.005380 -0.817565 0.575811
vn 0.005380 -0.817565 0.575811
vn -0.003896 0.262788 0.964846
vn -0.999919 0.005078 0.011689
vn 0.999920 0.005096 0.011594
vn 0.003896 0.262788 0.964846
vn -0.247743 0.968822 0.002766
vn -0.002458 0.979294 0.202429
vn -0.002434 0.990256 0.139239
vn -0.083444 0.996511 0.001898
vn -0.948596 0.316288 0.011276
vn -0.170659 0.985105 0.021078
vn -0.011957 0.868023 0.496379
vn -0.010804 0.494822 0.868927
vn 0.011900 0.868368 0.495778
vn 0.002576 0.979463 0.201610
vn 0.246009 0.969263 0.002963
vn 0.083429 0.996512 0.001903
vn 0.002462 0.990223 0.139474
vn 0.948606 0.316253 0.011404
vn 0.010739 0.493973 0.869411
vn 0.169554 0.985296 0.021058
vn 0.247743 -0.968822 0.002766
vn 0.002458 -0.979294 0.202429
vn 0.002434 -0.990256 0.139239
vn 0.083444 -0.996511 0.001898
vn 0.949063 -0.314886 0.011226
vn 0.170659 -0.985105 0.021078
vn 0.011957 -0.868023 0.496379
vn 0.999920 -0.005041 0.011606
vn 0.010804 -0.494822 0.868927
vn -0.011900 -0.868368 0.495778
vn -0.002576 -0.979463 0.201610
vn -0.246009 -0.969263 0.002963
vn -0.083429 -0.996512 0.001903
vn -0.002462 -0.990223 0.139474
vn -0.949073 -0.314851 0.011354
vn -0.010739 -0.493973 0.869411
vn -0.999921 -0.005057 0.011512
vn -0.169554 -0.985296 0.021058
vn 0.225214 0.067862 0.971943
vn 0.129629 0.073761 0.988815
vn 0.128639 0.991530 0.017887
vn 0.225324 -0.067931 0.971913
vn 0.128639 -0.991530 0.017887
vn 0.129629 -0.073761 0.988815
vn -0.225324 0.067931 0.971913
vn -0.128639 0.991530 0.017887
vn -0.129629 0.073761 0.988815
vn -0.225214 -0.067862 0.971943
vn -0.129629 -0.073761 0.988815
vn -0.128639 -0.991530 0.017887
vn -0.003896 -0.262788 0.964846
vn 0.003896 -0.262788 0.964846
vn -0.005380 0.817565 0.575811
vn 0.005380 0.817565 0.575811
vn -0.994988 0.097848 0.020605
vn -0.996264 0.083858 0.020644
vn -0.014828 0.095785 0.995292
vn 0.014877 0.095681 0.995301
vn -0.014877 -0.095681 0.995301
vn -0.994990 -0.097842 0.020543
vn 0.994990 0.097842 0.020543
vn 0.996264 0.083858 0.020644
vn 0.994988 -0.097848 0.020605
vn 0.014828 -0.095785 0.995292
vn 0.996264 -0.083858 0.020644
vn -0.996264 -0.083858 0.020644
s 1
g Books4 Book_Stack
usemtl initialShadingGroup
f 1/1/1 4/2/2 65/3/3 64/4/4
f 2/137/5 1/138/1 8/139/6 7/140/7
f 3/5/8 2/6/5 10/7/9 9/8/10
f 4/2/2 3/5/8 53/9/11 52/10/12
f 5/37/13 8/38/6 72/39/14 71/40/15
f 6/41/16 5/37/13 45/42/17 44/43/18
f 7/44/7 6/41/16 16/45/19 15/46/20
f 9/8/10 12/11/21 49/12/22 48/13/23
f 11/143/24 10/142/9 15/141/20 14/144/25
f 12/11/21 11/14/24 19/15/26 18/16/27
f 13/47/28 16/45/19 41/48/29 40/49/30
f 14/50/25 13/47/28 21/51/31 20/52/32
f 17/145/33 19/146/26 20/147/32 22/148/34
f 18/16/27 17/17/33 57/18/35 56/19/36
f 22/53/34 21/51/31 59/54/37 58/55/38
f 23/101/39 26/102/40 74/103/41 73/104/42
f 24/20/43 23/21/39 50/22/44 49/12/22
f 25/23/45 24/20/43 56/19/36 55/24/46
f 26/102/40 25/109/45 28/110/47 27/105/48
f 27/105/48 30/111/49 80/112/50 79/106/51
f 29/56/52 28/57/47 60/58/53 59/54/37
f 30/59/49 29/56/52 40/49/30 39/60/54
f 31/115/55 34/116/56 82/117/57 81/118/58
f 32/61/59 31/62/55 46/63/60 45/42/17
f 33/64/61 32/61/59 68/65/62 67/66/63
f 34/116/56 33/123/61 36/124/64 35/119/65
f 35/119/65 38/125/66 88/126/67 87/120/68
f 37/25/69 36/26/64 63/27/70 62/28/71
f 38/29/66 37/25/69 52/10/12 51/30/72
f 39/155/54 42/156/73 91/157/74 90/158/75
f 42/67/73 41/48/29 44/43/18 43/68/76
f 43/159/76 46/161/60 94/162/77 93/160/78
f 47/163/79 50/164/44 96/165/80 95/166/81
f 48/13/23 47/31/79 54/32/82 53/9/11
f 51/169/72 54/167/82 100/168/83 99/170/84
f 55/151/46 57/149/35 58/150/38 60/152/53
f 61/171/85 63/172/70 67/173/63 69/174/86
f 62/28/71 61/33/85 66/34/87 65/3/3
f 64/179/4 66/177/87 70/178/88 72/180/14
f 69/69/86 68/65/62 71/40/15 70/70/88
f 73/73/42 76/74/89 97/75/90 96/76/80
f 75/181/91 74/182/41 79/183/51 78/184/92
f 76/74/89 75/78/91 86/82/93 85/79/94
f 77/87/95 80/88/50 90/89/75 89/90/96
f 78/91/92 77/87/95 84/95/97 83/96/98
f 81/98/58 84/95/97 92/94/99 94/99/77
f 83/185/98 82/187/57 87/188/68 86/186/93
f 85/79/94 88/83/67 99/84/84 98/80/100
f 89/90/96 91/93/74 93/97/78 92/94/99
f 95/81/81 97/75/90 98/80/100 100/85/83
f 75/181/91 78/184/92 83/185/98 86/186/93
f 64/129/4 72/130/14 8/131/6 1/132/1
f 2/137/5 7/140/7 15/141/20 10/142/9
f 11/133/24 14/134/25 20/135/32 19/136/26
f 77/87/95 89/90/96 92/94/99 84/95/97
f 97/75/90 76/74/89 85/79/94 98/80/100
f 55/151/46 60/152/53 28/153/47 25/154/45
f 67/173/63 63/172/70 36/175/64 33/176/61
f 16/45/19 6/41/16 44/43/18 41/48/29
f 5/37/13 71/40/15 68/65/62 32/61/59 45/42/17
f 12/11/21 18/16/27 56/19/36 24/20/43 49/12/22
f 3/5/8 9/8/10 48/13/23 53/9/11
f 59/54/37 21/51/31 13/47/28 40/49/30 29/56/52
f 62/28/71 65/3/3 4/2/2 52/10/12 37/25/69
f 57/149/35 17/145/33 22/148/34 58/150/38
f 66/177/87 61/171/85 69/174/86 70/178/88
f 26/102/40 27/105/48 79/106/51 74/103/41
f 34/116/56 35/119/65 87/120/68 82/117/57
f 30/111/49 39/113/54 90/114/75 80/112/50
f 42/156/73 43/159/76 93/160/78 91/157/74
f 46/121/60 31/115/55 81/118/58 94/122/77
f 50/107/44 23/101/39 73/104/42 96/108/80
f 38/125/66 51/127/72 99/128/84 88/126/67
f 54/167/82 47/163/79 95/166/81 100/168/83
f 1/1/1 2/6/5 3/5/8 4/2/2
f 5/37/13 6/41/16 7/44/7 8/38/6
f 9/8/10 10/7/9 11/14/24 12/11/21
f 13/47/28 14/50/25 15/46/20 16/45/19
f 17/17/33 18/16/27 19/15/26
f 20/52/32 21/51/31 22/53/34
f 23/21/39 24/20/43 25/23/45 26/35/40
f 27/71/48 28/57/47 29/56/52 30/59/49
f 31/62/55 32/61/59 33/64/61 34/72/56
f 35/36/65 36/26/64 37/25/69 38/29/66
f 39/60/54 40/49/30 41/48/29 42/67/73
f 43/68/76 44/43/18 45/42/17 46/63/60
f 47/31/79 48/13/23 49/12/22 50/22/44
f 51/30/72 52/10/12 53/9/11 54/32/82
f 55/24/46 56/19/36 57/18/35
f 58/55/38 59/54/37 60/58/53
f 61/33/85 62/28/71 63/27/70
f 64/4/4 65/3/3 66/34/87
f 67/66/63 68/65/62 69/69/86
f 70/70/88 71/40/15 72/39/14
f 73/73/42 74/77/41 75/78/91 76/74/89
f 77/87/95 78/91/92 79/92/51 80/88/50
f 81/98/58 82/100/57 83/96/98 84/95/97
f 85/79/94 86/82/93 87/86/68 88/83/67
f 89/90/96 90/89/75 91/93/74
f 92/94/99 93/97/78 94/99/77
f 95/81/81 96/76/80 97/75/90
f 98/80/100 99/84/84 100/85/83
g default
v 44.199360 58.890430 137.761728
v 44.082988 57.761382 138.908467
v 45.348755 56.802261 137.856415
v 45.540494 57.691860 136.284743
v -53.723553 57.691860 124.174868
v -53.912602 56.763536 125.724494
v -52.916181 57.737816 127.074899
v -52.776844 58.890430 125.930962
v 45.351444 37.831612 137.834370
v 44.059591 36.857332 138.905613
v 44.220082 35.704718 137.788213
v 45.546561 36.924882 136.235006
v -53.717485 36.924882 124.125130
v -52.776844 35.704718 125.930962
v -52.939579 36.833766 127.072045
v -53.912602 37.831612 125.724494
v 52.183745 36.677229 71.956590
v 53.230726 36.850612 73.248287
v 52.016225 35.704718 73.329747
v -44.874024 35.704718 61.509467
v -46.033320 36.850612 61.138412
v -44.706503 36.677229 60.136310
v 51.747129 39.595529 75.574174
v 53.079288 38.479722 74.489623
v 52.071121 39.047172 73.293777
v 49.565667 39.595529 74.576930
v -42.795182 39.595529 63.309221
v -44.874598 39.027324 61.442533
v -46.184552 38.484478 62.378056
v -45.152414 39.595529 63.752760
v -45.152414 54.999619 63.752760
v -46.184759 56.115426 62.379748
v -44.918662 55.547976 61.461354
v -42.795182 54.999619 63.309221
v 49.565667 54.999619 74.576930
v 52.032874 55.567824 73.264914
v 53.079494 56.110670 74.487932
v 51.747129 54.999619 75.574174
v -52.198707 39.595529 121.250938
v -53.504342 38.423067 122.378009
v -53.636611 39.705538 123.462210
v -52.351251 40.742853 122.400462
v -52.351251 53.852295 122.400462
v -53.635660 54.890326 123.454418
v -53.504511 56.186076 122.379393
v -52.198707 54.999619 121.250938
v 44.635035 40.742853 134.232459
v 45.628386 39.704822 135.564294
v 45.759535 38.409072 134.489268
v 44.763328 39.595529 133.079976
v 44.763328 54.999619 133.079976
v 45.759704 56.172081 134.487884
v 45.627435 54.889610 135.572085
v 44.635035 53.852295 134.232459
v 52.129637 38.308278 72.400107
v 53.249420 37.279760 73.095054
v 52.183753 36.677424 71.956526
v -44.706495 36.677424 60.136246
v -46.014626 37.279760 60.985178
v -44.760611 38.308278 60.579827
v 52.183753 57.917724 71.956526
v 53.249420 57.315388 73.095054
v 52.129637 56.286870 72.400107
v 52.016225 58.890430 73.329747
v 53.230726 57.744536 73.248287
v 52.183745 57.917919 71.956590
v -44.760611 56.286870 60.579827
v -46.014626 57.315388 60.985178
v -44.706495 57.917724 60.136246
v -44.706503 57.917919 60.136310
v -46.033320 57.744536 61.138412
v -44.874024 58.890430 61.509467
v 44.039894 39.595529 78.796184
v 43.372945 39.595529 77.248345
v 41.682802 40.774525 78.201171
v 42.712825 40.754064 79.493962
v -37.325461 40.754064 69.729564
v -36.012043 40.777344 68.722664
v -37.422741 39.595529 67.408815
v -38.445851 39.595529 68.733205
v -38.445851 54.999619 68.733205
v -37.426339 54.999619 67.391107
v -36.014842 53.820623 68.722323
v -37.325461 53.841084 69.729564
v 42.712825 53.841084 79.493962
v 41.680003 53.817804 78.200829
v 43.365195 54.999619 77.264668
v 44.039894 54.999619 78.796184
v -43.734816 40.771708 122.266734
v -44.902339 39.595529 122.124300
v -45.044773 40.771708 123.291828
v -43.734816 53.823440 122.266734
v -45.044773 53.823440 123.291828
v -44.902339 54.999619 122.124300
v 37.328557 40.771708 133.341093
v 37.470991 39.595529 132.173566
v 36.303469 40.771708 132.031132
v 36.303469 53.823440 132.031132
v 37.470991 54.999619 132.173566
v 37.328557 53.823440 133.341093
vt 0.595319 0.215406
vt 0.603676 0.209907
vt 0.929559 0.210148
vt 0.928390 0.215406
vt 0.595551 0.205825
vt 0.589405 0.210226
vt 0.589405 0.114313
vt 0.595665 0.118784
vt 0.607360 0.197049
vt 0.612965 0.202933
vt 0.603933 0.114623
vt 0.612958 0.121433
vt 0.607400 0.127378
vt 0.595197 0.109025
vt 0.928390 0.109025
vt 0.929559 0.114282
vt 0.935489 0.113487
vt 0.935489 0.113488
vt 0.930352 0.116251
vt 0.923142 0.121757
vt 0.916790 0.126877
vt 0.619518 0.126877
vt 0.928607 0.124361
vt 0.933196 0.120971
vt 0.923151 0.202652
vt 0.928730 0.200161
vt 0.933196 0.203460
vt 0.930352 0.208179
vt 0.916790 0.197554
vt 0.619518 0.197554
vt 0.613567 0.132141
vt 0.613567 0.192290
vt 0.935489 0.210943
vt 0.935489 0.210944
vt 0.920514 0.126877
vt 0.920514 0.197554
vt 0.904715 0.103389
vt 0.912875 0.109025
vt 0.587669 0.109025
vt 0.586527 0.103637
vt 0.912537 0.099024
vt 0.895652 0.096309
vt 0.901078 0.090216
vt 0.918649 0.103605
vt 0.912537 0.010006
vt 0.918649 0.005314
vt 0.904464 0.005742
vt 0.901118 0.018817
vt 0.895645 0.012787
vt 0.912875 0.000005
vt 0.586527 0.005393
vt 0.587669 0.000005
vt 0.580738 0.004578
vt 0.585753 0.007411
vt 0.580737 0.004579
vt 0.592784 0.013076
vt 0.587336 0.015628
vt 0.582976 0.012247
vt 0.598995 0.018300
vt 0.889247 0.018300
vt 0.592793 0.095977
vt 0.598995 0.090730
vt 0.889247 0.090730
vt 0.587457 0.093309
vt 0.585753 0.101619
vt 0.582976 0.096783
vt 0.895057 0.023695
vt 0.895057 0.085335
vt 0.580737 0.104451
vt 0.580738 0.104452
vt 0.595359 0.018300
vt 0.595359 0.090730
vt 0.433386 0.443918
vt 0.440778 0.446684
vt 0.442083 0.676829
vt 0.434954 0.677705
vt 0.433550 0.436998
vt 0.441985 0.439664
vt 0.498198 0.447032
vt 0.498244 0.676123
vt 0.441305 0.683854
vt 0.496906 0.439810
vt 0.505573 0.444224
vt 0.505377 0.676979
vt 0.499105 0.683301
vt 0.505375 0.437323
vt 0.533297 0.666374
vt 0.526180 0.669784
vt 0.507062 0.437815
vt 0.514241 0.438077
vt 0.535183 0.673464
vt 0.526950 0.676646
vt 0.512787 0.430995
vt 0.570149 0.432713
vt 0.590547 0.661956
vt 0.589927 0.669052
vt 0.570342 0.425648
vt 0.598144 0.664099
vt 0.577181 0.431249
vt 0.598554 0.671009
vt 0.612797 0.845972
vt 0.609729 0.836032
vt 0.624683 0.810893
vt 0.630967 0.814627
vt 0.612947 0.432499
vt 0.627573 0.457898
vt 0.864027 0.848112
vt 0.864209 0.816242
vt 0.602407 0.846086
vt 0.605658 0.422508
vt 0.616174 0.422609
vt 0.633841 0.454239
vt 0.867406 0.424476
vt 0.867080 0.456345
vt 0.323969 0.445621
vt 0.327037 0.455561
vt 0.312082 0.480700
vt 0.305798 0.476965
vt 0.323801 0.859094
vt 0.309177 0.833694
vt 0.072739 0.443470
vt 0.072555 0.475340
vt 0.334360 0.445507
vt 0.331090 0.869086
vt 0.320574 0.868984
vt 0.302908 0.837353
vt 0.069342 0.867106
vt 0.069669 0.835237
vt 0.326703 0.446121
vt 0.290369 0.024348
vt 0.570809 0.000000
vt 0.607176 0.422148
vt 0.036272 0.446236
vt 0.000000 0.023976
vt 0.280473 0.000003
vt 0.316807 0.421777
vt 0.178823 0.903873
vt 0.177688 0.896968
vt 0.594758 0.822239
vt 0.596004 0.829198
vt 0.612100 0.918420
vt 0.194919 0.993095
vt 0.196051 1.000000
vt 0.613235 0.925325
vt 0.341028 0.863280
vt 0.333707 0.862500
vt 0.380987 0.441813
vt 0.388275 0.442632
vt 0.341062 0.863324
vt 0.388318 0.442594
vt 0.348321 0.864142
vt 0.395587 0.443454
vt 0.400456 0.443963
vt 0.353296 0.864920
vt 0.998478 0.004094
vt 0.997633 0.011118
vt 0.965956 0.007158
vt 0.966870 0.000003
vt 0.990359 0.067508
vt 0.958714 0.063300
vt 0.989394 0.074517
vt 0.957783 0.070453
vt 0.580737 0.025391
vt 0.580798 0.018317
vt 0.612669 0.018300
vt 0.612661 0.025514
vt 0.580742 0.082248
vt 0.612666 0.082120
vt 0.580804 0.089323
vt 0.612674 0.089334
vt 0.978999 0.422502
vt 0.971695 0.423106
vt 0.936811 0.001210
vt 0.944120 0.000606
vt 0.966819 0.423547
vt 0.931780 0.001408
vt 0.979004 0.422498
vt 0.944125 0.000609
vt 0.986310 0.421898
vt 0.951435 0.000001
vt 0.903594 0.560153
vt 0.896966 0.567435
vt 0.871106 0.215378
vt 0.878685 0.221602
vt 0.935101 0.217437
vt 0.960010 0.555988
vt 0.941729 0.210155
vt 0.967589 0.562212
vn 0.006589 0.999813 0.018199
vn 0.868269 0.482855 0.113839
vn 0.918924 0.379257 0.108367
vn 0.013649 0.999823 -0.012948
vn -0.115670 0.053027 0.991871
vn -0.010773 0.999813 0.016035
vn -0.126261 0.053021 0.990579
vn 0.755996 0.012759 0.654451
vn -0.115589 -0.052625 0.991902
vn 0.756546 -0.013774 0.653795
vn 0.998966 -0.025252 0.037802
vn 0.950960 -0.287930 0.113013
vn -0.869555 0.484087 -0.097640
vn -0.010136 0.999823 -0.015850
vn -0.917558 0.380398 -0.115689
vn -0.892837 0.013270 0.450185
vn -0.950086 -0.288457 -0.118862
vn -0.978632 -0.025420 -0.204041
vn -0.892437 -0.012975 0.450986
vn -0.126227 -0.052520 0.990610
vn 0.870118 -0.479395 0.114349
vn 0.950282 0.290180 0.112958
vn 0.998971 0.025293 0.037643
vn 0.006613 -0.999814 0.018117
vn -0.010819 -0.999812 0.016073
vn 0.013753 -0.999822 -0.012931
vn 0.919628 -0.377529 0.108424
vn -0.870924 -0.481498 -0.098242
vn -0.978642 0.025412 -0.203994
vn -0.949708 0.289692 -0.118880
vn -0.917903 -0.379574 -0.115659
vn -0.010239 -0.999822 -0.015856
vn 0.075071 -0.817565 -0.570922
vn 0.064389 -0.817565 -0.572225
vn 0.120709 0.262788 -0.957273
vn 0.993975 0.005078 0.109485
vn -0.991157 0.005096 -0.132598
vn 0.112974 0.262788 -0.958217
vn 0.246255 0.968822 0.027255
vn 0.026954 0.979294 -0.200642
vn 0.019278 0.990256 -0.137919
vn 0.083059 0.996511 0.008220
vn 0.942980 0.316288 0.103681
vn 0.171955 0.985105 -0.000256
vn 0.071980 0.868023 -0.491278
vn 0.115950 0.494822 -0.861224
vn 0.048226 0.868368 -0.493570
vn 0.021858 0.979463 -0.200438
vn -0.243839 0.969263 -0.032732
vn -0.082584 0.996512 -0.011993
vn 0.014447 0.990223 -0.138746
vn -0.940244 0.316253 -0.126195
vn 0.094624 0.493973 -0.864313
vn -0.165756 0.985296 -0.041436
vn -0.245585 -0.968822 -0.032747
vn 0.022074 -0.979294 -0.201237
vn 0.014445 -0.990256 -0.138509
vn -0.082600 -0.996511 -0.011989
vn -0.940719 -0.314886 -0.126074
vn -0.166850 -0.985105 -0.041590
vn 0.048242 -0.868023 -0.494174
vn -0.991156 -0.005041 -0.132609
vn 0.094502 -0.494822 -0.863841
vn 0.071850 -0.868368 -0.490688
vn 0.026972 -0.979463 -0.199814
vn 0.244557 -0.969263 0.026850
vn 0.083045 -0.996512 0.008214
vn 0.019334 -0.990223 -0.138150
vn 0.943463 -0.314851 0.103662
vn 0.115945 -0.493973 -0.861712
vn 0.993956 -0.005057 0.109662
vn 0.170857 -0.985296 -0.000371
vn -0.105856 0.067862 -0.992063
vn -0.008931 0.073761 -0.997236
vn -0.125526 0.991530 -0.033333
vn -0.105968 -0.067931 -0.992046
vn -0.125526 -0.991530 -0.033333
vn -0.008931 -0.073761 -0.997236
vn 0.341363 0.067931 -0.937474
vn 0.129858 0.991530 -0.002177
vn 0.248420 0.073761 -0.965840
vn 0.341258 -0.067862 -0.937517
vn 0.248420 -0.073761 -0.965840
vn 0.129858 -0.991530 -0.002177
vn 0.120709 -0.262788 -0.957273
vn 0.112974 -0.262788 -0.958217
vn 0.075071 0.817565 -0.570922
vn 0.064389 0.817565 -0.572225
vn 0.990161 0.097848 0.100039
vn 0.991432 0.083858 0.100155
vn 0.135247 0.095785 -0.986171
vn 0.105762 0.095681 -0.989778
vn 0.135297 -0.095681 -0.986174
vn 0.990155 -0.097842 0.100100
vn -0.985179 0.097842 -0.140884
vn -0.986432 0.083858 -0.141138
vn -0.985170 -0.097848 -0.140945
vn 0.105810 -0.095785 -0.989762
vn -0.986432 -0.083858 -0.141138
vn 0.991432 -0.083858 0.100155
s 1
g Book_Stack Books3
usemtl initialShadingGroup
f 101/189/101 104/190/102 165/191/103 164/192/104
f 102/325/105 101/326/101 108/327/106 107/328/107
f 103/193/108 102/194/105 110/195/109 109/196/110
f 104/190/102 103/193/108 153/197/111 152/198/112
f 105/225/113 108/226/106 172/227/114 171/228/115
f 106/229/116 105/225/113 145/230/117 144/231/118
f 107/232/107 106/229/116 116/233/119 115/234/120
f 109/196/110 112/199/121 149/200/122 148/201/123
f 111/331/124 110/330/109 115/329/120 114/332/125
f 112/199/121 111/202/124 119/203/126 118/204/127
f 113/235/128 116/233/119 141/236/129 140/237/130
f 114/238/125 113/235/128 121/239/131 120/240/132
f 117/333/133 119/334/126 120/335/132 122/336/134
f 118/204/127 117/205/133 157/206/135 156/207/136
f 122/241/134 121/239/131 159/242/137 158/243/138
f 123/289/139 126/290/140 174/291/141 173/292/142
f 124/208/143 123/209/139 150/210/144 149/200/122
f 125/211/145 124/208/143 156/207/136 155/212/146
f 126/290/140 125/297/145 128/298/147 127/293/148
f 127/293/148 130/299/149 180/300/150 179/294/151
f 129/244/152 128/245/147 160/246/153 159/242/137
f 130/247/149 129/244/152 140/237/130 139/248/154
f 131/303/155 134/304/156 182/305/157 181/306/158
f 132/249/159 131/250/155 146/251/160 145/230/117
f 133/252/161 132/249/159 168/253/162 167/254/163
f 134/304/156 133/311/161 136/312/164 135/307/165
f 135/307/165 138/313/166 188/314/167 187/308/168
f 137/213/169 136/214/164 163/215/170 162/216/171
f 138/217/166 137/213/169 152/198/112 151/218/172
f 139/343/154 142/344/173 191/345/174 190/346/175
f 142/255/173 141/236/129 144/231/118 143/256/176
f 143/347/176 146/349/160 194/350/177 193/348/178
f 147/351/179 150/352/144 196/353/180 195/354/181
f 148/201/123 147/219/179 154/220/182 153/197/111
f 151/357/172 154/355/182 200/356/183 199/358/184
f 155/339/146 157/337/135 158/338/138 160/340/153
f 161/359/185 163/360/170 167/361/163 169/362/186
f 162/216/171 161/221/185 166/222/187 165/191/103
f 164/367/104 166/365/187 170/366/188 172/368/114
f 169/257/186 168/253/162 171/228/115 170/258/188
f 173/261/142 176/262/189 197/263/190 196/264/180
f 175/369/191 174/370/141 179/371/151 178/372/192
f 176/262/189 175/266/191 186/270/193 185/267/194
f 177/275/195 180/276/150 190/277/175 189/278/196
f 178/279/192 177/275/195 184/283/197 183/284/198
f 181/286/158 184/283/197 192/282/199 194/287/177
f 183/373/198 182/375/157 187/376/168 186/374/193
f 185/267/194 188/271/167 199/272/184 198/268/200
f 189/278/196 191/281/174 193/285/178 192/282/199
f 195/269/181 197/263/190 198/268/200 200/273/183
f 175/369/191 178/372/192 183/373/198 186/374/193
f 164/317/104 172/318/114 108/319/106 101/320/101
f 102/325/105 107/328/107 115/329/120 110/330/109
f 111/321/124 114/322/125 120/323/132 119/324/126
f 177/275/195 189/278/196 192/282/199 184/283/197
f 197/263/190 176/262/189 185/267/194 198/268/200
f 155/339/146 160/340/153 128/341/147 125/342/145
f 167/361/163 163/360/170 136/363/164 133/364/161
f 116/233/119 106/229/116 144/231/118 141/236/129
f 105/225/113 171/228/115 168/253/162 132/249/159 145/230/117
f 112/199/121 118/204/127 156/207/136 124/208/143 149/200/122
f 103/193/108 109/196/110 148/201/123 153/197/111
f 159/242/137 121/239/131 113/235/128 140/237/130 129/244/152
f 162/216/171 165/191/103 104/190/102 152/198/112 137/213/169
f 157/337/135 117/333/133 122/336/134 158/338/138
f 166/365/187 161/359/185 169/362/186 170/366/188
f 126/290/140 127/293/148 179/294/151 174/291/141
f 134/304/156 135/307/165 187/308/168 182/305/157
f 130/299/149 139/301/154 190/302/175 180/300/150
f 142/344/173 143/347/176 193/348/178 191/345/174
f 146/309/160 131/303/155 181/306/158 194/310/177
f 150/295/144 123/289/139 173/292/142 196/296/180
f 138/313/166 151/315/172 199/316/184 188/314/167
f 154/355/182 147/351/179 195/354/181 200/356/183
f 101/189/101 102/194/105 103/193/108 104/190/102
f 105/225/113 106/229/116 107/232/107 108/226/106
f 109/196/110 110/195/109 111/202/124 112/199/121
f 113/235/128 114/238/125 115/234/120 116/233/119
f 117/205/133 118/204/127 119/203/126
f 120/240/132 121/239/131 122/241/134
f 123/209/139 124/208/143 125/211/145 126/223/140
f 127/259/148 128/245/147 129/244/152 130/247/149
f 131/250/155 132/249/159 133/252/161 134/260/156
f 135/224/165 136/214/164 137/213/169 138/217/166
f 139/248/154 140/237/130 141/236/129 142/255/173
f 143/256/176 144/231/118 145/230/117 146/251/160
f 147/219/179 148/201/123 149/200/122 150/210/144
f 151/218/172 152/198/112 153/197/111 154/220/182
f 155/212/146 156/207/136 157/206/135
f 158/243/138 159/242/137 160/246/153
f 161/221/185 162/216/171 163/215/170
f 164/192/104 165/191/103 166/222/187
f 167/254/163 168/253/162 169/257/186
f 170/258/188 171/228/115 172/227/114
f 173/261/142 174/265/141 175/266/191 176/262/189
f 177/275/195 178/279/192 179/280/151 180/276/150
f 181/286/158 182/288/157 183/284/198 184/283/197
f 185/267/194 186/270/193 187/274/168 188/271/167
f 189/278/196 190/277/175 191/281/174
f 192/282/199 193/285/178 194/287/177
f 195/269/181 196/264/180 197/263/190
f 198/268/200 199/272/184 200/273/183
g default
v -53.522159 34.993540 71.882614
v -53.716297 33.864491 70.746452
v -54.655089 32.905371 72.098358
v -54.420085 33.794970 73.664145
v 44.472295 33.794970 58.821735
v 44.240588 32.866646 57.277910
v 42.919687 33.840925 56.242696
v 43.090945 34.993540 57.382292
v -54.651792 13.934721 72.120321
v -53.692987 12.960441 70.742954
v -53.549202 11.807827 71.862626
v -54.412648 13.027991 73.713696
v 44.479732 13.027991 58.871286
v 43.090945 11.807827 57.382292
v 42.942996 12.936875 56.239198
v 44.240588 13.934721 57.277910
v -43.640643 12.780338 137.429713
v -44.994588 12.953721 136.464579
v -43.845964 11.807827 136.061698
v 52.681506 11.807827 121.574229
v 53.897792 12.953721 121.622168
v 52.886826 12.780338 122.942244
v -44.186106 15.698638 133.826935
v -45.180198 14.582831 135.227891
v -43.889259 15.150282 136.111023
v -41.817540 15.698638 134.205306
v 50.197490 15.698638 120.395093
v 52.699936 15.130433 121.638578
v 53.712435 14.587587 120.387165
v 52.350624 15.698638 119.338075
v 52.350624 31.102728 119.338075
v 53.712182 32.218535 120.385480
v 52.737373 31.651085 121.608671
v 50.197490 31.102728 120.395093
v -41.817540 31.102728 134.205306
v -43.844692 31.670933 136.128623
v -45.179945 32.213779 135.229576
v -44.186106 31.102728 133.826935
v 43.783794 15.698638 62.046713
v 44.740970 14.526176 60.611866
v 44.578855 15.808648 59.531724
v 43.623771 16.845962 60.898206
v 43.623771 29.955405 60.898206
v 44.580020 30.993435 59.539487
v 44.740763 32.289185 60.610487
v 43.783794 31.102728 62.046713
v -52.999377 16.845962 75.400036
v -54.312360 15.807931 74.381897
v -54.151618 14.512181 75.452897
v -52.815193 15.698638 76.544917
v -52.815193 31.102728 76.544917
v -54.151411 32.275190 75.454276
v -54.313525 30.992719 74.374135
v -52.999377 29.955405 75.400036
v -43.706960 14.411387 136.987857
v -44.971676 13.382869 136.617239
v -43.640634 12.780534 137.429778
v 52.886836 12.780534 122.942308
v 53.920704 13.382869 121.774828
v 52.820510 14.411387 122.500387
v -43.640634 34.020833 137.429778
v -44.971676 33.418497 136.617239
v -43.706960 32.389979 136.987857
v -43.845964 34.993540 136.061698
v -44.994588 33.847646 136.464579
v -43.640643 34.021028 137.429713
v 52.820510 32.389979 122.500387
v 53.920704 33.418497 121.774828
v 52.886836 34.020833 122.942308
v 52.886826 34.021028 122.942244
v 53.897792 33.847646 121.622168
v 52.681506 34.993540 121.574229
v -37.619426 15.698638 128.663455
v -36.563294 15.698638 129.976929
v -35.189041 16.877635 128.607299
v -36.526935 16.857173 127.636580
v 43.211669 16.857173 115.668893
v 42.214898 16.880453 116.990013
v 43.925263 15.698638 117.879350
v 44.557475 15.698638 116.329812
v 44.557475 31.102728 116.329812
v 43.933460 31.102728 117.895454
v 42.217686 29.923732 116.989595
v 43.211669 29.944193 115.668893
v -36.526935 29.944193 127.636580
v -35.186252 29.920913 128.606880
v -36.560186 31.102728 129.959129
v -37.619426 31.102728 128.663455
v 35.356073 16.874818 63.328433
v 36.519224 15.698638 63.153860
v 36.344650 16.874818 61.990704
v 35.356073 29.926549 63.328433
v 36.344650 29.926549 61.990704
v 36.519224 31.102728 63.153860
v -45.720256 16.874818 74.307538
v -45.545682 15.698638 75.470694
v -44.382531 16.874818 75.296121
v -44.382531 29.926549 75.296121
v -45.545682 31.102728 75.470694
v -45.720256 29.926549 74.307538
vt 0.595319 0.215406
vt 0.603676 0.209907
vt 0.929559 0.210148
vt 0.928390 0.215406
vt 0.595551 0.205825
vt 0.589405 0.210226
vt 0.589405 0.114313
vt 0.595665 0.118784
vt 0.607360 0.197049
vt 0.612965 0.202933
vt 0.603933 0.114623
vt 0.612958 0.121433
vt 0.607400 0.127378
vt 0.595197 0.109025
vt 0.928390 0.109025
vt 0.929559 0.114282
vt 0.935489 0.113487
vt 0.935489 0.113488
vt 0.930352 0.116251
vt 0.923142 0.121757
vt 0.916790 0.126877
vt 0.619518 0.126877
vt 0.928607 0.124361
vt 0.933196 0.120971
vt 0.923151 0.202652
vt 0.928730 0.200161
vt 0.933196 0.203460
vt 0.930352 0.208179
vt 0.916790 0.197554
vt 0.619518 0.197554
vt 0.613567 0.132141
vt 0.613567 0.192290
vt 0.935489 0.210943
vt 0.935489 0.210944
vt 0.920514 0.126877
vt 0.920514 0.197554
vt 0.904715 0.103389
vt 0.912875 0.109025
vt 0.587669 0.109025
vt 0.586527 0.103637
vt 0.912537 0.099024
vt 0.895652 0.096309
vt 0.901078 0.090216
vt 0.918649 0.103605
vt 0.912537 0.010006
vt 0.918649 0.005314
vt 0.904464 0.005742
vt 0.901118 0.018817
vt 0.895645 0.012787
vt 0.912875 0.000005
vt 0.586527 0.005393
vt 0.587669 0.000005
vt 0.580738 0.004578
vt 0.585753 0.007411
vt 0.580737 0.004579
vt 0.592784 0.013076
vt 0.587336 0.015628
vt 0.582976 0.012247
vt 0.598995 0.018300
vt 0.889247 0.018300
vt 0.592793 0.095977
vt 0.598995 0.090730
vt 0.889247 0.090730
vt 0.587457 0.093309
vt 0.585753 0.101619
vt 0.582976 0.096783
vt 0.895057 0.023695
vt 0.895057 0.085335
vt 0.580737 0.104451
vt 0.580738 0.104452
vt 0.595359 0.018300
vt 0.595359 0.090730
vt 0.433386 0.443918
vt 0.440778 0.446684
vt 0.442083 0.676829
vt 0.434954 0.677705
vt 0.433550 0.436998
vt 0.441985 0.439664
vt 0.498198 0.447032
vt 0.498244 0.676123
vt 0.441305 0.683854
vt 0.496906 0.439810
vt 0.505573 0.444224
vt 0.505377 0.676979
vt 0.499105 0.683301
vt 0.505375 0.437323
vt 0.533297 0.666374
vt 0.526180 0.669784
vt 0.507062 0.437815
vt 0.514241 0.438077
vt 0.535183 0.673464
vt 0.526950 0.676646
vt 0.512787 0.430995
vt 0.570149 0.432713
vt 0.590547 0.661956
vt 0.589927 0.669052
vt 0.570342 0.425648
vt 0.598144 0.664099
vt 0.577181 0.431249
vt 0.598554 0.671009
vt 0.612797 0.845972
vt 0.609729 0.836032
vt 0.624683 0.810893
vt 0.630967 0.814627
vt 0.612947 0.432499
vt 0.627573 0.457898
vt 0.864027 0.848112
vt 0.864209 0.816242
vt 0.602407 0.846086
vt 0.605658 0.422508
vt 0.616174 0.422609
vt 0.633841 0.454239
vt 0.867406 0.424476
vt 0.867080 0.456345
vt 0.323969 0.445621
vt 0.327037 0.455561
vt 0.312082 0.480700
vt 0.305798 0.476965
vt 0.323801 0.859094
vt 0.309177 0.833694
vt 0.072739 0.443470
vt 0.072555 0.475340
vt 0.334360 0.445507
vt 0.331090 0.869086
vt 0.320574 0.868984
vt 0.302908 0.837353
vt 0.069342 0.867106
vt 0.069669 0.835237
vt 0.326703 0.446121
vt 0.290369 0.024348
vt 0.570809 0.000000
vt 0.607176 0.422148
vt 0.036272 0.446236
vt 0.000000 0.023976
vt 0.280473 0.000003
vt 0.316807 0.421777
vt 0.178823 0.903873
vt 0.177688 0.896968
vt 0.594758 0.822239
vt 0.596004 0.829198
vt 0.612100 0.918420
vt 0.194919 0.993095
vt 0.196051 1.000000
vt 0.613235 0.925325
vt 0.341028 0.863280
vt 0.333707 0.862500
vt 0.380987 0.441813
vt 0.388275 0.442632
vt 0.341062 0.863324
vt 0.388318 0.442594
vt 0.348321 0.864142
vt 0.395587 0.443454
vt 0.400456 0.443963
vt 0.353296 0.864920
vt 0.998478 0.004094
vt 0.997633 0.011118
vt 0.965956 0.007158
vt 0.966870 0.000003
vt 0.990359 0.067508
vt 0.958714 0.063300
vt 0.989394 0.074517
vt 0.957783 0.070453
vt 0.580737 0.025391
vt 0.580798 0.018317
vt 0.612669 0.018300
vt 0.612661 0.025514
vt 0.580742 0.082248
vt 0.612666 0.082120
vt 0.580804 0.089323
vt 0.612674 0.089334
vt 0.978999 0.422502
vt 0.971695 0.423106
vt 0.936811 0.001210
vt 0.944120 0.000606
vt 0.966819 0.423547
vt 0.931780 0.001408
vt 0.979004 0.422498
vt 0.944125 0.000609
vt 0.986310 0.421898
vt 0.951435 0.000001
vt 0.903594 0.560153
vt 0.896966 0.567435
vt 0.871106 0.215378
vt 0.878685 0.221602
vt 0.935101 0.217437
vt 0.960010 0.555988
vt 0.941729 0.210155
vt 0.967589 0.562212
vn -0.011210 0.999813 -0.015778
vn -0.867132 0.482855 0.122202
vn -0.914485 0.379257 0.141005
vn -0.009695 0.999823 0.016123
vn -0.153450 0.053027 -0.986733
vn 0.006098 0.999813 -0.018330
vn -0.142899 0.053021 -0.988316
vn -0.903329 0.012759 -0.428758
vn -0.153536 -0.052625 -0.986741
vn -0.903684 -0.013774 -0.427979
vn -0.972772 -0.025252 0.230384
vn -0.946598 -0.287930 0.145084
vn 0.864044 0.484087 -0.138156
vn 0.014001 0.999823 0.012567
vn 0.915124 0.380398 -0.133584
vn 0.740162 0.013270 -0.672298
vn 0.947318 -0.288457 -0.139213
vn 0.997577 -0.025420 -0.064754
vn 0.739562 -0.012975 -0.672963
vn -0.142940 -0.052520 -0.988337
vn -0.869049 -0.479395 0.122204
vn -0.945930 0.290180 0.144955
vn -0.972734 0.025293 0.230539
vn -0.011212 -0.999814 -0.015693
vn 0.006133 -0.999812 -0.018379
vn -0.009799 -0.999822 0.016134
vn -0.915179 -0.377529 0.141138
vn 0.865524 -0.481498 -0.137942
vn 0.997575 0.025412 -0.064802
vn 0.946959 0.289692 -0.139095
vn 0.915449 -0.379574 -0.133704
vn 0.014102 -0.999822 0.012545
vn 0.080144 -0.817565 0.570232
vn 0.090785 -0.817565 0.568635
vn 0.139353 0.262788 0.954737
vn -0.987108 0.005078 0.159972
vn 0.990565 0.005096 -0.136947
vn 0.147060 0.262788 0.953581
vn -0.244589 0.968822 0.039507
vn 0.027614 0.979294 0.200552
vn 0.018259 0.990256 0.138058
vn -0.082238 0.996511 0.014262
vn -0.936416 0.316288 0.151945
vn -0.165640 0.985105 0.046175
vn 0.061850 0.868023 0.492656
vn 0.118286 0.494822 0.860906
vn 0.085353 0.868368 0.488520
vn 0.032471 0.979463 0.198995
vn 0.243723 0.969263 -0.033584
vn 0.082787 0.996512 -0.010500
vn 0.023136 0.990223 0.137564
vn 0.939792 0.316253 -0.129518
vn 0.139662 0.493973 0.858187
vn 0.170802 0.985296 -0.004341
vn 0.245410 -0.968822 -0.034035
vn 0.032476 -0.979294 0.199822
vn 0.023074 -0.990256 0.137335
vn 0.082801 -0.996511 -0.010508
vn 0.940217 -0.314886 -0.129762
vn 0.171897 -0.985105 -0.004485
vn 0.085499 -0.868023 0.489107
vn 0.990567 -0.005041 -0.136935
vn 0.139654 -0.494822 0.857699
vn 0.061817 -0.868368 0.492053
vn 0.027376 -0.979463 0.199759
vn -0.242844 -0.969263 0.039444
vn -0.082222 -0.996512 0.014265
vn 0.018267 -0.990223 0.138295
vn -0.936876 -0.314851 0.152093
vn 0.118421 -0.493973 0.861375
vn -0.987137 -0.005057 0.159796
vn -0.164551 -0.985296 0.045991
vn 0.366980 0.067862 0.927750
vn 0.274957 0.073761 0.958623
vn 0.129869 0.991530 -0.001405
vn 0.367083 -0.067931 0.927704
vn 0.129869 -0.991530 -0.001405
vn 0.274957 -0.073761 0.958623
vn -0.078573 0.067931 0.994591
vn -0.124559 0.991530 0.036781
vn 0.018571 0.073761 0.997103
vn -0.078460 -0.067862 0.994605
vn 0.018571 -0.073761 0.997103
vn -0.124559 -0.991530 0.036781
vn 0.139353 -0.262788 0.954737
vn 0.147060 -0.262788 0.953581
vn 0.080144 0.817565 0.570232
vn 0.090785 0.817565 0.568635
vn -0.980909 0.097848 0.168057
vn -0.982165 0.083858 0.168284
vn 0.133062 0.095785 0.986468
vn 0.162439 0.095681 0.982069
vn 0.133014 -0.095681 0.986485
vn -0.980920 -0.097842 0.167996
vn 0.987018 0.097842 -0.127365
vn 0.988293 0.083858 -0.127455
vn 0.987026 -0.097848 -0.127304
vn 0.162389 -0.095785 0.982067
vn 0.988293 -0.083858 -0.127455
vn -0.982165 -0.083858 0.168284
s 1
g Book_Stack Books2
usemtl initialShadingGroup
f 201/377/201 204/378/202 265/379/203 264/380/204
f 202/513/205 201/514/201 208/515/206 207/516/207
f 203/381/208 202/382/205 210/383/209 209/384/210
f 204/378/202 203/381/208 253/385/211 252/386/212
f 205/413/213 208/414/206 272/415/214 271/416/215
f 206/417/216 205/413/213 245/418/217 244/419/218
f 207/420/207 206/417/216 216/421/219 215/422/220
f 209/384/210 212/387/221 249/388/222 248/389/223
f 211/519/224 210/518/209 215/517/220 214/520/225
f 212/387/221 211/390/224 219/391/226 218/392/227
f 213/423/228 216/421/219 241/424/229 240/425/230
f 214/426/225 213/423/228 221/427/231 220/428/232
f 217/521/233 219/522/226 220/523/232 222/524/234
f 218/392/227 217/393/233 257/394/235 256/395/236
f 222/429/234 221/427/231 259/430/237 258/431/238
f 223/477/239 226/478/240 274/479/241 273/480/242
f 224/396/243 223/397/239 250/398/244 249/388/222
f 225/399/245 224/396/243 256/395/236 255/400/246
f 226/478/240 225/485/245 228/486/247 227/481/248
f 227/481/248 230/487/249 280/488/250 279/482/251
f 229/432/252 228/433/247 260/434/253 259/430/237
f 230/435/249 229/432/252 240/425/230 239/436/254
f 231/491/255 234/492/256 282/493/257 281/494/258
f 232/437/259 231/438/255 246/439/260 245/418/217
f 233/440/261 232/437/259 268/441/262 267/442/263
f 234/492/256 233/499/261 236/500/264 235/495/265
f 235/495/265 238/501/266 288/502/267 287/496/268
f 237/401/269 236/402/264 263/403/270 262/404/271
f 238/405/266 237/401/269 252/386/212 251/406/272
f 239/531/254 242/532/273 291/533/274 290/534/275
f 242/443/273 241/424/229 244/419/218 243/444/276
f 243/535/276 246/537/260 294/538/277 293/536/278
f 247/539/279 250/540/244 296/541/280 295/542/281
f 248/389/223 247/407/279 254/408/282 253/385/211
f 251/545/272 254/543/282 300/544/283 299/546/284
f 255/527/246 257/525/235 258/526/238 260/528/253
f 261/547/285 263/548/270 267/549/263 269/550/286
f 262/404/271 261/409/285 266/410/287 265/379/203
f 264/555/204 266/553/287 270/554/288 272/556/214
f 269/445/286 268/441/262 271/416/215 270/446/288
f 273/449/242 276/450/289 297/451/290 296/452/280
f 275/557/291 274/558/241 279/559/251 278/560/292
f 276/450/289 275/454/291 286/458/293 285/455/294
f 277/463/295 280/464/250 290/465/275 289/466/296
f 278/467/292 277/463/295 284/471/297 283/472/298
f 281/474/258 284/471/297 292/470/299 294/475/277
f 283/561/298 282/563/257 287/564/268 286/562/293
f 285/455/294 288/459/267 299/460/284 298/456/300
f 289/466/296 291/469/274 293/473/278 292/470/299
f 295/457/281 297/451/290 298/456/300 300/461/283
f 275/557/291 278/560/292 283/561/298 286/562/293
f 264/505/204 272/506/214 208/507/206 201/508/201
f 202/513/205 207/516/207 215/517/220 210/518/209
f 211/509/224 214/510/225 220/511/232 219/512/226
f 277/463/295 289/466/296 292/470/299 284/471/297
f 297/451/290 276/450/289 285/455/294 298/456/300
f 255/527/246 260/528/253 228/529/247 225/530/245
f 267/549/263 263/548/270 236/551/264 233/552/261
f 216/421/219 206/417/216 244/419/218 241/424/229
f 205/413/213 271/416/215 268/441/262 232/437/259 245/418/217
f 212/387/221 218/392/227 256/395/236 224/396/243 249/388/222
f 203/381/208 209/384/210 248/389/223 253/385/211
f 259/430/237 221/427/231 213/423/228 240/425/230 229/432/252
f 262/404/271 265/379/203 204/378/202 252/386/212 237/401/269
f 257/525/235 217/521/233 222/524/234 258/526/238
f 266/553/287 261/547/285 269/550/286 270/554/288
f 226/478/240 227/481/248 279/482/251 274/479/241
f 234/492/256 235/495/265 287/496/268 282/493/257
f 230/487/249 239/489/254 290/490/275 280/488/250
f 242/532/273 243/535/276 293/536/278 291/533/274
f 246/497/260 231/491/255 281/494/258 294/498/277
f 250/483/244 223/477/239 273/480/242 296/484/280
f 238/501/266 251/503/272 299/504/284 288/502/267
f 254/543/282 247/539/279 295/542/281 300/544/283
f 201/377/201 202/382/205 203/381/208 204/378/202
f 205/413/213 206/417/216 207/420/207 208/414/206
f 209/384/210 210/383/209 211/390/224 212/387/221
f 213/423/228 214/426/225 215/422/220 216/421/219
f 217/393/233 218/392/227 219/391/226
f 220/428/232 221/427/231 222/429/234
f 223/397/239 224/396/243 225/399/245 226/411/240
f 227/447/248 228/433/247 229/432/252 230/435/249
f 231/438/255 232/437/259 233/440/261 234/448/256
f 235/412/265 236/402/264 237/401/269 238/405/266
f 239/436/254 240/425/230 241/424/229 242/443/273
f 243/444/276 244/419/218 245/418/217 246/439/260
f 247/407/279 248/389/223 249/388/222 250/398/244
f 251/406/272 252/386/212 253/385/211 254/408/282
f 255/400/246 256/395/236 257/394/235
f 258/431/238 259/430/237 260/434/253
f 261/409/285 262/404/271 263/403/270
f 264/380/204 265/379/203 266/410/287
f 267/442/263 268/441/262 269/445/286
f 270/446/288 271/416/215 272/415/214
f 273/449/242 274/453/241 275/454/291 276/450/289
f 277/463/295 278/467/292 279/468/251 280/464/250
f 281/474/258 282/476/257 283/472/298 284/471/297
f 285/455/294 286/458/293 287/462/268 288/459/267
f 289/466/296 290/465/275 291/469/274
f 292/470/299 293/473/278 294/475/277
f 295/457/281 296/452/280 297/451/290
f 298/456/300 299/460/284 300/461/283
g default
v -49.028717 11.096649 64.256753
v -49.052070 9.967601 63.104361
v -50.181119 9.008480 64.301953
v -50.181119 9.898079 65.885277
v 49.818881 9.898079 65.885277
v 49.818881 8.969755 64.324162
v 48.666261 9.944035 63.104361
v 48.666479 11.096649 64.256753
v -50.181119 -9.962170 64.324162
v -49.028499 -10.936449 63.104361
v -49.052493 -12.089064 64.232972
v -50.181119 -10.868900 65.935384
v 49.818881 -10.868900 65.935384
v 48.666479 -12.089064 64.256753
v 48.689832 -10.960015 63.104361
v 49.818881 -9.962170 64.324162
v -48.985420 -11.116553 130.544494
v -50.181119 -10.943170 129.389092
v -48.985420 -12.089064 129.161157
v 48.623182 -12.089064 129.161157
v 49.818881 -10.943170 129.389092
v 48.623182 -11.116553 130.544494
v -48.990102 -8.198252 126.900661
v -50.181119 -9.314059 128.138553
v -49.035557 -8.746609 129.203510
v -46.703930 -8.198252 127.626394
v 46.341692 -8.198252 127.626394
v 48.631857 -8.766458 129.227529
v 49.818881 -9.309303 128.140257
v 48.627864 -8.198252 126.900661
v 48.627864 7.205838 126.900661
v 49.818881 8.321645 128.138553
v 48.673318 7.754194 129.203510
v 46.341692 7.205838 127.626394
v -46.703930 7.205838 127.626394
v -48.994096 7.774043 129.227529
v -50.181119 8.316889 128.140257
v -48.990102 7.205838 126.900661
v 48.659341 -8.198252 68.972345
v 49.818881 -9.370714 67.695458
v 49.818881 -8.088243 66.603219
v 48.671557 -7.050929 67.812808
v 48.671557 6.058514 67.812808
v 49.818881 7.096545 66.611069
v 49.818881 8.392295 67.694064
v 48.659341 7.205838 68.972345
v -49.033795 -7.050929 67.812808
v -50.181119 -8.088960 66.611069
v -50.181119 -9.384710 67.694064
v -49.021579 -8.198252 68.972345
v -49.021579 7.205838 68.972345
v -50.181119 8.378300 67.695458
v -50.181119 7.095828 66.603219
v -49.033795 6.058514 67.812808
v -48.985420 -9.485503 130.097689
v -50.181119 -10.514021 129.543462
v -48.985420 -11.116357 130.544559
v 48.623182 -11.116357 130.544559
v 49.818881 -10.514021 129.543462
v 48.623182 -9.485503 130.097689
v -48.985420 10.123942 130.544559
v -50.181119 9.521607 129.543462
v -48.985420 8.493089 130.097689
v -48.985420 11.096649 129.161157
v -50.181119 9.950755 129.389092
v -48.985420 10.124138 130.544494
v 48.623182 8.493089 130.097689
v 49.818881 9.521607 129.543462
v 48.623182 10.123942 130.544559
v 48.623182 10.124138 130.544494
v 49.818881 9.950755 129.389092
v 48.623182 11.096649 129.161157
v -41.729771 -8.198252 122.769026
v -40.880288 -8.198252 124.224708
v -39.317970 -7.019256 123.074220
v -40.496968 -7.039717 121.915678
v 40.134729 -7.039717 121.915678
v 38.952912 -7.016437 123.074220
v 40.512334 -8.198252 124.207566
v 41.367532 -8.198252 122.769026
v 41.367532 7.205838 122.769026
v 40.518050 7.205838 124.224708
v 38.955732 6.026841 123.074220
v 40.134729 6.047303 121.915678
v -40.496968 6.047303 121.915678
v -39.315151 6.024023 123.074220
v -40.874572 7.205838 124.207566
v -41.729771 7.205838 122.769026
v 40.134729 -7.022073 68.988992
v 41.310908 -8.198252 68.988992
v 41.310908 -7.022073 67.812808
v 40.134729 6.029658 68.988992
v 41.310908 6.029658 67.812808
v 41.310908 7.205838 68.988992
v -41.673146 -7.022073 67.812808
v -41.673146 -8.198252 68.988992
v -40.496968 -7.022073 68.988992
v -40.496968 6.029658 68.988992
v -41.673146 7.205838 68.988992
v -41.673146 6.029658 67.812808
vt 0.595319 0.215406
vt 0.603676 0.209907
vt 0.929559 0.210148
vt 0.928390 0.215406
vt 0.595551 0.205825
vt 0.589405 0.210226
vt 0.589405 0.114313
vt 0.595665 0.118784
vt 0.607360 0.197049
vt 0.612965 0.202933
vt 0.603933 0.114623
vt 0.612958 0.121433
vt 0.607400 0.127378
vt 0.595197 0.109025
vt 0.928390 0.109025
vt 0.929559 0.114282
vt 0.935489 0.113487
vt 0.935489 0.113488
vt 0.930352 0.116251
vt 0.923142 0.121757
vt 0.916790 0.126877
vt 0.619518 0.126877
vt 0.928607 0.124361
vt 0.933196 0.120971
vt 0.923151 0.202652
vt 0.928730 0.200161
vt 0.933196 0.203460
vt 0.930352 0.208179
vt 0.916790 0.197554
vt 0.619518 0.197554
vt 0.613567 0.132141
vt 0.613567 0.192290
vt 0.935489 0.210943
vt 0.935489 0.210944
vt 0.920514 0.126877
vt 0.920514 0.197554
vt 0.904715 0.103389
vt 0.912875 0.109025
vt 0.587669 0.109025
vt 0.586527 0.103637
vt 0.912537 0.099024
vt 0.895652 0.096309
vt 0.901078 0.090216
vt 0.918649 0.103605
vt 0.912537 0.010006
vt 0.918649 0.005314
vt 0.904464 0.005742
vt 0.901118 0.018817
vt 0.895645 0.012787
vt 0.912875 0.000005
vt 0.586527 0.005393
vt 0.587669 0.000005
vt 0.580738 0.004578
vt 0.585753 0.007411
vt 0.580737 0.004579
vt 0.592784 0.013076
vt 0.587336 0.015628
vt 0.582976 0.012247
vt 0.598995 0.018300
vt 0.889247 0.018300
vt 0.592793 0.095977
vt 0.598995 0.090730
vt 0.889247 0.090730
vt 0.587457 0.093309
vt 0.585753 0.101619
vt 0.582976 0.096783
vt 0.895057 0.023695
vt 0.895057 0.085335
vt 0.580737 0.104451
vt 0.580738 0.104452
vt 0.595359 0.018300
vt 0.595359 0.090730
vt 0.433386 0.443918
vt 0.440778 0.446684
vt 0.442083 0.676829
vt 0.434954 0.677705
vt 0.433550 0.436998
vt 0.441985 0.439664
vt 0.498198 0.447032
vt 0.498244 0.676123
vt 0.441305 0.683854
vt 0.496906 0.439810
vt 0.505573 0.444224
vt 0.505377 0.676979
vt 0.499105 0.683301
vt 0.505375 0.437323
vt 0.533297 0.666374
vt 0.526180 0.669784
vt 0.507062 0.437815
vt 0.514241 0.438077
vt 0.535183 0.673464
vt 0.526950 0.676646
vt 0.512787 0.430995
vt 0.570149 0.432713
vt 0.590547 0.661956
vt 0.589927 0.669052
vt 0.570342 0.425648
vt 0.598144 0.664099
vt 0.577181 0.431249
vt 0.598554 0.671009
vt 0.612797 0.845972
vt 0.609729 0.836032
vt 0.624683 0.810893
vt 0.630967 0.814627
vt 0.612947 0.432499
vt 0.627573 0.457898
vt 0.864027 0.848112
vt 0.864209 0.816242
vt 0.602407 0.846086
vt 0.605658 0.422508
vt 0.616174 0.422609
vt 0.633841 0.454239
vt 0.867406 0.424476
vt 0.867080 0.456345
vt 0.323969 0.445621
vt 0.327037 0.455561
vt 0.312082 0.480700
vt 0.305798 0.476965
vt 0.323801 0.859094
vt 0.309177 0.833694
vt 0.072739 0.443470
vt 0.072555 0.475340
vt 0.334360 0.445507
vt 0.331090 0.869086
vt 0.320574 0.868984
vt 0.302908 0.837353
vt 0.069342 0.867106
vt 0.069669 0.835237
vt 0.326703 0.446121
vt 0.290369 0.024348
vt 0.570809 0.000000
vt 0.607176 0.422148
vt 0.036272 0.446236
vt 0.000000 0.023976
vt 0.280473 0.000003
vt 0.316807 0.421777
vt 0.178823 0.903873
vt 0.177688 0.896968
vt 0.594758 0.822239
vt 0.596004 0.829198
vt 0.612100 0.918420
vt 0.194919 0.993095
vt 0.196051 1.000000
vt 0.613235 0.925325
vt 0.341028 0.863280
vt 0.333707 0.862500
vt 0.380987 0.441813
vt 0.388275 0.442632
vt 0.341062 0.863324
vt 0.388318 0.442594
vt 0.348321 0.864142
vt 0.395587 0.443454
vt 0.400456 0.443963
vt 0.353296 0.864920
vt 0.998478 0.004094
vt 0.997633 0.011118
vt 0.965956 0.007158
vt 0.966870 0.000003
vt 0.990359 0.067508
vt 0.958714 0.063300
vt 0.989394 0.074517
vt 0.957783 0.070453
vt 0.580737 0.025391
vt 0.580798 0.018317
vt 0.612669 0.018300
vt 0.612661 0.025514
vt 0.580742 0.082248
vt 0.612666 0.082120
vt 0.580804 0.089323
vt 0.612674 0.089334
vt 0.978999 0.422502
vt 0.971695 0.423106
vt 0.936811 0.001210
vt 0.944120 0.000606
vt 0.966819 0.423547
vt 0.931780 0.001408
vt 0.979004 0.422498
vt 0.944125 0.000609
vt 0.986310 0.421898
vt 0.951435 0.000001
vt 0.903594 0.560153
vt 0.896966 0.567435
vt 0.871106 0.215378
vt 0.878685 0.221602
vt 0.935101 0.217437
vt 0.960010 0.555988
vt 0.941729 0.210155
vt 0.967589 0.562212
vn -0.008744 0.999813 -0.017267
vn -0.875665 0.482855 -0.007855
vn -0.925284 0.379257 0.003711
vn -0.011981 0.999823 0.014506
vn -0.005295 0.053027 -0.998579
vn 0.008752 0.999813 -0.017222
vn 0.005373 0.053021 -0.998579
vn -0.829686 0.012759 -0.558085
vn -0.005380 -0.052625 -0.998600
vn -0.830152 -0.013774 -0.557367
vn -0.996192 -0.025252 0.083450
vn -0.957647 -0.287930 0.002979
vn 0.874980 0.484087 -0.008381
vn 0.011981 0.999823 0.014506
vn 0.924815 0.380398 0.003722
vn 0.831749 0.013270 -0.554993
vn 0.957488 -0.288457 0.002933
vn 0.996139 -0.025420 0.084028
vn 0.831255 -0.012975 -0.555740
vn 0.005336 -0.052520 -0.998606
vn -0.877562 -0.479395 -0.008137
vn -0.956968 0.290180 0.002951
vn -0.996178 0.025293 0.083608
vn -0.008759 -0.999814 -0.017183
vn 0.008793 -0.999812 -0.017265
vn -0.012086 -0.999822 0.014501
vn -0.925990 -0.377529 0.003740
vn 0.876411 -0.481498 -0.007949
vn 0.996143 0.025412 0.083980
vn 0.957115 0.289692 0.002997
vn 0.925154 -0.379574 0.003651
vn 0.012084 -0.999822 0.014500
vn -0.005380 -0.817565 0.575811
vn 0.005380 -0.817565 0.575811
vn -0.003896 0.262788 0.964846
vn -0.999919 0.005078 0.011689
vn 0.999920 0.005096 0.011594
vn 0.003896 0.262788 0.964846
vn -0.247743 0.968822 0.002766
vn -0.002458 0.979294 0.202429
vn -0.002434 0.990256 0.139239
vn -0.083444 0.996511 0.001898
vn -0.948596 0.316288 0.011276
vn -0.170659 0.985105 0.021078
vn -0.011957 0.868023 0.496379
vn -0.010804 0.494822 0.868927
vn 0.011900 0.868368 0.495778
vn 0.002576 0.979463 0.201610
vn 0.246009 0.969263 0.002963
vn 0.083429 0.996512 0.001903
vn 0.002462 0.990223 0.139474
vn 0.948606 0.316253 0.011404
vn 0.010739 0.493973 0.869411
vn 0.169554 0.985296 0.021058
vn 0.247743 -0.968822 0.002766
vn 0.002458 -0.979294 0.202429
vn 0.002434 -0.990256 0.139239
vn 0.083444 -0.996511 0.001898
vn 0.949063 -0.314886 0.011226
vn 0.170659 -0.985105 0.021078
vn 0.011957 -0.868023 0.496379
vn 0.999920 -0.005041 0.011606
vn 0.010804 -0.494822 0.868927
vn -0.011900 -0.868368 0.495778
vn -0.002576 -0.979463 0.201610
vn -0.246009 -0.969263 0.002963
vn -0.083429 -0.996512 0.001903
vn -0.002462 -0.990223 0.139474
vn -0.949073 -0.314851 0.011354
vn -0.010739 -0.493973 0.869411
vn -0.999921 -0.005057 0.011512
vn -0.169554 -0.985296 0.021058
vn 0.225214 0.067862 0.971943
vn 0.129629 0.073761 0.988815
vn 0.128639 0.991530 0.017887
vn 0.225324 -0.067931 0.971913
vn 0.128639 -0.991530 0.017887
vn 0.129629 -0.073761 0.988815
vn -0.225324 0.067931 0.971913
vn -0.128639 0.991530 0.017887
vn -0.129629 0.073761 0.988815
vn -0.225214 -0.067862 0.971943
vn -0.129629 -0.073761 0.988815
vn -0.128639 -0.991530 0.017887
vn -0.003896 -0.262788 0.964846
vn 0.003896 -0.262788 0.964846
vn -0.005380 0.817565 0.575811
vn 0.005380 0.817565 0.575811
vn -0.994988 0.097848 0.020605
vn -0.996264 0.083858 0.020644
vn -0.014828 0.095785 0.995292
vn 0.014877 0.095681 0.995301
vn -0.014877 -0.095681 0.995301
vn -0.994990 -0.097842 0.020543
vn 0.994990 0.097842 0.020543
vn 0.996264 0.083858 0.020644
vn 0.994988 -0.097848 0.020605
vn 0.014828 -0.095785 0.995292
vn 0.996264 -0.083858 0.020644
vn -0.996264 -0.083858 0.020644
s 1
g Book_Stack Books1
usemtl initialShadingGroup
f 301/565/301 304/566/302 365/567/303 364/568/304
f 302/701/305 301/702/301 308/703/306 307/704/307
f 303/569/308 302/570/305 310/571/309 309/572/310
f 304/566/302 303/569/308 353/573/311 352/574/312
f 305/601/313 308/602/306 372/603/314 371/604/315
f 306/605/316 305/601/313 345/606/317 344/607/318
f 307/608/307 306/605/316 316/609/319 315/610/320
f 309/572/310 312/575/321 349/576/322 348/577/323
f 311/707/324 310/706/309 315/705/320 314/708/325
f 312/575/321 311/578/324 319/579/326 318/580/327
f 313/611/328 316/609/319 341/612/329 340/613/330
f 314/614/325 313/611/328 321/615/331 320/616/332
f 317/709/333 319/710/326 320/711/332 322/712/334
f 318/580/327 317/581/333 357/582/335 356/583/336
f 322/617/334 321/615/331 359/618/337 358/619/338
f 323/665/339 326/666/340 374/667/341 373/668/342
f 324/584/343 323/585/339 350/586/344 349/576/322
f 325/587/345 324/584/343 356/583/336 355/588/346
f 326/666/340 325/673/345 328/674/347 327/669/348
f 327/669/348 330/675/349 380/676/350 379/670/351
f 329/620/352 328/621/347 360/622/353 359/618/337
f 330/623/349 329/620/352 340/613/330 339/624/354
f 331/679/355 334/680/356 382/681/357 381/682/358
f 332/625/359 331/626/355 346/627/360 345/606/317
f 333/628/361 332/625/359 368/629/362 367/630/363
f 334/680/356 333/687/361 336/688/364 335/683/365
f 335/683/365 338/689/366 388/690/367 387/684/368
f 337/589/369 336/590/364 363/591/370 362/592/371
f 338/593/366 337/589/369 352/574/312 351/594/372
f 339/719/354 342/720/373 391/721/374 390/722/375
f 342/631/373 341/612/329 344/607/318 343/632/376
f 343/723/376 346/725/360 394/726/377 393/724/378
f 347/727/379 350/728/344 396/729/380 395/730/381
f 348/577/323 347/595/379 354/596/382 353/573/311
f 351/733/372 354/731/382 400/732/383 399/734/384
f 355/715/346 357/713/335 358/714/338 360/716/353
f 361/735/385 363/736/370 367/737/363 369/738/386
f 362/592/371 361/597/385 366/598/387 365/567/303
f 364/743/304 366/741/387 370/742/388 372/744/314
f 369/633/386 368/629/362 371/604/315 370/634/388
f 373/637/342 376/638/389 397/639/390 396/640/380
f 375/745/391 374/746/341 379/747/351 378/748/392
f 376/638/389 375/642/391 386/646/393 385/643/394
f 377/651/395 380/652/350 390/653/375 389/654/396
f 378/655/392 377/651/395 384/659/397 383/660/398
f 381/662/358 384/659/397 392/658/399 394/663/377
f 383/749/398 382/751/357 387/752/368 386/750/393
f 385/643/394 388/647/367 399/648/384 398/644/400
f 389/654/396 391/657/374 393/661/378 392/658/399
f 395/645/381 397/639/390 398/644/400 400/649/383
f 375/745/391 378/748/392 383/749/398 386/750/393
f 364/693/304 372/694/314 308/695/306 301/696/301
f 302/701/305 307/704/307 315/705/320 310/706/309
f 311/697/324 314/698/325 320/699/332 319/700/326
f 377/651/395 389/654/396 392/658/399 384/659/397
f 397/639/390 376/638/389 385/643/394 398/644/400
f 355/715/346 360/716/353 328/717/347 325/718/345
f 367/737/363 363/736/370 336/739/364 333/740/361
f 316/609/319 306/605/316 344/607/318 341/612/329
f 305/601/313 371/604/315 368/629/362 332/625/359 345/606/317
f 312/575/321 318/580/327 356/583/336 324/584/343 349/576/322
f 303/569/308 309/572/310 348/577/323 353/573/311
f 359/618/337 321/615/331 313/611/328 340/613/330 329/620/352
f 362/592/371 365/567/303 304/566/302 352/574/312 337/589/369
f 357/713/335 317/709/333 322/712/334 358/714/338
f 366/741/387 361/735/385 369/738/386 370/742/388
f 326/666/340 327/669/348 379/670/351 374/667/341
f 334/680/356 335/683/365 387/684/368 382/681/357
f 330/675/349 339/677/354 390/678/375 380/676/350
f 342/720/373 343/723/376 393/724/378 391/721/374
f 346/685/360 331/679/355 381/682/358 394/686/377
f 350/671/344 323/665/339 373/668/342 396/672/380
f 338/689/366 351/691/372 399/692/384 388/690/367
f 354/731/382 347/727/379 395/730/381 400/732/383
f 301/565/301 302/570/305 303/569/308 304/566/302
f 305/601/313 306/605/316 307/608/307 308/602/306
f 309/572/310 310/571/309 311/578/324 312/575/321
f 313/611/328 314/614/325 315/610/320 316/609/319
f 317/581/333 318/580/327 319/579/326
f 320/616/332 321/615/331 322/617/334
f 323/585/339 324/584/343 325/587/345 326/599/340
f 327/635/348 328/621/347 329/620/352 330/623/349
f 331/626/355 332/625/359 333/628/361 334/636/356
f 335/600/365 336/590/364 337/589/369 338/593/366
f 339/624/354 340/613/330 341/612/329 342/631/373
f 343/632/376 344/607/318 345/606/317 346/627/360
f 347/595/379 348/577/323 349/576/322 350/586/344
f 351/594/372 352/574/312 353/573/311 354/596/382
f 355/588/346 356/583/336 357/582/335
f 358/619/338 359/618/337 360/622/353
f 361/597/385 362/592/371 363/591/370
f 364/568/304 365/567/303 366/598/387
f 367/630/363 368/629/362 369/633/386
f 370/634/388 371/604/315 372/603/314
f 373/637/342 374/641/341 375/642/391 376/638/389
f 377/651/395 378/655/392 379/656/351 380/652/350
f 381/662/358 382/664/357 383/660/398 384/659/397
f 385/643/394 386/646/393 387/650/368 388/647/367
f 389/654/396 390/653/375 391/657/374
f 392/658/399 393/661/378 394/663/377
f 395/645/381 396/640/380 397/639/390
f 398/644/400 399/648/384 400/649/383
