# This file uses centimeters as units for non-parametric coordinates.

mtllib CoinPurse.mtl
g default
v 0.094153 2.115848 1.392268
v 0.134755 1.908440 1.299611
v 0.082277 1.717127 1.417498
v -0.010804 1.733222 1.628043
v -0.051407 1.940630 1.720700
v 0.001071 2.131943 1.602813
v -0.062381 2.211834 1.252497
v -0.001476 1.900721 1.113510
v -0.080194 1.613752 1.290341
v -0.219816 1.637894 1.606158
v -0.280720 1.949007 1.745144
v -0.202002 2.235976 1.568313
v -0.009902 2.403147 1.134609
v 0.091605 1.884627 0.902966
v -0.039591 1.406344 1.197684
v -0.272294 1.446581 1.724045
v -0.373801 1.965101 1.955688
v -0.242605 2.443385 1.660970
v 0.199109 2.498474 1.156494
v 0.320918 1.876250 0.878522
v 0.163483 1.302310 1.232184
v -0.115761 1.350595 1.863817
v -0.237569 1.972820 2.141789
v -0.080134 2.546759 1.788127
v 0.355642 2.402489 1.296266
v 0.457150 1.883968 1.064623
v 0.325954 1.405685 1.359341
v 0.093251 1.445923 1.885702
v -0.008256 1.964443 2.117345
v 0.122940 2.442726 1.822627
v 0.303164 2.211176 1.414153
v 0.364068 1.900063 1.275167
v 0.285351 1.613094 1.451998
v 0.145729 1.637236 1.767815
v 0.084825 1.948348 1.906800
v 0.163542 2.235318 1.729970
vt 0.000000 1.000000
vt 0.166667 1.000000
vt 0.333333 1.000000
vt 0.500000 1.000000
vt 0.666667 1.000000
vt 0.833333 1.000000
vt 1.000000 1.000000
vt 0.000000 0.833333
vt 0.166667 0.833333
vt 0.333333 0.833333
vt 0.500000 0.833333
vt 0.666667 0.833333
vt 0.833333 0.833333
vt 1.000000 0.833333
vt 0.000000 0.666667
vt 0.166667 0.666667
vt 0.333333 0.666667
vt 0.500000 0.666667
vt 0.666667 0.666667
vt 0.833333 0.666667
vt 1.000000 0.666667
vt 0.000000 0.500000
vt 0.166667 0.500000
vt 0.333333 0.500000
vt 0.500000 0.500000
vt 0.666667 0.500000
vt 0.833333 0.500000
vt 1.000000 0.500000
vt 0.000000 0.333333
vt 0.166667 0.333333
vt 0.333333 0.333333
vt 0.500000 0.333333
vt 0.666667 0.333333
vt 0.833333 0.333333
vt 1.000000 0.333333
vt 0.000000 0.166667
vt 0.166667 0.166667
vt 0.333333 0.166667
vt 0.500000 0.166667
vt 0.666667 0.166667
vt 0.833333 0.166667
vt 1.000000 0.166667
vt 0.000000 -0.000000
vt 0.166667 -0.000000
vt 0.333333 -0.000000
vt 0.500000 -0.000000
vt 0.666667 -0.000000
vt 0.833333 -0.000000
vt 1.000000 -0.000000
vn -0.403361 0.069746 0.912379
vn -0.227411 -0.829042 0.510856
vn -0.941876 -0.225396 -0.249132
vn -0.990048 0.020680 -0.139200
vn -0.175950 0.898789 0.401523
vn -0.927786 0.247659 -0.279065
vn 0.227411 0.829042 -0.510856
vn -0.817352 0.228564 -0.528861
vn 0.403360 -0.069746 -0.912379
vn -0.769180 -0.017512 -0.638792
vn 0.175950 -0.898788 -0.401524
vn -0.831442 -0.244491 -0.498927
vn -0.509050 0.570210 -0.644770
vn -0.388288 -0.046673 -0.920356
vn -0.544371 -0.615685 -0.569730
vn -0.821217 -0.567814 0.056480
vn -0.941979 0.049068 0.332065
vn -0.785896 0.618080 -0.018560
vn 0.227411 0.829042 -0.510856
vn 0.403361 -0.069747 -0.912379
vn 0.175950 -0.898788 -0.401524
vn -0.227411 -0.829042 0.510856
vn -0.403360 0.069747 0.912379
vn -0.175949 0.898789 0.401524
vn 0.821217 0.567814 -0.056480
vn 0.941980 -0.049068 -0.332065
vn 0.785896 -0.618080 0.018561
vn 0.509050 -0.570209 0.644771
vn 0.388287 0.046673 0.920356
vn 0.544371 0.615685 0.569731
vn 0.817352 -0.228564 0.528861
vn 0.769180 0.017512 0.638793
vn 0.831442 0.244491 0.498928
vn 0.941876 0.225396 0.249131
vn 0.990049 -0.020680 0.139199
vn 0.927787 -0.247659 0.279064
s 1
g coin10 CoinPurse
usemtl initialShadingGroup
f 2/2/1 1/1/2 7/8/3 8/9/4
f 3/3/5 2/2/1 8/9/4 9/10/6
f 4/4/7 3/3/5 9/10/6 10/11/8
f 5/5/9 4/4/7 10/11/8 11/12/10
f 6/6/11 5/5/9 11/12/10 12/13/12
f 1/7/2 6/6/11 12/13/12 7/14/3
f 8/9/4 7/8/3 13/15/13 14/16/14
f 9/10/6 8/9/4 14/16/14 15/17/15
f 10/11/8 9/10/6 15/17/15 16/18/16
f 11/12/10 10/11/8 16/18/16 17/19/17
f 12/13/12 11/12/10 17/19/17 18/20/18
f 7/14/3 12/13/12 18/20/18 13/21/13
f 14/16/14 13/15/13 19/22/19 20/23/20
f 15/17/15 14/16/14 20/23/20 21/24/21
f 16/18/16 15/17/15 21/24/21 22/25/22
f 17/19/17 16/18/16 22/25/22 23/26/23
f 18/20/18 17/19/17 23/26/23 24/27/24
f 13/21/13 18/20/18 24/27/24 19/28/19
f 20/23/20 19/22/19 25/29/25 26/30/26
f 21/24/21 20/23/20 26/30/26 27/31/27
f 22/25/22 21/24/21 27/31/27 28/32/28
f 23/26/23 22/25/22 28/32/28 29/33/29
f 24/27/24 23/26/23 29/33/29 30/34/30
f 19/28/19 24/27/24 30/34/30 25/35/25
f 26/30/26 25/29/25 31/36/31 32/37/32
f 27/31/27 26/30/26 32/37/32 33/38/33
f 28/32/28 27/31/27 33/38/33 34/39/34
f 29/33/29 28/32/28 34/39/34 35/40/35
f 30/34/30 29/33/29 35/40/35 36/41/36
f 25/35/25 30/34/30 36/41/36 31/42/31
f 32/37/32 31/36/31 1/43/2 2/44/1
f 33/38/33 32/37/32 2/44/1 3/45/5
f 34/39/34 33/38/33 3/45/5 4/46/7
f 35/40/35 34/39/34 4/46/7 5/47/9
f 36/41/36 35/40/35 5/47/9 6/48/11
f 31/42/31 36/41/36 6/48/11 1/49/2
g default
v -0.192003 1.937027 -1.078710
v -0.139667 2.160452 -1.054332
v -0.127856 2.253871 -0.843653
v -0.168381 2.123865 -0.657352
v -0.220717 1.900440 -0.681730
v -0.232528 1.807021 -0.892409
v -0.003799 1.843784 -1.174298
v 0.074706 2.178922 -1.137732
v 0.092422 2.319050 -0.821713
v 0.031635 2.124041 -0.542262
v -0.046870 1.788903 -0.578828
v -0.064586 1.648775 -0.894846
v -0.015610 1.750366 -1.384977
v 0.115231 2.308929 -1.324033
v 0.144759 2.542475 -0.797336
v 0.043446 2.217460 -0.331583
v -0.087395 1.658897 -0.392526
v -0.116922 1.425350 -0.919223
v -0.215625 1.750190 -1.500067
v -0.058616 2.420465 -1.426935
v -0.023183 2.700721 -0.794899
v -0.144759 2.310702 -0.235995
v -0.301767 1.640427 -0.309127
v -0.337200 1.360171 -0.941164
v -0.403829 1.843432 -1.404479
v -0.272989 2.401995 -1.343536
v -0.243461 2.635542 -0.816838
v -0.344774 2.310526 -0.351086
v -0.475615 1.751963 -0.412030
v -0.505142 1.518416 -0.938726
v -0.392018 1.936851 -1.193801
v -0.313514 2.271989 -1.157234
v -0.295797 2.412117 -0.841216
v -0.356585 2.217107 -0.561765
v -0.435089 1.881970 -0.598331
v -0.452806 1.741841 -0.914349
vt 0.000000 1.000000
vt 0.166667 1.000000
vt 0.333333 1.000000
vt 0.500000 1.000000
vt 0.666667 1.000000
vt 0.833333 1.000000
vt 1.000000 1.000000
vt 0.000000 0.833333
vt 0.166667 0.833333
vt 0.333333 0.833333
vt 0.500000 0.833333
vt 0.666667 0.833333
vt 0.833333 0.833333
vt 1.000000 0.833333
vt 0.000000 0.666667
vt 0.166667 0.666667
vt 0.333333 0.666667
vt 0.500000 0.666667
vt 0.666667 0.666667
vt 0.833333 0.666667
vt 1.000000 0.666667
vt 0.000000 0.500000
vt 0.166667 0.500000
vt 0.333333 0.500000
vt 0.500000 0.500000
vt 0.666667 0.500000
vt 0.833333 0.500000
vt 1.000000 0.500000
vt 0.000000 0.333333
vt 0.166667 0.333333
vt 0.333333 0.333333
vt 0.500000 0.333333
vt 0.666667 0.333333
vt 0.833333 0.333333
vt 1.000000 0.333333
vt 0.000000 0.166667
vt 0.166667 0.166667
vt 0.333333 0.166667
vt 0.500000 0.166667
vt 0.666667 0.166667
vt 0.833333 0.166667
vt 1.000000 0.166667
vt 0.000000 -0.000000
vt 0.166667 -0.000000
vt 0.333333 -0.000000
vt 0.500000 -0.000000
vt 0.666667 -0.000000
vt 0.833333 -0.000000
vt 1.000000 -0.000000
vn -0.175612 -0.563373 0.807323
vn 0.051183 0.404823 0.912961
vn 0.948190 -0.113112 0.296885
vn 0.886097 -0.378190 0.267963
vn -0.226795 -0.968197 -0.105638
vn 0.872084 -0.489025 0.018008
vn -0.051182 -0.404823 -0.912962
vn 0.920164 -0.334782 -0.203025
vn 0.175613 0.563373 -0.807323
vn 0.982257 -0.069703 -0.174103
vn 0.226795 0.968197 0.105638
vn 0.996270 0.041131 0.075852
vn 0.671263 -0.447191 -0.591123
vn 0.826924 0.217330 -0.518618
vn 0.862053 0.495180 0.107992
vn 0.741521 0.108509 0.662097
vn 0.585861 -0.556011 0.589592
vn 0.550731 -0.833861 -0.037017
vn -0.051182 -0.404823 -0.912961
vn 0.175613 0.563373 -0.807323
vn 0.226795 0.968197 0.105638
vn 0.051182 0.404823 0.912961
vn -0.175613 -0.563373 0.807323
vn -0.226795 -0.968197 -0.105638
vn -0.741521 -0.108510 -0.662097
vn -0.585861 0.556011 -0.589592
vn -0.550732 0.833861 0.037018
vn -0.671263 0.447190 0.591123
vn -0.826924 -0.217330 0.518618
vn -0.862052 -0.495180 -0.107992
vn -0.920164 0.334781 0.203025
vn -0.982257 0.069703 0.174103
vn -0.996270 -0.041132 -0.075852
vn -0.948190 0.113112 -0.296886
vn -0.886097 0.378191 -0.267964
vn -0.872084 0.489025 -0.018008
s 1
g CoinPurse coin9
usemtl initialShadingGroup
f 38/51/37 37/50/38 43/57/39 44/58/40
f 39/52/41 38/51/37 44/58/40 45/59/42
f 40/53/43 39/52/41 45/59/42 46/60/44
f 41/54/45 40/53/43 46/60/44 47/61/46
f 42/55/47 41/54/45 47/61/46 48/62/48
f 37/56/38 42/55/47 48/62/48 43/63/39
f 44/58/40 43/57/39 49/64/49 50/65/50
f 45/59/42 44/58/40 50/65/50 51/66/51
f 46/60/44 45/59/42 51/66/51 52/67/52
f 47/61/46 46/60/44 52/67/52 53/68/53
f 48/62/48 47/61/46 53/68/53 54/69/54
f 43/63/39 48/62/48 54/69/54 49/70/49
f 50/65/50 49/64/49 55/71/55 56/72/56
f 51/66/51 50/65/50 56/72/56 57/73/57
f 52/67/52 51/66/51 57/73/57 58/74/58
f 53/68/53 52/67/52 58/74/58 59/75/59
f 54/69/54 53/68/53 59/75/59 60/76/60
f 49/70/49 54/69/54 60/76/60 55/77/55
f 56/72/56 55/71/55 61/78/61 62/79/62
f 57/73/57 56/72/56 62/79/62 63/80/63
f 58/74/58 57/73/57 63/80/63 64/81/64
f 59/75/59 58/74/58 64/81/64 65/82/65
f 60/76/60 59/75/59 65/82/65 66/83/66
f 55/77/55 60/76/60 66/83/66 61/84/61
f 62/79/62 61/78/61 67/85/67 68/86/68
f 63/80/63 62/79/62 68/86/68 69/87/69
f 64/81/64 63/80/63 69/87/69 70/88/70
f 65/82/65 64/81/64 70/88/70 71/89/71
f 66/83/66 65/82/65 71/89/71 72/90/72
f 61/84/61 66/83/66 72/90/72 67/91/67
f 68/86/68 67/85/67 37/92/38 38/93/37
f 69/87/69 68/86/68 38/93/37 39/94/41
f 70/88/70 69/87/69 39/94/41 40/95/43
f 71/89/71 70/88/70 40/95/43 41/96/45
f 72/90/72 71/89/71 41/96/45 42/97/47
f 67/91/67 72/90/72 42/97/47 37/98/38
g default
v -0.091162 2.243896 0.256072
v -0.162994 2.097663 0.419498
v -0.010342 2.001091 0.563107
v 0.214142 2.050752 0.543289
v 0.285974 2.196985 0.379863
v 0.133322 2.293557 0.236255
v -0.190099 2.444992 0.311062
v -0.297848 2.225642 0.556202
v -0.068870 2.080785 0.771615
v 0.267856 2.155276 0.741888
v 0.375605 2.374626 0.496749
v 0.146627 2.519483 0.281336
v -0.342751 2.541563 0.167454
v -0.522332 2.175981 0.576020
v -0.140703 1.934552 0.935041
v 0.420508 2.058704 0.885497
v 0.600089 2.424287 0.476931
v 0.218459 2.665716 0.117910
v -0.396465 2.437039 -0.031145
v -0.611962 1.998341 0.459134
v -0.154007 1.708625 0.889960
v 0.519445 1.857609 0.830507
v 0.734942 2.296307 0.340228
v 0.276987 2.586022 -0.090598
v -0.297528 2.235944 -0.086136
v -0.477109 1.870361 0.322430
v -0.095479 1.628932 0.681452
v 0.465731 1.753085 0.631907
v 0.645312 2.118667 0.223341
v 0.263683 2.360096 -0.135680
v -0.144876 2.139372 0.057473
v -0.252625 1.920022 0.302612
v -0.023647 1.775165 0.518025
v 0.313079 1.849656 0.488299
v 0.420828 2.069006 0.243159
v 0.191850 2.213863 0.027746
vt 0.000000 1.000000
vt 0.166667 1.000000
vt 0.333333 1.000000
vt 0.500000 1.000000
vt 0.666667 1.000000
vt 0.833333 1.000000
vt 1.000000 1.000000
vt 0.000000 0.833333
vt 0.166667 0.833333
vt 0.333333 0.833333
vt 0.500000 0.833333
vt 0.666667 0.833333
vt 0.833333 0.833333
vt 1.000000 0.833333
vt 0.000000 0.666667
vt 0.166667 0.666667
vt 0.333333 0.666667
vt 0.500000 0.666667
vt 0.666667 0.666667
vt 0.833333 0.666667
vt 1.000000 0.666667
vt 0.000000 0.500000
vt 0.166667 0.500000
vt 0.333333 0.500000
vt 0.500000 0.500000
vt 0.666667 0.500000
vt 0.833333 0.500000
vt 1.000000 0.500000
vt 0.000000 0.333333
vt 0.166667 0.333333
vt 0.333333 0.333333
vt 0.500000 0.333333
vt 0.666667 0.333333
vt 0.833333 0.333333
vt 1.000000 0.333333
vt 0.000000 0.166667
vt 0.166667 0.166667
vt 0.333333 0.166667
vt 0.500000 0.166667
vt 0.666667 0.166667
vt 0.833333 0.166667
vt 1.000000 0.166667
vt 0.000000 -0.000000
vt 0.166667 -0.000000
vt 0.333333 -0.000000
vt 0.500000 -0.000000
vt 0.666667 -0.000000
vt 0.833333 -0.000000
vt 1.000000 -0.000000
vn 0.972786 0.215203 -0.085878
vn 0.661506 -0.418487 0.622318
vn 0.072289 0.620841 0.780597
vn 0.157514 0.794336 0.586703
vn 0.311280 0.633690 -0.708196
vn -0.023597 0.908911 0.416321
vn -0.661506 0.418487 -0.622317
vn -0.289931 0.849992 0.439833
vn -0.972786 -0.215203 0.085878
vn -0.375155 0.676497 0.633727
vn -0.311281 -0.633690 0.708196
vn -0.194045 0.561921 0.804109
vn -0.536310 0.843324 0.034296
vn -0.749957 0.408392 0.520366
vn -0.295933 0.121164 0.947493
vn 0.371737 0.268868 0.888550
vn 0.585384 0.703800 0.402481
vn 0.131361 0.991028 -0.024647
vn -0.661506 0.418487 -0.622318
vn -0.972786 -0.215203 0.085878
vn -0.311281 -0.633690 0.708196
vn 0.661506 -0.418487 0.622317
vn 0.972786 0.215203 -0.085879
vn 0.311280 0.633690 -0.708196
vn -0.371737 -0.268868 -0.888550
vn -0.585384 -0.703801 -0.402481
vn -0.131360 -0.991028 0.024646
vn 0.536310 -0.843324 -0.034297
vn 0.749957 -0.408392 -0.520366
vn 0.295934 -0.121164 -0.947493
vn 0.289931 -0.849992 -0.439833
vn 0.375156 -0.676497 -0.633727
vn 0.194045 -0.561921 -0.804109
vn -0.072290 -0.620840 -0.780597
vn -0.157515 -0.794336 -0.586703
vn 0.023596 -0.908912 -0.416321
s 1
g CoinPurse coin8
usemtl initialShadingGroup
f 74/100/73 73/99/74 79/106/75 80/107/76
f 75/101/77 74/100/73 80/107/76 81/108/78
f 76/102/79 75/101/77 81/108/78 82/109/80
f 77/103/81 76/102/79 82/109/80 83/110/82
f 78/104/83 77/103/81 83/110/82 84/111/84
f 73/105/74 78/104/83 84/111/84 79/112/75
f 80/107/76 79/106/75 85/113/85 86/114/86
f 81/108/78 80/107/76 86/114/86 87/115/87
f 82/109/80 81/108/78 87/115/87 88/116/88
f 83/110/82 82/109/80 88/116/88 89/117/89
f 84/111/84 83/110/82 89/117/89 90/118/90
f 79/112/75 84/111/84 90/118/90 85/119/85
f 86/114/86 85/113/85 91/120/91 92/121/92
f 87/115/87 86/114/86 92/121/92 93/122/93
f 88/116/88 87/115/87 93/122/93 94/123/94
f 89/117/89 88/116/88 94/123/94 95/124/95
f 90/118/90 89/117/89 95/124/95 96/125/96
f 85/119/85 90/118/90 96/125/96 91/126/91
f 92/121/92 91/120/91 97/127/97 98/128/98
f 93/122/93 92/121/92 98/128/98 99/129/99
f 94/123/94 93/122/93 99/129/99 100/130/100
f 95/124/95 94/123/94 100/130/100 101/131/101
f 96/125/96 95/124/95 101/131/101 102/132/102
f 91/126/91 96/125/96 102/132/102 97/133/97
f 98/128/98 97/127/97 103/134/103 104/135/104
f 99/129/99 98/128/98 104/135/104 105/136/105
f 100/130/100 99/129/99 105/136/105 106/137/106
f 101/131/101 100/130/100 106/137/106 107/138/107
f 102/132/102 101/131/101 107/138/107 108/139/108
f 97/133/97 102/132/102 108/139/108 103/140/103
f 104/135/104 103/134/103 73/141/74 74/142/73
f 105/136/105 104/135/104 74/142/73 75/143/77
f 106/137/106 105/136/105 75/143/77 76/144/79
f 107/138/107 106/137/106 76/144/79 77/145/81
f 108/139/108 107/138/107 77/145/81 78/146/83
f 103/140/103 108/139/108 78/146/83 73/147/74
g default
v 0.565768 1.605014 1.121218
v 0.617765 1.382771 1.155225
v 0.643102 1.301726 1.369799
v 0.616443 1.442924 1.550365
v 0.564446 1.665167 1.516359
v 0.539109 1.746212 1.301785
v 0.358392 1.600922 1.020072
v 0.436387 1.267557 1.071082
v 0.474393 1.145990 1.392943
v 0.434404 1.357788 1.663793
v 0.356410 1.691152 1.612782
v 0.318404 1.812719 1.290922
v 0.333055 1.681967 0.805498
v 0.463046 1.126359 0.890515
v 0.526389 0.923747 1.426949
v 0.459741 1.276743 1.878366
v 0.329751 1.832351 1.793349
v 0.266408 2.034963 1.256915
v 0.515094 1.767103 0.692071
v 0.671083 1.100374 0.794091
v 0.747094 0.857239 1.437812
v 0.667117 1.280835 1.979513
v 0.511128 1.947564 1.877492
v 0.435117 2.190698 1.233771
v 0.722470 1.771195 0.793217
v 0.852460 1.215587 0.878234
v 0.915803 1.012975 1.414669
v 0.849156 1.365972 1.866085
v 0.719165 1.921579 1.781068
v 0.655822 2.124191 1.244634
v 0.747807 1.690150 1.007791
v 0.825801 1.356786 1.058801
v 0.863807 1.235219 1.380661
v 0.823819 1.447016 1.651512
v 0.745824 1.780381 1.600501
v 0.707818 1.901948 1.278641
vt 0.000000 1.000000
vt 0.166667 1.000000
vt 0.333333 1.000000
vt 0.500000 1.000000
vt 0.666667 1.000000
vt 0.833333 1.000000
vt 1.000000 1.000000
vt 0.000000 0.833333
vt 0.166667 0.833333
vt 0.333333 0.833333
vt 0.500000 0.833333
vt 0.666667 0.833333
vt 0.833333 0.833333
vt 1.000000 0.833333
vt 0.000000 0.666667
vt 0.166667 0.666667
vt 0.333333 0.666667
vt 0.500000 0.666667
vt 0.666667 0.666667
vt 0.833333 0.666667
vt 1.000000 0.666667
vt 0.000000 0.500000
vt 0.166667 0.500000
vt 0.333333 0.500000
vt 0.500000 0.500000
vt 0.666667 0.500000
vt 0.833333 0.500000
vt 1.000000 0.500000
vt 0.000000 0.333333
vt 0.166667 0.333333
vt 0.333333 0.333333
vt 0.500000 0.333333
vt 0.666667 0.333333
vt 0.833333 0.333333
vt 1.000000 0.333333
vt 0.000000 0.166667
vt 0.166667 0.166667
vt 0.333333 0.166667
vt 0.500000 0.166667
vt 0.666667 0.166667
vt 0.833333 0.166667
vt 1.000000 0.166667
vt 0.000000 -0.000000
vt 0.166667 -0.000000
vt 0.333333 -0.000000
vt 0.500000 -0.000000
vt 0.666667 -0.000000
vt 0.833333 -0.000000
vt 1.000000 -0.000000
vn -0.115525 0.611873 0.782474
vn 0.109797 -0.351201 0.929840
vn -0.906992 -0.310866 0.284128
vn -0.968682 -0.047190 0.243781
vn -0.225322 0.963075 -0.147366
vn -0.998742 0.048964 -0.010795
vn -0.109797 0.351201 -0.929840
vn -0.967113 -0.118558 -0.225025
vn 0.115525 -0.611873 -0.782474
vn -0.905423 -0.382234 -0.184678
vn 0.225322 -0.963075 0.147366
vn -0.875362 -0.478388 0.069898
vn -0.783925 0.078690 -0.615849
vn -0.629276 -0.582316 -0.514704
vn -0.553917 -0.823363 0.123491
vn -0.633207 -0.403404 0.660540
vn -0.787857 0.257601 0.559396
vn -0.863215 0.498648 -0.078799
vn -0.109797 0.351201 -0.929840
vn 0.115525 -0.611873 -0.782474
vn 0.225322 -0.963075 0.147366
vn 0.109797 -0.351201 0.929840
vn -0.115525 0.611874 0.782474
vn -0.225322 0.963075 -0.147366
vn 0.633207 0.403404 -0.660540
vn 0.787857 -0.257601 -0.559395
vn 0.863216 -0.498647 0.078799
vn 0.783925 -0.078689 0.615848
vn 0.629276 0.582316 0.514704
vn 0.553917 0.823363 -0.123491
vn 0.967113 0.118558 0.225025
vn 0.905423 0.382234 0.184678
vn 0.875362 0.478388 -0.069898
vn 0.906991 0.310866 -0.284129
vn 0.968681 0.047189 -0.243782
vn 0.998742 -0.048965 0.010795
s 1
g CoinPurse coin7
usemtl initialShadingGroup
f 110/149/109 109/148/110 115/155/111 116/156/112
f 111/150/113 110/149/109 116/156/112 117/157/114
f 112/151/115 111/150/113 117/157/114 118/158/116
f 113/152/117 112/151/115 118/158/116 119/159/118
f 114/153/119 113/152/117 119/159/118 120/160/120
f 109/154/110 114/153/119 120/160/120 115/161/111
f 116/156/112 115/155/111 121/162/121 122/163/122
f 117/157/114 116/156/112 122/163/122 123/164/123
f 118/158/116 117/157/114 123/164/123 124/165/124
f 119/159/118 118/158/116 124/165/124 125/166/125
f 120/160/120 119/159/118 125/166/125 126/167/126
f 115/161/111 120/160/120 126/167/126 121/168/121
f 122/163/122 121/162/121 127/169/127 128/170/128
f 123/164/123 122/163/122 128/170/128 129/171/129
f 124/165/124 123/164/123 129/171/129 130/172/130
f 125/166/125 124/165/124 130/172/130 131/173/131
f 126/167/126 125/166/125 131/173/131 132/174/132
f 121/168/121 126/167/126 132/174/132 127/175/127
f 128/170/128 127/169/127 133/176/133 134/177/134
f 129/171/129 128/170/128 134/177/134 135/178/135
f 130/172/130 129/171/129 135/178/135 136/179/136
f 131/173/131 130/172/130 136/179/136 137/180/137
f 132/174/132 131/173/131 137/180/137 138/181/138
f 127/175/127 132/174/132 138/181/138 133/182/133
f 134/177/134 133/176/133 139/183/139 140/184/140
f 135/178/135 134/177/134 140/184/140 141/185/141
f 136/179/136 135/178/135 141/185/141 142/186/142
f 137/180/137 136/179/136 142/186/142 143/187/143
f 138/181/138 137/180/137 143/187/143 144/188/144
f 133/182/133 138/181/138 144/188/144 139/189/139
f 140/184/140 139/183/139 109/190/110 110/191/109
f 141/185/141 140/184/140 110/191/109 111/192/113
f 142/186/142 141/185/141 111/192/113 112/193/115
f 143/187/143 142/186/142 112/193/115 113/194/117
f 144/188/144 143/187/143 113/194/117 114/195/119
f 139/189/139 144/188/144 114/195/119 109/196/110
g default
v -0.384081 1.925267 0.760198
v -0.527670 2.105268 0.744903
v -0.562148 2.241255 0.928127
v -0.453037 2.197240 1.126646
v -0.309448 2.017239 1.141940
v -0.274970 1.881253 0.958716
v -0.214910 1.973567 0.610864
v -0.430294 2.243569 0.587922
v -0.482011 2.447549 0.862758
v -0.318344 2.381527 1.160536
v -0.102961 2.111525 1.183478
v -0.051244 1.907545 0.908642
v -0.180432 1.837580 0.427640
v -0.539405 2.287583 0.389404
v -0.625600 2.627550 0.847464
v -0.352822 2.517513 1.343760
v 0.006150 2.067510 1.381996
v 0.092345 1.727544 0.923936
v -0.315125 1.653294 0.393750
v -0.745892 2.193297 0.347866
v -0.849326 2.601257 0.897538
v -0.521993 2.469213 1.493094
v -0.091226 1.929210 1.538977
v 0.012208 1.521251 0.989305
v -0.484295 1.604995 0.543083
v -0.843268 2.054997 0.504847
v -0.929463 2.394963 0.962907
v -0.656685 2.284927 1.459203
v -0.297713 1.834924 1.497440
v -0.211518 1.494958 1.039380
v -0.518774 1.740981 0.726307
v -0.734157 2.010982 0.703366
v -0.785874 2.214962 0.978202
v -0.622208 2.148940 1.275979
v -0.406824 1.878939 1.298921
v -0.355107 1.674959 1.024085
vt 0.000000 1.000000
vt 0.166667 1.000000
vt 0.333333 1.000000
vt 0.500000 1.000000
vt 0.666667 1.000000
vt 0.833333 1.000000
vt 1.000000 1.000000
vt 0.000000 0.833333
vt 0.166667 0.833333
vt 0.333333 0.833333
vt 0.500000 0.833333
vt 0.666667 0.833333
vt 0.833333 0.833333
vt 1.000000 0.833333
vt 0.000000 0.666667
vt 0.166667 0.666667
vt 0.333333 0.666667
vt 0.500000 0.666667
vt 0.666667 0.666667
vt 0.833333 0.666667
vt 1.000000 0.666667
vt 0.000000 0.500000
vt 0.166667 0.500000
vt 0.333333 0.500000
vt 0.500000 0.500000
vt 0.666667 0.500000
vt 0.833333 0.500000
vt 1.000000 0.500000
vt 0.000000 0.333333
vt 0.166667 0.333333
vt 0.333333 0.333333
vt 0.500000 0.333333
vt 0.666667 0.333333
vt 0.833333 0.333333
vt 1.000000 0.333333
vt 0.000000 0.166667
vt 0.166667 0.166667
vt 0.333333 0.166667
vt 0.500000 0.166667
vt 0.666667 0.166667
vt 0.833333 0.166667
vt 1.000000 0.166667
vt 0.000000 -0.000000
vt 0.166667 -0.000000
vt 0.333333 -0.000000
vt 0.500000 -0.000000
vt 0.666667 -0.000000
vt 0.833333 -0.000000
vt 1.000000 -0.000000
vn 0.472825 -0.190733 0.860266
vn -0.149407 0.589288 0.793988
vn 0.690283 0.721013 -0.060410
vn 0.860642 0.507454 -0.042264
vn 0.622233 -0.780022 0.066277
vn 0.901547 0.346116 -0.259647
vn 0.149408 -0.589287 -0.793988
vn 0.772095 0.398336 -0.495175
vn -0.472825 0.190734 -0.860266
vn 0.601737 0.611895 -0.513321
vn -0.622233 0.780022 -0.066278
vn 0.560831 0.773233 -0.295938
vn 0.655446 0.018749 -0.755010
vn 0.228377 0.554116 -0.800499
vn 0.125831 0.958573 -0.255547
vn 0.450354 0.827663 0.334896
vn 0.877422 0.292296 0.380385
vn 0.979968 -0.112161 -0.164567
vn 0.149407 -0.589288 -0.793988
vn -0.472825 0.190734 -0.860266
vn -0.622233 0.780022 -0.066278
vn -0.149408 0.589287 0.793988
vn 0.472825 -0.190734 0.860266
vn 0.622232 -0.780022 0.066278
vn -0.450354 -0.827663 -0.334896
vn -0.877422 -0.292296 -0.380385
vn -0.979968 0.112160 0.164568
vn -0.655445 -0.018750 0.755010
vn -0.228377 -0.554116 0.800499
vn -0.125831 -0.958573 0.255547
vn -0.772095 -0.398336 0.495175
vn -0.601736 -0.611895 0.513321
vn -0.560830 -0.773233 0.295938
vn -0.690283 -0.721013 0.060409
vn -0.860642 -0.507454 0.042263
vn -0.901547 -0.346115 0.259646
s 1
g CoinPurse coin6
usemtl initialShadingGroup
f 146/198/145 145/197/146 151/204/147 152/205/148
f 147/199/149 146/198/145 152/205/148 153/206/150
f 148/200/151 147/199/149 153/206/150 154/207/152
f 149/201/153 148/200/151 154/207/152 155/208/154
f 150/202/155 149/201/153 155/208/154 156/209/156
f 145/203/146 150/202/155 156/209/156 151/210/147
f 152/205/148 151/204/147 157/211/157 158/212/158
f 153/206/150 152/205/148 158/212/158 159/213/159
f 154/207/152 153/206/150 159/213/159 160/214/160
f 155/208/154 154/207/152 160/214/160 161/215/161
f 156/209/156 155/208/154 161/215/161 162/216/162
f 151/210/147 156/209/156 162/216/162 157/217/157
f 158/212/158 157/211/157 163/218/163 164/219/164
f 159/213/159 158/212/158 164/219/164 165/220/165
f 160/214/160 159/213/159 165/220/165 166/221/166
f 161/215/161 160/214/160 166/221/166 167/222/167
f 162/216/162 161/215/161 167/222/167 168/223/168
f 157/217/157 162/216/162 168/223/168 163/224/163
f 164/219/164 163/218/163 169/225/169 170/226/170
f 165/220/165 164/219/164 170/226/170 171/227/171
f 166/221/166 165/220/165 171/227/171 172/228/172
f 167/222/167 166/221/166 172/228/172 173/229/173
f 168/223/168 167/222/167 173/229/173 174/230/174
f 163/224/163 168/223/168 174/230/174 169/231/169
f 170/226/170 169/225/169 175/232/175 176/233/176
f 171/227/171 170/226/170 176/233/176 177/234/177
f 172/228/172 171/227/171 177/234/177 178/235/178
f 173/229/173 172/228/172 178/235/178 179/236/179
f 174/230/174 173/229/173 179/236/179 180/237/180
f 169/231/169 174/230/174 180/237/180 175/238/175
f 176/233/176 175/232/175 145/239/146 146/240/145
f 177/234/177 176/233/176 146/240/145 147/241/149
f 178/235/178 177/234/177 147/241/149 148/242/151
f 179/236/179 178/235/178 148/242/151 149/243/153
f 180/237/180 179/236/179 149/243/153 150/244/155
f 175/238/175 180/237/180 150/244/155 145/245/146
g default
v 0.086227 1.932298 -1.432638
v 0.053845 2.095843 -1.592188
v -0.142499 2.217061 -1.594968
v -0.306461 2.174731 -1.438198
v -0.274078 2.011186 -1.278647
v -0.077735 1.889969 -1.275868
v 0.266238 2.007051 -1.309106
v 0.217665 2.252370 -1.548432
v -0.076851 2.434195 -1.552602
v -0.322793 2.370702 -1.317446
v -0.274220 2.125383 -1.078121
v 0.020296 1.943558 -1.073951
v 0.462582 1.885834 -1.306327
v 0.381626 2.294699 -1.705202
v -0.109233 2.597741 -1.712152
v -0.519137 2.491919 -1.320226
v -0.438181 2.083054 -0.921350
v 0.052678 1.780012 -0.914401
v 0.478914 1.689864 -1.427079
v 0.381768 2.180501 -1.905729
v -0.207263 2.544152 -1.914069
v -0.699148 2.417166 -1.443757
v -0.602001 1.926528 -0.965107
v -0.012971 1.562877 -0.956768
v 0.298903 1.615111 -1.550610
v 0.217948 2.023975 -1.949486
v -0.272912 2.327017 -1.956435
v -0.682815 2.221195 -1.564509
v -0.601860 1.812330 -1.165634
v -0.111001 1.509288 -1.158684
v 0.102559 1.736327 -1.553390
v 0.053986 1.981646 -1.792715
v -0.240529 2.163472 -1.796885
v -0.486472 2.099978 -1.561729
v -0.437899 1.854660 -1.322404
v -0.143383 1.672834 -1.318234
vt 0.000000 1.000000
vt 0.166667 1.000000
vt 0.333333 1.000000
vt 0.500000 1.000000
vt 0.666667 1.000000
vt 0.833333 1.000000
vt 1.000000 1.000000
vt 0.000000 0.833333
vt 0.166667 0.833333
vt 0.333333 0.833333
vt 0.500000 0.833333
vt 0.666667 0.833333
vt 0.833333 0.833333
vt 1.000000 0.833333
vt 0.000000 0.666667
vt 0.166667 0.666667
vt 0.333333 0.666667
vt 0.500000 0.666667
vt 0.666667 0.666667
vt 0.833333 0.666667
vt 1.000000 0.666667
vt 0.000000 0.500000
vt 0.166667 0.500000
vt 0.333333 0.500000
vt 0.500000 0.500000
vt 0.666667 0.500000
vt 0.833333 0.500000
vt 1.000000 0.500000
vt 0.000000 0.333333
vt 0.166667 0.333333
vt 0.333333 0.333333
vt 0.500000 0.333333
vt 0.666667 0.333333
vt 0.833333 0.333333
vt 1.000000 0.333333
vt 0.000000 0.166667
vt 0.166667 0.166667
vt 0.333333 0.166667
vt 0.500000 0.166667
vt 0.666667 0.166667
vt 0.833333 0.166667
vt 1.000000 0.166667
vt 0.000000 -0.000000
vt 0.166667 -0.000000
vt 0.333333 -0.000000
vt 0.500000 -0.000000
vt 0.666667 -0.000000
vt 0.833333 -0.000000
vt 1.000000 -0.000000
vn -0.710516 -0.183429 0.679354
vn -0.850841 0.525285 -0.012045
vn 0.160914 0.795260 0.584524
vn 0.199333 0.601225 0.773819
vn 0.140326 -0.708714 0.691400
vn 0.432280 0.457409 0.777117
vn 0.850841 -0.525285 0.012046
vn 0.626809 0.507629 0.591120
vn 0.710516 0.183429 -0.679353
vn 0.588390 0.701665 0.401825
vn -0.140325 0.708714 -0.691400
vn 0.355442 0.845481 0.398526
vn 0.881798 0.132071 0.452758
vn 0.785486 0.618496 -0.021783
vn 0.201512 0.979025 -0.030051
vn -0.286149 0.853129 0.436222
vn -0.189837 0.366704 0.910764
vn 0.394136 0.006174 0.919031
vn 0.850841 -0.525285 0.012045
vn 0.710516 0.183429 -0.679354
vn -0.140325 0.708714 -0.691400
vn -0.850841 0.525285 -0.012046
vn -0.710516 -0.183429 0.679354
vn 0.140325 -0.708714 0.691399
vn 0.286150 -0.853129 -0.436222
vn 0.189837 -0.366704 -0.910764
vn -0.394137 -0.006175 -0.919031
vn -0.881798 -0.132071 -0.452758
vn -0.785486 -0.618496 0.021784
vn -0.201512 -0.979025 0.030051
vn -0.626809 -0.507630 -0.591120
vn -0.588390 -0.701665 -0.401824
vn -0.355442 -0.845481 -0.398526
vn -0.160913 -0.795260 -0.584524
vn -0.199332 -0.601224 -0.773819
vn -0.432280 -0.457409 -0.777117
s 1
g CoinPurse coin5
usemtl initialShadingGroup
f 182/247/181 181/246/182 187/253/183 188/254/184
f 183/248/185 182/247/181 188/254/184 189/255/186
f 184/249/187 183/248/185 189/255/186 190/256/188
f 185/250/189 184/249/187 190/256/188 191/257/190
f 186/251/191 185/250/189 191/257/190 192/258/192
f 181/252/182 186/251/191 192/258/192 187/259/183
f 188/254/184 187/253/183 193/260/193 194/261/194
f 189/255/186 188/254/184 194/261/194 195/262/195
f 190/256/188 189/255/186 195/262/195 196/263/196
f 191/257/190 190/256/188 196/263/196 197/264/197
f 192/258/192 191/257/190 197/264/197 198/265/198
f 187/259/183 192/258/192 198/265/198 193/266/193
f 194/261/194 193/260/193 199/267/199 200/268/200
f 195/262/195 194/261/194 200/268/200 201/269/201
f 196/263/196 195/262/195 201/269/201 202/270/202
f 197/264/197 196/263/196 202/270/202 203/271/203
f 198/265/198 197/264/197 203/271/203 204/272/204
f 193/266/193 198/265/198 204/272/204 199/273/199
f 200/268/200 199/267/199 205/274/205 206/275/206
f 201/269/201 200/268/200 206/275/206 207/276/207
f 202/270/202 201/269/201 207/276/207 208/277/208
f 203/271/203 202/270/202 208/277/208 209/278/209
f 204/272/204 203/271/203 209/278/209 210/279/210
f 199/273/199 204/272/204 210/279/210 205/280/205
f 206/275/206 205/274/205 211/281/211 212/282/212
f 207/276/207 206/275/206 212/282/212 213/283/213
f 208/277/208 207/276/207 213/283/213 214/284/214
f 209/278/209 208/277/208 214/284/214 215/285/215
f 210/279/210 209/278/209 215/285/215 216/286/216
f 205/280/205 210/279/210 216/286/216 211/287/211
f 212/282/212 211/281/211 181/288/182 182/289/181
f 213/283/213 212/282/212 182/289/181 183/290/185
f 214/284/214 213/283/213 183/290/185 184/291/187
f 215/285/215 214/284/214 184/291/187 185/292/189
f 216/286/216 215/285/215 185/292/189 186/293/191
f 211/287/211 216/286/216 186/293/191 181/294/182
g default
v -0.188318 1.783229 -0.004132
v -0.187357 1.578850 -0.111277
v -0.149021 1.385688 0.009018
v -0.111645 1.396906 0.236459
v -0.112607 1.601286 0.343605
v -0.150943 1.794447 0.223309
v -0.403714 1.861510 -0.031131
v -0.402272 1.554940 -0.191849
v -0.344768 1.265197 -0.011406
v -0.288705 1.282024 0.329756
v -0.290147 1.588594 0.490474
v -0.347651 1.878336 0.310030
v -0.442050 2.054671 -0.151426
v -0.439647 1.543722 -0.419290
v -0.343807 1.060818 -0.118551
v -0.250369 1.088863 0.450051
v -0.252771 1.599812 0.717914
v -0.348612 2.082716 0.417176
v -0.264990 2.169552 -0.244723
v -0.262107 1.556414 -0.566159
v -0.147099 0.976928 -0.205272
v -0.034973 1.010583 0.477050
v -0.037856 1.623722 0.798486
v -0.152864 2.203206 0.437600
v -0.049594 2.091272 -0.217723
v -0.047192 1.580323 -0.485587
v 0.048648 1.097419 -0.184848
v 0.142086 1.125464 0.383754
v 0.139684 1.636413 0.651617
v 0.043844 2.119317 0.350879
v -0.011258 1.898111 -0.097428
v -0.009817 1.591541 -0.258146
v 0.047687 1.301799 -0.077703
v 0.103750 1.318626 0.263458
v 0.102309 1.625195 0.424176
v 0.044805 1.914938 0.243733
vt 0.000000 1.000000
vt 0.166667 1.000000
vt 0.333333 1.000000
vt 0.500000 1.000000
vt 0.666667 1.000000
vt 0.833333 1.000000
vt 1.000000 1.000000
vt 0.000000 0.833333
vt 0.166667 0.833333
vt 0.333333 0.833333
vt 0.500000 0.833333
vt 0.666667 0.833333
vt 0.833333 0.833333
vt 1.000000 0.833333
vt 0.000000 0.666667
vt 0.166667 0.666667
vt 0.333333 0.666667
vt 0.500000 0.666667
vt 0.666667 0.666667
vt 0.833333 0.666667
vt 1.000000 0.666667
vt 0.000000 0.500000
vt 0.166667 0.500000
vt 0.333333 0.500000
vt 0.500000 0.500000
vt 0.666667 0.500000
vt 0.833333 0.500000
vt 1.000000 0.500000
vt 0.000000 0.333333
vt 0.166667 0.333333
vt 0.333333 0.333333
vt 0.500000 0.333333
vt 0.666667 0.333333
vt 0.833333 0.333333
vt 1.000000 0.333333
vt 0.000000 0.166667
vt 0.166667 0.166667
vt 0.333333 0.166667
vt 0.500000 0.166667
vt 0.666667 0.166667
vt 0.833333 0.166667
vt 1.000000 0.166667
vt 0.000000 -0.000000
vt 0.166667 -0.000000
vt 0.333333 -0.000000
vt 0.500000 -0.000000
vt 0.666667 -0.000000
vt 0.833333 -0.000000
vt 1.000000 -0.000000
vn 0.161962 0.048612 0.985599
vn 0.166127 -0.837052 0.521292
vn -0.898887 -0.317247 0.302254
vn -0.900027 -0.074765 0.429374
vn -0.004165 0.885665 0.464307
vn -0.945510 0.154408 0.286652
vn -0.166127 0.837052 -0.521292
vn -0.989853 0.141099 0.016810
vn -0.161963 -0.048612 -0.985599
vn -0.988713 -0.101383 -0.110311
vn 0.004164 -0.885665 -0.464307
vn -0.943230 -0.330556 0.032411
vn -0.828120 0.507912 -0.237156
vn -0.825262 -0.099963 -0.555832
vn -0.711241 -0.674473 -0.198044
vn -0.600078 -0.641108 0.478420
vn -0.602936 -0.033234 0.797097
vn -0.716957 0.541277 0.439309
vn -0.166127 0.837052 -0.521292
vn -0.161963 -0.048612 -0.985599
vn 0.004164 -0.885664 -0.464307
vn 0.166127 -0.837052 0.521292
vn 0.161963 0.048612 0.985599
vn -0.004164 0.885665 0.464307
vn 0.600078 0.641109 -0.478420
vn 0.602937 0.033233 -0.797097
vn 0.716958 -0.541276 -0.439308
vn 0.828120 -0.507911 0.237156
vn 0.825262 0.099964 0.555832
vn 0.711241 0.674474 0.198044
vn 0.989853 -0.141099 -0.016810
vn 0.988713 0.101383 0.110311
vn 0.943229 0.330556 -0.032411
vn 0.898886 0.317247 -0.302254
vn 0.900026 0.074765 -0.429375
vn 0.945510 -0.154408 -0.286653
s 1
g CoinPurse coin4
usemtl initialShadingGroup
f 218/296/217 217/295/218 223/302/219 224/303/220
f 219/297/221 218/296/217 224/303/220 225/304/222
f 220/298/223 219/297/221 225/304/222 226/305/224
f 221/299/225 220/298/223 226/305/224 227/306/226
f 222/300/227 221/299/225 227/306/226 228/307/228
f 217/301/218 222/300/227 228/307/228 223/308/219
f 224/303/220 223/302/219 229/309/229 230/310/230
f 225/304/222 224/303/220 230/310/230 231/311/231
f 226/305/224 225/304/222 231/311/231 232/312/232
f 227/306/226 226/305/224 232/312/232 233/313/233
f 228/307/228 227/306/226 233/313/233 234/314/234
f 223/308/219 228/307/228 234/314/234 229/315/229
f 230/310/230 229/309/229 235/316/235 236/317/236
f 231/311/231 230/310/230 236/317/236 237/318/237
f 232/312/232 231/311/231 237/318/237 238/319/238
f 233/313/233 232/312/232 238/319/238 239/320/239
f 234/314/234 233/313/233 239/320/239 240/321/240
f 229/315/229 234/314/234 240/321/240 235/322/235
f 236/317/236 235/316/235 241/323/241 242/324/242
f 237/318/237 236/317/236 242/324/242 243/325/243
f 238/319/238 237/318/237 243/325/243 244/326/244
f 239/320/239 238/319/238 244/326/244 245/327/245
f 240/321/240 239/320/239 245/327/245 246/328/246
f 235/322/235 240/321/240 246/328/246 241/329/241
f 242/324/242 241/323/241 247/330/247 248/331/248
f 243/325/243 242/324/242 248/331/248 249/332/249
f 244/326/244 243/325/243 249/332/249 250/333/250
f 245/327/245 244/326/244 250/333/250 251/334/251
f 246/328/246 245/327/245 251/334/251 252/335/252
f 241/329/241 246/328/246 252/335/252 247/336/247
f 248/331/248 247/330/247 217/337/218 218/338/217
f 249/332/249 248/331/248 218/338/217 219/339/221
f 250/333/250 249/332/249 219/339/221 220/340/223
f 251/334/251 250/333/250 220/340/223 221/341/225
f 252/335/252 251/334/251 221/341/225 222/342/227
f 247/336/247 252/335/252 222/342/227 217/343/218
g default
v 0.610940 1.644439 0.029993
v 0.685757 1.426235 0.036429
v 0.713301 1.319638 0.239236
v 0.666027 1.431245 0.435606
v 0.591210 1.649449 0.429169
v 0.563667 1.756046 0.226363
v 0.408373 1.632754 -0.079926
v 0.520598 1.305447 -0.070272
v 0.561914 1.145551 0.233938
v 0.491004 1.312962 0.528493
v 0.378779 1.640268 0.518839
v 0.337463 1.800164 0.214629
v 0.380829 1.739351 -0.282733
v 0.567871 1.193840 -0.266642
v 0.636731 0.927347 0.240374
v 0.518548 1.206364 0.731300
v 0.331506 1.751875 0.715209
v 0.262646 2.018368 0.208193
v 0.555852 1.857634 -0.375620
v 0.780303 1.203021 -0.356311
v 0.862934 0.883229 0.252108
v 0.721115 1.218050 0.841218
v 0.496664 1.872663 0.821909
v 0.414033 2.192455 0.213490
v 0.758419 1.869320 -0.265701
v 0.945461 1.323809 -0.249611
v 1.014321 1.057316 0.257406
v 0.896138 1.336333 0.748331
v 0.709096 1.881844 0.732240
v 0.640236 2.148337 0.225224
v 0.785963 1.762722 -0.062895
v 0.898188 1.435416 -0.053240
v 0.939504 1.275520 0.250969
v 0.868594 1.442931 0.545524
v 0.756369 1.770237 0.535870
v 0.715053 1.930133 0.231660
vt 0.000000 1.000000
vt 0.166667 1.000000
vt 0.333333 1.000000
vt 0.500000 1.000000
vt 0.666667 1.000000
vt 0.833333 1.000000
vt 1.000000 1.000000
vt 0.000000 0.833333
vt 0.166667 0.833333
vt 0.333333 0.833333
vt 0.500000 0.833333
vt 0.666667 0.833333
vt 0.833333 0.833333
vt 1.000000 0.833333
vt 0.000000 0.666667
vt 0.166667 0.666667
vt 0.333333 0.666667
vt 0.500000 0.666667
vt 0.666667 0.666667
vt 0.833333 0.666667
vt 1.000000 0.666667
vt 0.000000 0.500000
vt 0.166667 0.500000
vt 0.333333 0.500000
vt 0.500000 0.500000
vt 0.666667 0.500000
vt 0.833333 0.500000
vt 1.000000 0.500000
vt 0.000000 0.333333
vt 0.166667 0.333333
vt 0.333333 0.333333
vt 0.500000 0.333333
vt 0.666667 0.333333
vt 0.833333 0.333333
vt 1.000000 0.333333
vt 0.000000 0.166667
vt 0.166667 0.166667
vt 0.333333 0.166667
vt 0.500000 0.166667
vt 0.666667 0.166667
vt 0.833333 0.166667
vt 1.000000 0.166667
vt 0.000000 -0.000000
vt 0.166667 -0.000000
vt 0.333333 -0.000000
vt 0.500000 -0.000000
vt 0.666667 -0.000000
vt 0.833333 -0.000000
vt 1.000000 -0.000000
vn -0.204855 0.483641 0.850956
vn 0.119359 -0.461932 0.878847
vn -0.875920 -0.439216 0.199633
vn -0.964685 -0.180331 0.191997
vn -0.324214 0.945572 -0.027891
vn -0.997364 -0.053861 -0.048619
vn -0.119359 0.461931 -0.878847
vn -0.941278 -0.186275 -0.281598
vn 0.204854 -0.483641 -0.850956
vn -0.852513 -0.445159 -0.273961
vn 0.324214 -0.945573 0.027891
vn -0.819834 -0.571629 -0.033346
vn -0.768973 0.080559 -0.634185
vn -0.546449 -0.568433 -0.615042
vn -0.464527 -0.885480 -0.011846
vn -0.605129 -0.553533 0.572206
vn -0.827652 0.095459 0.553063
vn -0.909574 0.412506 -0.050132
vn -0.119359 0.461931 -0.878847
vn 0.204855 -0.483641 -0.850956
vn 0.324214 -0.945573 0.027891
vn 0.119359 -0.461931 0.878847
vn -0.204854 0.483641 0.850956
vn -0.324214 0.945573 -0.027891
vn 0.605129 0.553533 -0.572206
vn 0.827653 -0.095459 -0.553063
vn 0.909575 -0.412505 0.050133
vn 0.768973 -0.080559 0.634185
vn 0.546449 0.568434 0.615042
vn 0.464527 0.885480 0.011846
vn 0.941278 0.186275 0.281598
vn 0.852513 0.445159 0.273962
vn 0.819834 0.571630 0.033346
vn 0.875920 0.439216 -0.199634
vn 0.964685 0.180331 -0.191998
vn 0.997364 0.053861 0.048618
s 1
g CoinPurse coin3
usemtl initialShadingGroup
f 254/345/253 253/344/254 259/351/255 260/352/256
f 255/346/257 254/345/253 260/352/256 261/353/258
f 256/347/259 255/346/257 261/353/258 262/354/260
f 257/348/261 256/347/259 262/354/260 263/355/262
f 258/349/263 257/348/261 263/355/262 264/356/264
f 253/350/254 258/349/263 264/356/264 259/357/255
f 260/352/256 259/351/255 265/358/265 266/359/266
f 261/353/258 260/352/256 266/359/266 267/360/267
f 262/354/260 261/353/258 267/360/267 268/361/268
f 263/355/262 262/354/260 268/361/268 269/362/269
f 264/356/264 263/355/262 269/362/269 270/363/270
f 259/357/255 264/356/264 270/363/270 265/364/265
f 266/359/266 265/358/265 271/365/271 272/366/272
f 267/360/267 266/359/266 272/366/272 273/367/273
f 268/361/268 267/360/267 273/367/273 274/368/274
f 269/362/269 268/361/268 274/368/274 275/369/275
f 270/363/270 269/362/269 275/369/275 276/370/276
f 265/364/265 270/363/270 276/370/276 271/371/271
f 272/366/272 271/365/271 277/372/277 278/373/278
f 273/367/273 272/366/272 278/373/278 279/374/279
f 274/368/274 273/367/273 279/374/279 280/375/280
f 275/369/275 274/368/274 280/375/280 281/376/281
f 276/370/276 275/369/275 281/376/281 282/377/282
f 271/371/271 276/370/276 282/377/282 277/378/277
f 278/373/278 277/372/277 283/379/283 284/380/284
f 279/374/279 278/373/278 284/380/284 285/381/285
f 280/375/280 279/374/279 285/381/285 286/382/286
f 281/376/281 280/375/280 286/382/286 287/383/287
f 282/377/282 281/376/281 287/383/287 288/384/288
f 277/378/277 282/377/282 288/384/288 283/385/283
f 284/380/284 283/379/283 253/386/254 254/387/253
f 285/381/285 284/380/284 254/387/253 255/388/257
f 286/382/286 285/381/285 255/388/257 256/389/259
f 287/383/287 286/382/286 256/389/259 257/390/261
f 288/384/288 287/383/287 257/390/261 258/391/263
f 283/385/283 288/384/288 258/391/263 253/392/254
g default
v 0.353691 1.522496 -1.078710
v 0.406027 1.745921 -1.054332
v 0.417838 1.839340 -0.843653
v 0.377313 1.709333 -0.657352
v 0.324977 1.485908 -0.681730
v 0.313166 1.392490 -0.892409
v 0.541895 1.429253 -1.174298
v 0.620399 1.764391 -1.137732
v 0.638116 1.904519 -0.821713
v 0.577328 1.709510 -0.542262
v 0.498824 1.374372 -0.578828
v 0.481107 1.234244 -0.894846
v 0.530084 1.335834 -1.384977
v 0.660924 1.894397 -1.324033
v 0.690452 2.127944 -0.797336
v 0.589139 1.802928 -0.331583
v 0.458299 1.244366 -0.392526
v 0.428771 1.010819 -0.919223
v 0.330069 1.335659 -1.500067
v 0.487077 2.005934 -1.426935
v 0.522510 2.286190 -0.794899
v 0.400935 1.896171 -0.235995
v 0.243926 1.225896 -0.309127
v 0.208493 0.945640 -0.941164
v 0.141864 1.428901 -1.404479
v 0.272705 1.987464 -1.343536
v 0.302232 2.221010 -0.816838
v 0.200919 1.895995 -0.351086
v 0.070079 1.337432 -0.412030
v 0.040551 1.103885 -0.938726
v 0.153675 1.522320 -1.193801
v 0.232179 1.857457 -1.157234
v 0.249896 1.997585 -0.841216
v 0.189108 1.802576 -0.561765
v 0.110604 1.467438 -0.598331
v 0.092888 1.327310 -0.914349
vt 0.000000 1.000000
vt 0.166667 1.000000
vt 0.333333 1.000000
vt 0.500000 1.000000
vt 0.666667 1.000000
vt 0.833333 1.000000
vt 1.000000 1.000000
vt 0.000000 0.833333
vt 0.166667 0.833333
vt 0.333333 0.833333
vt 0.500000 0.833333
vt 0.666667 0.833333
vt 0.833333 0.833333
vt 1.000000 0.833333
vt 0.000000 0.666667
vt 0.166667 0.666667
vt 0.333333 0.666667
vt 0.500000 0.666667
vt 0.666667 0.666667
vt 0.833333 0.666667
vt 1.000000 0.666667
vt 0.000000 0.500000
vt 0.166667 0.500000
vt 0.333333 0.500000
vt 0.500000 0.500000
vt 0.666667 0.500000
vt 0.833333 0.500000
vt 1.000000 0.500000
vt 0.000000 0.333333
vt 0.166667 0.333333
vt 0.333333 0.333333
vt 0.500000 0.333333
vt 0.666667 0.333333
vt 0.833333 0.333333
vt 1.000000 0.333333
vt 0.000000 0.166667
vt 0.166667 0.166667
vt 0.333333 0.166667
vt 0.500000 0.166667
vt 0.666667 0.166667
vt 0.833333 0.166667
vt 1.000000 0.166667
vt 0.000000 -0.000000
vt 0.166667 -0.000000
vt 0.333333 -0.000000
vt 0.500000 -0.000000
vt 0.666667 -0.000000
vt 0.833333 -0.000000
vt 1.000000 -0.000000
vn -0.175612 -0.563373 0.807323
vn 0.051183 0.404823 0.912961
vn 0.948190 -0.113112 0.296885
vn 0.886097 -0.378190 0.267963
vn -0.226795 -0.968197 -0.105638
vn 0.872084 -0.489025 0.018008
vn -0.051182 -0.404823 -0.912962
vn 0.920164 -0.334782 -0.203025
vn 0.175613 0.563373 -0.807323
vn 0.982257 -0.069703 -0.174103
vn 0.226795 0.968197 0.105638
vn 0.996270 0.041131 0.075852
vn 0.671263 -0.447191 -0.591123
vn 0.826924 0.217330 -0.518618
vn 0.862053 0.495180 0.107992
vn 0.741521 0.108509 0.662097
vn 0.585861 -0.556011 0.589592
vn 0.550731 -0.833861 -0.037017
vn -0.051182 -0.404823 -0.912961
vn 0.175613 0.563373 -0.807323
vn 0.226795 0.968197 0.105638
vn 0.051182 0.404823 0.912961
vn -0.175613 -0.563373 0.807323
vn -0.226795 -0.968197 -0.105638
vn -0.741521 -0.108510 -0.662097
vn -0.585861 0.556011 -0.589592
vn -0.550732 0.833861 0.037018
vn -0.671263 0.447190 0.591123
vn -0.826924 -0.217330 0.518618
vn -0.862052 -0.495180 -0.107992
vn -0.920164 0.334781 0.203025
vn -0.982257 0.069703 0.174103
vn -0.996270 -0.041132 -0.075852
vn -0.948190 0.113112 -0.296886
vn -0.886097 0.378191 -0.267964
vn -0.872084 0.489025 -0.018008
s 1
g CoinPurse coin2
usemtl initialShadingGroup
f 290/394/289 289/393/290 295/400/291 296/401/292
f 291/395/293 290/394/289 296/401/292 297/402/294
f 292/396/295 291/395/293 297/402/294 298/403/296
f 293/397/297 292/396/295 298/403/296 299/404/298
f 294/398/299 293/397/297 299/404/298 300/405/300
f 289/399/290 294/398/299 300/405/300 295/406/291
f 296/401/292 295/400/291 301/407/301 302/408/302
f 297/402/294 296/401/292 302/408/302 303/409/303
f 298/403/296 297/402/294 303/409/303 304/410/304
f 299/404/298 298/403/296 304/410/304 305/411/305
f 300/405/300 299/404/298 305/411/305 306/412/306
f 295/406/291 300/405/300 306/412/306 301/413/301
f 302/408/302 301/407/301 307/414/307 308/415/308
f 303/409/303 302/408/302 308/415/308 309/416/309
f 304/410/304 303/409/303 309/416/309 310/417/310
f 305/411/305 304/410/304 310/417/310 311/418/311
f 306/412/306 305/411/305 311/418/311 312/419/312
f 301/413/301 306/412/306 312/419/312 307/420/307
f 308/415/308 307/414/307 313/421/313 314/422/314
f 309/416/309 308/415/308 314/422/314 315/423/315
f 310/417/310 309/416/309 315/423/315 316/424/316
f 311/418/311 310/417/310 316/424/316 317/425/317
f 312/419/312 311/418/311 317/425/317 318/426/318
f 307/420/307 312/419/312 318/426/318 313/427/313
f 314/422/314 313/421/313 319/428/319 320/429/320
f 315/423/315 314/422/314 320/429/320 321/430/321
f 316/424/316 315/423/315 321/430/321 322/431/322
f 317/425/317 316/424/316 322/431/322 323/432/323
f 318/426/318 317/425/317 323/432/323 324/433/324
f 313/427/313 318/426/318 324/433/324 319/434/319
f 320/429/320 319/428/319 289/435/290 290/436/289
f 321/430/321 320/429/320 290/436/289 291/437/293
f 322/431/322 321/430/321 291/437/293 292/438/295
f 323/432/323 322/431/322 292/438/295 293/439/297
f 324/433/324 323/432/323 293/439/297 294/440/299
f 319/434/319 324/433/324 294/440/299 289/441/290
g default
v 0.061088 1.719567 -1.387357
v -0.119934 1.761401 -1.524226
v -0.329227 1.683814 -1.465668
v -0.357497 1.564394 -1.270241
v -0.176475 1.522561 -1.133372
v 0.032817 1.600147 -1.191930
v 0.130333 1.928430 -1.317833
v -0.141200 1.991180 -1.523137
v -0.455139 1.874801 -1.435299
v -0.497545 1.695671 -1.142159
v -0.226012 1.632920 -0.936855
v 0.087926 1.749300 -1.024693
v 0.339625 2.006016 -1.376391
v -0.112930 2.110600 -1.718563
v -0.636161 1.916634 -1.572168
v -0.706838 1.618084 -1.083601
v -0.254283 1.513500 -0.741428
v 0.268948 1.707466 -0.887823
v 0.479673 1.874740 -1.504473
v -0.063392 2.000241 -1.915080
v -0.691270 1.767482 -1.739407
v -0.776083 1.409221 -1.153125
v -0.233017 1.283721 -0.742518
v 0.394861 1.516480 -0.918193
v 0.410429 1.665877 -1.573998
v -0.042126 1.770461 -1.916171
v -0.565358 1.576495 -1.769775
v -0.636034 1.277945 -1.281208
v -0.183479 1.173361 -0.939035
v 0.339752 1.367327 -1.085430
v 0.201136 1.588291 -1.515440
v -0.070397 1.651041 -1.720743
v -0.384335 1.534662 -1.632906
v -0.426742 1.355532 -1.339766
v -0.155209 1.292781 -1.134462
v 0.158730 1.409161 -1.222299
vt 0.000000 1.000000
vt 0.166667 1.000000
vt 0.333333 1.000000
vt 0.500000 1.000000
vt 0.666667 1.000000
vt 0.833333 1.000000
vt 1.000000 1.000000
vt 0.000000 0.833333
vt 0.166667 0.833333
vt 0.333333 0.833333
vt 0.500000 0.833333
vt 0.666667 0.833333
vt 0.833333 0.833333
vt 1.000000 0.833333
vt 0.000000 0.666667
vt 0.166667 0.666667
vt 0.333333 0.666667
vt 0.500000 0.666667
vt 0.666667 0.666667
vt 0.833333 0.666667
vt 1.000000 0.666667
vt 0.000000 0.500000
vt 0.166667 0.500000
vt 0.333333 0.500000
vt 0.500000 0.500000
vt 0.666667 0.500000
vt 0.833333 0.500000
vt 1.000000 0.500000
vt 0.000000 0.333333
vt 0.166667 0.333333
vt 0.333333 0.333333
vt 0.500000 0.333333
vt 0.666667 0.333333
vt 0.833333 0.333333
vt 1.000000 0.333333
vt 0.000000 0.166667
vt 0.166667 0.166667
vt 0.333333 0.166667
vt 0.500000 0.166667
vt 0.666667 0.166667
vt 0.833333 0.166667
vt 1.000000 0.166667
vt 0.000000 -0.000000
vt 0.166667 -0.000000
vt 0.333333 -0.000000
vt 0.500000 -0.000000
vt 0.666667 -0.000000
vt 0.833333 -0.000000
vt 1.000000 -0.000000
vn -0.122510 -0.517498 0.846869
vn -0.906955 -0.336215 0.253757
vn -0.418687 0.726430 0.544979
vn -0.203917 0.676797 0.707364
vn 0.784446 -0.181282 0.593112
vn 0.044394 0.768848 0.637889
vn 0.906954 0.336215 -0.253757
vn 0.077935 0.910531 0.406029
vn 0.122509 0.517498 -0.846869
vn -0.136835 0.960164 0.243644
vn -0.784445 0.181283 -0.593112
vn -0.385145 0.868113 0.313118
vn 0.493655 0.849667 0.185393
vn -0.044748 0.974090 -0.221688
vn -0.667235 0.743330 -0.047522
vn -0.751319 0.388145 0.533725
vn -0.212916 0.263722 0.940807
vn 0.409571 0.494482 0.766641
vn 0.906955 0.336215 -0.253757
vn 0.122509 0.517498 -0.846869
vn -0.784445 0.181283 -0.593112
vn -0.906955 -0.336215 0.253757
vn -0.122509 -0.517498 0.846869
vn 0.784446 -0.181283 0.593112
vn 0.751320 -0.388145 -0.533725
vn 0.212916 -0.263722 -0.940807
vn -0.409571 -0.494483 -0.766641
vn -0.493655 -0.849667 -0.185393
vn 0.044748 -0.974090 0.221688
vn 0.667235 -0.743329 0.047523
vn -0.077935 -0.910531 -0.406029
vn 0.136835 -0.960164 -0.243643
vn 0.385146 -0.868113 -0.313118
vn 0.418687 -0.726429 -0.544979
vn 0.203917 -0.676796 -0.707365
vn -0.044394 -0.768847 -0.637890
s 1
g CoinPurse coin1
usemtl initialShadingGroup
f 326/443/325 325/442/326 331/449/327 332/450/328
f 327/444/329 326/443/325 332/450/328 333/451/330
f 328/445/331 327/444/329 333/451/330 334/452/332
f 329/446/333 328/445/331 334/452/332 335/453/334
f 330/447/335 329/446/333 335/453/334 336/454/336
f 325/448/326 330/447/335 336/454/336 331/455/327
f 332/450/328 331/449/327 337/456/337 338/457/338
f 333/451/330 332/450/328 338/457/338 339/458/339
f 334/452/332 333/451/330 339/458/339 340/459/340
f 335/453/334 334/452/332 340/459/340 341/460/341
f 336/454/336 335/453/334 341/460/341 342/461/342
f 331/455/327 336/454/336 342/461/342 337/462/337
f 338/457/338 337/456/337 343/463/343 344/464/344
f 339/458/339 338/457/338 344/464/344 345/465/345
f 340/459/340 339/458/339 345/465/345 346/466/346
f 341/460/341 340/459/340 346/466/346 347/467/347
f 342/461/342 341/460/341 347/467/347 348/468/348
f 337/462/337 342/461/342 348/468/348 343/469/343
f 344/464/344 343/463/343 349/470/349 350/471/350
f 345/465/345 344/464/344 350/471/350 351/472/351
f 346/466/346 345/465/345 351/472/351 352/473/352
f 347/467/347 346/466/346 352/473/352 353/474/353
f 348/468/348 347/467/347 353/474/353 354/475/354
f 343/469/343 348/468/348 354/475/354 349/476/349
f 350/471/350 349/470/349 355/477/355 356/478/356
f 351/472/351 350/471/350 356/478/356 357/479/357
f 352/473/352 351/472/351 357/479/357 358/480/358
f 353/474/353 352/473/352 358/480/358 359/481/359
f 354/475/354 353/474/353 359/481/359 360/482/360
f 349/476/349 354/475/354 360/482/360 355/483/355
f 356/478/356 355/477/355 325/484/326 326/485/325
f 357/479/357 356/478/356 326/485/325 327/486/329
f 358/480/358 357/479/357 327/486/329 328/487/331
f 359/481/359 358/480/358 328/487/331 329/488/333
f 360/482/360 359/481/359 329/488/333 330/489/335
f 355/483/355 360/482/360 330/489/335 325/490/326
g default
v 0.494301 1.684301 1.068914
v 0.494301 1.453537 1.068914
v 0.494301 1.338155 1.268762
v 0.494301 1.453537 1.468609
v 0.494301 1.684301 1.468610
v 0.494301 1.799683 1.268762
v 0.294454 1.741993 0.968991
v 0.294454 1.395846 0.968990
v 0.294454 1.222773 1.268762
v 0.294454 1.395846 1.568533
v 0.294454 1.741993 1.568533
v 0.294454 1.915065 1.268762
v 0.294454 1.857375 0.769143
v 0.294454 1.280464 0.769143
v 0.294454 0.992009 1.268762
v 0.294454 1.280464 1.768381
v 0.294454 1.857374 1.768381
v 0.294454 2.145830 1.268762
v 0.494301 1.915065 0.669219
v 0.494301 1.222773 0.669219
v 0.494301 0.876627 1.268762
v 0.494301 1.222773 1.868305
v 0.494301 1.915066 1.868305
v 0.494301 2.261212 1.268762
v 0.694149 1.857375 0.769143
v 0.694149 1.280464 0.769143
v 0.694149 0.992009 1.268762
v 0.694149 1.280464 1.768381
v 0.694149 1.857375 1.768381
v 0.694149 2.145830 1.268762
v 0.694149 1.741993 0.968991
v 0.694149 1.395846 0.968991
v 0.694149 1.222773 1.268762
v 0.694149 1.395846 1.568533
v 0.694149 1.741992 1.568533
v 0.694149 1.915066 1.268762
vt 0.000000 1.000000
vt 0.166667 1.000000
vt 0.333333 1.000000
vt 0.500000 1.000000
vt 0.666667 1.000000
vt 0.833333 1.000000
vt 1.000000 1.000000
vt 0.000000 0.833333
vt 0.166667 0.833333
vt 0.333333 0.833333
vt 0.500000 0.833333
vt 0.666667 0.833333
vt 0.833333 0.833333
vt 1.000000 0.833333
vt 0.000000 0.666667
vt 0.166667 0.666667
vt 0.333333 0.666667
vt 0.500000 0.666667
vt 0.666667 0.666667
vt 0.833333 0.666667
vt 1.000000 0.666667
vt 0.000000 0.500000
vt 0.166667 0.500000
vt 0.333333 0.500000
vt 0.500000 0.500000
vt 0.666667 0.500000
vt 0.833333 0.500000
vt 1.000000 0.500000
vt 0.000000 0.333333
vt 0.166667 0.333333
vt 0.333333 0.333333
vt 0.500000 0.333333
vt 0.666667 0.333333
vt 0.833333 0.333333
vt 1.000000 0.333333
vt 0.000000 0.166667
vt 0.166667 0.166667
vt 0.333333 0.166667
vt 0.500000 0.166667
vt 0.666667 0.166667
vt 0.833333 0.166667
vt 1.000000 0.166667
vt 0.000000 -0.000000
vt 0.166667 -0.000000
vt 0.333333 -0.000000
vt 0.500000 -0.000000
vt 0.666667 -0.000000
vt 0.833333 -0.000000
vt 1.000000 -0.000000
vn -0.000001 0.500000 0.866026
vn -0.000000 -0.500000 0.866026
vn -0.961791 -0.136893 0.237105
vn -0.961791 0.136893 0.237105
vn -0.000000 1.000000 -0.000000
vn -0.961791 0.273786 -0.000000
vn -0.000000 0.500000 -0.866026
vn -0.961791 0.136893 -0.237105
vn -0.000000 -0.500000 -0.866026
vn -0.961791 -0.136893 -0.237105
vn 0.000000 -1.000000 -0.000000
vn -0.961791 -0.273785 -0.000000
vn -0.727272 0.343175 -0.594396
vn -0.727273 -0.343174 -0.594395
vn -0.727273 -0.686349 -0.000000
vn -0.727273 -0.343175 0.594395
vn -0.727273 0.343174 0.594396
vn -0.727272 0.686349 0.000000
vn 0.000000 0.500000 -0.866026
vn 0.000000 -0.500000 -0.866025
vn 0.000000 -1.000000 -0.000001
vn 0.000000 -0.500000 0.866026
vn 0.000000 0.500000 0.866025
vn 0.000000 1.000000 -0.000000
vn 0.727272 0.343175 -0.594395
vn 0.727273 -0.343174 -0.594395
vn 0.727273 -0.686348 0.000000
vn 0.727273 -0.343174 0.594395
vn 0.727272 0.343174 0.594396
vn 0.727272 0.686349 0.000000
vn 0.961791 -0.136893 0.237105
vn 0.961791 0.136893 0.237105
vn 0.961791 0.273786 0.000000
vn 0.961791 0.136893 -0.237106
vn 0.961791 -0.136893 -0.237106
vn 0.961791 -0.273786 -0.000000
s 1
g CoinPurse coin
usemtl initialShadingGroup
f 362/492/361 361/491/362 367/498/363 368/499/364
f 363/493/365 362/492/361 368/499/364 369/500/366
f 364/494/367 363/493/365 369/500/366 370/501/368
f 365/495/369 364/494/367 370/501/368 371/502/370
f 366/496/371 365/495/369 371/502/370 372/503/372
f 361/497/362 366/496/371 372/503/372 367/504/363
f 368/499/364 367/498/363 373/505/373 374/506/374
f 369/500/366 368/499/364 374/506/374 375/507/375
f 370/501/368 369/500/366 375/507/375 376/508/376
f 371/502/370 370/501/368 376/508/376 377/509/377
f 372/503/372 371/502/370 377/509/377 378/510/378
f 367/504/363 372/503/372 378/510/378 373/511/373
f 374/506/374 373/505/373 379/512/379 380/513/380
f 375/507/375 374/506/374 380/513/380 381/514/381
f 376/508/376 375/507/375 381/514/381 382/515/382
f 377/509/377 376/508/376 382/515/382 383/516/383
f 378/510/378 377/509/377 383/516/383 384/517/384
f 373/511/373 378/510/378 384/517/384 379/518/379
f 380/513/380 379/512/379 385/519/385 386/520/386
f 381/514/381 380/513/380 386/520/386 387/521/387
f 382/515/382 381/514/381 387/521/387 388/522/388
f 383/516/383 382/515/382 388/522/388 389/523/389
f 384/517/384 383/516/383 389/523/389 390/524/390
f 379/518/379 384/517/384 390/524/390 385/525/385
f 386/520/386 385/519/385 391/526/391 392/527/392
f 387/521/387 386/520/386 392/527/392 393/528/393
f 388/522/388 387/521/387 393/528/393 394/529/394
f 389/523/389 388/522/388 394/529/394 395/530/395
f 390/524/390 389/523/389 395/530/395 396/531/396
f 385/525/385 390/524/390 396/531/396 391/532/391
f 392/527/392 391/526/391 361/533/362 362/534/361
f 393/528/393 392/527/392 362/534/361 363/535/365
f 394/529/394 393/528/393 363/535/365 364/536/367
f 395/530/395 394/529/394 364/536/367 365/537/369
f 396/531/396 395/530/395 365/537/369 366/538/371
f 391/532/391 396/531/396 366/538/371 361/539/362
g default
v 1.340976 -0.239352 -0.433013
v 1.340976 -0.739352 -0.433013
v 1.340976 -0.989352 -0.000000
v 1.340976 -0.739352 0.433013
v 1.340976 -0.239352 0.433013
v 1.340976 0.010648 0.000000
v 0.907963 -0.114352 -0.649519
v 0.907963 -0.864352 -0.649519
v 0.907963 -1.239352 -0.000000
v 0.907963 -0.864352 0.649519
v 0.907963 -0.114352 0.649519
v 0.907963 0.260648 0.000000
v 0.907963 0.135648 -1.082532
v 0.907963 -1.114352 -1.082532
v 0.907963 -1.739352 -0.000000
v 0.907963 -1.114352 1.082532
v 0.907963 0.135648 1.082532
v 0.907963 0.760648 0.000000
v 1.340976 0.260648 -1.299038
v 1.340976 -1.239352 -1.299038
v 1.340976 -1.989352 -0.000000
v 1.340976 -1.239352 1.299038
v 1.340976 0.260648 1.299038
v 1.340976 1.010648 0.000000
v 1.773988 0.135648 -1.082532
v 1.773988 -1.114352 -1.082532
v 1.773988 -1.739352 -0.000000
v 1.773988 -1.114352 1.082532
v 1.773988 0.135648 1.082532
v 1.773988 0.760648 0.000000
v 1.773988 -0.114352 -0.649519
v 1.773988 -0.864352 -0.649519
v 1.773988 -1.239352 -0.000000
v 1.773988 -0.864352 0.649519
v 1.773988 -0.114352 0.649519
v 1.773988 0.260648 0.000000
vt 0.000000 1.000000
vt 0.166667 1.000000
vt 0.333333 1.000000
vt 0.500000 1.000000
vt 0.666667 1.000000
vt 0.833333 1.000000
vt 1.000000 1.000000
vt 0.000000 0.833333
vt 0.166667 0.833333
vt 0.333333 0.833333
vt 0.500000 0.833333
vt 0.666667 0.833333
vt 0.833333 0.833333
vt 1.000000 0.833333
vt 0.000000 0.666667
vt 0.166667 0.666667
vt 0.333333 0.666667
vt 0.500000 0.666667
vt 0.666667 0.666667
vt 0.833333 0.666667
vt 1.000000 0.666667
vt 0.000000 0.500000
vt 0.166667 0.500000
vt 0.333333 0.500000
vt 0.500000 0.500000
vt 0.666667 0.500000
vt 0.833333 0.500000
vt 1.000000 0.500000
vt 0.000000 0.333333
vt 0.166667 0.333333
vt 0.333333 0.333333
vt 0.500000 0.333333
vt 0.666667 0.333333
vt 0.833333 0.333333
vt 1.000000 0.333333
vt 0.000000 0.166667
vt 0.166667 0.166667
vt 0.333333 0.166667
vt 0.500000 0.166667
vt 0.666667 0.166667
vt 0.833333 0.166667
vt 1.000000 0.166667
vt 0.000000 -0.000000
vt 0.166667 -0.000000
vt 0.333333 -0.000000
vt 0.500000 -0.000000
vt 0.666667 -0.000000
vt 0.833333 -0.000000
vt 1.000000 -0.000000
vn -0.000000 0.500000 0.866026
vn -0.000000 -0.500000 0.866025
vn -0.961791 -0.136893 0.237105
vn -0.961791 0.136893 0.237105
vn -0.000000 1.000000 0.000000
vn -0.961791 0.273786 0.000000
vn -0.000000 0.500000 -0.866025
vn -0.961791 0.136893 -0.237105
vn -0.000000 -0.500000 -0.866025
vn -0.961791 -0.136893 -0.237105
vn -0.000000 -1.000000 -0.000000
vn -0.961791 -0.273786 -0.000000
vn -0.727273 0.343174 -0.594395
vn -0.727273 -0.343174 -0.594396
vn -0.727273 -0.686349 -0.000000
vn -0.727273 -0.343174 0.594395
vn -0.727273 0.343174 0.594396
vn -0.727273 0.686349 0.000000
vn 0.000000 0.500000 -0.866025
vn 0.000000 -0.500000 -0.866025
vn 0.000000 -1.000000 -0.000000
vn 0.000000 -0.500000 0.866025
vn 0.000000 0.500000 0.866025
vn 0.000000 1.000000 0.000000
vn 0.727273 0.343174 -0.594395
vn 0.727273 -0.343174 -0.594395
vn 0.727273 -0.686348 -0.000000
vn 0.727273 -0.343174 0.594395
vn 0.727273 0.343174 0.594395
vn 0.727273 0.686348 0.000000
vn 0.961791 -0.136893 0.237105
vn 0.961791 0.136893 0.237106
vn 0.961791 0.273786 0.000000
vn 0.961791 0.136893 -0.237105
vn 0.961791 -0.136893 -0.237106
vn 0.961791 -0.273786 -0.000000
s 1
g CoinPurse pTorus1
usemtl initialShadingGroup
f 398/541/397 397/540/398 403/547/399 404/548/400
f 399/542/401 398/541/397 404/548/400 405/549/402
f 400/543/403 399/542/401 405/549/402 406/550/404
f 401/544/405 400/543/403 406/550/404 407/551/406
f 402/545/407 401/544/405 407/551/406 408/552/408
f 397/546/398 402/545/407 408/552/408 403/553/399
f 404/548/400 403/547/399 409/554/409 410/555/410
f 405/549/402 404/548/400 410/555/410 411/556/411
f 406/550/404 405/549/402 411/556/411 412/557/412
f 407/551/406 406/550/404 412/557/412 413/558/413
f 408/552/408 407/551/406 413/558/413 414/559/414
f 403/553/399 408/552/408 414/559/414 409/560/409
f 410/555/410 409/554/409 415/561/415 416/562/416
f 411/556/411 410/555/410 416/562/416 417/563/417
f 412/557/412 411/556/411 417/563/417 418/564/418
f 413/558/413 412/557/412 418/564/418 419/565/419
f 414/559/414 413/558/413 419/565/419 420/566/420
f 409/560/409 414/559/414 420/566/420 415/567/415
f 416/562/416 415/561/415 421/568/421 422/569/422
f 417/563/417 416/562/416 422/569/422 423/570/423
f 418/564/418 417/563/417 423/570/423 424/571/424
f 419/565/419 418/564/418 424/571/424 425/572/425
f 420/566/420 419/565/419 425/572/425 426/573/426
f 415/567/415 420/566/420 426/573/426 421/574/421
f 422/569/422 421/568/421 427/575/427 428/576/428
f 423/570/423 422/569/422 428/576/428 429/577/429
f 424/571/424 423/570/423 429/577/429 430/578/430
f 425/572/425 424/571/424 430/578/430 431/579/431
f 426/573/426 425/572/425 431/579/431 432/580/432
f 421/574/421 426/573/426 432/580/432 427/581/427
f 428/576/428 427/575/427 397/582/398 398/583/397
f 429/577/429 428/576/428 398/583/397 399/584/401
f 430/578/430 429/577/429 399/584/401 400/585/403
f 431/579/431 430/578/430 400/585/403 401/586/405
f 432/580/432 431/579/431 401/586/405 402/587/407
f 427/581/427 432/580/432 402/587/407 397/588/398
g default
v -1.224137 -2.238857 2.571524
v -0.408046 -2.238857 2.816620
v 0.408046 -2.238857 2.816620
v 1.224137 -2.238857 2.571524
v -1.224137 -0.726161 2.364237
v -0.408046 -0.726161 2.589577
v 0.408046 -0.726161 2.589577
v 1.224137 -0.726161 2.364237
v -1.224137 0.687559 2.226266
v -0.408046 0.691345 2.438456
v 0.408046 0.691345 2.438456
v 1.224137 0.687559 2.226266
v -1.224137 2.010138 2.226266
v -0.408046 2.020946 2.438456
v 0.408046 2.020946 2.438456
v 1.224137 2.010138 2.226266
v -1.224137 1.718450 1.087204
v 1.224137 1.718450 1.087204
v -1.224137 1.563046 0.000000
v 1.224137 1.563046 0.000000
v -1.224137 1.718450 -1.087204
v 1.224137 1.718450 -1.087204
v -1.224137 2.010138 -2.226266
v -0.408046 2.020946 -2.438456
v 0.408046 2.020946 -2.438456
v 1.224137 2.010138 -2.226266
v -1.224137 0.687559 -2.226266
v -0.408046 0.691344 -2.438456
v 0.408046 0.691344 -2.438456
v 1.224137 0.687559 -2.226266
v -1.224137 -0.726161 -2.364237
v -0.408046 -0.726161 -2.589577
v 0.408046 -0.726161 -2.589577
v 1.224137 -0.726161 -2.364237
v -1.224137 -2.238857 -2.571524
v -0.408046 -2.238857 -2.816620
v 0.408046 -2.238857 -2.816620
v 1.224137 -2.238857 -2.571524
v -1.224137 -2.574046 -1.285762
v -0.408046 -2.574046 -1.368263
v 0.408046 -2.574046 -1.368263
v 1.224137 -2.574046 -1.285762
v -1.224137 -2.752625 0.000000
v -0.408046 -2.752625 0.000000
v 0.408046 -2.752625 0.000000
v 1.224137 -2.752625 0.000000
v -1.224137 -2.574046 1.285762
v -0.408046 -2.574046 1.368263
v 0.408046 -2.574046 1.368263
v 1.224137 -2.574046 1.285762
v 1.224137 -0.892476 -1.103655
v 1.224137 -0.997189 0.000000
v 1.224137 -0.892476 1.103655
v 1.224137 0.542828 -1.058320
v 1.224137 0.451705 0.000000
v 1.224137 0.542828 1.058320
v -1.224137 -0.892476 -1.103655
v -1.224137 -0.997189 0.000000
v -1.224137 -0.892476 1.103655
v -1.224137 0.542828 -1.058320
v -1.224137 0.451705 0.000000
v -1.224137 0.542828 1.058320
v -0.815876 1.908560 1.917088
v -0.271959 1.937137 2.003027
v 0.271959 1.937137 2.003027
v 0.815876 1.908560 1.917088
v -0.815876 1.908560 -1.917088
v -0.271959 1.937137 -2.003027
v 0.271959 1.937137 -2.003027
v 0.815876 1.908560 -1.917088
v -0.815876 1.670148 0.916647
v 0.815876 1.670148 0.916647
v -0.815876 1.563046 0.000000
v 0.815876 1.563046 0.000000
v -0.815876 1.670148 -0.916647
v 0.815876 1.670148 -0.916647
v 0.000000 -0.005225 0.000000
v -1.584872 2.583828 2.078036
v -1.457989 2.321183 1.048060
v -1.173074 2.669955 1.772958
v -1.069366 2.455282 0.881539
v -1.390389 2.181252 0.000000
v -1.022778 2.358844 0.000000
v -1.457989 2.321183 -1.048060
v -1.069366 2.455282 -0.881539
v -1.584872 2.583828 -2.078036
v -1.173074 2.669955 -1.772958
v -2.138396 2.786496 1.937712
v -1.878109 2.654842 0.984492
v -1.863484 3.104959 1.592262
v -1.650738 2.997352 0.801972
v -1.739435 2.584701 0.000000
v -1.555166 2.949011 0.000000
v -1.878109 2.654842 -0.984492
v -1.650738 2.997352 -0.801972
v -2.138396 2.786496 -1.937712
v -1.863484 3.104959 -1.592262
v -2.355938 2.753407 1.914659
v -2.083555 2.857760 0.963025
v -2.407140 3.170988 1.554442
v -2.184507 3.256280 0.777221
v -1.938437 2.913356 0.000000
v -2.084494 3.294596 0.000000
v -2.083555 2.857760 -0.963025
v -2.184507 3.256280 -0.777221
v -2.355938 2.753407 -1.914659
v -2.407140 3.170988 -1.554442
v -2.810392 2.753407 1.905890
v -2.823774 2.857760 0.952945
v -2.861593 3.170988 1.554442
v -2.924727 3.256280 0.777221
v -2.799727 2.913356 0.000000
v -2.945784 3.294596 0.000000
v -2.823774 2.857760 -0.952945
v -2.924727 3.256280 -0.777221
v -2.810392 2.753407 -1.905890
v -2.861593 3.170988 -1.554442
v -3.272592 2.526400 1.905890
v -3.706150 2.395368 0.952945
v -3.528019 2.860693 1.554442
v -3.994849 2.688050 0.777221
v -3.713535 2.455490 0.000000
v -4.032398 2.710447 0.000000
v -3.706150 2.395368 -0.952945
v -3.994849 2.688050 -0.777221
v -3.272592 2.526400 -1.905890
v -3.528019 2.860693 -1.554442
v 0.000000 1.937137 -2.014617
v 0.000000 2.020946 -2.470107
v 0.000000 0.691344 -2.470107
v 0.000000 -0.726161 -2.623190
v 0.000000 -2.238857 -2.853180
v 0.000000 -2.574046 -1.386023
v 0.000000 -2.752625 0.000000
v 0.000000 -2.574046 1.386023
v 0.000000 -2.238857 2.853180
v 0.000000 -0.726161 2.623190
v 0.000000 0.691345 2.470107
v 0.000000 2.020946 2.470107
v 0.000000 1.937137 2.014617
vt 0.375000 0.000000
vt 0.458333 0.000000
vt 0.541667 0.000000
vt 0.625000 0.000000
vt 0.375000 0.083333
vt 0.458333 0.083333
vt 0.541667 0.083333
vt 0.625000 0.083333
vt 0.375000 0.166667
vt 0.458333 0.166667
vt 0.541667 0.166667
vt 0.625000 0.166667
vt 0.375000 0.250000
vt 0.458333 0.250000
vt 0.541667 0.250000
vt 0.625000 0.250000
vt 0.375000 0.500000
vt 0.458333 0.500000
vt 0.541667 0.500000
vt 0.625000 0.500000
vt 0.375000 0.583333
vt 0.458333 0.583333
vt 0.541667 0.583333
vt 0.625000 0.583333
vt 0.375000 0.666667
vt 0.458333 0.666667
vt 0.541667 0.666667
vt 0.625000 0.666667
vt 0.375000 0.750000
vt 0.458333 0.750000
vt 0.541667 0.750000
vt 0.625000 0.750000
vt 0.375000 0.812500
vt 0.458333 0.812500
vt 0.541667 0.812500
vt 0.625000 0.812500
vt 0.375000 0.875000
vt 0.458333 0.875000
vt 0.541667 0.875000
vt 0.625000 0.875000
vt 0.375000 0.937500
vt 0.458333 0.937500
vt 0.541667 0.937500
vt 0.625000 0.937500
vt 0.375000 1.000000
vt 0.458333 1.000000
vt 0.541667 1.000000
vt 0.625000 1.000000
vt 0.875000 0.000000
vt 0.812500 0.000000
vt 0.750000 0.000000
vt 0.687500 0.000000
vt 0.875000 0.083333
vt 0.812500 0.083333
vt 0.750000 0.083333
vt 0.687500 0.083333
vt 0.875000 0.166667
vt 0.812500 0.166667
vt 0.750000 0.166667
vt 0.687500 0.166667
vt 0.875000 0.250000
vt 0.812500 0.250000
vt 0.750000 0.250000
vt 0.687500 0.250000
vt 0.125000 0.000000
vt 0.187500 0.000000
vt 0.250000 0.000000
vt 0.312500 0.000000
vt 0.125000 0.083333
vt 0.187500 0.083333
vt 0.250000 0.083333
vt 0.312500 0.083333
vt 0.125000 0.166667
vt 0.187500 0.166667
vt 0.250000 0.166667
vt 0.312500 0.166667
vt 0.125000 0.250000
vt 0.187500 0.250000
vt 0.250000 0.250000
vt 0.312500 0.250000
vt 0.375000 0.250000
vt 0.458333 0.250000
vt 0.458333 0.250000
vt 0.541667 0.250000
vt 0.541667 0.250000
vt 0.625000 0.250000
vt 0.375000 0.500000
vt 0.458333 0.500000
vt 0.458333 0.500000
vt 0.541667 0.500000
vt 0.541667 0.500000
vt 0.625000 0.500000
vt 0.375000 0.250000
vt 0.312500 0.250000
vt 0.625000 0.250000
vt 0.687500 0.250000
vt 0.312500 0.250000
vt 0.250000 0.250000
vt 0.687500 0.250000
vt 0.750000 0.250000
vt 0.250000 0.250000
vt 0.187500 0.250000
vt 0.750000 0.250000
vt 0.812500 0.250000
vt 0.187500 0.250000
vt 0.125000 0.250000
vt 0.812500 0.250000
vt 0.875000 0.250000
vt 0.375000 0.250000
vt 0.458333 0.250000
vt 0.541667 0.250000
vt 0.375000 0.500000
vt 0.458333 0.500000
vt 0.541667 0.500000
vt 0.312500 0.250000
vt 0.625000 0.250000
vt 0.250000 0.250000
vt 0.687500 0.250000
vt 0.187500 0.250000
vt 0.750000 0.250000
vt 0.125000 0.250000
vt 0.812500 0.250000
vt 0.375000 0.250000
vt 0.375000 0.250000
vt 0.312500 0.250000
vt 0.312500 0.250000
vt 0.312500 0.250000
vt 0.250000 0.250000
vt 0.250000 0.250000
vt 0.250000 0.250000
vt 0.187500 0.250000
vt 0.187500 0.250000
vt 0.187500 0.250000
vt 0.125000 0.250000
vt 0.125000 0.250000
vt 0.375000 0.250000
vt 0.375000 0.250000
vt 0.312500 0.250000
vt 0.312500 0.250000
vt 0.312500 0.250000
vt 0.250000 0.250000
vt 0.250000 0.250000
vt 0.250000 0.250000
vt 0.187500 0.250000
vt 0.187500 0.250000
vt 0.187500 0.250000
vt 0.125000 0.250000
vt 0.125000 0.250000
vt 0.375000 0.250000
vt 0.375000 0.250000
vt 0.312500 0.250000
vt 0.312500 0.250000
vt 0.312500 0.250000
vt 0.250000 0.250000
vt 0.250000 0.250000
vt 0.250000 0.250000
vt 0.187500 0.250000
vt 0.187500 0.250000
vt 0.187500 0.250000
vt 0.125000 0.250000
vt 0.125000 0.250000
vt 0.375000 0.250000
vt 0.375000 0.250000
vt 0.312500 0.250000
vt 0.312500 0.250000
vt 0.312500 0.250000
vt 0.250000 0.250000
vt 0.250000 0.250000
vt 0.250000 0.250000
vt 0.187500 0.250000
vt 0.187500 0.250000
vt 0.187500 0.250000
vt 0.125000 0.250000
vt 0.125000 0.250000
vt 0.375000 0.250000
vt 0.375000 0.250000
vt 0.312500 0.250000
vt 0.312500 0.250000
vt 0.312500 0.250000
vt 0.250000 0.250000
vt 0.250000 0.250000
vt 0.250000 0.250000
vt 0.187500 0.250000
vt 0.187500 0.250000
vt 0.187500 0.250000
vt 0.125000 0.250000
vt 0.125000 0.250000
vt 0.458333 0.500000
vt 0.458333 0.500000
vt 0.500000 0.500000
vt 0.541667 0.500000
vt 0.500000 0.583333
vt 0.500000 0.666667
vt 0.500000 0.750000
vt 0.500000 0.812500
vt 0.500000 0.875000
vt 0.500000 0.937500
vt 0.500000 0.000000
vt 0.500000 1.000000
vt 0.500000 0.083333
vt 0.500000 0.166667
vt 0.541667 0.250000
vt 0.500000 0.250000
vt 0.458333 0.250000
vn -0.809761 -0.330844 0.484592
vn -0.175287 -0.507531 0.843615
vn -0.207388 0.122125 0.970606
vn -0.884190 0.057129 0.463621
vn 0.000000 -0.542091 0.840320
vn 0.000000 0.128915 0.991656
vn 0.175287 -0.507531 0.843615
vn 0.809761 -0.330844 0.484592
vn 0.884190 0.057129 0.463621
vn 0.207388 0.122125 0.970606
vn -0.198415 0.052575 0.978707
vn -0.866554 0.026175 0.498397
vn 0.000000 0.055384 0.998465
vn 0.866554 0.026175 0.498397
vn 0.198415 0.052575 0.978707
vn -0.193684 0.285029 0.938747
vn -0.779113 0.018322 0.626616
vn 0.000000 0.276486 0.961018
vn 0.813443 0.230425 0.534056
vn 0.193684 0.285029 0.938747
vn -0.779113 0.018322 -0.626616
vn -0.193684 0.285029 -0.938747
vn -0.198415 0.052575 -0.978707
vn -0.866554 0.026175 -0.498397
vn 0.000000 0.276486 -0.961018
vn 0.000000 0.055384 -0.998465
vn 0.193684 0.285029 -0.938747
vn 0.813443 0.230425 -0.534055
vn 0.866554 0.026175 -0.498397
vn 0.198415 0.052575 -0.978707
vn -0.207388 0.122125 -0.970606
vn -0.884190 0.057129 -0.463621
vn -0.000000 0.128915 -0.991656
vn 0.884190 0.057129 -0.463621
vn 0.207388 0.122125 -0.970606
vn -0.175287 -0.507531 -0.843615
vn -0.809761 -0.330844 -0.484592
vn 0.000000 -0.542091 -0.840319
vn 0.809761 -0.330844 -0.484592
vn 0.175287 -0.507531 -0.843615
vn -0.021884 -0.982439 -0.185298
vn -0.876261 -0.473502 -0.089236
vn 0.000000 -0.983820 -0.179162
vn 0.876261 -0.473502 -0.089236
vn 0.021884 -0.982439 -0.185298
vn -0.005442 -0.999985 -0.000000
vn -0.869869 -0.493283 -0.000000
vn 0.000000 -1.000000 0.000000
vn 0.869869 -0.493283 0.000000
vn 0.005442 -0.999985 0.000000
vn -0.021884 -0.982439 0.185298
vn -0.876261 -0.473502 0.089236
vn 0.000000 -0.983820 0.179162
vn 0.876261 -0.473502 0.089236
vn 0.021884 -0.982439 0.185298
vn 1.000000 0.000000 0.000000
vn 1.000000 -0.000000 0.000000
vn 1.000000 -0.000000 0.000000
vn 1.000000 0.000000 0.000000
vn 1.000000 -0.000000 0.000000
vn 1.000000 -0.000000 0.000000
vn 0.953413 0.295740 0.059510
vn 0.954659 0.297701 0.000000
vn 0.953413 0.295740 -0.059510
vn -1.000000 -0.000000 0.000000
vn -1.000000 -0.000000 0.000000
vn -1.000000 0.000000 0.000000
vn -1.000000 -0.000000 0.000000
vn -1.000000 -0.000000 0.000000
vn -1.000000 0.000000 0.000000
vn -0.991747 -0.127617 -0.012360
vn -0.994762 -0.102216 0.000000
vn -0.991747 -0.127617 0.012360
vn 0.034284 0.799959 -0.599074
vn 0.628342 0.747259 -0.216313
vn 0.000000 0.784770 -0.619787
vn -0.212017 0.899040 -0.383114
vn -0.034284 0.799959 -0.599074
vn 0.628342 0.747259 0.216313
vn 0.034284 0.799959 0.599074
vn 0.000000 0.784770 0.619787
vn -0.034284 0.799959 0.599074
vn -0.212017 0.899040 0.383114
vn -0.001608 -0.994152 0.107976
vn 0.261331 -0.874306 0.409017
vn -0.690805 0.619317 0.373141
vn -0.787110 0.603827 0.125902
vn -0.669098 0.729999 -0.139313
vn 0.176131 -0.984367 0.000000
vn -0.760295 0.649578 0.000000
vn -0.691572 0.722308 0.000000
vn -0.001609 -0.994152 -0.107976
vn -0.787110 0.603827 -0.125902
vn -0.669098 0.729999 0.139313
vn 0.261331 -0.874306 -0.409017
vn -0.690805 0.619318 -0.373141
vn -0.000000 1.000000 0.000000
vn 0.911756 0.406152 -0.061166
vn 0.924434 0.381341 0.000000
vn 0.911756 0.406152 0.061166
vn -0.686210 -0.322615 0.651947
vn -0.815297 -0.577588 0.041020
vn 0.753787 0.622791 0.209612
vn 0.847472 0.530415 -0.021241
vn -0.873114 -0.487516 0.000000
vn 0.878392 0.477940 -0.000000
vn -0.815297 -0.577588 -0.041020
vn 0.847472 0.530415 0.021241
vn -0.686210 -0.322615 -0.651947
vn 0.753787 0.622791 -0.209612
vn -0.524708 -0.514649 0.678099
vn -0.610869 -0.791732 0.000019
vn 0.385640 0.888264 0.249538
vn 0.573042 0.819473 0.009252
vn -0.725868 -0.687834 -0.000000
vn 0.639192 0.769047 -0.000000
vn -0.610869 -0.791732 -0.000019
vn 0.573042 0.819473 -0.009252
vn -0.524708 -0.514649 -0.678099
vn 0.385640 0.888264 -0.249538
vn -0.109408 -0.924175 0.365964
vn -0.189151 -0.978076 -0.087118
vn 0.071171 0.943381 0.323985
vn 0.187283 0.980050 0.066535
vn -0.306508 -0.951868 -0.000000
vn 0.253187 0.967417 0.000000
vn -0.189151 -0.978076 0.087118
vn 0.187283 0.980050 -0.066535
vn -0.109408 -0.924175 -0.365964
vn 0.071171 0.943381 -0.323985
vn 0.246764 -0.899141 0.361459
vn 0.265045 -0.961284 -0.075395
vn -0.254835 0.906618 0.336307
vn -0.293231 0.952943 0.076917
vn 0.254170 -0.967159 0.000000
vn -0.298179 0.954510 0.000000
vn 0.265045 -0.961284 0.075395
vn -0.293231 0.952942 -0.076917
vn 0.246764 -0.899141 -0.361459
vn -0.254835 0.906618 -0.336307
s 1
g CoinPurse pCube1
usemtl initialShadingGroup
f 433/589/433 434/590/434 438/594/435 437/593/436
f 434/590/434 568/786/437 569/788/438 438/594/435
f 435/591/439 436/592/440 440/596/441 439/595/442
f 437/593/436 438/594/435 442/598/443 441/597/444
f 438/594/435 569/788/438 570/789/445 442/598/443
f 439/595/442 440/596/441 444/600/446 443/599/447
f 441/597/444 442/598/443 446/602/448 445/601/449
f 442/598/443 570/789/445 571/791/450 446/602/448
f 443/599/447 444/600/446 448/604/451 447/603/452
f 455/605/453 456/606/454 460/610/455 459/609/456
f 456/606/454 561/778/457 562/780/458 460/610/455
f 457/607/459 458/608/460 462/612/461 461/611/462
f 459/609/456 460/610/455 464/614/463 463/613/464
f 460/610/455 562/780/458 563/781/465 464/614/463
f 461/611/462 462/612/461 466/616/466 465/615/467
f 463/613/464 464/614/463 468/618/468 467/617/469
f 464/614/463 563/781/465 564/782/470 468/618/468
f 465/615/467 466/616/466 470/620/471 469/619/472
f 467/617/469 468/618/468 472/622/473 471/621/474
f 468/618/468 564/782/470 565/783/475 472/622/473
f 469/619/472 470/620/471 474/624/476 473/623/477
f 471/621/474 472/622/473 476/626/478 475/625/479
f 472/622/473 565/783/475 566/784/480 476/626/478
f 473/623/477 474/624/476 478/628/481 477/627/482
f 475/625/479 476/626/478 480/630/483 479/629/484
f 476/626/478 566/784/480 567/785/485 480/630/483
f 477/627/482 478/628/481 482/632/486 481/631/487
f 479/629/484 480/630/483 434/634/434 433/633/433
f 480/630/483 567/785/485 568/787/437 434/634/434
f 481/631/487 482/632/486 436/636/440 435/635/439
f 474/638/476 470/637/471 466/641/466 483/642/488
f 478/639/481 474/638/476 483/642/488 484/643/489
f 482/640/486 478/639/481 484/643/489 485/644/490
f 436/592/440 482/640/486 485/644/490 440/596/441
f 483/642/488 466/641/466 462/645/461 486/646/491
f 484/643/489 483/642/488 486/646/491 487/647/492
f 485/644/490 484/643/489 487/647/492 488/648/493
f 440/596/441 485/644/490 488/648/493 444/600/446
f 486/646/491 462/645/461 458/649/460 454/650/494
f 487/647/492 486/646/491 454/650/494 452/651/495
f 488/648/493 487/647/492 452/651/495 450/652/496
f 444/600/446 488/648/493 450/652/496 448/604/451
f 467/653/469 471/654/474 489/658/497 463/657/464
f 471/654/474 475/655/479 490/659/498 489/658/497
f 475/655/479 479/656/484 491/660/499 490/659/498
f 479/656/484 433/589/433 437/593/436 491/660/499
f 463/657/464 489/658/497 492/662/500 459/661/456
f 489/658/497 490/659/498 493/663/501 492/662/500
f 490/659/498 491/660/499 494/664/502 493/663/501
f 491/660/499 437/593/436 441/597/444 494/664/502
f 459/661/456 492/662/500 453/666/503 455/665/453
f 492/662/500 493/663/501 451/667/504 453/666/503
f 493/663/501 494/664/502 449/668/505 451/667/504
f 494/664/502 441/597/444 445/601/449 449/668/505
f 445/602/449 446/670/448 496/601/506 495/669/507
f 446/603/448 571/790/450 572/792/508 496/671/506
f 447/604/452 448/674/451 498/603/509 497/673/510
f 456/606/454 455/676/453 499/605/511 500/675/512
f 560/776/513 561/779/457 456/678/454 500/606/512
f 458/608/460 457/680/459 501/607/514 502/679/515
f 551/763/516 550/764/517 552/765/518 553/766/519
f 448/652/451 450/684/496 504/604/520 498/683/509
f 554/765/521 551/767/516 553/768/519 555/769/522
f 450/651/496 452/688/495 506/652/523 504/687/520
f 556/768/524 554/770/521 555/771/522 557/772/525
f 452/650/495 454/692/494 508/651/526 506/691/523
f 558/771/527 556/773/524 557/774/525 559/775/528
f 454/649/494 458/696/460 502/650/515 508/695/526
f 495/669/507 496/601/506 509/697/529
f 496/671/506 572/792/508 497/602/510 509/698/529
f 497/673/510 498/603/509 509/699/529
f 500/605/512 499/675/511 509/700/529
f 501/606/514 560/777/513 500/677/512 509/701/529
f 502/607/515 501/679/514 509/702/529
f 503/668/530 495/682/507 509/703/529
f 498/683/509 504/604/520 509/704/529
f 505/667/531 503/686/530 509/705/529
f 504/687/520 506/652/523 509/706/529
f 507/666/532 505/690/531 509/707/529
f 506/691/523 508/651/526 509/708/529
f 499/665/511 507/694/532 509/709/529
f 508/695/526 502/650/515 509/710/529
f 449/601/505 445/681/449 510/712/533 511/711/534
f 445/681/449 495/668/507 512/713/535 510/712/533
f 495/668/507 503/682/530 513/714/536 512/713/535
f 451/668/504 449/685/505 511/715/534 514/713/537
f 503/667/530 505/686/531 515/717/538 513/716/536
f 453/667/503 451/689/504 514/718/537 516/716/539
f 505/666/531 507/690/532 517/720/540 515/719/538
f 455/666/453 453/693/503 516/721/539 518/719/541
f 507/665/532 499/694/511 519/723/542 517/722/540
f 499/694/511 455/666/453 518/719/541 519/723/542
f 511/711/534 510/712/533 520/725/543 521/724/544
f 510/712/533 512/713/535 522/726/545 520/725/543
f 512/713/535 513/714/536 523/727/546 522/726/545
f 514/713/537 511/715/534 521/728/544 524/726/547
f 513/716/536 515/717/538 525/730/548 523/729/546
f 516/716/539 514/718/537 524/731/547 526/729/549
f 515/719/538 517/720/540 527/733/550 525/732/548
f 518/719/541 516/721/539 526/734/549 528/732/551
f 517/722/540 519/723/542 529/736/552 527/735/550
f 519/723/542 518/719/541 528/732/551 529/736/552
f 521/724/544 520/725/543 530/738/553 531/737/554
f 520/725/543 522/726/545 532/739/555 530/738/553
f 522/726/545 523/727/546 533/740/556 532/739/555
f 524/726/547 521/728/544 531/741/554 534/739/557
f 523/729/546 525/730/548 535/743/558 533/742/556
f 526/729/549 524/731/547 534/744/557 536/742/559
f 525/732/548 527/733/550 537/746/560 535/745/558
f 528/732/551 526/734/549 536/747/559 538/745/561
f 527/735/550 529/736/552 539/749/562 537/748/560
f 529/736/552 528/732/551 538/745/561 539/749/562
f 531/737/554 530/738/553 540/751/563 541/750/564
f 530/738/553 532/739/555 542/752/565 540/751/563
f 532/739/555 533/740/556 543/753/566 542/752/565
f 534/739/557 531/741/554 541/754/564 544/752/567
f 533/742/556 535/743/558 545/756/568 543/755/566
f 536/742/559 534/744/557 544/757/567 546/755/569
f 535/745/558 537/746/560 547/759/570 545/758/568
f 538/745/561 536/747/559 546/760/569 548/758/571
f 537/748/560 539/749/562 549/762/572 547/761/570
f 539/749/562 538/745/561 548/758/571 549/762/572
f 541/750/564 540/751/563 550/764/517 551/763/516
f 540/751/563 542/752/565 552/765/518 550/764/517
f 542/752/565 543/753/566 553/766/519 552/765/518
f 544/752/567 541/754/564 551/767/516 554/765/521
f 543/755/566 545/756/568 555/769/522 553/768/519
f 546/755/569 544/757/567 554/770/521 556/768/524
f 545/758/568 547/759/570 557/772/525 555/771/522
f 548/758/571 546/760/569 556/773/524 558/771/527
f 547/761/570 549/762/572 559/775/528 557/774/525
f 549/762/572 548/758/571 558/771/527 559/775/528
f 457/607/459 561/779/457 560/776/513 501/677/514
f 562/780/458 561/778/457 457/607/459 461/611/462
f 563/781/465 562/780/458 461/611/462 465/615/467
f 564/782/470 563/781/465 465/615/467 469/619/472
f 565/783/475 564/782/470 469/619/472 473/623/477
f 566/784/480 565/783/475 473/623/477 477/627/482
f 567/785/485 566/784/480 477/627/482 481/631/487
f 568/787/437 567/785/485 481/631/487 435/635/439
f 569/788/438 568/786/437 435/591/439 439/595/442
f 570/789/445 569/788/438 439/595/442 443/599/447
f 571/791/450 570/789/445 443/599/447 447/603/452
f 572/792/508 571/790/450 447/672/452 497/602/510
