# This file uses centimeters as units for non-parametric coordinates.

mtllib Libary_Book.mtl
g default
v -0.634850 0.568378 -0.489105
v -0.638516 0.574189 -0.484342
v -0.638239 0.574189 -0.472197
v -0.631131 0.568390 -0.481786
v -0.640774 0.568229 -0.393167
v -0.646683 0.574189 -0.393178
v -0.647076 0.574189 -0.384809
v -0.641191 0.568233 -0.384805
v -0.937637 0.568385 -0.481808
v -0.930867 0.574189 -0.472740
v -0.930065 0.574189 -0.484321
v -0.933830 0.568374 -0.489088
v -0.929746 0.568229 -0.384808
v -0.923867 0.574189 -0.384810
v -0.924174 0.574189 -0.393179
v -0.930066 0.568225 -0.393173
v -0.711790 0.568292 -0.531092
v -0.712254 0.574189 -0.525172
v -0.704102 0.574189 -0.522267
v -0.703742 0.568301 -0.528934
v -0.864910 0.568301 -0.528934
v -0.864544 0.574189 -0.522283
v -0.856386 0.574189 -0.525157
v -0.856862 0.568292 -0.531092
v -0.851831 0.570351 -0.496275
v -0.854316 0.574189 -0.503666
v -0.862586 0.574189 -0.501747
v -0.860374 0.570777 -0.494361
v -0.708278 0.570777 -0.494361
v -0.706086 0.574189 -0.501735
v -0.714345 0.574189 -0.503677
v -0.716821 0.570351 -0.496275
v -0.654635 0.570638 -0.455894
v -0.646602 0.574189 -0.462674
v -0.651898 0.574189 -0.469940
v -0.657659 0.571275 -0.464404
v -0.633733 0.568249 0.568661
v -0.639612 0.574189 0.568555
v -0.639629 0.568249 0.574602
v -0.645424 0.568383 0.574513
v -0.645467 0.574189 0.568825
v -0.653245 0.570825 0.565908
v -0.653427 0.564687 0.571390
v -0.652481 0.574189 -0.393181
v -0.659814 0.570912 -0.393537
v -0.659881 0.571177 -0.384810
v -0.652789 0.574189 -0.384812
v -0.910993 0.571275 -0.464404
v -0.916704 0.574189 -0.470277
v -0.921605 0.574189 -0.462870
v -0.914017 0.570638 -0.455894
v -0.931309 0.568249 0.574602
v -0.931419 0.574189 0.568639
v -0.937205 0.568249 0.568661
v -0.915225 0.564687 0.571390
v -0.915345 0.570765 0.565754
v -0.923269 0.574189 0.568715
v -0.923228 0.568383 0.574513
v -0.909061 0.571172 -0.393177
v -0.916563 0.574189 -0.393544
v -0.915863 0.574189 -0.384812
v -0.908771 0.571177 -0.384810
v -0.846600 0.541507 -0.467194
v -0.838612 0.541507 -0.471381
v -0.840351 0.545205 -0.478741
v -0.848412 0.544968 -0.475601
v -0.722038 0.541507 -0.467152
v -0.720240 0.544968 -0.475601
v -0.728277 0.545178 -0.478721
v -0.730040 0.541507 -0.471381
v -0.828533 0.541507 -0.393181
v -0.836972 0.541507 -0.393181
v -0.836406 0.541507 -0.384812
v -0.828037 0.541507 -0.384812
v -0.830520 0.535619 0.586022
v -0.830732 0.541507 0.580105
v -0.839125 0.541507 0.575052
v -0.838371 0.535635 0.583283
v -0.730281 0.535635 0.583283
v -0.729537 0.541507 0.575078
v -0.737936 0.541507 0.580082
v -0.738133 0.535619 0.586022
v -0.738169 0.541507 0.479301
v -0.729799 0.541507 0.479301
v -0.729821 0.541507 0.470932
v -0.738191 0.541507 0.470932
v -0.677330 0.545400 -0.433229
v -0.680469 0.544358 -0.441400
v -0.684701 0.541507 -0.434129
v -0.679032 0.539467 0.549264
v -0.679610 0.544981 0.542976
v -0.687658 0.541507 0.541810
v -0.687420 0.535996 0.549178
v -0.684813 0.544551 -0.393152
v -0.692313 0.541507 -0.393551
v -0.692710 0.541507 -0.384812
v -0.685612 0.544525 -0.384801
v -0.883951 0.541507 -0.434129
v -0.888202 0.544299 -0.441286
v -0.891322 0.545400 -0.433229
v -0.881232 0.535996 0.549178
v -0.881146 0.541507 0.541942
v -0.888996 0.544935 0.543012
v -0.889620 0.539467 0.549264
v -0.876645 0.541507 -0.393181
v -0.884160 0.544813 -0.393509
v -0.883040 0.544525 -0.384801
v -0.875942 0.541507 -0.384812
v -0.634474 0.568232 0.470932
v -0.640353 0.574189 0.470932
v -0.640289 0.574189 0.479301
v -0.634410 0.568232 0.479301
v -0.936528 0.568228 0.479301
v -0.930654 0.574189 0.479301
v -0.930589 0.574189 0.470932
v -0.936463 0.568228 0.470932
v -0.922371 0.574189 0.479301
v -0.914968 0.571014 0.479639
v -0.915144 0.571252 0.470932
v -0.922309 0.574189 0.470932
v -0.888012 0.544445 0.479300
v -0.880512 0.541507 0.479639
v -0.880791 0.541507 0.470931
v -0.887956 0.544445 0.470931
v -0.838853 0.541507 0.479301
v -0.830483 0.541507 0.479301
v -0.830461 0.541507 0.470932
v -0.838831 0.541507 0.470932
v -0.732246 0.541507 -0.384812
v -0.731680 0.541507 -0.393181
v -0.740120 0.541507 -0.393181
v -0.740615 0.541507 -0.384812
v -0.687805 0.541507 0.479301
v -0.680397 0.544682 0.479639
v -0.680696 0.544445 0.470931
v -0.687861 0.541507 0.470931
v -0.653446 0.571252 0.479301
v -0.645940 0.574189 0.479639
v -0.646343 0.574189 0.470932
v -0.653508 0.571252 0.470932
v -0.635070 -0.161863 -0.489232
v -0.635070 -0.153494 -0.489232
v -0.631637 -0.153494 -0.481599
v -0.631637 -0.161863 -0.481599
v -0.643951 -0.161863 0.470932
v -0.643951 -0.153494 0.470932
v -0.643892 -0.153495 0.479301
v -0.643892 -0.161863 0.479301
v -0.730254 -0.162111 0.583262
v -0.730448 -0.153494 0.583416
v -0.738155 -0.153246 0.586022
v -0.738155 -0.162111 0.586022
v -0.919346 -0.161883 -0.384792
v -0.919346 -0.153494 -0.384812
v -0.920109 -0.153474 -0.393126
v -0.920109 -0.161883 -0.393126
v -0.937076 -0.161863 -0.481608
v -0.937076 -0.153494 -0.481608
v -0.933601 -0.153494 -0.489221
v -0.933601 -0.161863 -0.489221
v -0.864929 -0.162011 -0.528923
v -0.864801 -0.153494 -0.528997
v -0.856846 -0.153346 -0.531092
v -0.856846 -0.162011 -0.531092
v -0.649650 -0.161886 -0.393119
v -0.649655 -0.153494 -0.393097
v -0.650460 -0.153472 -0.384789
v -0.650460 -0.161886 -0.384789
v -0.643263 -0.161866 0.574262
v -0.643263 -0.153492 0.574262
v -0.651023 -0.153495 0.577482
v -0.651023 -0.161862 0.577482
v -0.656948 -0.153494 0.571572
v -0.656948 -0.161863 0.571572
v -0.679129 -0.161863 0.549679
v -0.679129 -0.153494 0.549679
v -0.687486 -0.153494 0.549230
v -0.687486 -0.161863 0.549230
v -0.830497 -0.162111 0.586022
v -0.830745 -0.153494 0.586022
v -0.838398 -0.153246 0.583262
v -0.838398 -0.162111 0.583262
v -0.881166 -0.161863 0.549230
v -0.881166 -0.153494 0.549230
v -0.889523 -0.153494 0.549679
v -0.889523 -0.161863 0.549679
v -0.911703 -0.161864 0.571571
v -0.911704 -0.153494 0.571572
v -0.917754 -0.153494 0.577354
v -0.917754 -0.161864 0.577354
v -0.918894 -0.161861 0.578311
v -0.918894 -0.153497 0.578311
v -0.926547 -0.153492 0.574919
v -0.926547 -0.161866 0.574919
v -0.925914 -0.161863 0.479301
v -0.925914 -0.153494 0.479301
v -0.925855 -0.153495 0.470932
v -0.925855 -0.161863 0.470932
v -0.711806 -0.162011 -0.531092
v -0.711658 -0.153494 -0.531092
v -0.703723 -0.153346 -0.528923
v -0.703723 -0.162011 -0.528923
v -0.840375 -0.860535 -0.478721
v -0.838653 -0.856865 -0.471421
v -0.846614 -0.856865 -0.467152
v -0.848381 -0.860303 -0.475605
v -0.720271 -0.860303 -0.475605
v -0.722052 -0.856865 -0.467194
v -0.730040 -0.856865 -0.471381
v -0.728277 -0.860535 -0.478721
v -0.836406 -0.856864 -0.384812
v -0.836972 -0.856864 -0.393181
v -0.828533 -0.856864 -0.393181
v -0.828037 -0.856864 -0.384812
v -0.740615 -0.856865 -0.384812
v -0.740120 -0.856865 -0.393181
v -0.731680 -0.856865 -0.393181
v -0.732246 -0.856865 -0.384812
v -0.677421 -0.860597 -0.433339
v -0.684701 -0.856865 -0.434129
v -0.680469 -0.859716 -0.441400
v -0.693069 -0.856864 -0.384450
v -0.692007 -0.856864 -0.393181
v -0.684492 -0.860170 -0.393509
v -0.685366 -0.860136 -0.384450
v -0.883286 -0.860136 -0.384450
v -0.883839 -0.859909 -0.393152
v -0.876339 -0.856864 -0.393551
v -0.875583 -0.856864 -0.384450
v -0.888183 -0.859716 -0.441400
v -0.884265 -0.856865 -0.434236
v -0.891231 -0.860597 -0.433339
v -0.703742 -0.883659 -0.528934
v -0.704108 -0.889547 -0.522283
v -0.712266 -0.889547 -0.525157
v -0.711790 -0.883650 -0.531092
v -0.856862 -0.883650 -0.531092
v -0.856398 -0.889547 -0.525172
v -0.864550 -0.889547 -0.522267
v -0.864910 -0.883659 -0.528934
v -0.860374 -0.886135 -0.494361
v -0.862566 -0.889547 -0.501735
v -0.854307 -0.889547 -0.503677
v -0.851831 -0.885708 -0.496275
v -0.716821 -0.885708 -0.496275
v -0.714336 -0.889547 -0.503666
v -0.706066 -0.889547 -0.501747
v -0.708278 -0.886135 -0.494361
v -0.631131 -0.883748 -0.481786
v -0.638174 -0.889547 -0.472321
v -0.638593 -0.889547 -0.484320
v -0.634850 -0.883736 -0.489105
v -0.657659 -0.886633 -0.464404
v -0.651949 -0.889547 -0.470277
v -0.647047 -0.889547 -0.462870
v -0.654635 -0.885996 -0.455894
v -0.641191 -0.883591 -0.384805
v -0.647076 -0.889547 -0.384809
v -0.646682 -0.889547 -0.393178
v -0.640774 -0.883587 -0.393167
v -0.660128 -0.886275 -0.384450
v -0.659591 -0.886530 -0.393177
v -0.652089 -0.889547 -0.393544
v -0.652424 -0.889547 -0.384450
v -0.933830 -0.883731 -0.489088
v -0.930138 -0.889547 -0.484343
v -0.930807 -0.889547 -0.472625
v -0.937637 -0.883743 -0.481808
v -0.914017 -0.885996 -0.455894
v -0.922050 -0.889547 -0.462674
v -0.916754 -0.889547 -0.469940
v -0.910993 -0.886633 -0.464404
v -0.930066 -0.883583 -0.393173
v -0.924174 -0.889547 -0.393179
v -0.923867 -0.889547 -0.384810
v -0.929746 -0.883586 -0.384808
v -0.916228 -0.889547 -0.384450
v -0.916171 -0.889547 -0.393181
v -0.908838 -0.886270 -0.393537
v -0.908524 -0.886275 -0.384450
v -0.914901 -0.886372 0.470594
v -0.915206 -0.886609 0.479301
v -0.922712 -0.889547 0.479639
v -0.922645 -0.889547 0.470594
v -0.936463 -0.883585 0.470932
v -0.930589 -0.889547 0.470932
v -0.930654 -0.889547 0.479301
v -0.936528 -0.883585 0.479301
v -0.937205 -0.883606 0.568661
v -0.931330 -0.889547 0.568551
v -0.931309 -0.883606 0.574602
v -0.923228 -0.883741 0.574513
v -0.923185 -0.889547 0.568825
v -0.915407 -0.886182 0.565908
v -0.915225 -0.880044 0.571390
v -0.880451 -0.856865 0.470593
v -0.880847 -0.856865 0.479301
v -0.888255 -0.860040 0.479639
v -0.888195 -0.860039 0.470593
v -0.889620 -0.854824 0.549264
v -0.889042 -0.860338 0.542976
v -0.880994 -0.856865 0.541810
v -0.881232 -0.851354 0.549178
v -0.838371 -0.850993 0.583283
v -0.839115 -0.856865 0.575078
v -0.830716 -0.856865 0.580082
v -0.830520 -0.850976 0.586022
v -0.830461 -0.856865 0.470932
v -0.830483 -0.856865 0.479301
v -0.838853 -0.856865 0.479301
v -0.838831 -0.856865 0.470932
v -0.729821 -0.856864 0.470932
v -0.729799 -0.856864 0.479301
v -0.738169 -0.856864 0.479301
v -0.738191 -0.856864 0.470932
v -0.738133 -0.850976 0.586022
v -0.737920 -0.856865 0.580105
v -0.729527 -0.856865 0.575052
v -0.730281 -0.850993 0.583283
v -0.680457 -0.860039 0.470593
v -0.680640 -0.859802 0.479300
v -0.688140 -0.856865 0.479639
v -0.688201 -0.856865 0.470593
v -0.687420 -0.851354 0.549178
v -0.687506 -0.856865 0.541942
v -0.679656 -0.860293 0.543012
v -0.679032 -0.854824 0.549264
v -0.653427 -0.880044 0.571390
v -0.653307 -0.886123 0.565754
v -0.645383 -0.889547 0.568715
v -0.645424 -0.883741 0.574513
v -0.646007 -0.889547 0.470594
v -0.646281 -0.889547 0.479301
v -0.653684 -0.886372 0.479639
v -0.653751 -0.886372 0.470594
v -0.639629 -0.883606 0.574602
v -0.639528 -0.889547 0.568639
v -0.633733 -0.883606 0.568661
v -0.634410 -0.883590 0.479301
v -0.640289 -0.889547 0.479301
v -0.640353 -0.889547 0.470932
v -0.634474 -0.883590 0.470932
vt 0.712873 0.483167
vt 0.710541 0.483148
vt 0.712257 0.282150
vt 0.714581 0.282164
vt 0.472172 0.481009
vt 0.473957 0.279968
vt 0.714608 0.279830
vt 0.712278 0.279808
vt 0.739733 0.282399
vt 0.737701 0.483458
vt 0.469841 0.480988
vt 0.471626 0.279947
vt 0.473978 0.277636
vt 0.739754 0.280060
vt 0.714234 0.078813
vt 0.716566 0.078836
vt 0.739987 0.483477
vt 0.742064 0.282421
vt 0.444952 0.480770
vt 0.445179 0.279707
vt 0.471648 0.277615
vt 0.475866 0.076597
vt 0.742085 0.280081
vt 0.741395 0.078998
vt 0.445200 0.277373
vt 0.473535 0.076575
vt 0.743682 0.079021
vt 0.448646 0.076338
vt 0.482904 0.948172
vt 0.480511 0.948182
vt 0.479620 0.741903
vt 0.482006 0.741886
vt 0.455083 0.948372
vt 0.453871 0.742031
vt 0.481999 0.739490
vt 0.479608 0.739503
vt 0.726571 0.740678
vt 0.727537 0.947004
vt 0.452735 0.948381
vt 0.451479 0.742043
vt 0.453859 0.739630
vt 0.726559 0.738285
vt 0.478459 0.533225
vt 0.480853 0.533211
vt 0.729930 0.946993
vt 0.728963 0.740667
vt 0.451467 0.739641
vt 0.453031 0.533286
vt 0.725485 0.531960
vt 0.728951 0.738274
vt 0.756292 0.740533
vt 0.755472 0.946878
vt 0.450683 0.533300
vt 0.727878 0.531948
vt 0.756280 0.738137
vt 0.753420 0.531810
vt 0.779282 0.069941
vt 0.779687 0.066502
vt 0.783171 0.070914
vt 0.781386 0.073023
vt 0.778100 0.064680
vt 0.776927 0.066812
vt 0.799035 0.055242
vt 0.799445 0.061206
vt 0.783693 0.075312
vt 0.784818 0.072712
vt 0.780586 0.094262
vt 0.778939 0.094112
vt 0.798693 0.052654
vt 0.776532 0.093955
vt 0.801426 0.054383
vt 0.801972 0.060540
vt 0.800081 0.063533
vt 0.782863 0.094353
vt 0.793170 0.081171
vt 0.792048 0.083390
vt 0.778891 0.096773
vt 0.780533 0.096842
vt 0.801226 0.051973
vt 0.776483 0.096686
vt 0.844011 0.055129
vt 0.843253 0.061269
vt 0.802729 0.062915
vt 0.804575 0.072191
vt 0.793322 0.095030
vt 0.782748 0.096944
vt 0.794321 0.083369
vt 0.774462 0.343331
vt 0.772738 0.343278
vt 0.844299 0.052735
vt 0.770331 0.343203
vt 0.846370 0.056071
vt 0.845758 0.062022
vt 0.842410 0.063604
vt 0.806738 0.071386
vt 0.805042 0.074775
vt 0.793403 0.097452
vt 0.795662 0.095059
vt 0.776689 0.343404
vt 0.772666 0.345583
vt 0.774311 0.345760
vt 0.846800 0.053500
vt 0.770231 0.345465
vt 0.865326 0.068042
vt 0.861675 0.072218
vt 0.845035 0.064333
vt 0.838121 0.072109
vt 0.807249 0.073695
vt 0.806916 0.095658
vt 0.795622 0.097540
vt 0.787653 0.343791
vt 0.776665 0.345796
vt 0.770983 0.370346
vt 0.772617 0.370479
vt 0.866984 0.066263
vt 0.768635 0.370613
vt 0.865736 0.071326
vt 0.863270 0.074440
vt 0.859982 0.074056
vt 0.840262 0.072954
vt 0.837534 0.074396
vt 0.809323 0.095748
vt 0.806992 0.098001
vt 0.789879 0.343846
vt 0.787475 0.346359
vt 0.775045 0.370016
vt 0.770759 0.372605
vt 0.772698 0.372743
vt 0.868120 0.068426
vt 0.865728 0.095619
vt 0.863551 0.095621
vt 0.861010 0.076698
vt 0.851343 0.082271
vt 0.839700 0.075513
vt 0.834679 0.096178
vt 0.809399 0.098068
vt 0.801953 0.344052
vt 0.789791 0.346321
vt 0.786484 0.365136
vt 0.775754 0.372183
vt 0.868138 0.095537
vt 0.865717 0.098279
vt 0.863414 0.098303
vt 0.861272 0.095848
vt 0.852387 0.084488
vt 0.850116 0.084397
vt 0.837089 0.096189
vt 0.834523 0.098517
vt 0.804368 0.344088
vt 0.801827 0.346474
vt 0.789167 0.364939
vt 0.786941 0.367568
vt 0.868126 0.098273
vt 0.863353 0.344821
vt 0.860970 0.344813
vt 0.861198 0.098327
vt 0.850817 0.095949
vt 0.848450 0.096102
vt 0.836931 0.098534
vt 0.831056 0.344508
vt 0.804280 0.346476
vt 0.801660 0.373673
vt 0.789202 0.367707
vt 0.865762 0.344830
vt 0.863352 0.347134
vt 0.860934 0.347164
vt 0.858742 0.344807
vt 0.850532 0.098466
vt 0.848311 0.098475
vt 0.833471 0.344559
vt 0.831062 0.346874
vt 0.804044 0.374999
vt 0.801697 0.376626
vt 0.865788 0.347104
vt 0.864146 0.372053
vt 0.861860 0.372118
vt 0.858586 0.347309
vt 0.847769 0.344815
vt 0.845543 0.344792
vt 0.833512 0.346976
vt 0.830236 0.375694
vt 0.803994 0.377399
vt 0.866467 0.372375
vt 0.864313 0.374387
vt 0.861630 0.374357
vt 0.859402 0.371526
vt 0.847760 0.347297
vt 0.845447 0.347372
vt 0.832669 0.374412
vt 0.830180 0.378093
vt 0.858634 0.373697
vt 0.848152 0.366285
vt 0.845535 0.366037
vt 0.832513 0.377386
vt 0.847627 0.368689
vt 0.845365 0.368781
vt 0.866794 0.869442
vt 0.867490 0.872169
vt 0.829815 0.873017
vt 0.830430 0.870246
vt 0.869386 0.868078
vt 0.870043 0.871164
vt 0.824996 0.883186
vt 0.872623 0.882393
vt 0.827231 0.872046
vt 0.827788 0.868961
vt 0.832932 0.843768
vt 0.863375 0.843275
vt 0.866267 0.843265
vt 0.881985 0.857478
vt 0.883361 0.860034
vt 0.875775 0.881523
vt 0.821818 0.882439
vt 0.873631 0.885206
vt 0.824082 0.886027
vt 0.813539 0.861260
vt 0.814922 0.858620
vt 0.830043 0.843873
vt 0.863190 0.840467
vt 0.833024 0.840982
vt 0.866082 0.840450
vt 0.879792 0.843509
vt 0.884563 0.857361
vt 0.893723 0.869865
vt 0.876633 0.884296
vt 0.821046 0.885235
vt 0.803504 0.871409
vt 0.823427 0.893418
vt 0.874540 0.892578
vt 0.812251 0.858624
vt 0.816430 0.844465
vt 0.830134 0.841060
vt 0.827286 0.545609
vt 0.859328 0.545149
vt 0.879619 0.840412
vt 0.862228 0.545092
vt 0.882597 0.843449
vt 0.894965 0.866696
vt 0.895774 0.871955
vt 0.877370 0.891442
vt 0.820555 0.892393
vt 0.801549 0.873683
vt 0.802161 0.868285
vt 0.823180 0.896304
vt 0.874880 0.895462
vt 0.813598 0.844747
vt 0.816604 0.841479
vt 0.824386 0.545647
vt 0.859338 0.542308
vt 0.827185 0.542740
vt 0.876607 0.544946
vt 0.882513 0.840433
vt 0.862279 0.542190
vt 0.895163 0.843833
vt 0.897828 0.869345
vt 0.900149 0.877103
vt 0.877884 0.894535
vt 0.820141 0.895494
vt 0.797352 0.878846
vt 0.799543 0.871089
vt 0.801062 0.845301
vt 0.813713 0.841593
vt 0.810010 0.545985
vt 0.824240 0.542737
vt 0.826959 0.508483
vt 0.858405 0.507711
vt 0.879496 0.544918
vt 0.876717 0.541842
vt 0.895075 0.840603
vt 0.861323 0.509240
vt 0.897894 0.843844
vt 0.900608 0.873111
vt 0.902121 0.879234
vt 0.795428 0.881041
vt 0.796833 0.874773
vt 0.798337 0.845673
vt 0.801163 0.842178
vt 0.807121 0.546054
vt 0.809906 0.542777
vt 0.824096 0.510086
vt 0.858349 0.504834
vt 0.826912 0.505598
vt 0.879492 0.541700
vt 0.892436 0.544931
vt 0.876692 0.519377
vt 0.897966 0.840639
vt 0.861152 0.505679
vt 0.900629 0.843986
vt 0.903482 0.876637
vt 0.794014 0.878482
vt 0.796479 0.845706
vt 0.798274 0.842305
vt 0.794188 0.546503
vt 0.807137 0.542962
vt 0.809026 0.520489
vt 0.824156 0.506530
vt 0.879907 0.519042
vt 0.892475 0.541931
vt 0.895328 0.544930
vt 0.876537 0.516045
vt 0.900606 0.840792
vt 0.903521 0.844087
vt 0.793589 0.845891
vt 0.796431 0.842506
vt 0.791298 0.546593
vt 0.794159 0.543394
vt 0.805880 0.520286
vt 0.809118 0.517202
vt 0.879258 0.516142
vt 0.893440 0.512712
vt 0.895301 0.541879
vt 0.898072 0.544808
vt 0.903499 0.840802
vt 0.793540 0.842607
vt 0.789343 0.546533
vt 0.791350 0.543664
vt 0.792171 0.514473
vt 0.806410 0.517381
vt 0.892482 0.510141
vt 0.896337 0.512038
vt 0.898080 0.542039
vt 0.900964 0.544803
vt 0.786453 0.546620
vt 0.789251 0.543765
vt 0.789201 0.513889
vt 0.792985 0.511834
vt 0.896110 0.509291
vt 0.899077 0.512141
vt 0.901003 0.542083
vt 0.786327 0.543902
vt 0.787237 0.514017
vt 0.789346 0.511202
vt 0.899331 0.509424
vt 0.901891 0.511759
vt 0.784443 0.513698
vt 0.787013 0.511248
vt 0.267341 0.974795
vt 0.261997 0.974793
vt 0.262673 0.511987
vt 0.267949 0.511900
vt 0.210962 0.974765
vt 0.211816 0.511814
vt 0.268050 0.506438
vt 0.262683 0.506430
vt 0.361060 0.512133
vt 0.360378 0.974935
vt 0.211825 0.506447
vt 0.361069 0.506575
vt 0.263391 0.043620
vt 0.268735 0.043634
vt 0.365722 0.974949
vt 0.366336 0.512046
vt 0.212357 0.043494
vt 0.366437 0.506584
vt 0.361772 0.043774
vt 0.417301 0.512119
vt 0.416777 0.975072
vt 0.417308 0.506752
vt 0.367115 0.043777
vt 0.418171 0.043808
vt 0.955771 0.020639
vt 0.958026 0.020630
vt 0.961630 0.215045
vt 0.959367 0.215053
vt 0.959587 0.020590
vt 0.959380 0.217311
vt 0.961643 0.217293
vt 0.961906 0.021574
vt 0.963885 0.215030
vt 0.963898 0.217282
vt 0.960249 0.411736
vt 0.957994 0.411753
vt 0.971068 0.028305
vt 0.972280 0.214978
vt 0.972293 0.217239
vt 0.964118 0.410748
vt 0.961811 0.411759
vt 0.973202 0.403913
vt 0.937596 0.028238
vt 0.938522 0.214912
vt 0.938535 0.217172
vt 0.946680 0.021402
vt 0.946917 0.214868
vt 0.946930 0.217121
vt 0.939727 0.403844
vt 0.948987 0.020391
vt 0.949172 0.214857
vt 0.949185 0.217106
vt 0.948888 0.410577
vt 0.951164 0.020408
vt 0.949573 0.214856
vt 0.949586 0.217103
vt 0.951207 0.411562
vt 0.953419 0.020389
vt 0.951828 0.214836
vt 0.951841 0.217097
vt 0.953384 0.411520
vt 0.955639 0.411513
vt 0.143913 0.018745
vt 0.149682 0.018699
vt 0.152541 0.496637
vt 0.146899 0.496841
vt 0.187683 0.018224
vt 0.190461 0.496587
vt 0.146767 0.502821
vt 0.152573 0.502787
vt 0.082662 0.497053
vt 0.079816 0.019123
vt 0.193489 0.015782
vt 0.196268 0.496553
vt 0.190493 0.502394
vt 0.082696 0.503204
vt 0.155376 0.980732
vt 0.149607 0.980754
vt 0.074046 0.019145
vt 0.077019 0.497258
vt 0.196300 0.502359
vt 0.193380 0.980758
vt 0.076889 0.503237
vt 0.085510 0.981132
vt 0.038929 0.497488
vt 0.036043 0.019118
vt 0.199214 0.983131
vt 0.038967 0.503295
vt 0.079741 0.981177
vt 0.030208 0.016745
vt 0.033123 0.497523
vt 0.041741 0.981651
vt 0.033160 0.503329
vt 0.035935 0.984093
vn 0.547447 0.004262 -0.836829
vn 0.994359 -0.001523 0.106051
vn 0.994278 -0.005908 0.106663
vn 0.546653 -0.000045 -0.837359
vn 0.281145 0.861956 -0.421889
vn 0.479320 0.008137 -0.877602
vn 0.110307 0.973242 -0.201577
vn 0.528230 0.847776 0.047421
vn -0.025542 0.999286 0.027846
vn -0.126222 0.991986 -0.005692
vn 0.371925 0.927498 0.037662
vn 0.989111 0.002290 0.147151
vn 0.999965 -0.004654 -0.006944
vn 0.999893 -0.012832 -0.006949
vn 0.989006 -0.006857 0.147715
vn 0.446060 0.894997 -0.003281
vn -0.258112 0.965862 -0.022123
vn -0.226903 0.973916 0.001512
vn 0.458736 0.888566 -0.003602
vn 0.999958 -0.004927 -0.007726
vn -0.995997 -0.001938 0.089364
vn -0.546780 0.004201 -0.837266
vn -0.546011 -0.000049 -0.837778
vn -0.995915 -0.006639 0.090053
vn -0.501506 0.864569 0.031810
vn -0.991417 0.001132 0.130734
vn -0.350204 0.936253 0.028047
vn -0.276652 0.862993 -0.422738
vn 0.113154 0.993568 -0.004432
vn 0.025786 0.999276 0.027976
vn -0.111090 0.972868 -0.202945
vn -0.479000 0.008162 -0.877777
vn -0.999956 -0.006220 -0.007027
vn -0.991296 -0.007712 0.131428
vn -0.999872 -0.014382 -0.007031
vn -0.384363 0.923178 -0.002861
vn -0.999949 -0.006489 -0.007726
vn -0.397836 0.917451 -0.003123
vn 0.194883 0.980826 0.001291
vn 0.223877 0.974442 -0.018499
vn 0.014158 0.007140 -0.999874
vn 0.479268 -0.000001 -0.877668
vn 0.014126 -0.000000 -0.999900
vn 0.003584 0.963225 -0.268671
vn -0.013934 0.007120 -0.999878
vn -0.003565 0.963209 -0.268731
vn -0.002880 0.997813 0.066032
vn -0.068769 0.990600 0.118248
vn -0.013911 -0.000000 -0.999903
vn -0.478967 -0.000001 -0.877833
vn 0.068525 0.990612 0.118290
vn 0.002879 0.997817 0.065976
vn 0.031719 0.759067 0.650240
vn 0.376384 0.742440 0.554183
vn 0.323393 0.778128 0.538455
vn 0.006357 0.609072 0.793089
vn -0.031705 0.758868 0.650472
vn 0.378333 0.841108 0.386525
vn -0.376725 0.741828 0.554770
vn -0.006389 0.608910 0.793213
vn -0.323545 0.778172 0.538300
vn -0.380044 0.839417 0.388517
vn -0.622247 0.782329 -0.027753
vn -0.411656 0.737389 0.535535
vn -0.720142 0.692468 -0.043407
vn -0.697416 0.712628 -0.075969
vn 0.998172 -0.005408 0.060189
vn 0.431417 0.004752 0.902140
vn -0.020170 0.001445 0.999795
vn 0.997681 -0.012651 0.066880
vn 0.454485 0.889974 0.037271
vn 0.999961 -0.005137 -0.007115
vn 0.451571 0.892228 -0.003465
vn -0.234569 0.969730 0.067830
vn -0.409189 0.015508 0.912318
vn -0.650353 0.010154 0.759564
vn -0.653309 0.002680 0.757087
vn -0.657611 0.750722 0.062966
vn -0.227286 0.973825 0.002498
vn -0.645369 0.763854 0.005075
vn -0.678345 0.733202 0.047572
vn -0.590362 0.009280 0.807085
vn -0.663919 0.747794 0.003974
vn -0.670315 0.738188 -0.075869
vn -0.661292 0.750119 0.003920
vn -0.660998 0.750375 0.004431
vn -0.220344 0.975421 0.001675
vn 0.623793 0.781087 -0.028037
vn 0.720628 0.691973 -0.043221
vn 0.411728 0.737305 0.535594
vn 0.696656 0.713413 -0.075576
vn -0.356941 0.006822 0.934102
vn -0.998231 -0.006972 0.059040
vn -0.997696 -0.014123 0.066355
vn -0.324858 0.000199 0.945763
vn -0.390992 0.919492 0.040733
vn 0.382643 0.016038 0.923757
vn 0.202789 0.976989 0.066093
vn -0.383695 0.923455 -0.003125
vn -0.999952 -0.006777 -0.007117
vn 0.648288 0.010093 0.761328
vn 0.400313 0.005476 0.916362
vn 0.651632 0.002648 0.758530
vn 0.659605 0.748908 0.063706
vn 0.590403 0.009294 0.807055
vn 0.677559 0.733958 0.047108
vn 0.647736 0.761847 0.005150
vn 0.204384 0.978888 0.002420
vn 0.663955 0.747762 0.003937
vn 0.661256 0.750150 0.003928
vn 0.675473 0.733413 -0.076432
vn 0.188011 0.982166 0.001426
vn 0.660968 0.750401 0.004432
vn 0.026180 0.998996 0.036339
vn 0.121536 0.991140 0.053576
vn 0.001081 0.996903 0.078640
vn 0.000001 1.000000 0.000002
vn -0.000001 1.000000 0.000001
vn -0.001058 0.996887 0.078842
vn -0.026606 0.998972 0.036717
vn -0.000001 1.000000 0.000001
vn 0.000001 1.000000 -0.000000
vn -0.121866 0.991028 0.054888
vn -0.000000 1.000000 -0.000000
vn -0.000000 1.000000 -0.000000
vn -0.000000 1.000000 -0.000000
vn 0.033366 0.999432 -0.004649
vn 0.060625 0.998161 0.000314
vn -0.000000 1.000000 -0.000000
vn 0.000000 1.000000 -0.000000
vn -0.027416 0.009082 0.999583
vn -0.588569 0.006684 0.808419
vn -0.588517 -0.000002 0.808485
vn -0.027424 -0.000002 0.999624
vn -0.002472 0.998578 0.053251
vn 0.026704 0.009054 0.999602
vn 0.002455 0.998568 0.053445
vn -0.061924 0.994710 0.081955
vn 0.000001 1.000000 -0.000000
vn -0.000000 1.000000 0.000001
vn 0.014229 0.998226 0.057819
vn -0.546735 0.009457 0.837252
vn 0.587699 0.006752 0.809052
vn 0.026730 -0.000001 0.999643
vn 0.587703 -0.000002 0.809077
vn 0.061887 0.994737 0.081662
vn 0.546836 0.009340 0.837188
vn -0.013451 0.998202 0.058416
vn -0.000002 1.000000 -0.000001
vn 0.000001 1.000000 -0.000001
vn 0.000000 1.000000 -0.000000
vn -0.000000 1.000000 0.000000
vn -0.054999 0.998486 0.000014
vn -0.063404 0.997988 0.000358
vn 0.000000 1.000000 0.000000
vn -0.031198 0.999504 -0.004392
vn 0.551030 0.000046 0.834485
vn -0.570755 0.001756 0.821118
vn -0.657518 0.753426 0.004412
vn -0.060676 0.998157 0.000313
vn -0.663373 0.748277 0.004316
vn 0.570755 0.001756 0.821118
vn -0.550832 0.000046 0.834616
vn 0.051116 0.998693 0.000089
vn 0.655525 0.755160 0.004485
vn 0.663400 0.748253 0.004318
vn 0.063463 0.997984 0.000357
vn 0.999890 -0.013037 -0.007105
vn 0.999888 -0.012838 -0.007723
vn -0.999867 -0.014388 -0.007722
vn -0.999868 -0.014585 -0.007103
vn 0.546653 0.000045 -0.837359
vn 0.994280 0.005908 0.106646
vn 0.994361 0.001530 0.106037
vn 0.547441 -0.004245 -0.836833
vn 0.478967 -0.000002 -0.877833
vn 0.989007 0.006857 0.147711
vn 0.999888 0.012838 -0.007723
vn 0.999890 0.013037 -0.007105
vn 0.999961 0.005185 -0.007118
vn 0.999958 0.004927 -0.007726
vn 0.999894 0.012832 -0.006947
vn 0.997681 0.012651 0.066879
vn 0.587757 -0.000005 0.809038
vn 0.027402 -0.000004 0.999624
vn 0.027471 -0.009087 0.999581
vn 0.587640 -0.006665 0.809095
vn 0.550822 -0.000046 0.834622
vn -0.027357 -0.000003 0.999626
vn -0.999872 0.014382 -0.007030
vn -0.991297 0.007712 0.131420
vn -0.991419 -0.001161 0.130718
vn -0.999956 0.006220 -0.007026
vn -0.999867 0.014388 -0.007722
vn -0.995915 0.006639 0.090052
vn -0.546064 0.000049 -0.837744
vn -0.546829 -0.004220 -0.837234
vn -0.995997 0.001928 0.089365
vn -0.478988 -0.000002 -0.877822
vn -0.014121 -0.000001 -0.999900
vn -0.014175 -0.007143 -0.999874
vn -0.478977 -0.008126 -0.877790
vn 0.014107 -0.000001 -0.999901
vn 0.999965 0.004654 -0.006941
vn 0.989111 -0.002257 0.147152
vn -0.020172 -0.001445 0.999795
vn 0.431294 -0.004766 0.902199
vn 0.998173 0.005439 0.060183
vn -0.653308 -0.002680 0.757087
vn -0.650285 -0.010132 0.759622
vn -0.409408 -0.015743 0.912216
vn -0.570755 -0.001756 0.821118
vn 0.546735 -0.009457 0.837252
vn -0.590403 -0.009294 0.807055
vn -0.587721 -0.000006 0.809064
vn -0.587645 -0.006750 0.809091
vn -0.027473 -0.009053 0.999582
vn -0.550832 -0.000046 0.834616
vn 0.570754 -0.001756 0.821119
vn 0.590361 -0.009280 0.807086
vn -0.546668 -0.009360 0.837297
vn 0.651632 -0.002648 0.758530
vn 0.400320 -0.005476 0.916359
vn 0.382442 -0.015875 0.923843
vn 0.648355 -0.010115 0.761271
vn -0.324857 -0.000199 0.945763
vn -0.997696 0.014123 0.066354
vn -0.998231 0.006939 0.059045
vn -0.357074 -0.006767 0.934052
vn -0.999868 0.014586 -0.007103
vn -0.999949 0.006489 -0.007726
vn -0.999952 0.006726 -0.007114
vn 0.478972 -0.008167 -0.877792
vn 0.014176 -0.007120 -0.999874
vn 0.006351 -0.608969 0.793169
vn 0.324335 -0.776409 0.540367
vn 0.376807 -0.741772 0.554789
vn 0.031602 -0.758816 0.650538
vn 0.001064 -0.996918 0.078440
vn -0.006348 -0.608742 0.793343
vn -0.001065 -0.996907 0.078579
vn 0.026471 -0.998980 0.036578
vn -0.000001 -1.000000 0.000000
vn 0.000001 -1.000000 0.000002
vn 0.122054 -0.991005 0.054876
vn 0.411449 -0.737074 0.536126
vn -0.323497 -0.778080 0.538461
vn -0.031596 -0.758887 0.650455
vn -0.376415 -0.742310 0.554336
vn -0.026413 -0.998986 0.036466
vn -0.411431 -0.737223 0.535935
vn -0.120527 -0.991251 0.053802
vn 0.000001 -1.000000 -0.000000
vn -0.000001 -1.000000 -0.000000
vn -0.000000 -1.000000 -0.000000
vn -0.000000 -1.000000 -0.000000
vn 0.000000 -1.000000 -0.000000
vn -0.000000 -1.000000 -0.000000
vn 0.065134 -0.997876 0.000321
vn 0.031321 -0.999498 -0.004776
vn -0.000000 -1.000000 -0.000000
vn 0.000000 -1.000000 0.000000
vn -0.000000 -1.000000 0.000000
vn 0.000000 -1.000000 -0.000000
vn -0.034241 -0.999401 -0.005091
vn -0.065083 -0.997880 0.000324
vn -0.720481 -0.692144 -0.042937
vn -0.377119 -0.841151 0.387616
vn -0.624222 -0.780745 -0.027998
vn -0.674618 -0.734172 -0.076693
vn -0.656975 -0.753902 0.003837
vn -0.659264 -0.751899 0.004314
vn -0.068084 -0.997680 0.000412
vn -0.696018 -0.714092 -0.075045
vn -0.659874 -0.751366 0.003916
vn 0.657020 -0.753863 0.003831
vn 0.068020 -0.997684 0.000410
vn 0.659233 -0.751927 0.004315
vn 0.671135 -0.737343 -0.076837
vn 0.659835 -0.751400 0.003955
vn 0.696871 -0.713212 -0.075492
vn 0.720710 -0.691864 -0.043607
vn 0.622775 -0.781901 -0.027965
vn 0.378909 -0.839337 0.389797
vn 0.111036 -0.972893 -0.202855
vn 0.280748 -0.861464 -0.423155
vn 0.003565 -0.963209 -0.268731
vn -0.068531 -0.990610 0.118300
vn -0.002879 -0.997817 0.065975
vn -0.003584 -0.963226 -0.268670
vn -0.110364 -0.973216 -0.201667
vn 0.002880 -0.997813 0.066032
vn 0.068767 -0.990601 0.118243
vn -0.276933 -0.863514 -0.421488
vn 0.025530 -0.999287 0.027832
vn -0.025800 -0.999275 0.027992
vn 0.527991 -0.847947 0.047027
vn 0.371335 -0.927733 0.037699
vn -0.125624 -0.992066 -0.004921
vn -0.246946 -0.968837 -0.019322
vn 0.459249 -0.888301 -0.003378
vn 0.471403 -0.881910 -0.003701
vn -0.238874 -0.971049 0.001699
vn -0.232511 -0.972592 0.001666
vn -0.656664 -0.754171 0.004378
vn -0.502029 -0.864251 0.032214
vn 0.113417 -0.993534 -0.005115
vn -0.351059 -0.935934 0.028027
vn 0.239975 -0.970585 -0.019428
vn -0.394407 -0.918931 -0.002935
vn 0.205843 -0.978584 0.001465
vn -0.407691 -0.913114 -0.003201
vn 0.656698 -0.754141 0.004379
vn 0.199305 -0.979936 0.001425
vn 0.644567 -0.764533 0.004786
vn 0.656765 -0.754081 0.004672
vn 0.197506 -0.980300 0.001544
vn 0.657611 -0.750722 0.062966
vn 0.200144 -0.977478 0.066925
vn -0.388747 -0.921340 -0.002992
vn -0.392688 -0.918734 0.041528
vn 0.678345 -0.733202 0.047572
vn 0.056262 -0.998416 0.000283
vn -0.000000 -1.000000 0.000001
vn 0.013450 -0.998202 0.058417
vn -0.061889 -0.994737 0.081664
vn -0.002454 -0.998568 0.053445
vn 0.000001 -1.000000 0.000000
vn 0.002473 -0.998578 0.053252
vn 0.000001 -1.000000 -0.000000
vn -0.000002 -1.000000 -0.000000
vn -0.052272 -0.998633 0.000326
vn 0.061922 -0.994711 0.081954
vn -0.014230 -0.998226 0.057818
vn -0.654686 -0.755886 0.004773
vn -0.647008 -0.762467 0.004886
vn -0.677559 -0.733958 0.047108
vn -0.659605 -0.748908 0.063706
vn -0.237565 -0.969078 0.066717
vn -0.238966 -0.971026 0.002024
vn 0.452075 -0.891226 0.036670
vn 0.445417 -0.895316 -0.003607
s 1
g UV_Book4 Books2 BookGRP Scene
usemtl initialShadingGroup
f 1/17/1 4/10/2 143/9/3 142/18/4
f 2/58/5 1/61/1 20/69/6 19/63/7
f 3/57/8 2/58/5 35/59/9 34/60/10
f 4/62/2 3/57/8 6/68/11 5/70/12
f 5/1/12 8/2/13 167/3/14 166/4/15
f 7/77/16 6/68/11 44/67/17 47/78/18
f 8/80/13 7/77/16 110/89/19 109/91/20
f 9/33/21 12/39/22 159/40/23 158/34/24
f 10/117/25 9/129/21 16/141/26 15/130/27
f 11/104/28 10/117/25 50/118/29 49/105/30
f 12/115/22 11/104/28 22/92/31 21/102/32
f 13/29/33 16/30/26 155/31/34 154/32/35
f 14/142/36 13/153/33 116/164/37 115/154/38
f 15/130/27 14/142/36 61/143/39 60/131/40
f 17/337/41 20/338/6 201/339/42 200/340/43
f 18/71/44 17/79/41 24/90/45 23/81/46
f 19/63/7 18/71/44 31/72/47 30/64/48
f 21/351/32 24/346/45 163/345/49 162/352/50
f 23/81/46 22/92/31 27/93/51 26/82/52
f 25/94/53 28/106/54 66/120/55 65/107/56
f 26/82/52 25/94/53 32/83/57 31/72/47
f 28/106/54 27/93/51 49/105/30 48/119/58
f 29/73/59 32/83/57 69/95/60 68/84/61
f 30/64/48 29/73/59 36/66/62 35/59/9
f 33/65/63 36/66/62 88/75/64 87/76/65
f 34/60/10 33/65/63 45/74/66 44/67/17
f 37/361/67 39/362/68 171/363/69 170/364/70
f 38/113/71 37/116/67 112/103/72 111/100/73
f 39/127/68 38/113/71 41/114/74 40/128/75
f 40/365/75 43/368/76 173/369/77 171/363/69
f 42/126/78 41/114/74 138/101/79 137/112/80
f 43/140/76 42/126/78 91/139/81 90/152/82
f 46/86/83 45/74/66 94/85/84 97/97/85
f 47/78/18 46/86/83 140/99/86 139/88/87
f 48/119/58 51/132/88 100/145/89 99/133/90
f 51/132/88 50/118/29 60/131/40 59/144/91
f 52/390/92 54/394/93 193/395/94 192/391/95
f 53/175/96 52/184/92 58/185/97 57/176/98
f 54/183/93 53/175/96 114/165/99 113/174/100
f 55/382/101 58/386/97 189/387/102 188/383/103
f 56/186/104 55/191/101 104/195/105 103/192/106
f 57/176/98 56/186/104 118/177/107 117/166/108
f 59/144/91 62/156/109 107/168/110 106/157/111
f 62/156/109 61/143/39 120/155/112 119/167/113
f 63/134/114 66/120/55 99/133/90 98/146/115
f 64/121/116 63/134/114 72/147/117 71/135/118
f 65/107/56 64/121/116 70/108/119 69/95/60
f 67/96/120 70/108/119 131/122/121 130/109/122
f 68/84/61 67/96/120 89/87/123 88/75/64
f 71/135/118 74/148/124 132/136/125 131/122/121
f 73/159/126 72/147/117 105/158/127 108/169/128
f 74/148/124 73/159/126 128/170/129 127/160/130
f 75/399/131 78/400/132 181/401/133 180/402/134
f 76/181/135 75/190/131 82/182/136 81/172/137
f 77/189/138 76/181/135 126/171/139 125/180/140
f 78/194/132 77/189/138 102/193/141 101/196/142
f 79/415/143 82/408/136 151/407/144 150/416/145
f 80/162/146 79/173/143 93/163/147 92/151/148
f 81/172/137 80/162/146 84/150/149 83/161/150
f 83/161/150 86/149/151 127/160/130 126/171/139
f 85/137/152 84/150/149 133/138/153 136/124/154
f 86/149/151 85/137/152 129/123/155 132/136/125
f 87/76/65 89/87/123 95/98/156 94/85/84
f 90/426/82 93/422/147 177/421/157 176/427/158
f 92/151/148 91/139/81 134/125/159 133/138/153
f 96/110/160 95/98/156 130/109/122 129/123/155
f 97/97/85 96/110/160 136/124/154 135/111/161
f 98/146/115 100/145/89 106/157/111 105/158/127
f 101/403/142 104/409/105 185/410/162 184/404/163
f 103/192/106 102/193/141 122/188/164 121/187/165
f 108/169/128 107/168/110 124/178/166 123/179/167
f 109/5/20 112/11/72 147/12/168 146/6/169
f 111/100/73 110/89/19 139/88/87 138/101/79
f 113/45/100 116/38/37 197/37/170 196/46/171
f 115/154/38 114/165/99 117/166/108 120/155/112
f 119/167/113 118/177/107 121/187/165 124/178/166
f 123/179/167 122/188/164 125/180/140 128/170/129
f 135/111/161 134/125/159 137/112/80 140/99/86
f 141/23/172 144/14/173 249/24/174 252/27/175
f 142/342/4 141/347/172 202/344/176 201/339/42
f 144/14/173 143/9/3 166/4/15 165/7/177
f 145/13/178 148/21/179 339/26/180 342/22/181
f 146/6/169 145/13/178 168/8/182 167/3/14
f 148/21/179 147/12/168 170/20/70 169/25/183
f 149/419/184 152/412/185 316/420/186 319/425/187
f 150/416/145 149/419/184 178/424/188 177/421/157
f 152/412/185 151/407/144 180/402/134 179/405/189
f 153/35/190 156/36/191 273/43/192 276/44/193
f 154/32/35 153/35/190 198/42/194 197/37/170
f 156/36/191 155/31/34 158/34/24 157/41/195
f 157/41/195 160/47/196 265/53/197 268/48/198
f 160/358/196 159/356/23 162/352/50 161/354/199
f 161/354/199 164/348/200 237/355/201 240/359/202
f 164/348/200 163/345/49 200/340/43 199/343/203
f 165/7/177 168/8/182 257/15/204 260/16/205
f 169/366/183 172/367/206 336/371/207 338/372/208
f 172/367/206 174/370/209 328/376/210 331/377/211
f 174/370/209 173/369/77 176/374/158 175/375/212
f 175/429/212 178/424/188 324/428/213 327/430/214
f 179/405/189 182/406/215 304/413/216 307/414/217
f 182/406/215 181/401/133 184/404/163 183/411/218
f 183/411/218 186/417/219 300/423/220 303/418/221
f 186/381/219 185/380/162 188/383/103 187/384/222
f 187/384/222 190/388/223 292/393/224 295/389/225
f 190/388/223 189/387/102 192/391/95 191/392/226
f 191/392/226 194/396/227 289/398/228 291/397/229
f 194/55/227 193/51/94 196/46/171 195/50/230
f 195/50/230 198/42/194 285/49/231 288/54/232
f 199/343/203 202/344/176 233/349/233 236/350/234
f 203/198/235 206/202/236 241/212/237 244/204/238
f 204/197/239 203/198/235 210/199/240 209/200/241
f 205/201/242 204/197/239 213/208/243 212/209/244
f 206/202/236 205/201/242 231/210/245 230/211/246
f 207/205/247 210/199/240 245/203/248 248/213/249
f 208/206/250 207/205/247 221/216/251 220/217/252
f 209/200/241 208/206/250 217/218/253 216/207/254
f 211/221/255 214/219/256 308/234/257 311/236/258
f 212/209/244 211/221/255 229/235/259 228/222/260
f 214/219/256 213/208/243 216/207/254 215/220/261
f 215/220/261 218/232/262 312/248/263 315/233/264
f 218/232/262 217/218/253 223/231/265 222/247/266
f 219/230/267 221/216/251 253/227/268 256/243/269
f 220/217/252 219/230/267 224/246/270 223/231/265
f 222/247/266 225/262/271 320/278/272 323/263/273
f 225/262/271 224/246/270 262/261/274 261/277/275
f 226/252/276 229/235/259 296/251/277 299/267/278
f 227/237/279 226/252/276 280/269/280 279/254/281
f 228/222/260 227/237/279 232/223/282 231/210/245
f 230/211/246 232/223/282 269/238/283 272/224/284
f 234/241/285 233/258/233 252/274/175 251/259/286
f 235/228/287 234/241/285 247/226/288 246/215/289
f 236/244/234 235/228/287 238/229/290 237/245/201
f 239/240/291 238/229/290 243/214/292 242/225/293
f 240/257/202 239/240/291 266/256/294 265/273/197
f 242/225/293 241/212/237 272/224/284 271/239/295
f 244/204/238 243/214/292 246/215/289 245/203/248
f 248/213/249 247/226/288 254/242/296 253/227/268
f 250/275/297 249/290/174 260/303/205 259/291/298
f 251/259/286 250/275/297 255/260/299 254/242/296
f 256/243/269 255/260/299 263/276/300 262/261/274
f 258/304/301 257/314/204 342/323/181 341/315/302
f 259/291/298 258/304/301 264/292/303 263/276/300
f 261/277/275 264/292/303 332/305/304 335/293/305
f 267/272/306 266/256/294 271/239/295 270/255/307
f 268/289/198 267/272/306 274/288/308 273/302/192
f 270/255/307 269/238/283 279/254/281 278/271/309
f 275/301/310 274/288/308 278/271/309 277/286/311
f 276/313/193 275/301/310 286/312/312 285/322/231
f 277/286/311 280/269/280 281/284/313 284/299/314
f 282/298/315 281/284/313 299/267/278 298/283/316
f 283/311/317 282/298/315 294/310/318 293/320/319
f 284/299/314 283/311/317 287/321/320 286/312/312
f 288/329/232 287/321/320 290/328/321 289/334/228
f 291/333/229 290/328/321 293/320/319 292/327/224
f 295/319/225 294/310/318 301/297/322 300/309/220
f 297/268/323 296/251/277 311/236/258 310/253/324
f 298/283/316 297/268/323 302/285/325 301/297/322
f 303/300/221 302/285/325 305/270/326 304/287/216
f 306/266/327 305/270/326 310/253/324 309/249/328
f 307/281/217 306/266/327 317/265/329 316/282/186
f 309/249/328 308/234/257 315/233/264 314/250/330
f 313/264/331 312/248/263 323/263/273 322/279/332
f 314/250/330 313/264/331 318/280/333 317/265/329
f 319/296/187 318/280/333 325/295/334 324/308/213
f 321/294/335 320/278/272 335/293/305 334/306/336
f 322/279/332 321/294/335 326/307/337 325/295/334
f 327/318/214 326/307/337 329/317/338 328/326/210
f 330/325/339 329/317/338 334/306/336 333/316/340
f 331/332/211 330/325/339 337/331/341 336/336/207
f 333/316/340 332/305/304 341/315/302 340/324/342
f 338/335/208 337/331/341 340/324/342 339/330/180
f 70/108/119 64/121/116 71/135/118 131/122/121
f 89/87/123 67/96/120 130/109/122 95/98/156
f 105/158/127 72/147/117 63/134/114 98/146/115
f 18/71/44 23/81/46 26/82/52 31/72/47
f 2/58/5 19/63/7 30/64/48 35/59/9
f 44/67/17 6/68/11 3/57/8 34/60/10
f 22/92/31 11/104/28 49/105/30 27/93/51
f 10/117/25 15/130/27 60/131/40 50/118/29
f 32/83/57 25/94/53 65/107/56 69/95/60
f 36/66/62 29/73/59 68/84/61 88/75/64
f 94/85/84 45/74/66 33/65/63 87/76/65
f 28/106/54 48/119/58 99/133/90 66/120/55
f 51/132/88 59/144/91 106/157/111 100/145/89
f 117/166/108 114/165/99 53/175/96 57/176/98
f 121/187/165 118/177/107 56/186/104 103/192/106
f 77/189/138 125/180/140 122/188/164 102/193/141
f 83/161/150 126/171/139 76/181/135 81/172/137
f 133/138/153 84/150/149 80/162/146 92/151/148
f 42/126/78 137/112/80 134/125/159 91/139/81
f 38/113/71 111/100/73 138/101/79 41/114/74
f 139/88/87 110/89/19 7/77/16 47/78/18
f 135/111/161 140/99/86 46/86/83 97/97/85
f 96/110/160 129/123/155 85/137/152 136/124/154
f 132/136/125 74/148/124 127/160/130 86/149/151
f 123/179/167 128/170/129 73/159/126 108/169/128
f 107/168/110 62/156/109 119/167/113 124/178/166
f 61/143/39 14/142/36 115/154/38 120/155/112
f 109/5/20 146/6/169 167/3/14 8/2/13
f 37/19/67 170/20/70 147/12/168 112/11/72
f 40/365/75 171/363/69 39/362/68
f 90/373/82 176/374/158 173/369/77 43/368/76
f 79/415/143 150/416/145 177/421/157 93/422/147
f 75/399/131 180/402/134 151/407/144 82/408/136
f 101/403/142 184/404/163 181/401/133 78/400/132
f 55/382/101 188/383/103 185/380/162 104/379/105
f 52/390/92 192/391/95 189/387/102 58/386/97
f 113/45/100 196/46/171 193/51/94 54/52/93
f 13/29/33 154/32/35 197/37/170 116/38/37
f 9/33/21 158/34/24 155/31/34 16/30/26
f 21/351/32 162/352/50 159/356/23 12/357/22
f 17/337/41 200/340/43 163/345/49 24/346/45
f 1/341/1 142/342/4 201/339/42 20/338/6
f 5/1/12 166/4/15 143/9/3 4/10/2
f 209/200/241 216/207/254 213/208/243 204/197/239
f 220/217/252 223/231/265 217/218/253 208/206/250
f 228/222/260 231/210/245 205/201/242 212/209/244
f 235/228/287 246/215/289 243/214/292 238/229/290
f 251/259/286 254/242/296 247/226/288 234/241/285
f 263/276/300 255/260/299 250/275/297 259/291/298
f 239/240/291 242/225/293 271/239/295 266/256/294
f 267/272/306 270/255/307 278/271/309 274/288/308
f 245/203/248 210/199/240 203/198/235 244/204/238
f 253/227/268 221/216/251 207/205/247 248/213/249
f 224/246/270 219/230/267 256/243/269 262/261/274
f 241/212/237 206/202/236 230/211/246 272/224/284
f 269/238/283 232/223/282 227/237/279 279/254/281
f 283/311/317 293/320/319 290/328/321 287/321/320
f 298/283/316 301/297/322 294/310/318 282/298/315
f 305/270/326 302/285/325 297/268/323 310/253/324
f 314/250/330 317/265/329 306/266/327 309/249/328
f 322/279/332 325/295/334 318/280/333 313/264/331
f 329/317/338 326/307/337 321/294/335 334/306/336
f 337/331/341 330/325/339 333/316/340 340/324/342
f 332/305/304 264/292/303 258/304/301 341/315/302
f 320/278/272 225/262/271 261/277/275 335/293/305
f 222/247/266 323/263/273 312/248/263 218/232/262
f 215/220/261 315/233/264 308/234/257 214/219/256
f 296/251/277 229/235/259 211/221/255 311/236/258
f 226/252/276 299/267/278 281/284/313 280/269/280
f 277/286/311 284/299/314 286/312/312 275/301/310
f 342/22/181 257/15/204 168/8/182 145/13/178
f 338/28/208 339/26/180 148/21/179 169/25/183
f 331/377/211 336/371/207 172/367/206
f 327/378/214 328/376/210 174/370/209 175/375/212
f 319/425/187 324/428/213 178/424/188 149/419/184
f 307/414/217 316/420/186 152/412/185 179/405/189
f 303/418/221 304/413/216 182/406/215 183/411/218
f 295/389/225 300/385/220 186/381/219 187/384/222
f 291/397/229 292/393/224 190/388/223 191/392/226
f 288/54/232 289/56/228 194/55/227 195/50/230
f 276/44/193 285/49/231 198/42/194 153/35/190
f 268/48/198 273/43/192 156/36/191 157/41/195
f 240/359/202 265/360/197 160/358/196 161/354/199
f 236/350/234 237/355/201 164/348/200 199/343/203
f 252/353/175 233/349/233 202/344/176 141/347/172
f 260/16/205 249/24/174 144/14/173 165/7/177
f 1/61/1 2/58/5 3/57/8 4/62/2
f 5/70/12 6/68/11 7/77/16 8/80/13
f 9/129/21 10/117/25 11/104/28 12/115/22
f 13/153/33 14/142/36 15/130/27 16/141/26
f 17/79/41 18/71/44 19/63/7 20/69/6
f 21/102/32 22/92/31 23/81/46 24/90/45
f 25/94/53 26/82/52 27/93/51 28/106/54
f 29/73/59 30/64/48 31/72/47 32/83/57
f 33/65/63 34/60/10 35/59/9 36/66/62
f 37/116/67 38/113/71 39/127/68
f 40/128/75 41/114/74 42/126/78 43/140/76
f 44/67/17 45/74/66 46/86/83 47/78/18
f 48/119/58 49/105/30 50/118/29 51/132/88
f 52/184/92 53/175/96 54/183/93
f 55/191/101 56/186/104 57/176/98 58/185/97
f 59/144/91 60/131/40 61/143/39 62/156/109
f 63/134/114 64/121/116 65/107/56 66/120/55
f 67/96/120 68/84/61 69/95/60 70/108/119
f 71/135/118 72/147/117 73/159/126 74/148/124
f 75/190/131 76/181/135 77/189/138 78/194/132
f 79/173/143 80/162/146 81/172/137 82/182/136
f 83/161/150 84/150/149 85/137/152 86/149/151
f 87/76/65 88/75/64 89/87/123
f 90/152/82 91/139/81 92/151/148 93/163/147
f 94/85/84 95/98/156 96/110/160 97/97/85
f 98/146/115 99/133/90 100/145/89
f 101/196/142 102/193/141 103/192/106 104/195/105
f 105/158/127 106/157/111 107/168/110 108/169/128
f 109/91/20 110/89/19 111/100/73 112/103/72
f 113/174/100 114/165/99 115/154/38 116/164/37
f 117/166/108 118/177/107 119/167/113 120/155/112
f 121/187/165 122/188/164 123/179/167 124/178/166
f 125/180/140 126/171/139 127/160/130 128/170/129
f 129/123/155 130/109/122 131/122/121 132/136/125
f 133/138/153 134/125/159 135/111/161 136/124/154
f 137/112/80 138/101/79 139/88/87 140/99/86
f 141/23/172 142/18/4 143/9/3 144/14/173
f 145/13/178 146/6/169 147/12/168 148/21/179
f 149/419/184 150/416/145 151/407/144 152/412/185
f 153/35/190 154/32/35 155/31/34 156/36/191
f 157/41/195 158/34/24 159/40/23 160/47/196
f 161/354/199 162/352/50 163/345/49 164/348/200
f 165/7/177 166/4/15 167/3/14 168/8/182
f 169/366/183 170/364/70 171/363/69 172/367/206
f 172/367/206 171/363/69 173/369/77 174/370/209
f 175/429/212 176/427/158 177/421/157 178/424/188
f 179/405/189 180/402/134 181/401/133 182/406/215
f 183/411/218 184/404/163 185/410/162 186/417/219
f 187/384/222 188/383/103 189/387/102 190/388/223
f 191/392/226 192/391/95 193/395/94 194/396/227
f 195/50/230 196/46/171 197/37/170 198/42/194
f 199/343/203 200/340/43 201/339/42 202/344/176
f 203/198/235 204/197/239 205/201/242 206/202/236
f 207/205/247 208/206/250 209/200/241 210/199/240
f 211/221/255 212/209/244 213/208/243 214/219/256
f 215/220/261 216/207/254 217/218/253 218/232/262
f 219/230/267 220/217/252 221/216/251
f 222/247/266 223/231/265 224/246/270 225/262/271
f 226/252/276 227/237/279 228/222/260 229/235/259
f 230/211/246 231/210/245 232/223/282
f 233/258/233 234/241/285 235/228/287 236/244/234
f 237/245/201 238/229/290 239/240/291 240/257/202
f 241/212/237 242/225/293 243/214/292 244/204/238
f 245/203/248 246/215/289 247/226/288 248/213/249
f 249/290/174 250/275/297 251/259/286 252/274/175
f 253/227/268 254/242/296 255/260/299 256/243/269
f 257/314/204 258/304/301 259/291/298 260/303/205
f 261/277/275 262/261/274 263/276/300 264/292/303
f 265/273/197 266/256/294 267/272/306 268/289/198
f 269/238/283 270/255/307 271/239/295 272/224/284
f 273/302/192 274/288/308 275/301/310 276/313/193
f 277/286/311 278/271/309 279/254/281 280/269/280
f 281/284/313 282/298/315 283/311/317 284/299/314
f 285/322/231 286/312/312 287/321/320 288/329/232
f 289/334/228 290/328/321 291/333/229
f 292/327/224 293/320/319 294/310/318 295/319/225
f 296/251/277 297/268/323 298/283/316 299/267/278
f 300/309/220 301/297/322 302/285/325 303/300/221
f 304/287/216 305/270/326 306/266/327 307/281/217
f 308/234/257 309/249/328 310/253/324 311/236/258
f 312/248/263 313/264/331 314/250/330 315/233/264
f 316/282/186 317/265/329 318/280/333 319/296/187
f 320/278/272 321/294/335 322/279/332 323/263/273
f 324/308/213 325/295/334 326/307/337 327/318/214
f 328/326/210 329/317/338 330/325/339 331/332/211
f 332/305/304 333/316/340 334/306/336 335/293/305
f 336/336/207 337/331/341 338/335/208
f 339/330/180 340/324/342 341/315/302 342/323/181
