# This file uses centimeters as units for non-parametric coordinates.

mtllib mountainHardeEdge.mtl
g default
v -198.768385 -43.134952 -118.448322
v -139.810364 -43.134952 -40.560969
v -88.352285 -43.134952 -133.853798
v -198.693817 -43.134952 -51.275416
v -84.799497 -43.134952 -77.055774
v -152.051027 -43.134952 -160.729137
v -146.299025 -38.425980 -95.855614
v -180.844659 -43.134952 -141.492629
v -202.768625 -43.134952 -89.529482
v -161.754748 -39.448072 -84.246976
v -148.738306 -39.435773 -115.083031
v -164.576381 -39.979620 -103.626806
v -178.399315 -43.134952 -43.352540
v -103.095691 -43.134952 -52.764743
v -121.751060 -39.930856 -86.687133
v -143.907635 -40.088260 -76.248264
v -81.012501 -43.134952 -102.356974
v -116.116328 -43.134952 -163.728194
v -131.269893 -38.892912 -107.273629
v -148.592447 82.866535 -114.204445
v -163.336291 86.414407 -103.043868
v -159.954100 87.409474 -85.880414
v -146.299025 85.498829 -95.855614
v -143.672595 86.276413 -77.647015
v -123.226273 79.567784 -87.180961
v -131.555182 80.435781 -107.016191
v -149.715544 48.603318 -141.573860
v -172.527387 33.206026 -127.333712
v -183.397195 21.534006 -110.060337
v -191.943928 15.500217 -88.488108
v -190.435628 11.167362 -54.796486
v -169.298598 16.623337 -52.017805
v -139.997268 26.052670 -55.269541
v -113.159509 46.147632 -64.494852
v -101.664724 55.619331 -79.176839
v -97.433747 57.599109 -97.362211
v -102.101400 60.357513 -120.598213
v -121.495930 56.893219 -144.783680
v -86.016124 -43.134952 -123.828943
v -123.689305 -42.062160 -143.543576
v -120.833814 -43.134952 -163.334487
v -149.998451 -21.832531 -148.500072
v -172.500949 2.737184 -127.464901
v -113.459304 2.953872 -64.514706
v -101.518569 -17.796781 -81.896230
v -95.986730 -33.787579 -100.546913
v -184.840850 22.235267 -110.346016
v -189.021910 36.598944 -90.102302
v -182.742823 56.336565 -60.866320
v -166.799368 47.076882 -57.074782
v -183.775389 22.027521 -111.945582
v -184.655417 21.343429 -110.070146
v -101.754563 4.855730 -120.918521
v -121.557669 5.824459 -144.382170
v -189.405990 24.679237 -89.544438
v -186.902990 30.810774 -58.012344
v -167.710914 26.207196 -53.105133
v -184.119944 20.749996 -108.274158
v -149.363041 10.720059 -143.974769
v -174.223576 16.371273 -127.734739
v -114.568937 13.939294 -65.208874
v -101.423330 9.326519 -78.806032
v -98.427364 6.634821 -97.785438
v -151.129308 22.735777 -53.598765
v -184.680281 20.036218 -113.668881
v -127.489774 17.050383 -57.941735
v -149.456010 51.916924 -143.272753
v -173.454850 60.133278 -127.287055
v -138.854744 74.938883 -54.666266
v -113.654067 67.696986 -64.759080
v -103.224522 57.595216 -80.886462
v -101.322277 55.502142 -84.615222
v -143.607478 50.333248 -143.287680
v -185.922322 66.560357 -110.002588
v -189.312471 73.054883 -90.416998
v -182.370255 77.168192 -61.678519
v -167.762702 77.935084 -61.002135
v -103.912228 47.845199 -120.637551
v -122.147521 46.056436 -143.971374
v -98.189072 51.265023 -97.548497
v -185.850279 -42.468259 -61.085732
v -195.340192 -43.134952 -49.262351
v -187.618657 -1.626717 -110.470755
v -193.438445 -20.329347 -88.531073
v -171.405436 -37.084275 -44.836665
v -141.320871 -17.743407 -55.331512
v -112.174799 6.071061 -63.892632
v -116.762995 4.601128 -63.799720
v -149.791602 43.084934 -141.865558
v -172.230652 19.491871 -127.395450
v -102.881829 28.096589 -80.380020
v -97.586984 42.438463 -97.413386
v -179.689882 10.641265 -121.073098
v -175.950189 16.921655 -125.269935
v -111.713840 12.574919 -67.888621
v -102.725122 52.035985 -120.601051
v -122.464012 54.389513 -143.487029
v -137.363256 48.623351 -144.058476
v -100.763793 49.478393 -112.546110
v -174.406499 38.706970 -127.806033
v -139.288476 32.583043 -54.813610
v -163.793849 38.243235 -134.901818
v -132.871263 32.176640 -56.753198
v -186.376150 39.682792 -109.979003
v -189.536184 37.884227 -89.854651
v -186.989472 38.027870 -88.661174
v -148.350998 33.409116 -56.380038
v -103.236924 30.985998 -120.985331
v -122.785375 34.093334 -143.555573
v -183.883915 42.742402 -61.008028
v -165.902477 36.779398 -53.773680
v -149.413383 37.076468 -142.410795
v -112.080117 30.012189 -64.004905
v -98.896736 29.468531 -98.276901
v -103.710372 29.214931 -80.974287
v -155.327071 37.611227 -140.571233
v -101.349415 29.254168 -81.872499
v -147.828769 79.711311 -132.490289
v -149.678327 73.806846 -139.095931
v -164.881309 85.658309 -121.324767
v -169.895905 79.305224 -125.856200
v -175.404213 86.414407 -108.135490
v -182.206187 79.857091 -110.156318
v -177.784201 87.476176 -92.806558
v -185.588210 81.606804 -91.903143
v -175.806326 84.574468 -68.109955
v -181.980214 78.472906 -62.403837
v -165.901408 86.278434 -66.902852
v -167.762702 77.935857 -61.002135
v -141.792223 86.679547 -64.176346
v -140.035550 80.829471 -56.910591
v -120.837438 83.514432 -71.614807
v -116.151463 78.105563 -66.264932
v -111.012000 78.024472 -85.342235
v -104.916699 71.586776 -82.430164
v -108.579236 75.732504 -99.462259
v -101.366182 69.305351 -98.955309
v -112.827595 75.732504 -117.749605
v -105.798590 69.508892 -120.431849
v -128.377332 75.732504 -134.235181
v -124.779442 69.288661 -141.373491
vt 0.194061 0.424451
vt 0.114144 0.368833
vt 0.257829 0.313934
vt 0.124626 0.454127
vt 0.103682 0.298684
vt 0.283054 0.401680
vt 0.146559 0.533878
vt 0.277192 0.275444
vt 0.298635 0.306034
vt 0.274146 0.487806
vt 0.228899 0.241029
vt 0.308736 0.311485
vt 0.334662 0.490847
vt 0.151157 0.547293
vt 0.123754 0.217602
vt 0.321276 0.253078
vt 0.300791 0.296358
vt 0.354823 0.393718
vt 0.351531 0.413108
vt 0.058783 0.246644
vt 0.213415 0.152271
vt 0.328167 0.242976
vt 0.333826 0.250518
vt 0.359295 0.360378
vt 0.363779 0.501128
vt 0.141269 0.100191
vt 0.012768 0.123042
vt 0.350991 0.320315
vt 0.379263 0.419050
vt 0.367280 0.416919
vt 0.012768 0.139692
vt 0.164754 0.067807
vt 0.226714 0.122871
vt 0.368929 0.321641
vt 0.423473 0.352618
vt 0.377490 0.461214
vt 0.224860 0.084493
vt 0.338175 0.245610
vt 0.382759 0.441621
vt 0.388050 0.425388
vt 0.386699 0.508705
vt 0.015164 0.128565
vt 0.401429 0.260993
vt 0.449997 0.438242
vt 0.398403 0.511743
vt 0.468138 0.313552
vt 0.433449 0.502957
vt 0.475439 0.381647
vt 0.451400 0.218748
vt 0.500617 0.339332
vt 0.476000 0.441828
vt 0.526055 0.288365
vt 0.539364 0.310710
vt 0.522654 0.357120
vt 0.500248 0.394035
vt 0.152279 0.904516
vt 0.171303 0.832280
vt 0.310433 0.890068
vt 0.326615 0.828480
vt 0.152654 0.914511
vt 0.368961 0.881406
vt 0.228255 0.747262
vt 0.354391 0.824227
vt 0.344629 0.775553
vt 0.384965 0.819399
vt 0.355068 0.742378
vt 0.405578 0.873895
vt 0.291395 0.668846
vt 0.376518 0.768261
vt 0.416574 0.822232
vt 0.142555 0.649126
vt 0.328933 0.704366
vt 0.445238 0.868911
vt 0.286109 0.658882
vt 0.144070 0.759222
vt 0.319368 0.660384
vt 0.374970 0.741706
vt 0.496120 0.739841
vt 0.507742 0.824204
vt 0.295432 0.657247
vt 0.233015 0.589010
vt 0.366882 0.658368
vt 0.373148 0.722145
vt 0.506175 0.866602
vt 0.149548 0.562074
vt 0.315911 0.648113
vt 0.475918 0.662023
vt 0.514240 0.742064
vt 0.507745 0.824204
vt 0.363601 0.603862
vt 0.413691 0.661049
vt 0.507041 0.666117
vt 0.510515 0.865497
vt 0.309651 0.602906
vt 0.367679 0.604366
vt 0.491502 0.605857
vt 0.532252 0.672885
vt 0.305112 0.546528
vt 0.367477 0.597307
vt 0.442594 0.608293
vt 0.450512 0.605426
vt 0.541422 0.738375
vt 0.189416 0.530510
vt 0.370858 0.549140
vt 0.444254 0.593111
vt 0.408669 0.552492
vt 0.488954 0.556641
vt 0.452958 0.555123
vt 0.434484 0.554044
vt 0.843660 0.644450
vt 0.844662 0.693039
vt 0.797807 0.666417
vt 0.891718 0.667057
vt 0.797973 0.720843
vt 0.797053 0.615568
vt 0.905807 0.733645
vt 0.876381 0.597771
vt 0.845006 0.747999
vt 0.752658 0.694599
vt 0.856616 0.576902
vt 0.765024 0.646497
vt 0.946309 0.709563
vt 0.925991 0.646858
vt 0.788642 0.804968
vt 0.757417 0.756722
vt 0.783052 0.590870
vt 0.743036 0.628485
vt 0.902933 0.790037
vt 0.931282 0.759079
vt 0.893271 0.572794
vt 0.853264 0.810951
vt 0.858600 0.546913
vt 0.952760 0.775447
vt 0.949627 0.632780
vt 0.735249 0.771285
vt 0.860146 0.838548
vt 0.774439 0.564907
vt 0.919384 0.812701
vt 0.970905 0.717712
vt 0.777328 0.832460
vt 0.857912 0.455075
vt 0.846499 0.355321
vt 0.735704 0.403191
vt 0.727198 0.347273
vt 0.776038 0.505453
vt 0.810729 0.278601
vt 0.682995 0.384110
vt 0.692513 0.437762
vt 0.823276 0.539002
vt 0.741417 0.230017
vt 0.673537 0.329046
vt 0.675353 0.576537
vt 0.818040 0.551673
vt 0.629257 0.364325
vt 0.626928 0.435150
vt 0.613340 0.561036
vt 0.704293 0.583746
vt 0.645672 0.236114
vt 0.590075 0.231829
vt 0.637358 0.190050
vt 0.514611 0.438446
vt 0.531701 0.327594
vt 0.553094 0.517776
vt 0.627739 0.196024
vt 0.287506 0.099481
vt 0.357541 0.186831
vt 0.268940 0.138969
vt 0.290295 0.239013
vt 0.246385 0.067783
vt 0.429815 0.118325
vt 0.387196 0.146968
vt 0.375713 0.067791
vt 0.460370 0.174333
vt 0.315604 0.133367
vt 0.623429 0.067685
vt 0.621504 0.132200
vt 0.613084 0.129624
vt 0.609788 0.142760
vt 0.408704 0.072921
vt 0.406455 0.067798
vt 0.411944 0.069492
vt 0.447344 0.134668
vt 0.042276 0.075893
vt 0.036659 0.073010
vt 0.039609 0.070805
vt 0.034399 0.067789
vt 0.557873 0.176578
vt 0.558987 0.067807
vt 0.629060 0.171574
vt 0.523263 0.906397
vt 0.575098 0.763092
vt 0.639925 0.922727
vt 0.663698 0.774082
vt 0.664447 0.696706
vt 0.669233 0.922012
vt 0.578544 0.682758
vt 0.730852 0.701732
vt 0.734877 0.881921
vt 0.665856 0.647463
vt 0.732234 0.766347
vt 0.735187 0.664438
vt 0.580001 0.648379
vt 0.691376 0.643210
vt 0.581385 0.624336
vt 0.668055 0.635111
vt 0.735443 0.638954
vt 0.580782 0.615700
vt 0.737127 0.620420
vt 0.546009 0.654157
vt 0.669765 0.611190
vt 0.666587 0.583002
vt 0.731026 0.584393
vt 0.584635 0.577480
vt 0.464716 0.089103
vt 0.470699 0.095091
vt 0.462696 0.093793
vt 0.555212 0.067807
vt 0.465117 0.195109
vt 0.550425 0.104477
vt 0.553226 0.145151
vt 0.551433 0.205776
vt 0.549641 0.209881
vt 0.450329 0.134048
vt 0.441065 0.067659
vt 0.455590 0.131885
vt 0.243572 0.090706
vt 0.057693 0.067801
vt 0.413188 0.202047
vt 0.449903 0.215130
vt 0.269689 0.161267
vn 0.084748 0.993628 -0.074307
vn 0.084748 0.993628 -0.074307
vn 0.084748 0.993628 -0.074307
vn 0.118303 0.980729 -0.155480
vn 0.118303 0.980729 -0.155480
vn 0.118303 0.980729 -0.155480
vn 0.276531 0.957604 -0.080781
vn 0.276531 0.957604 -0.080781
vn 0.276531 0.957604 -0.080781
vn 0.097732 0.993606 -0.056528
vn 0.097732 0.993606 -0.056528
vn 0.097732 0.993606 -0.056528
vn 0.206893 0.964482 -0.164222
vn 0.206893 0.964482 -0.164222
vn 0.206893 0.964482 -0.164222
vn 0.273985 0.958953 -0.073083
vn 0.273985 0.958953 -0.073083
vn 0.273985 0.958953 -0.073084
vn 0.051416 -0.995707 0.076961
vn 0.051416 -0.995708 0.076961
vn 0.051416 -0.995707 0.076961
vn 0.071896 -0.996050 0.052111
vn 0.071896 -0.996050 0.052111
vn 0.071896 -0.996050 0.052111
vn 0.068752 -0.996200 0.053475
vn 0.068752 -0.996200 0.053475
vn 0.068752 -0.996200 0.053475
vn 0.086728 -0.996160 0.011997
vn 0.086728 -0.996160 0.011997
vn 0.086728 -0.996160 0.011997
vn 0.047947 -0.998837 -0.005107
vn 0.047947 -0.998837 -0.005107
vn 0.047947 -0.998837 -0.005107
vn 0.093619 -0.995082 -0.032361
vn 0.093619 -0.995082 -0.032361
vn 0.093619 -0.995082 -0.032361
vn 0.087663 -0.996044 0.014556
vn 0.087663 -0.996044 0.014556
vn 0.087663 -0.996044 0.014556
vn 0.077934 -0.996830 0.015994
vn 0.077934 -0.996830 0.015994
vn 0.077934 -0.996830 0.015994
vn 0.066038 -0.996848 0.043975
vn 0.066038 -0.996848 0.043975
vn 0.066038 -0.996848 0.043975
vn 0.003821 -0.996091 -0.088249
vn 0.003821 -0.996091 -0.088249
vn 0.003821 -0.996091 -0.088249
vn 0.063283 -0.995939 -0.064033
vn 0.063283 -0.995939 -0.064033
vn 0.063283 -0.995939 -0.064033
vn 0.015351 -0.998913 -0.044005
vn 0.015351 -0.998913 -0.044005
vn 0.015351 -0.998913 -0.044005
vn 0.006205 -0.996296 -0.085768
vn 0.006205 -0.996296 -0.085768
vn 0.006205 -0.996296 -0.085768
vn -0.027232 -0.996266 -0.081927
vn -0.027232 -0.996266 -0.081927
vn -0.027232 -0.996266 -0.081927
vn -0.072184 -0.995908 -0.054370
vn -0.072184 -0.995908 -0.054370
vn -0.072184 -0.995908 -0.054370
vn -0.029598 -0.996526 -0.077848
vn -0.029598 -0.996526 -0.077848
vn -0.029598 -0.996526 -0.077848
vn -0.030938 -0.996259 -0.080688
vn -0.030938 -0.996259 -0.080688
vn -0.030938 -0.996259 -0.080688
vn 0.002240 -0.996400 -0.084746
vn 0.002240 -0.996400 -0.084746
vn 0.002240 -0.996400 -0.084746
vn -0.083159 -0.996459 -0.012447
vn -0.083159 -0.996458 -0.012447
vn -0.083159 -0.996458 -0.012447
vn -0.082946 -0.996483 -0.011888
vn -0.082946 -0.996483 -0.011888
vn -0.082946 -0.996483 -0.011888
vn -0.086038 -0.996090 0.020049
vn -0.086038 -0.996090 0.020049
vn -0.086038 -0.996090 0.020049
vn -0.066559 -0.995106 0.073041
vn -0.066559 -0.995105 0.073041
vn -0.066559 -0.995105 0.073041
vn 0.004572 -0.998488 0.054784
vn 0.004572 -0.998488 0.054784
vn 0.004572 -0.998488 0.054784
vn 0.008044 -0.998644 0.051427
vn 0.008044 -0.998644 0.051427
vn 0.008044 -0.998644 0.051427
vn -0.051253 -0.998330 -0.026636
vn -0.051253 -0.998330 -0.026636
vn -0.051253 -0.998330 -0.026636
vn -0.490661 0.468892 -0.734433
vn -0.490661 0.468892 -0.734433
vn -0.490661 0.468892 -0.734433
vn -0.422359 0.334451 -0.842470
vn -0.422359 0.334451 -0.842470
vn -0.422359 0.334451 -0.842470
vn -0.749291 0.314507 -0.582794
vn -0.749291 0.314507 -0.582794
vn -0.749291 0.314507 -0.582794
vn -0.554365 0.156780 -0.817374
vn -0.554365 0.156780 -0.817374
vn -0.554365 0.156780 -0.817374
vn -0.897446 0.302732 -0.320848
vn -0.897446 0.302732 -0.320848
vn -0.897446 0.302732 -0.320848
vn -0.916120 0.380349 -0.126724
vn -0.916120 0.380349 -0.126724
vn -0.916120 0.380349 -0.126724
vn -0.963867 0.264684 -0.030047
vn -0.963867 0.264684 -0.030047
vn -0.963867 0.264684 -0.030047
vn -0.922559 0.373133 0.098271
vn -0.922559 0.373133 0.098271
vn -0.922559 0.373133 0.098271
vn -0.163803 0.137049 0.976927
vn -0.163802 0.137049 0.976927
vn -0.163803 0.137049 0.976927
vn -0.510113 0.132680 0.849812
vn -0.510113 0.132680 0.849812
vn -0.510113 0.132680 0.849812
vn -0.209282 0.117833 0.970730
vn -0.209282 0.117833 0.970730
vn -0.209282 0.117833 0.970730
vn -0.068558 0.311700 0.947704
vn -0.068558 0.311700 0.947704
vn -0.068558 0.311700 0.947704
vn -0.020928 0.501784 0.864740
vn -0.020928 0.501784 0.864740
vn -0.020928 0.501784 0.864740
vn 0.273943 0.495714 0.824150
vn 0.273943 0.495714 0.824150
vn 0.273943 0.495714 0.824150
vn 0.343790 0.303830 0.888536
vn 0.343791 0.303830 0.888536
vn 0.343791 0.303830 0.888535
vn 0.102677 0.251850 0.962304
vn 0.102677 0.251850 0.962304
vn 0.102677 0.251850 0.962304
vn 0.672172 0.540242 0.506285
vn 0.672171 0.540242 0.506285
vn 0.672172 0.540242 0.506285
vn 0.914013 0.280296 0.293281
vn 0.914013 0.280296 0.293281
vn 0.914013 0.280296 0.293281
vn 0.534775 0.841195 0.080043
vn 0.534775 0.841195 0.080043
vn 0.534775 0.841195 0.080043
vn 0.835507 0.514388 -0.193215
vn 0.835507 0.514388 -0.193215
vn 0.835507 0.514388 -0.193215
vn 0.515215 0.848610 -0.120061
vn 0.515215 0.848610 -0.120061
vn 0.515215 0.848610 -0.120061
vn 0.691293 0.330694 -0.642460
vn 0.691293 0.330694 -0.642460
vn 0.691293 0.330694 -0.642460
vn 0.720002 0.360849 -0.592777
vn 0.720002 0.360849 -0.592777
vn 0.720002 0.360849 -0.592777
vn 0.009697 0.137499 -0.990454
vn 0.009697 0.137499 -0.990454
vn 0.009697 0.137499 -0.990454
vn -0.077626 0.358911 -0.930138
vn -0.077626 0.358911 -0.930138
vn -0.077626 0.358911 -0.930138
vn -0.208518 0.350381 -0.913101
vn -0.208518 0.350381 -0.913101
vn -0.208518 0.350381 -0.913101
vn -0.598912 -0.327716 -0.730689
vn -0.598912 -0.327716 -0.730689
vn -0.598912 -0.327716 -0.730689
vn -0.480555 0.091317 -0.872197
vn -0.480555 0.091317 -0.872197
vn -0.480555 0.091317 -0.872197
vn -0.553913 0.044739 -0.831372
vn -0.553913 0.044739 -0.831372
vn -0.553913 0.044739 -0.831372
vn -0.830205 -0.061399 -0.554066
vn -0.830205 -0.061399 -0.554066
vn -0.830205 -0.061399 -0.554066
vn -0.834267 -0.053229 -0.548786
vn -0.834267 -0.053229 -0.548786
vn -0.834267 -0.053229 -0.548786
vn -0.662788 -0.285833 -0.692107
vn -0.662788 -0.285833 -0.692107
vn -0.662788 -0.285833 -0.692107
vn -0.460782 -0.765963 0.448309
vn -0.460782 -0.765963 0.448309
vn -0.460782 -0.765963 0.448309
vn -0.936664 0.096358 -0.336712
vn -0.936664 0.096358 -0.336712
vn -0.936665 0.096358 -0.336712
vn -0.961249 0.018099 -0.275087
vn -0.961249 0.018099 -0.275088
vn -0.961249 0.018099 -0.275088
vn -0.979938 0.187357 0.067964
vn -0.979938 0.187357 0.067964
vn -0.979938 0.187357 0.067964
vn -0.962840 0.268995 0.024124
vn -0.962839 0.268995 0.024124
vn -0.962840 0.268995 0.024124
vn -0.175968 0.189780 0.965929
vn -0.175968 0.189780 0.965929
vn -0.175968 0.189780 0.965929
vn -0.212361 0.144822 0.966400
vn -0.212361 0.144822 0.966400
vn -0.212361 0.144822 0.966400
vn 0.051378 0.104174 0.993231
vn 0.051378 0.104174 0.993231
vn 0.051378 0.104174 0.993231
vn 0.282299 -0.097273 0.954382
vn 0.282299 -0.097273 0.954382
vn 0.282299 -0.097273 0.954382
vn 0.779059 0.025559 0.626429
vn 0.779059 0.025559 0.626429
vn 0.779059 0.025559 0.626429
vn 0.750567 0.656627 0.074098
vn 0.750567 0.656627 0.074098
vn 0.750567 0.656627 0.074098
vn 0.769600 0.637581 0.034723
vn 0.769600 0.637581 0.034723
vn 0.769600 0.637581 0.034723
vn -0.032413 -0.999446 0.007553
vn -0.032413 -0.999446 0.007553
vn -0.032413 -0.999446 0.007553
vn -0.040679 -0.998457 0.037805
vn -0.040679 -0.998457 0.037805
vn -0.040679 -0.998457 0.037805
vn -0.007277 -0.996309 0.085536
vn -0.007277 -0.996309 0.085536
vn -0.007277 -0.996309 0.085536
vn -0.011759 -0.996594 0.081618
vn -0.011759 -0.996594 0.081618
vn -0.011759 -0.996594 0.081618
vn 0.004572 -0.998488 0.054784
vn 0.004572 -0.998488 0.054784
vn 0.004572 -0.998488 0.054784
vn -0.603939 0.121297 -0.787746
vn -0.603939 0.121297 -0.787746
vn -0.603939 0.121297 -0.787746
vn -0.558599 -0.086903 -0.824873
vn -0.558599 -0.086903 -0.824873
vn -0.558599 -0.086903 -0.824873
vn -0.722686 -0.104831 -0.683180
vn -0.722686 -0.104831 -0.683180
vn -0.722686 -0.104831 -0.683180
vn -0.806277 0.089347 -0.584752
vn -0.806277 0.089347 -0.584752
vn -0.806277 0.089347 -0.584752
vn 0.206608 -0.003374 0.978418
vn 0.206608 -0.003374 0.978418
vn 0.206608 -0.003374 0.978418
vn 0.333133 0.044516 0.941828
vn 0.333133 0.044516 0.941828
vn 0.333133 0.044516 0.941828
vn 0.460336 -0.136984 0.877112
vn 0.460336 -0.136984 0.877112
vn 0.460336 -0.136984 0.877112
vn 0.712980 -0.081845 0.696391
vn 0.712980 -0.081845 0.696391
vn 0.712980 -0.081845 0.696391
vn 0.924933 0.149245 0.349606
vn 0.924933 0.149245 0.349606
vn 0.924933 0.149245 0.349606
vn 0.505404 -0.364356 0.782184
vn 0.505404 -0.364356 0.782183
vn 0.505404 -0.364356 0.782184
vn 0.966985 0.041205 0.251482
vn 0.966985 0.041205 0.251482
vn 0.966985 0.041205 0.251482
vn 0.987064 -0.021566 0.158870
vn 0.987064 -0.021566 0.158870
vn 0.987064 -0.021566 0.158870
vn 0.923977 0.316075 -0.215321
vn 0.923977 0.316075 -0.215321
vn 0.923977 0.316075 -0.215321
vn 0.917390 0.283943 0.278876
vn 0.917390 0.283943 0.278876
vn 0.917390 0.283943 0.278876
vn 0.986643 0.069632 -0.147263
vn 0.986643 0.069632 -0.147263
vn 0.986643 0.069632 -0.147263
vn -0.071941 0.501779 -0.861999
vn -0.071941 0.501779 -0.861999
vn -0.071941 0.501779 -0.861999
vn -0.406886 -0.900391 -0.154074
vn -0.406886 -0.900391 -0.154074
vn -0.406886 -0.900391 -0.154074
vn -0.925240 -0.336425 -0.175355
vn -0.925240 -0.336425 -0.175355
vn -0.925240 -0.336425 -0.175355
vn -0.985995 -0.083729 -0.144235
vn -0.985995 -0.083729 -0.144235
vn -0.985995 -0.083729 -0.144235
vn -0.386921 -0.321352 0.864306
vn -0.386921 -0.321352 0.864306
vn -0.386921 -0.321352 0.864306
vn -0.163463 0.119531 0.979281
vn -0.163463 0.119531 0.979281
vn -0.163463 0.119531 0.979281
vn -0.048301 0.039776 0.998041
vn -0.048300 0.039776 0.998041
vn -0.048301 0.039776 0.998041
vn -0.200973 0.117500 0.972524
vn -0.200973 0.117500 0.972524
vn -0.200973 0.117500 0.972524
vn -0.058226 -0.027866 0.997914
vn -0.058226 -0.027866 0.997914
vn -0.058226 -0.027866 0.997914
vn -0.170470 -0.001682 0.985361
vn -0.170470 -0.001682 0.985361
vn -0.170470 -0.001682 0.985361
vn -0.821723 0.537442 -0.189545
vn -0.821723 0.537442 -0.189545
vn -0.821723 0.537442 -0.189545
vn -0.145969 0.949476 0.277828
vn -0.145969 0.949476 0.277828
vn -0.145969 0.949476 0.277828
vn -0.143019 0.926259 0.348698
vn -0.143019 0.926259 0.348698
vn -0.143019 0.926259 0.348698
vn 0.764384 0.041718 -0.643411
vn 0.764384 0.041718 -0.643411
vn 0.764384 0.041718 -0.643411
vn 0.758402 0.051935 -0.649714
vn 0.758402 0.051935 -0.649714
vn 0.758402 0.051935 -0.649714
vn -0.009572 0.028811 -0.999539
vn -0.009572 0.028811 -0.999539
vn -0.009572 0.028811 -0.999539
vn -0.036264 0.059127 -0.997592
vn -0.036264 0.059127 -0.997591
vn -0.036264 0.059127 -0.997592
vn -0.925635 0.220544 -0.307507
vn -0.925635 0.220544 -0.307507
vn -0.925635 0.220544 -0.307507
vn -0.996757 0.035498 0.072219
vn -0.996757 0.035498 0.072219
vn -0.996757 0.035498 0.072219
vn -0.646805 0.741943 0.176535
vn -0.646805 0.741943 0.176535
vn -0.646805 0.741943 0.176535
vn -0.963532 0.259849 0.063908
vn -0.963532 0.259849 0.063908
vn -0.963532 0.259849 0.063908
vn -0.223991 0.099622 0.969486
vn -0.223991 0.099622 0.969486
vn -0.223991 0.099622 0.969486
vn -0.269544 0.298105 0.915685
vn -0.269544 0.298105 0.915685
vn -0.269544 0.298105 0.915685
vn 0.076143 0.232822 0.969534
vn 0.076143 0.232822 0.969534
vn 0.076143 0.232822 0.969534
vn 0.181910 0.203343 0.962060
vn 0.181910 0.203343 0.962060
vn 0.181910 0.203343 0.962060
vn 0.041421 0.055997 0.997571
vn 0.041421 0.055997 0.997571
vn 0.041421 0.055997 0.997571
vn -0.446333 0.373462 -0.813212
vn -0.446333 0.373462 -0.813212
vn -0.446333 0.373462 -0.813212
vn -0.291933 0.056099 -0.954792
vn -0.291933 0.056099 -0.954792
vn -0.291933 0.056099 -0.954792
vn -0.594244 -0.030069 -0.803723
vn -0.594244 -0.030069 -0.803723
vn -0.594244 -0.030069 -0.803723
vn -0.661781 0.484814 -0.571841
vn -0.661781 0.484814 -0.571841
vn -0.661781 0.484814 -0.571841
vn 0.492982 0.015442 0.869902
vn 0.492982 0.015442 0.869902
vn 0.492982 0.015442 0.869902
vn -0.029996 0.156034 0.987296
vn -0.029996 0.156034 0.987296
vn -0.029996 0.156034 0.987296
vn 0.680797 0.666185 0.304488
vn 0.680797 0.666185 0.304488
vn 0.680797 0.666185 0.304489
vn 0.635671 -0.155077 0.756223
vn 0.635671 -0.155077 0.756223
vn 0.635671 -0.155077 0.756223
vn 0.863494 -0.092299 0.495842
vn 0.863494 -0.092299 0.495842
vn 0.863494 -0.092299 0.495842
vn 0.988004 0.023594 0.152614
vn 0.988004 0.023594 0.152614
vn 0.988004 0.023594 0.152614
vn 0.988789 0.019120 0.148087
vn 0.988789 0.019120 0.148087
vn 0.988789 0.019120 0.148087
vn 0.647872 0.113506 0.753245
vn 0.647872 0.113506 0.753245
vn 0.647872 0.113506 0.753245
vn 0.989479 0.017248 -0.143642
vn 0.989479 0.017248 -0.143642
vn 0.989479 0.017248 -0.143642
vn 0.981397 0.055204 -0.183882
vn 0.981397 0.055204 -0.183882
vn 0.981397 0.055204 -0.183882
vn -0.122800 -0.445147 -0.886997
vn -0.122800 -0.445147 -0.886997
vn -0.122800 -0.445147 -0.886997
vn 0.783781 0.065662 -0.617556
vn 0.783781 0.065662 -0.617556
vn 0.783781 0.065662 -0.617556
vn 0.731377 -0.201499 -0.651525
vn 0.731377 -0.201499 -0.651525
vn 0.731377 -0.201499 -0.651525
vn 0.015601 0.058609 -0.998159
vn 0.015601 0.058609 -0.998159
vn 0.015601 0.058609 -0.998159
vn 0.954777 -0.121831 0.271216
vn 0.954777 -0.121831 0.271216
vn 0.954777 -0.121831 0.271216
vn 0.976081 -0.073090 -0.204753
vn 0.976081 -0.073090 -0.204753
vn 0.976081 -0.073090 -0.204753
vn 0.974476 -0.110456 -0.195440
vn 0.974476 -0.110456 -0.195440
vn 0.974476 -0.110456 -0.195440
vn 0.969624 0.159481 -0.185460
vn 0.969624 0.159481 -0.185460
vn 0.969624 0.159481 -0.185460
vn 0.022820 -0.999016 -0.038016
vn 0.022820 -0.999017 -0.038016
vn 0.022820 -0.999016 -0.038016
vn -0.990906 0.128526 -0.039839
vn -0.990906 0.128526 -0.039839
vn -0.990906 0.128526 -0.039839
vn -0.814127 0.024779 -0.580158
vn -0.814127 0.024779 -0.580158
vn -0.814127 0.024779 -0.580158
vn -0.973852 0.040889 -0.223471
vn -0.973852 0.040889 -0.223471
vn -0.973853 0.040889 -0.223471
vn -0.940740 0.115800 0.318744
vn -0.940740 0.115801 0.318744
vn -0.940740 0.115801 0.318744
vn -0.930412 0.176981 -0.320954
vn -0.930412 0.176981 -0.320954
vn -0.930412 0.176981 -0.320954
vn -0.997883 0.041564 0.050018
vn -0.997883 0.041564 0.050018
vn -0.997883 0.041564 0.050018
vn -0.987899 0.147038 -0.049348
vn -0.987899 0.147038 -0.049348
vn -0.987899 0.147038 -0.049348
vn -0.280904 0.522202 0.805232
vn -0.280904 0.522202 0.805232
vn -0.280904 0.522202 0.805232
vn 0.258564 0.118050 0.958754
vn 0.258564 0.118050 0.958754
vn 0.258564 0.118050 0.958754
vn 0.093341 -0.019993 0.995433
vn 0.093341 -0.019993 0.995433
vn 0.093341 -0.019993 0.995433
vn 0.150152 -0.005937 0.988645
vn 0.150152 -0.005937 0.988645
vn 0.150152 -0.005937 0.988645
vn 0.335276 -0.011466 0.942050
vn 0.335276 -0.011466 0.942050
vn 0.335276 -0.011466 0.942050
vn -0.254180 -0.582356 0.772175
vn -0.254180 -0.582356 0.772175
vn -0.254180 -0.582356 0.772175
vn -0.789430 0.061970 -0.610705
vn -0.789430 0.061970 -0.610705
vn -0.789430 0.061970 -0.610705
vn 0.725150 0.322431 0.608438
vn 0.725150 0.322431 0.608438
vn 0.725150 0.322431 0.608438
vn -0.141780 -0.072730 -0.987223
vn -0.141780 -0.072730 -0.987223
vn -0.141780 -0.072730 -0.987223
vn -0.284032 0.054515 -0.957264
vn -0.284032 0.054515 -0.957264
vn -0.284032 0.054515 -0.957264
vn -0.278151 0.054526 -0.958988
vn -0.278151 0.054526 -0.958988
vn -0.278151 0.054526 -0.958988
vn -0.535085 0.198259 -0.821205
vn -0.535085 0.198259 -0.821205
vn -0.535085 0.198259 -0.821205
vn -0.802127 -0.014669 -0.596973
vn -0.802127 -0.014669 -0.596973
vn -0.802127 -0.014669 -0.596973
vn -0.661558 0.483018 -0.573615
vn -0.661558 0.483018 -0.573615
vn -0.661558 0.483019 -0.573615
vn -0.478241 0.688814 -0.544813
vn -0.478241 0.688814 -0.544813
vn -0.478241 0.688814 -0.544813
vn 0.093904 -0.231913 0.968193
vn 0.093904 -0.231913 0.968193
vn 0.093904 -0.231913 0.968193
vn 0.739599 0.113107 0.663476
vn 0.739599 0.113107 0.663476
vn 0.739599 0.113107 0.663476
vn 0.275140 0.602116 0.749503
vn 0.275140 0.602116 0.749503
vn 0.275140 0.602116 0.749503
vn 0.982236 0.064303 -0.176286
vn 0.982236 0.064303 -0.176286
vn 0.982236 0.064303 -0.176286
vn 0.610505 -0.537377 -0.581816
vn 0.610505 -0.537377 -0.581816
vn 0.610505 -0.537377 -0.581816
vn 0.782878 -0.058468 -0.619422
vn 0.782878 -0.058468 -0.619422
vn 0.782878 -0.058468 -0.619422
vn 0.231501 -0.516472 -0.824418
vn 0.231501 -0.516472 -0.824418
vn 0.231501 -0.516472 -0.824418
vn -0.095766 0.096868 -0.990679
vn -0.095766 0.096868 -0.990679
vn -0.095766 0.096868 -0.990679
vn 0.917017 -0.257104 -0.304923
vn 0.917017 -0.257104 -0.304923
vn 0.917017 -0.257104 -0.304923
vn -0.545146 -0.254797 -0.798683
vn -0.545146 -0.254797 -0.798683
vn -0.545146 -0.254797 -0.798683
vn -0.827892 0.050301 -0.558627
vn -0.827892 0.050301 -0.558627
vn -0.827892 0.050301 -0.558627
vn -0.808636 0.013138 -0.588163
vn -0.808636 0.013138 -0.588163
vn -0.808636 0.013138 -0.588163
vn 0.370040 -0.007021 0.928989
vn 0.370040 -0.007021 0.928989
vn 0.370040 -0.007021 0.928989
vn 0.292161 0.057105 0.954663
vn 0.292161 0.057105 0.954663
vn 0.292161 0.057105 0.954663
vn 0.353437 0.019579 0.935253
vn 0.353437 0.019579 0.935253
vn 0.353437 0.019579 0.935253
vn 0.333624 0.050902 0.941331
vn 0.333624 0.050902 0.941331
vn 0.333624 0.050902 0.941331
vn -0.987985 0.016547 -0.153660
vn -0.987985 0.016547 -0.153660
vn -0.987985 0.016547 -0.153660
vn -0.985145 0.003521 -0.171690
vn -0.985145 0.003521 -0.171690
vn -0.985145 0.003521 -0.171690
vn -0.972558 0.026406 0.231156
vn -0.972558 0.026406 0.231156
vn -0.972558 0.026406 0.231156
vn -0.425080 0.017174 0.904993
vn -0.425080 0.017174 0.904993
vn -0.425080 0.017174 0.904993
vn -0.980865 -0.055700 0.186552
vn -0.980865 -0.055700 0.186552
vn -0.980865 -0.055700 0.186552
vn -0.174510 -0.049718 0.983399
vn -0.174510 -0.049718 0.983399
vn -0.174510 -0.049718 0.983399
vn 0.758145 0.043789 -0.650614
vn 0.758145 0.043789 -0.650614
vn 0.758145 0.043789 -0.650614
vn 0.788699 -0.063307 -0.611512
vn 0.788699 -0.063307 -0.611512
vn 0.788699 -0.063307 -0.611512
vn -0.046532 -0.032220 -0.998397
vn -0.046532 -0.032220 -0.998397
vn -0.046532 -0.032220 -0.998397
vn -0.084737 0.084757 -0.992792
vn -0.084737 0.084757 -0.992792
vn -0.084737 0.084757 -0.992792
vn -0.042435 -0.284042 -0.957872
vn -0.042435 -0.284042 -0.957872
vn -0.042435 -0.284042 -0.957872
vn -0.991845 0.082240 0.097367
vn -0.991845 0.082240 0.097367
vn -0.991845 0.082240 0.097367
vn -0.280684 0.270744 0.920822
vn -0.280684 0.270744 0.920822
vn -0.280684 0.270744 0.920822
vn -0.226478 0.008858 0.973976
vn -0.226479 0.008858 0.973976
vn -0.226478 0.008858 0.973976
vn 0.198291 0.314829 0.928204
vn 0.198291 0.314829 0.928204
vn 0.198291 0.314829 0.928204
vn -0.290699 0.068306 -0.954373
vn -0.290699 0.068306 -0.954373
vn -0.290699 0.068306 -0.954373
vn 0.895796 0.073236 0.438389
vn 0.895796 0.073236 0.438389
vn 0.895796 0.073236 0.438389
vn 0.814155 -0.101988 0.571621
vn 0.814155 -0.101988 0.571621
vn 0.814155 -0.101988 0.571621
vn 0.983322 -0.108993 0.145596
vn 0.983322 -0.108993 0.145596
vn 0.983322 -0.108993 0.145596
vn 0.977517 -0.085892 -0.192570
vn 0.977517 -0.085892 -0.192570
vn 0.977517 -0.085892 -0.192570
vn 0.975263 -0.030517 -0.218933
vn 0.975263 -0.030517 -0.218933
vn 0.975263 -0.030517 -0.218933
vn 0.927911 0.044803 -0.370099
vn 0.927911 0.044803 -0.370099
vn 0.927911 0.044803 -0.370099
vn -0.558717 -0.079103 -0.825577
vn -0.558717 -0.079103 -0.825577
vn -0.558717 -0.079103 -0.825577
vn -0.651321 -0.010677 -0.758727
vn -0.651321 -0.010677 -0.758727
vn -0.651321 -0.010677 -0.758727
vn 0.355429 -0.090864 0.930276
vn 0.355429 -0.090864 0.930276
vn 0.355429 -0.090864 0.930276
vn 0.974040 -0.011467 0.226086
vn 0.974040 -0.011467 0.226086
vn 0.974040 -0.011467 0.226086
vn 0.973195 0.222937 0.056477
vn 0.973195 0.222937 0.056477
vn 0.973195 0.222937 0.056477
vn 0.974508 0.069738 0.213236
vn 0.974508 0.069738 0.213236
vn 0.974508 0.069738 0.213236
vn -0.200650 0.757654 -0.621048
vn -0.200650 0.757654 -0.621048
vn -0.200650 0.757654 -0.621048
vn -0.223364 0.676701 -0.701558
vn -0.223364 0.676701 -0.701558
vn -0.223364 0.676701 -0.701558
vn 0.088587 0.730186 -0.677482
vn 0.088587 0.730185 -0.677482
vn 0.088587 0.730186 -0.677482
vn -0.514440 0.728601 -0.452208
vn -0.514440 0.728601 -0.452208
vn -0.514440 0.728601 -0.452208
vn -0.545553 0.705378 -0.452563
vn -0.545553 0.705378 -0.452563
vn -0.545553 0.705378 -0.452563
vn -0.661781 0.733799 -0.153573
vn -0.661781 0.733799 -0.153573
vn -0.661781 0.733799 -0.153573
vn -0.604236 0.774739 -0.186221
vn -0.604236 0.774739 -0.186221
vn -0.604236 0.774739 -0.186221
vn -0.584637 0.799001 0.140699
vn -0.584637 0.799001 0.140699
vn -0.584637 0.799001 0.140699
vn -0.616770 0.771251 0.157372
vn -0.616770 0.771251 0.157372
vn -0.616770 0.771251 0.157372
vn -0.043116 0.705333 0.707564
vn -0.043116 0.705333 0.707564
vn -0.043116 0.705333 0.707564
vn -0.197316 0.595066 0.779078
vn -0.197316 0.595066 0.779078
vn -0.197316 0.595066 0.779078
vn -0.100457 0.589377 0.801588
vn -0.100457 0.589378 0.801588
vn -0.100457 0.589377 0.801588
vn -0.172733 0.746379 0.642714
vn -0.172733 0.746379 0.642715
vn -0.172733 0.746379 0.642714
vn 0.311988 0.775458 0.548935
vn 0.311988 0.775458 0.548935
vn 0.311988 0.775458 0.548935
vn 0.299801 0.789475 0.535583
vn 0.299801 0.789475 0.535583
vn 0.299801 0.789475 0.535583
vn 0.660129 0.733230 0.163105
vn 0.660129 0.733230 0.163105
vn 0.660129 0.733230 0.163105
vn 0.668283 0.719032 0.190766
vn 0.668283 0.719032 0.190766
vn 0.668283 0.719032 0.190765
vn 0.712137 0.699772 0.056398
vn 0.712137 0.699772 0.056398
vn 0.712137 0.699772 0.056398
vn 0.665502 0.746367 -0.006490
vn 0.665502 0.746367 -0.006490
vn 0.665502 0.746367 -0.006490
vn 0.664684 0.735691 -0.130207
vn 0.664684 0.735691 -0.130207
vn 0.664684 0.735691 -0.130207
vn 0.624303 0.767601 -0.145032
vn 0.624303 0.767601 -0.145032
vn 0.624303 0.767601 -0.145032
vn 0.485144 0.745141 -0.457603
vn 0.485144 0.745141 -0.457603
vn 0.485144 0.745141 -0.457603
vn 0.232690 0.959970 -0.155925
vn 0.232690 0.959970 -0.155925
vn 0.232690 0.959970 -0.155925
vn 0.192728 0.979607 -0.056805
vn 0.192728 0.979607 -0.056805
vn 0.192728 0.979607 -0.056805
vn 0.018076 0.998918 -0.042843
vn 0.018076 0.998918 -0.042843
vn 0.018076 0.998918 -0.042843
vn 0.027360 0.997520 -0.064846
vn 0.027360 0.997520 -0.064846
vn 0.027360 0.997520 -0.064846
vn -0.042893 0.991850 0.119972
vn -0.042893 0.991850 0.119972
vn -0.042893 0.991850 0.119972
vn 0.028370 0.997583 -0.063427
vn 0.028370 0.997583 -0.063427
vn 0.028370 0.997583 -0.063427
vn -0.170179 0.985398 0.005398
vn -0.170179 0.985398 0.005398
vn -0.170179 0.985398 0.005398
vn 0.033954 0.996965 0.070058
vn 0.033954 0.996965 0.070058
vn 0.033954 0.996965 0.070058
vn -0.013459 0.999516 -0.028034
vn -0.013459 0.999516 -0.028034
vn -0.013459 0.999516 -0.028034
vn 0.132457 0.990020 -0.048118
vn 0.132457 0.990020 -0.048118
vn 0.132457 0.990020 -0.048118
vn 0.160108 0.950693 -0.265610
vn 0.160108 0.950693 -0.265610
vn 0.160108 0.950693 -0.265610
vn 0.185179 0.945421 -0.268121
vn 0.185179 0.945420 -0.268121
vn 0.185179 0.945421 -0.268121
vn 0.144097 0.980406 -0.134313
vn 0.144097 0.980406 -0.134313
vn 0.144097 0.980406 -0.134313
vn 0.215360 0.975367 -0.047748
vn 0.215360 0.975367 -0.047748
vn 0.215360 0.975367 -0.047748
vn 0.216109 0.975078 -0.050205
vn 0.216109 0.975078 -0.050205
vn 0.216109 0.975078 -0.050205
vn 0.159070 0.975799 -0.150040
vn 0.159070 0.975799 -0.150040
vn 0.159070 0.975799 -0.150040
vn 0.184062 0.969860 -0.159662
vn 0.184062 0.969860 -0.159662
vn 0.184062 0.969860 -0.159662
vn 0.199148 0.969296 -0.144238
vn 0.199148 0.969296 -0.144238
vn 0.199148 0.969296 -0.144238
vn 0.942742 0.295697 -0.154275
vn 0.942742 0.295697 -0.154275
vn 0.942742 0.295697 -0.154275
vn 0.910136 0.371049 -0.184321
vn 0.910136 0.371049 -0.184321
vn 0.910136 0.371049 -0.184321
vn 0.721836 0.302937 -0.622239
vn 0.721836 0.302937 -0.622239
vn 0.721836 0.302937 -0.622239
vn 0.690500 0.356122 -0.629592
vn 0.690500 0.356122 -0.629592
vn 0.690500 0.356122 -0.629592
vn -0.133423 0.229878 -0.964030
vn -0.133423 0.229877 -0.964030
vn -0.133423 0.229877 -0.964030
vn -0.055862 0.186589 -0.980849
vn -0.055862 0.186589 -0.980849
vn -0.055862 0.186589 -0.980849
vn 0.019470 0.081292 -0.996500
vn 0.019470 0.081292 -0.996500
vn 0.019470 0.081292 -0.996500
vn -0.509964 0.156225 -0.845890
vn -0.509964 0.156225 -0.845890
vn -0.509964 0.156225 -0.845890
vn -0.510571 0.157860 -0.845220
vn -0.510571 0.157860 -0.845220
vn -0.510571 0.157860 -0.845220
vn -0.756344 0.204196 -0.621488
vn -0.756344 0.204196 -0.621488
vn -0.756344 0.204196 -0.621488
vn -0.769617 0.188398 -0.610079
vn -0.769617 0.188398 -0.610079
vn -0.769617 0.188398 -0.610079
vn 0.417673 0.227479 0.879661
vn 0.417673 0.227479 0.879661
vn 0.417673 0.227479 0.879661
vn 0.373753 0.394714 0.839350
vn 0.373753 0.394714 0.839350
vn 0.373753 0.394714 0.839350
vn 0.871199 0.156696 0.465252
vn 0.871199 0.156696 0.465252
vn 0.871199 0.156696 0.465252
vn 0.838290 0.269691 0.473853
vn 0.838290 0.269691 0.473853
vn 0.838290 0.269691 0.473853
vn 0.912376 0.152268 0.379979
vn 0.912376 0.152268 0.379979
vn 0.912376 0.152268 0.379979
vn 0.964770 0.191020 0.180914
vn 0.964770 0.191020 0.180914
vn 0.964770 0.191020 0.180914
vn 0.882195 0.340602 0.325149
vn 0.882195 0.340602 0.325149
vn 0.882195 0.340602 0.325149
vn -0.899094 0.344641 -0.269911
vn -0.899094 0.344641 -0.269911
vn -0.899094 0.344641 -0.269911
vn -0.944228 0.261578 -0.200025
vn -0.944228 0.261578 -0.200025
vn -0.944228 0.261578 -0.200025
vn -0.914798 0.367117 0.168435
vn -0.914798 0.367117 0.168435
vn -0.914798 0.367117 0.168435
vn -0.895851 0.416869 0.153856
vn -0.895851 0.416869 0.153856
vn -0.895851 0.416869 0.153856
vn -0.036921 0.000000 0.999318
vn -0.036921 0.000000 0.999318
vn -0.000000 0.000000 0.000000
vn -0.066258 0.499876 0.863559
vn -0.066258 0.499876 0.863559
vn -0.066258 0.499876 0.863559
vn -0.140349 0.000000 0.990102
vn -0.140349 0.000000 0.990102
vn -0.000000 0.000000 0.000000
vn -0.170955 0.320684 0.931631
vn -0.170955 0.320684 0.931631
vn -0.170955 0.320684 0.931631
vn 0.078726 0.759402 -0.645842
vn 0.078726 0.759402 -0.645842
vn 0.078726 0.759402 -0.645842
vn 0.479414 0.757864 -0.442497
vn 0.479414 0.757864 -0.442497
vn 0.479414 0.757864 -0.442497
s off
g pDisc1
usemtl initialShadingGroup
f 22/110/1 23/111/2 21/112/3
f 21/112/4 23/111/5 20/114/6
f 25/116/7 23/111/8 24/113/9
f 24/113/10 23/111/11 22/110/12
f 20/114/13 23/111/14 26/118/15
f 26/118/16 23/111/17 25/116/18
f 6/141/19 11/143/20 8/142/21
f 11/143/22 12/144/23 8/142/24
f 8/142/25 12/144/26 1/146/27
f 12/144/28 9/150/29 1/146/30
f 4/160/31 9/150/32 81/158/33
f 81/158/34 9/150/35 10/151/36
f 9/150/37 12/144/38 10/151/39
f 10/151/40 12/144/41 7/147/42
f 12/144/43 11/143/44 7/147/45
f 16/154/46 13/159/47 10/151/48
f 10/151/49 13/159/50 81/158/51
f 81/158/52 13/159/53 82/164/54
f 13/159/55 16/154/56 2/162/57
f 16/154/58 14/161/59 2/162/60
f 5/163/61 14/161/62 15/155/63
f 14/161/64 16/154/65 15/155/66
f 15/155/67 16/154/68 7/147/69
f 16/154/70 10/151/71 7/147/72
f 5/163/73 15/155/74 17/156/75
f 15/155/76 19/148/77 17/156/78
f 17/156/79 19/148/80 39/152/81
f 19/148/82 40/145/83 39/152/84
f 18/153/85 40/145/86 41/149/87
f 11/143/88 19/148/89 7/147/90
f 19/148/91 15/155/92 7/147/93
f 6/4/94 8/2/95 42/1/96
f 42/1/97 8/2/98 43/3/99
f 8/2/100 1/5/101 43/3/102
f 43/3/103 1/5/104 93/8/105
f 1/5/106 83/11/107 93/8/108
f 9/20/109 84/15/110 1/5/111
f 1/5/112 84/15/113 83/11/114
f 9/187/115 4/188/116 84/189/117
f 32/59/118 31/58/119 85/57/120
f 4/60/121 82/56/122 31/58/123
f 82/56/124 85/57/125 31/58/126
f 13/165/127 2/166/128 85/167/129
f 85/167/130 2/166/131 86/168/132
f 2/75/133 14/71/134 86/62/135
f 44/74/136 88/68/137 14/71/138
f 14/71/139 88/68/140 86/62/141
f 5/85/142 45/81/143 14/71/144
f 14/71/145 45/81/146 44/74/147
f 17/170/148 46/171/149 5/172/150
f 5/172/151 46/171/152 45/174/153
f 17/170/154 39/173/155 46/171/156
f 18/190/157 54/191/158 3/192/159
f 3/192/160 54/191/161 53/193/162
f 59/6/163 54/10/164 42/1/165
f 18/14/166 41/7/167 54/10/168
f 41/7/169 42/1/170 54/10/171
f 67/40/172 27/29/173 68/35/174
f 27/29/175 102/24/176 68/35/177
f 102/24/178 100/34/179 68/35/180
f 104/43/181 100/34/182 47/38/183
f 47/38/184 100/34/185 51/23/186
f 28/28/187 51/23/188 100/34/189
f 47/179/190 29/181/191 48/182/192
f 29/42/193 58/27/194 48/227/195
f 58/230/196 55/33/197 48/226/198
f 31/26/199 56/32/200 30/21/201
f 30/21/202 56/32/203 55/33/204
f 31/58/205 32/59/206 56/61/207
f 56/61/208 32/59/209 57/63/210
f 32/59/211 64/64/212 57/63/213
f 33/66/214 103/83/215 101/77/216
f 34/91/217 35/100/218 70/87/219
f 70/175/220 35/176/221 71/177/222
f 35/176/223 72/178/224 71/177/225
f 39/152/226 40/145/227 3/157/228
f 40/145/229 18/153/230 3/157/231
f 19/148/232 11/143/233 40/145/234
f 11/143/235 6/141/236 40/145/237
f 40/145/238 6/141/239 41/149/240
f 42/1/241 43/3/242 59/6/243
f 59/6/244 43/3/245 60/9/246
f 43/3/247 93/8/248 60/9/249
f 60/9/250 93/8/251 94/17/252
f 33/66/253 66/72/254 103/83/255
f 103/83/256 66/72/257 113/82/258
f 66/72/259 61/76/260 113/82/261
f 62/94/262 95/86/263 45/81/264
f 95/86/265 87/80/266 45/81/267
f 44/74/268 45/81/269 87/80/270
f 46/103/271 63/98/272 45/81/273
f 45/81/274 63/98/275 62/94/276
f 3/192/277 53/193/278 39/195/279
f 39/195/280 53/193/281 46/198/282
f 46/198/283 53/193/284 63/200/285
f 42/1/286 41/7/287 6/4/288
f 47/179/289 51/180/290 29/181/291
f 105/49/292 104/43/293 48/229/294
f 47/38/295 48/228/296 104/43/297
f 48/214/298 106/215/299 105/216/300
f 50/70/301 77/79/302 49/73/303
f 49/73/304 77/79/305 76/84/306
f 77/79/307 50/70/308 69/78/309
f 50/70/310 107/69/311 69/78/312
f 107/69/313 101/77/314 69/78/315
f 65/16/316 52/22/317 51/23/318
f 51/183/319 52/184/320 29/185/321
f 52/184/322 58/186/323 29/185/324
f 53/193/325 54/191/326 108/194/327
f 108/194/328 54/191/329 109/196/330
f 54/10/331 59/6/332 109/13/333
f 109/13/334 59/6/335 112/19/336
f 55/33/337 58/230/338 30/21/339
f 55/33/340 56/32/341 48/37/342
f 48/214/343 56/217/344 106/215/345
f 56/217/346 110/219/347 106/215/348
f 57/63/349 111/65/350 56/61/351
f 56/61/352 111/65/353 110/67/354
f 33/66/355 107/69/356 64/64/357
f 107/69/358 111/65/359 64/64/360
f 57/63/361 64/64/362 111/65/363
f 60/9/364 90/12/365 59/6/366
f 112/19/367 59/6/368 116/18/369
f 59/6/370 90/12/371 116/18/372
f 60/9/373 94/17/374 90/12/375
f 66/72/376 88/68/377 61/76/378
f 61/76/379 88/68/380 87/80/381
f 115/95/382 113/82/383 91/90/384
f 61/76/385 95/86/386 113/82/387
f 95/86/388 91/90/389 113/82/390
f 63/98/391 114/104/392 62/94/393
f 114/104/394 117/99/395 62/94/396
f 62/94/397 117/99/398 91/90/399
f 63/200/400 53/193/401 114/197/402
f 114/197/403 53/193/404 108/194/405
f 67/40/406 73/39/407 27/29/408
f 79/202/409 97/204/410 78/199/411
f 78/199/412 97/204/413 96/205/414
f 79/25/415 98/36/416 97/41/417
f 72/105/418 80/109/419 36/108/420
f 37/210/421 36/208/422 96/205/423
f 36/208/424 80/206/425 96/205/426
f 80/206/427 99/203/428 96/205/429
f 82/164/430 4/160/431 81/158/432
f 52/22/433 65/16/434 83/11/435
f 93/8/436 83/11/437 65/16/438
f 84/15/439 30/21/440 83/11/441
f 52/223/442 83/224/443 58/225/444
f 83/11/445 30/21/446 58/230/447
f 30/21/448 84/15/449 31/26/450
f 84/15/451 4/31/452 31/26/453
f 85/167/454 82/169/455 13/165/456
f 85/57/457 86/62/458 32/59/459
f 32/59/460 86/62/461 64/64/462
f 86/62/463 33/66/464 64/64/465
f 86/62/466 88/68/467 33/66/468
f 33/66/469 88/68/470 66/72/471
f 94/17/472 93/8/473 65/16/474
f 87/80/475 95/86/476 61/76/477
f 98/36/478 89/30/479 73/39/480
f 73/39/481 89/30/482 27/29/483
f 89/30/484 116/18/485 27/29/486
f 27/29/487 116/18/488 102/24/489
f 28/28/490 90/12/491 51/23/492
f 90/12/493 94/17/494 51/23/495
f 94/17/496 65/16/497 51/23/498
f 87/80/499 88/68/500 44/74/501
f 91/90/502 95/86/503 62/94/504
f 91/90/505 117/99/506 115/95/507
f 92/201/508 99/203/509 80/206/510
f 97/204/511 38/207/512 96/205/513
f 96/205/514 38/207/515 37/210/516
f 97/204/517 98/209/518 38/207/519
f 38/45/520 98/36/521 73/39/522
f 96/205/523 99/203/524 78/199/525
f 100/34/526 102/24/527 28/28/528
f 100/34/529 104/43/530 68/35/531
f 68/35/532 104/43/533 74/46/534
f 69/78/535 101/77/536 70/87/537
f 101/77/538 103/83/539 70/87/540
f 103/83/541 34/91/542 70/87/543
f 103/83/544 113/82/545 34/91/546
f 104/43/547 105/49/548 74/46/549
f 74/46/550 105/49/551 75/52/552
f 76/221/553 75/218/554 49/220/555
f 105/216/556 106/215/557 75/218/558
f 106/215/559 49/220/560 75/218/561
f 101/77/562 107/69/563 33/66/564
f 108/194/565 109/196/566 78/199/567
f 78/199/568 109/196/569 79/202/570
f 109/13/571 112/19/572 79/25/573
f 112/19/574 89/30/575 79/25/576
f 89/30/577 98/36/578 79/25/579
f 106/215/580 110/219/581 49/220/582
f 111/65/583 50/70/584 110/67/585
f 110/67/586 50/70/587 49/73/588
f 111/65/589 107/69/590 50/70/591
f 112/19/592 116/18/593 89/30/594
f 113/82/595 115/95/596 34/91/597
f 34/91/598 115/95/599 35/100/600
f 117/99/601 114/104/602 92/106/603
f 114/197/604 108/194/605 92/201/606
f 92/201/607 108/194/608 99/203/609
f 108/194/610 78/199/611 99/203/612
f 116/18/613 90/12/614 102/24/615
f 102/24/616 90/12/617 28/28/618
f 115/95/619 117/99/620 35/100/621
f 117/99/622 92/106/623 35/100/624
f 35/100/625 92/106/626 72/105/627
f 92/106/628 80/109/629 72/105/630
f 119/44/631 121/48/632 118/51/633
f 118/51/634 121/48/635 120/55/636
f 118/125/637 140/124/638 119/135/639
f 120/55/640 121/48/641 122/54/642
f 122/54/643 121/48/644 123/50/645
f 122/121/646 123/127/647 124/115/648
f 124/115/649 123/127/650 125/126/651
f 124/115/652 125/126/653 126/120/654
f 126/120/655 125/126/656 127/132/657
f 127/132/658 129/130/659 126/120/660
f 126/120/661 129/130/662 128/117/663
f 128/117/664 129/130/665 130/123/666
f 130/123/667 129/130/668 131/134/669
f 130/102/670 131/88/671 132/97/672
f 132/97/673 131/88/674 133/92/675
f 133/139/676 135/133/677 132/122/678
f 132/122/679 135/133/680 134/129/681
f 135/133/682 137/138/683 134/129/684
f 134/129/685 137/138/686 136/128/687
f 137/138/688 139/136/689 136/128/690
f 136/128/691 139/136/692 138/131/693
f 138/131/694 139/136/695 140/124/696
f 118/125/697 120/119/698 20/114/699
f 20/114/700 120/119/701 21/112/702
f 120/119/703 122/121/704 21/112/705
f 21/112/706 122/121/707 124/115/708
f 126/120/709 22/110/710 124/115/711
f 124/115/712 22/110/713 21/112/714
f 126/120/715 128/117/716 22/110/717
f 22/110/718 128/117/719 24/113/720
f 128/117/721 130/123/722 24/113/723
f 24/113/724 130/123/725 132/122/726
f 134/129/727 25/116/728 132/122/729
f 132/122/730 25/116/731 24/113/732
f 134/129/733 136/128/734 25/116/735
f 25/116/736 136/128/737 26/118/738
f 136/128/739 138/131/740 26/118/741
f 26/118/742 138/131/743 140/124/744
f 118/125/745 20/114/746 140/124/747
f 140/124/748 20/114/749 26/118/750
f 36/208/751 37/210/752 137/212/753
f 137/212/754 37/210/755 139/211/756
f 37/210/757 38/207/758 139/211/759
f 139/211/760 38/207/761 141/213/762
f 38/45/763 73/39/764 141/47/765
f 119/44/766 141/47/767 67/40/768
f 73/39/769 67/40/770 141/47/771
f 67/40/772 68/35/773 119/44/774
f 119/44/775 68/35/776 121/48/777
f 74/46/778 123/50/779 68/35/780
f 68/35/781 123/50/782 121/48/783
f 70/87/784 133/92/785 69/78/786
f 69/78/787 133/92/788 131/88/789
f 71/101/790 135/96/791 70/87/792
f 70/87/793 135/96/794 133/92/795
f 71/101/796 72/105/797 135/96/798
f 135/96/799 72/105/800 137/107/801
f 72/105/802 36/108/803 137/107/804
f 75/52/805 125/53/806 74/46/807
f 74/46/808 125/53/809 123/50/810
f 76/221/811 127/222/812 75/218/813
f 75/137/814 127/132/815 125/126/816
f 77/79/817 129/89/818 76/84/819
f 76/84/820 129/89/821 127/93/822
f 129/89/823 77/79/824 131/88/825
f 77/79/826 69/78/827 131/88/828
f 119/135/829 140/124/830 141/140/831
f 141/140/832 140/124/833 139/136/834
