# This file uses centimeters as units for non-parametric coordinates.

mtllib PF_Ground1.mtl
g default
v 92.678895 -36.265657 -72.902575
v 92.678895 -26.216256 -62.142965
v 75.881758 -26.216256 -72.902575
v 241.723282 -26.216256 -72.902575
v 224.926106 -26.216256 -62.142965
v 224.926106 -36.265657 -72.902575
v 75.881758 -18.868270 -72.902575
v 92.678895 -18.868270 -62.142965
v 92.678895 -8.818869 -72.902575
v 224.926106 -8.818869 -72.902575
v 224.926106 -18.868270 -62.142965
v 241.723282 -18.868270 -72.902575
v 75.881758 -18.868270 -108.736915
v 92.678895 -8.818869 -108.736915
v 92.678895 -8.818869 -123.953311
v 75.881758 -18.868270 -123.953311
v 241.723282 -18.868270 -123.953311
v 224.926106 -8.818869 -123.953311
v 224.926106 -8.818869 -108.736915
v 241.723282 -18.868270 -108.736915
v 75.881758 -18.868270 -162.939055
v 92.678895 -8.818869 -162.939041
v 92.678895 -8.818869 -178.155466
v 75.881758 -18.868270 -178.155466
v 241.723282 -18.868270 -178.155466
v 224.926106 -8.818869 -178.155466
v 224.926106 -8.818869 -162.939041
v 241.723282 -18.868270 -162.939055
v 75.881758 -18.861061 -217.146676
v 92.678895 -8.818869 -217.129405
v 92.664660 -9.609492 -232.315751
v 75.881758 -19.733786 -232.363043
v 241.723282 -19.733786 -232.363043
v 224.940399 -9.609492 -232.315751
v 224.926106 -8.818869 -217.129405
v 241.723282 -18.861061 -217.146676
v 75.881758 -23.793532 -271.348424
v 92.690262 -13.689932 -271.366103
v 92.678895 -14.257144 -286.575477
v 75.881758 -24.318504 -286.564835
v 241.723282 -24.318504 -286.564835
v 224.926106 -14.257144 -286.575477
v 224.914797 -13.689932 -271.366103
v 241.723282 -23.793532 -271.348424
v 75.881758 -23.167278 -325.539749
v 92.678895 -13.104846 -325.547803
v 92.687870 -12.369307 -340.747843
v 75.881758 -22.436400 -340.756014
v 241.723282 -22.436400 -340.756014
v 224.917150 -12.369307 -340.747843
v 224.926106 -13.104846 -325.547803
v 241.723282 -23.167278 -325.539749
v 75.881758 -19.859146 -379.721129
v 92.667586 -9.750453 -379.693855
v 92.728141 -6.708788 -394.575394
v 75.881758 -17.263296 -394.925298
v 241.723282 -17.263296 -394.925298
v 224.901532 -6.712480 -394.564694
v 224.948762 -9.750107 -379.699001
v 241.723282 -19.859146 -379.721129
v 75.881758 -3.716890 -433.918413
v 92.651652 7.203201 -434.329290
v 92.656001 9.732930 -449.279740
v 75.881758 -0.320728 -449.169512
v 241.723282 -0.320728 -449.169512
v 224.937592 9.732930 -449.284858
v 224.980611 7.207308 -434.341008
v 241.723282 -3.716890 -433.918413
v 75.881758 -0.328248 -488.143030
v 92.678895 9.732930 -488.132737
v 92.695027 10.741111 -503.318123
v 75.881758 0.607131 -503.359528
v 241.723282 0.607131 -503.359528
v 224.910033 10.741111 -503.318123
v 224.926106 9.732930 -488.132737
v 241.723282 -0.328248 -488.143030
v 75.881758 14.147019 -557.563849
v 75.881758 8.031836 -542.342466
v 92.669662 18.594736 -542.415797
v 92.678895 24.832112 -557.589785
v 224.926106 24.832112 -557.589785
v 224.944590 18.595292 -542.419983
v 241.723282 8.037775 -542.345839
v 241.723282 14.147019 -557.563849
v 92.678895 -34.897503 -557.570827
v 92.678895 -36.265657 -542.354271
v 75.881758 -25.878369 -542.354271
v 75.881758 -23.482365 -557.570827
v 241.723282 -23.482365 -557.570827
v 241.723282 -25.878369 -542.354271
v 224.926106 -36.265657 -542.354271
v 224.926106 -34.897503 -557.570827
v 75.881758 -26.216256 -503.368309
v 92.678895 -36.265657 -503.368309
v 92.678895 -36.265657 -488.151985
v 75.881758 -26.216256 -488.151927
v 241.723282 -26.216256 -488.151927
v 224.926106 -36.265657 -488.151985
v 224.926106 -36.265657 -503.368309
v 241.723282 -26.216256 -503.368309
v 75.881758 -26.216256 -449.166430
v 92.678895 -36.265657 -449.166430
v 92.678895 -36.265657 -433.949903
v 75.881758 -26.216256 -433.949903
v 241.723282 -26.216256 -433.949903
v 224.926106 -36.265657 -433.949903
v 224.926106 -36.265657 -449.166430
v 241.723282 -26.216256 -449.166430
v 75.881758 -26.216256 -394.964028
v 92.678895 -36.265657 -394.964028
v 92.678895 -36.265657 -379.747850
v 75.881758 -26.216256 -379.747850
v 241.723282 -26.216256 -379.747850
v 224.926106 -36.265657 -379.747850
v 224.926106 -36.265657 -394.964028
v 241.723282 -26.216256 -394.964028
v 75.881758 -26.216256 -340.761916
v 92.678895 -36.265657 -340.761916
v 92.678895 -36.265657 -325.545506
v 75.881758 -26.216256 -325.545506
v 241.723282 -26.216256 -325.545506
v 224.926106 -36.265657 -325.545506
v 224.926106 -36.265657 -340.761916
v 241.723282 -26.216256 -340.761916
v 75.881758 -26.216256 -286.559950
v 92.678895 -36.265657 -286.559950
v 92.678895 -36.265657 -271.343423
v 75.881758 -26.216256 -271.343423
v 241.723282 -26.216256 -271.343423
v 224.926106 -36.265657 -271.343423
v 224.926106 -36.265657 -286.559950
v 241.723282 -26.216256 -286.559950
v 75.881758 -26.216256 -232.357592
v 92.678895 -36.265657 -232.357592
v 92.678895 -36.265657 -217.141210
v 75.881758 -26.216256 -217.141210
v 241.723282 -26.216256 -217.141210
v 224.926106 -36.265657 -217.141210
v 224.926106 -36.265657 -232.357592
v 241.723282 -26.216256 -232.357592
v 75.881758 -26.216256 -178.155466
v 92.678895 -36.265657 -178.155466
v 92.678895 -36.265657 -162.939055
v 75.881758 -26.216256 -162.939055
v 241.723282 -26.216256 -162.939055
v 224.926106 -36.265657 -162.939055
v 224.926106 -36.265657 -178.155466
v 241.723282 -26.216256 -178.155466
v 75.881758 -26.216256 -123.953325
v 92.678895 -36.265657 -123.953325
v 92.678895 -36.265657 -108.736929
v 75.881758 -26.216256 -108.736929
v 241.723282 -26.216256 -108.736929
v 224.926106 -36.265657 -108.736929
v 224.926106 -36.265657 -123.953325
v 241.723282 -26.216256 -123.953325
v 75.881758 33.439183 -622.775758
v 75.881758 33.274554 -607.551991
v 92.678895 44.722768 -607.527741
v 92.668792 45.320422 -622.694693
v 224.936208 45.320422 -622.694693
v 224.926106 44.722768 -607.527741
v 241.723282 33.281817 -607.557515
v 241.723282 33.439183 -622.775758
v 241.723282 -9.895871 -622.766744
v 241.723282 -11.013835 -607.550304
v 224.926106 -36.722805 -607.550304
v 224.926106 -35.808509 -622.766744
v 92.678895 -35.808509 -622.766744
v 92.678895 -36.722805 -607.550304
v 75.881758 -11.013835 -607.550304
v 75.881758 -9.895871 -622.766744
v 75.881758 33.439183 -755.803241
v 92.668792 45.320422 -755.722177
v 75.881758 -9.895871 -755.794344
v 224.936208 45.320422 -755.722177
v 241.723282 33.439183 -755.803241
v 241.723282 -9.895871 -755.794344
v 224.926106 -35.808509 -755.794344
v 92.678895 -35.808509 -755.794344
v 102.083590 24.375663 -768.412991
v 113.566176 32.502592 -768.357572
v 102.083590 -5.266099 -768.406885
v 204.038824 32.502592 -768.357572
v 215.521410 24.375663 -768.412991
v 215.521410 -5.266099 -768.406885
v 204.031924 -22.990678 -768.406885
v 113.573096 -22.990678 -768.406885
vt 0.400321 0.994486
vt 0.375000 0.994486
vt 0.375000 0.976122
vt 0.400321 0.000000
vt 0.400321 0.091535
vt 0.625000 0.994486
vt 0.599679 0.994486
vt 0.625000 0.976122
vt 0.630514 0.091535
vt 0.375000 0.255514
vt 0.375000 0.273879
vt 0.400321 0.158465
vt 0.599679 0.158465
vt 0.625000 0.255514
vt 0.343323 0.091535
vt 0.351121 0.091535
vt 0.400321 0.273879
vt 0.599679 0.273879
vt 0.375000 0.281677
vt 0.400321 0.281677
vt 0.375000 0.301656
vt 0.656677 0.158465
vt 0.648879 0.158465
vt 0.648879 0.091535
vt 0.625000 0.281677
vt 0.315545 0.091535
vt 0.400321 0.301656
vt 0.599679 0.301656
vt 0.375000 0.309455
vt 0.400321 0.309455
vt 0.375000 0.329437
vt 0.684455 0.158465
vt 0.676656 0.158465
vt 0.676656 0.091535
vt 0.625000 0.309455
vt 0.287768 0.098777
vt 0.400321 0.329428
vt 0.599679 0.329428
vt 0.375000 0.361111
vt 0.400300 0.337211
vt 0.375000 0.361111
vt 0.712235 0.157828
vt 0.704437 0.158530
vt 0.704434 0.091535
vt 0.625000 0.361111
vt 0.259990 0.115335
vt 0.400338 0.357224
vt 0.599662 0.357224
vt 0.400321 0.365018
vt 0.375000 0.361111
vt 0.740013 0.137115
vt 0.732215 0.143140
vt 0.732212 0.115335
vt 0.625000 0.361111
vt 0.232212 0.107431
vt 0.400321 0.384991
vt 0.599679 0.384991
vt 0.375000 0.388889
vt 0.400335 0.392781
vt 0.375000 0.388889
vt 0.767785 0.147838
vt 0.759987 0.142432
vt 0.759990 0.109836
vt 0.625000 0.388889
vt 0.204434 0.092945
vt 0.400304 0.412740
vt 0.599713 0.412743
vt 0.375000 0.416667
vt 0.400395 0.420367
vt 0.375000 0.425146
vt 0.795546 0.175750
vt 0.787754 0.156489
vt 0.787768 0.097677
vt 0.625000 0.416667
vt 0.176656 0.054618
vt 0.400280 0.440740
vt 0.599761 0.440746
vt 0.375000 0.448345
vt 0.400287 0.448402
vt 0.375000 0.468319
vt 0.823345 0.195360
vt 0.815529 0.191431
vt 0.815545 0.069088
vt 0.625000 0.448345
vt 0.148879 0.054618
vt 0.400321 0.468313
vt 0.599679 0.468313
vt 0.400345 0.476096
vt 0.375000 0.472222
vt 0.851117 0.200402
vt 0.843319 0.195318
vt 0.843323 0.054618
vt 0.625000 0.472222
vt 0.125000 0.204466
vt 0.129466 0.040195
vt 0.400307 0.496133
vt 0.599707 0.496135
vt 0.875000 0.204466
vt 0.871097 0.202270
vt 0.871101 0.051966
vt 0.870534 0.040194
vt 0.375000 0.702801
vt 0.400321 0.750000
vt 0.400321 0.753899
vt 0.375000 0.773879
vt 0.599679 0.750000
vt 0.625000 0.753899
vt 0.625000 0.773879
vt 0.400321 0.773879
vt 0.599679 0.773879
vt 0.375000 0.781677
vt 0.400321 0.781677
vt 0.375000 0.801657
vt 0.625000 0.781677
vt 0.625000 0.801657
vt 0.400321 0.801657
vt 0.599679 0.801657
vt 0.375000 0.809455
vt 0.400321 0.809455
vt 0.375000 0.829434
vt 0.625000 0.809455
vt 0.625000 0.829434
vt 0.400321 0.829434
vt 0.599679 0.829434
vt 0.375000 0.837233
vt 0.400321 0.837233
vt 0.375000 0.857212
vt 0.625000 0.837233
vt 0.625000 0.857212
vt 0.400321 0.857212
vt 0.599679 0.857212
vt 0.375000 0.865010
vt 0.400321 0.865010
vt 0.375000 0.884990
vt 0.625000 0.865010
vt 0.625000 0.884990
vt 0.400321 0.884990
vt 0.599679 0.884990
vt 0.375000 0.892788
vt 0.400321 0.892788
vt 0.375000 0.912768
vt 0.625000 0.892788
vt 0.625000 0.912768
vt 0.400321 0.912768
vt 0.599679 0.912768
vt 0.375000 0.920566
vt 0.400321 0.920566
vt 0.375000 0.940546
vt 0.625000 0.920566
vt 0.625000 0.940546
vt 0.400321 0.940546
vt 0.599679 0.940546
vt 0.375000 0.948344
vt 0.400321 0.948344
vt 0.375000 0.968323
vt 0.625000 0.948344
vt 0.625000 0.968323
vt 0.400321 0.968323
vt 0.599679 0.968323
vt 0.599679 0.976122
vt 0.375000 0.547818
vt 0.375000 0.702801
vt 0.400321 0.500000
vt 0.599679 0.500000
vt 0.625000 0.547154
vt 0.625000 0.702801
vt 0.599679 0.750000
vt 0.400321 0.750000
vt 0.375000 0.697631
vt 0.599679 0.091535
vt 0.400321 0.255514
vt 0.599679 0.255514
vt 0.599679 0.281677
vt 0.599679 0.309455
vt 0.599700 0.337211
vt 0.599679 0.365018
vt 0.599665 0.392781
vt 0.599642 0.420361
vt 0.599696 0.448404
vt 0.599655 0.476096
vt 0.599679 0.753899
vt 0.599679 0.781677
vt 0.599679 0.809455
vt 0.599679 0.837233
vt 0.599679 0.865010
vt 0.599679 0.892788
vt 0.599679 0.920566
vt 0.599679 0.948344
vt 0.400321 0.976122
vt 0.851121 0.054617
vt 0.823343 0.054618
vt 0.795566 0.092946
vt 0.767788 0.107430
vt 0.740010 0.115335
vt 0.712232 0.098777
vt 0.684455 0.091535
vt 0.656677 0.091535
vt 0.128899 0.051966
vt 0.148883 0.200402
vt 0.128905 0.202248
vt 0.156677 0.054618
vt 0.176655 0.195359
vt 0.156682 0.195319
vt 0.184455 0.069088
vt 0.204454 0.175750
vt 0.184471 0.191431
vt 0.212232 0.097677
vt 0.232215 0.147839
vt 0.212246 0.156489
vt 0.240010 0.109836
vt 0.259987 0.137115
vt 0.240013 0.142432
vt 0.267788 0.115335
vt 0.287765 0.157828
vt 0.267785 0.143140
vt 0.295566 0.091535
vt 0.315545 0.158465
vt 0.295563 0.158531
vt 0.323344 0.091535
vt 0.343323 0.158465
vt 0.323344 0.158465
vt 0.369486 0.091535
vt 0.369486 0.158465
vt 0.351121 0.158465
vt 0.400321 0.500000
vt 0.599679 0.500000
vt 0.625000 0.547157
vt 0.625000 0.702801
vt 0.375000 0.547188
vt 0.400306 0.500000
vt 0.599694 0.500000
vt 0.625000 0.547819
vt 0.625000 0.697631
vt 0.599679 0.750000
vt 0.400321 0.750000
vt 0.599679 0.000000
vt 0.630514 0.158465
vt 0.375000 0.277778
vt 0.625000 0.277778
vt 0.625000 0.273879
vt 0.375000 0.305556
vt 0.625000 0.305556
vt 0.625000 0.301656
vt 0.375000 0.333333
vt 0.625000 0.333333
vt 0.625000 0.329437
vt 0.375000 0.361111
vt 0.625000 0.361111
vt 0.375000 0.361111
vt 0.625000 0.361111
vt 0.625000 0.361111
vt 0.375000 0.388889
vt 0.625000 0.388889
vt 0.625000 0.388889
vt 0.375000 0.430191
vt 0.625000 0.430191
vt 0.625000 0.425146
vt 0.375000 0.472222
vt 0.625000 0.468319
vt 0.375000 0.547157
vt 0.625000 0.472222
vt 0.625000 0.472222
vt 0.375000 0.753899
vt 0.375000 0.750000
vt 0.375000 0.777778
vt 0.625000 0.777778
vt 0.375000 0.805556
vt 0.625000 0.805556
vt 0.375000 0.833333
vt 0.625000 0.833333
vt 0.375000 0.861111
vt 0.625000 0.861111
vt 0.375000 0.888889
vt 0.625000 0.888889
vt 0.375000 0.916667
vt 0.625000 0.916667
vt 0.375000 0.944445
vt 0.625000 0.944445
vt 0.375000 0.972222
vt 0.625000 0.972222
vt 0.375000 0.547818
vt 0.400306 0.500000
vt 0.375000 0.547818
vt 0.375000 0.697631
vt 0.599694 0.500000
vt 0.400306 0.500000
vt 0.599694 0.500000
vt 0.625000 0.547819
vt 0.625000 0.697631
vt 0.625000 0.547819
vt 0.625000 0.697631
vt 0.599679 0.750000
vt 0.400321 0.750000
vt 0.599679 0.750000
vt 0.400321 0.750000
vt 0.375000 0.697631
vt 0.387653 0.523909
vt 0.375000 0.547818
vt 0.375000 0.622724
vt 0.500000 0.500000
vt 0.612347 0.523910
vt 0.612339 0.648910
vt 0.500000 0.750000
vt 0.387661 0.723815
vn -0.053402 -0.979516 0.194156
vn -0.727830 -0.659320 0.188574
vn -0.719409 -0.694587 0.000000
vn -0.067273 -0.997735 0.000000
vn -0.045258 -0.515929 0.855435
vn 0.053402 -0.979516 0.194156
vn 0.045258 -0.515929 0.855435
vn -0.045258 0.515929 0.855435
vn -0.727830 0.659320 0.188574
vn 0.727829 -0.659321 0.188575
vn 0.067273 -0.997735 0.000000
vn 0.719408 -0.694588 0.000000
vn 0.727830 0.659321 0.188575
vn 0.045258 0.515929 0.855435
vn -0.053402 0.979516 0.194156
vn -0.067273 0.997735 0.000000
vn -0.719409 0.694587 0.000000
vn 0.053402 0.979516 0.194156
vn 0.719408 0.694588 0.000000
vn 0.067273 0.997735 0.000000
vn -0.719409 0.694587 0.000000
vn -0.719409 -0.694587 0.000000
vn -0.067273 0.997735 0.000000
vn 0.067273 0.997735 0.000000
vn -0.067273 0.997735 0.000000
vn -0.719409 0.694587 0.000000
vn 0.719408 0.694588 0.000000
vn 0.719408 -0.694588 0.000000
vn 0.719408 0.694588 0.000000
vn 0.067273 0.997735 0.000000
vn -0.719858 0.694121 0.000046
vn -0.719468 -0.694526 0.000000
vn -0.719408 -0.694587 0.000000
vn -0.067265 0.997735 0.000007
vn 0.067265 0.997735 0.000007
vn -0.059590 0.998124 -0.014072
vn -0.679228 0.733783 -0.014569
vn 0.719857 0.694122 0.000046
vn 0.719408 -0.694588 0.000000
vn 0.719467 -0.694527 0.000000
vn 0.679227 0.733783 -0.014569
vn 0.059590 0.998124 -0.014072
vn -0.612287 0.786785 -0.077935
vn -0.670844 -0.741599 0.000000
vn -0.717054 -0.697017 0.000000
vn -0.046462 0.995025 -0.088125
vn 0.046462 0.995025 -0.088125
vn -0.088075 0.992358 -0.086424
vn -0.753140 0.656534 -0.041743
vn 0.612288 0.786785 -0.077935
vn 0.717054 -0.697018 0.000000
vn 0.670843 -0.741600 0.000000
vn 0.753140 0.656534 -0.041744
vn 0.088075 0.992358 -0.086424
vn -0.656161 0.754567 0.009057
vn -0.594987 -0.803735 0.000000
vn -0.636416 -0.771346 0.000000
vn -0.085405 0.996288 0.010747
vn 0.085405 0.996288 0.010747
vn -0.061850 0.997470 0.035056
vn -0.595666 0.802814 0.025898
vn 0.656160 0.754567 0.009057
vn 0.636415 -0.771347 0.000000
vn 0.594986 -0.803736 0.000000
vn 0.595666 0.802815 0.025898
vn 0.061850 0.997470 0.035056
vn -0.737917 0.673810 0.038193
vn -0.657377 -0.753562 0.000000
vn -0.605710 -0.795686 0.000000
vn -0.082320 0.994678 0.061966
vn 0.082304 0.994678 0.061978
vn -0.057998 0.992525 0.107378
vn -0.660302 0.748935 0.055654
vn 0.737964 0.673758 0.038217
vn 0.605709 -0.795686 0.000000
vn 0.657376 -0.753563 0.000000
vn 0.660436 0.748813 0.055708
vn 0.057994 0.992522 0.107408
vn -0.935438 0.345021 0.076916
vn -0.813740 -0.581229 0.000000
vn -0.686147 -0.727463 0.000000
vn -0.089488 0.949995 0.299168
vn 0.089554 0.949989 0.299167
vn -0.043490 0.958128 0.283019
vn -0.757977 0.617096 0.211338
vn 0.935610 0.344563 0.076875
vn 0.686146 -0.727464 0.000000
vn 0.813739 -0.581230 0.000000
vn 0.758406 0.616626 0.211168
vn 0.043514 0.958132 0.283002
vn -0.843422 0.535560 0.042599
vn -0.903785 -0.427987 0.000000
vn -0.858877 -0.512181 0.000000
vn -0.055192 0.997495 0.044254
vn 0.055123 0.997497 0.044280
vn -0.076126 0.996913 0.019198
vn -0.937135 0.348949 0.003536
vn 0.843453 0.535527 0.042405
vn 0.858877 -0.512182 0.000000
vn 0.903785 -0.427987 0.000000
vn 0.937107 0.349024 0.003562
vn 0.076154 0.996911 0.019211
vn -0.979457 0.200590 0.020665
vn -0.904277 -0.426944 -0.001364
vn -0.906518 -0.422166 0.000000
vn -0.090902 0.982376 0.163323
vn 0.090881 0.982374 0.163343
vn -0.048095 0.965016 0.257743
vn -0.852513 0.512140 0.104569
vn 0.979469 0.200531 0.020664
vn 0.906518 -0.422167 0.000000
vn 0.904288 -0.426921 -0.001363
vn 0.852505 0.512141 0.104629
vn 0.048092 0.965020 0.257727
vn -0.988405 0.140873 0.056664
vn -0.093823 0.924479 0.369507
vn -0.035785 0.955966 0.291286
vn -0.749683 0.625880 0.215055
vn -0.882357 -0.467899 -0.050166
vn -0.893793 -0.447798 -0.024743
vn 0.093802 0.924479 0.369513
vn 0.988418 0.140805 0.056606
vn 0.749004 0.626648 0.215187
vn 0.035775 0.955968 0.291282
vn 0.893807 -0.447769 -0.024741
vn 0.882356 -0.467900 -0.050166
vn -0.148250 -0.988890 -0.010863
vn -0.993928 -0.109713 -0.008397
vn -0.083720 -0.996472 0.005949
vn -0.058315 -0.997993 -0.024700
vn 0.148250 -0.988890 -0.010863
vn 0.058315 -0.997993 -0.024700
vn -0.068083 -0.997680 -0.000350
vn 0.083720 -0.996472 0.005949
vn 0.993929 -0.109703 -0.008397
vn 0.068083 -0.997680 -0.000350
vn -0.067273 -0.997735 0.000000
vn 0.067273 -0.997735 0.000000
vn -0.067273 -0.997735 0.000000
vn 0.067273 -0.997735 0.000000
vn -0.067273 -0.997735 0.000000
vn 0.067273 -0.997735 0.000000
vn -0.067273 -0.997735 0.000000
vn 0.067273 -0.997735 0.000000
vn -0.067273 -0.997735 0.000000
vn 0.067273 -0.997735 0.000000
vn -0.067273 -0.997735 0.000000
vn 0.067273 -0.997735 0.000000
vn -0.067273 -0.997735 0.000000
vn 0.067273 -0.997735 0.000000
vn -0.067273 -0.997735 0.000000
vn 0.067273 -0.997735 0.000000
vn -0.067273 -0.997735 0.000000
vn 0.067273 -0.997735 0.000000
vn -0.067273 -0.997735 0.000000
vn 0.067273 -0.997735 0.000000
vn -0.067273 -0.997735 0.000000
vn 0.067273 -0.997735 0.000000
vn -0.067273 -0.997735 0.000000
vn 0.067273 -0.997735 0.000000
vn -0.067273 -0.997735 0.000000
vn 0.067273 -0.997735 0.000000
vn -0.067273 -0.997735 0.000000
vn 0.067273 -0.997735 0.000000
vn -0.955207 0.295937 0.000848
vn -0.975719 -0.219026 -0.000672
vn -0.076653 0.997051 0.003763
vn 0.076650 0.997051 0.003761
vn 0.955276 0.295715 0.000836
vn 0.975718 -0.219029 -0.000672
vn 0.178951 -0.983837 -0.006498
vn -0.178951 -0.983837 -0.006498
vn -0.076584 0.995135 -0.061982
vn -0.944601 0.309550 -0.109127
vn -0.960411 -0.243505 -0.135336
vn 0.076584 0.995135 -0.061982
vn 0.944600 0.309551 -0.109127
vn 0.960411 -0.243505 -0.135337
vn 0.164357 -0.984406 -0.062696
vn -0.164357 -0.984406 -0.062696
vn -0.055383 0.511475 -0.857512
vn -0.141894 0.013748 -0.989786
vn -0.123096 -0.014377 -0.992291
vn 0.055383 0.511475 -0.857512
vn 0.141894 0.013748 -0.989786
vn 0.123097 -0.014377 -0.992290
vn 0.094504 -0.380861 -0.919790
vn -0.094504 -0.380861 -0.919790
s 1
g pCube44
usemtl initialShadingGroup
f 1/1/1 3/2/2 152/3/3 151/189/4
f 2/5/5 1/4/1 6/236/6 5/170/7
f 3/222/2 2/5/5 8/12/8 7/223/9
f 4/6/10 6/7/6 154/160/11 153/8/12
f 5/170/7 4/9/10 12/237/13 11/13/14
f 7/10/9 9/171/15 14/17/16 13/11/17
f 9/171/15 8/12/8 11/13/14 10/172/18
f 10/172/18 12/14/13 20/240/19 19/18/20
f 13/224/17 16/220/21 149/15/22 152/16/3
f 15/20/23 14/17/16 19/18/20 18/173/24
f 16/19/21 15/20/23 22/27/25 21/21/26
f 17/22/27 20/23/19 153/24/12 156/197/28
f 18/173/24 17/25/27 28/243/29 27/28/30
f 21/221/26 24/217/31 141/26/32 144/219/33
f 23/30/34 22/27/25 27/28/30 26/174/35
f 24/29/31 23/30/34 30/37/36 29/31/37
f 25/32/38 28/33/29 145/34/39 148/196/40
f 26/174/35 25/35/38 36/246/41 35/38/42
f 29/218/37 32/214/43 133/36/44 136/216/45
f 31/40/46 30/37/36 35/38/42 34/175/47
f 32/39/43 31/40/46 38/47/48 37/41/49
f 33/42/50 36/43/41 137/44/51 140/195/52
f 34/175/47 33/45/50 44/248/53 43/48/54
f 37/215/49 40/211/55 125/46/56 128/213/57
f 39/49/58 38/47/48 43/48/54 42/176/59
f 40/247/55 39/49/58 46/56/60 45/50/61
f 41/51/62 44/52/53 129/53/63 132/194/64
f 42/176/59 41/54/62 52/251/65 51/57/66
f 45/212/61 48/208/67 117/55/68 120/210/69
f 47/59/70 46/56/60 51/57/66 50/177/71
f 48/58/67 47/59/70 54/66/72 53/60/73
f 49/61/74 52/62/65 121/63/75 124/193/76
f 50/177/71 49/64/74 60/254/77 59/67/78
f 53/209/73 56/205/79 109/65/80 112/207/81
f 55/69/82 54/66/72 59/67/78 58/178/83
f 56/68/79 55/69/82 62/76/84 61/70/85
f 57/71/86 60/72/77 113/73/87 116/192/88
f 58/178/83 57/74/86 68/257/89 67/77/90
f 61/206/85 64/202/91 101/75/92 104/204/93
f 63/79/94 62/76/84 67/77/90 66/179/95
f 64/78/91 63/79/94 70/86/96 69/80/97
f 65/81/98 68/82/89 105/83/99 108/191/100
f 66/179/95 65/84/98 76/259/101 75/87/102
f 69/203/97 72/199/103 93/85/104 96/201/105
f 71/88/106 70/86/96 75/87/102 74/180/107
f 72/258/103 71/88/106 79/96/108 78/89/109
f 73/90/110 76/91/101 97/92/111 100/190/112
f 74/180/107 73/93/110 83/261/113 82/97/114
f 77/260/115 80/225/116 159/163/117 158/229/118
f 78/200/109 77/94/115 88/95/119 87/198/120
f 80/225/116 79/96/108 82/97/114 81/226/121
f 81/226/121 84/227/122 163/165/123 162/164/124
f 84/98/122 83/99/113 90/100/125 89/101/126
f 85/103/127 88/102/119 171/162/128 170/168/129
f 86/104/130 85/103/127 92/106/131 91/181/132
f 87/263/120 86/104/130 94/109/133 93/105/104
f 89/228/126 92/106/131 167/167/134 166/166/135
f 91/181/132 90/107/125 100/108/112 99/110/136
f 95/112/137 94/109/133 99/110/136 98/182/138
f 96/111/105 95/112/137 102/116/139 101/113/92
f 98/182/138 97/114/111 108/115/100 107/117/140
f 103/119/141 102/116/139 107/117/140 106/183/142
f 104/118/93 103/119/141 110/123/143 109/120/80
f 106/183/142 105/121/99 116/122/88 115/124/144
f 111/126/145 110/123/143 115/124/144 114/184/146
f 112/125/81 111/126/145 118/130/147 117/127/68
f 114/184/146 113/128/87 124/129/76 123/131/148
f 119/133/149 118/130/147 123/131/148 122/185/150
f 120/132/69 119/133/149 126/137/151 125/134/56
f 122/185/150 121/135/75 132/136/64 131/138/152
f 127/140/153 126/137/151 131/138/152 130/186/154
f 128/139/57 127/140/153 134/144/155 133/141/44
f 130/186/154 129/142/63 140/143/52 139/145/156
f 135/147/157 134/144/155 139/145/156 138/187/158
f 136/146/45 135/147/157 142/151/159 141/148/32
f 138/187/158 137/149/51 148/150/40 147/152/160
f 143/154/161 142/151/159 147/152/160 146/188/162
f 144/153/33 143/154/161 150/158/163 149/155/22
f 146/188/162 145/156/39 156/157/28 155/159/164
f 151/189/4 150/158/163 155/159/164 154/160/11
f 158/229/118 157/161/165 172/169/166 171/162/128
f 160/230/167 159/163/117 162/164/124 161/231/168
f 164/232/169 163/165/123 166/166/135 165/233/170
f 168/234/171 167/167/134 170/168/129 169/235/172
f 2/5/5 5/170/7 11/13/14 8/12/8
f 9/171/15 10/172/18 19/18/20 14/17/16
f 15/20/23 18/173/24 27/28/30 22/27/25
f 23/30/34 26/174/35 35/38/42 30/37/36
f 31/40/46 34/175/47 43/48/54 38/47/48
f 39/49/58 42/176/59 51/57/66 46/56/60
f 47/59/70 50/177/71 59/67/78 54/66/72
f 55/69/82 58/178/83 67/77/90 62/76/84
f 63/79/94 66/179/95 75/87/102 70/86/96
f 71/88/106 74/180/107 82/97/114 79/96/108
f 86/104/130 91/181/132 99/110/136 94/109/133
f 95/112/137 98/182/138 107/117/140 102/116/139
f 103/119/141 106/183/142 115/124/144 110/123/143
f 111/126/145 114/184/146 123/131/148 118/130/147
f 119/133/149 122/185/150 131/138/152 126/137/151
f 127/140/153 130/186/154 139/145/156 134/144/155
f 135/147/157 138/187/158 147/152/160 142/151/159
f 143/154/161 146/188/162 155/159/164 150/158/163
f 151/189/4 154/160/11 6/7/6 1/1/1
f 100/190/112 90/100/125 83/99/113 73/90/110
f 108/191/100 97/92/111 76/91/101 65/81/98
f 116/192/88 105/83/99 68/82/89 57/71/86
f 124/193/76 113/73/87 60/72/77 49/61/74
f 132/194/64 121/63/75 52/62/65 41/51/62
f 140/195/52 129/53/63 44/52/53 33/42/50
f 148/196/40 137/44/51 36/43/41 25/32/38
f 156/197/28 145/34/39 28/33/29 17/22/27
f 4/9/10 153/24/12 20/23/19 12/237/13
f 87/198/120 93/85/104 72/199/103 78/200/109
f 96/201/105 101/75/92 64/202/91 69/203/97
f 104/204/93 109/65/80 56/205/79 61/206/85
f 112/207/81 117/55/68 48/208/67 53/209/73
f 120/210/69 125/46/56 40/211/55 45/212/61
f 128/213/57 133/36/44 32/214/43 37/215/49
f 136/216/45 141/26/32 24/217/31 29/218/37
f 144/219/33 149/15/22 16/220/21 21/221/26
f 152/16/3 3/222/2 7/223/9 13/224/17
f 80/225/116 81/226/121 162/164/124 159/163/117
f 84/227/122 89/228/126 166/166/135 163/165/123
f 92/106/131 85/103/127 170/168/129 167/167/134
f 88/102/119 77/260/115 158/229/118 171/162/128
f 1/4/1 2/5/5 3/222/2
f 4/9/10 5/170/7 6/236/6
f 7/223/9 8/12/8 9/171/15
f 10/172/18 11/13/14 12/237/13
f 13/11/17 14/17/16 15/20/23 16/238/21
f 17/239/27 18/173/24 19/18/20 20/240/19
f 21/21/26 22/27/25 23/30/34 24/241/31
f 25/242/38 26/174/35 27/28/30 28/243/29
f 29/31/37 30/37/36 31/40/46 32/244/43
f 33/245/50 34/175/47 35/38/42 36/246/41
f 37/41/49 38/47/48 39/49/58 40/247/55
f 41/54/62 42/176/59 43/48/54 44/248/53
f 45/50/61 46/56/60 47/59/70 48/249/67
f 49/250/74 50/177/71 51/57/66 52/251/65
f 53/60/73 54/66/72 55/69/82 56/252/79
f 57/253/86 58/178/83 59/67/78 60/254/77
f 61/70/85 62/76/84 63/79/94 64/255/91
f 65/256/98 66/179/95 67/77/90 68/257/89
f 69/80/97 70/86/96 71/88/106 72/258/103
f 73/93/110 74/180/107 75/87/102 76/259/101
f 77/260/115 78/89/109 79/96/108 80/225/116
f 81/226/121 82/97/114 83/261/113 84/262/122
f 85/103/127 86/104/130 87/263/120 88/264/119
f 89/228/126 90/107/125 91/181/132 92/106/131
f 93/105/104 94/109/133 95/112/137 96/265/105
f 97/266/111 98/182/138 99/110/136 100/108/112
f 101/113/92 102/116/139 103/119/141 104/267/93
f 105/268/99 106/183/142 107/117/140 108/115/100
f 109/120/80 110/123/143 111/126/145 112/269/81
f 113/270/87 114/184/146 115/124/144 116/122/88
f 117/127/68 118/130/147 119/133/149 120/271/69
f 121/272/75 122/185/150 123/131/148 124/129/76
f 125/134/56 126/137/151 127/140/153 128/273/57
f 129/274/63 130/186/154 131/138/152 132/136/64
f 133/141/44 134/144/155 135/147/157 136/275/45
f 137/276/51 138/187/158 139/145/156 140/143/52
f 141/148/32 142/151/159 143/154/161 144/277/33
f 145/278/39 146/188/162 147/152/160 148/150/40
f 149/155/22 150/158/163 151/189/4 152/279/3
f 153/280/12 154/160/11 155/159/164 156/157/28
f 157/161/165 158/229/118 159/163/117 160/230/167
f 161/231/168 162/164/124 163/165/123 164/232/169
f 165/233/170 166/166/135 167/167/134 168/234/171
f 169/235/172 170/168/129 171/162/128 172/169/166
f 157/230/165 160/282/167 174/161/173 173/281/174
f 172/169/166 157/284/165 173/161/174 175/283/175
f 160/231/167 161/285/168 176/230/176 174/286/173
f 161/232/168 164/288/169 177/231/177 176/287/176
f 164/233/169 165/289/170 178/232/178 177/290/177
f 165/233/170 168/291/171 179/234/179 178/292/178
f 168/234/171 169/294/172 180/235/180 179/293/179
f 169/235/172 172/295/166 175/169/175 180/296/180
f 173/281/174 174/161/173 182/297/181 181/298/182
f 175/161/175 173/283/174 181/298/182 183/299/183
f 174/230/173 176/286/176 184/300/184 182/297/181
f 176/287/176 177/231/177 185/301/185 184/300/184
f 177/232/177 178/290/178 186/302/186 185/301/185
f 178/292/178 179/234/179 187/303/187 186/302/186
f 179/235/179 180/293/180 188/304/188 187/303/187
f 180/296/180 175/169/175 183/299/183 188/304/188
f 183/299/183 181/298/182 185/301/185 186/302/186
f 186/302/186 187/303/187 188/304/188 183/299/183
f 182/297/181 184/300/184 185/301/185 181/298/182
