# This file uses centimeters as units for non-parametric coordinates.

mtllib Tet_Bush_1.mtl
g default
v 17.779005 -6.565884 -5.387252
v 15.123724 -6.565884 -10.247163
v 10.988029 -6.565884 -14.104010
v 5.776747 -6.565884 -16.580257
v -0.000000 -6.565884 -17.433513
v -5.776748 -6.565884 -16.580256
v -10.988026 -6.565884 -14.104007
v -15.123720 -6.565884 -10.247161
v -17.778998 -6.565884 -5.387251
v -18.693944 -6.565884 -0.000000
v -17.778998 -6.565884 5.387250
v -15.123719 -6.565884 10.247158
v -10.988025 -6.565884 14.104004
v -5.776747 -6.565884 16.580250
v -0.000001 -6.565884 17.433505
v 5.776745 -6.565884 16.580249
v 10.988021 -6.565884 14.104002
v 15.123715 -6.565884 10.247157
v 17.778993 -6.565884 5.387249
v 18.693939 -6.565884 -0.000000
v 19.787379 -3.926244 -5.995814
v 16.832150 -3.926244 -11.404716
v 12.229272 -3.926244 -15.697244
v 6.429308 -3.926244 -18.453216
v -0.000000 -3.926244 -19.402860
v -6.429309 -3.926244 -18.453215
v -12.229270 -3.926244 -15.697240
v -16.832144 -3.926244 -11.404712
v -19.787371 -3.926244 -5.995812
v -20.805674 -3.926244 -0.000000
v -19.787371 -3.926244 5.995811
v -16.832142 -3.926244 11.404711
v -12.229267 -3.926244 15.697237
v -6.429307 -3.926244 18.453209
v -0.000001 -3.926244 19.402852
v 6.429305 -3.926244 18.453209
v 12.229264 -3.926244 15.697236
v 16.832138 -3.926244 11.404710
v 19.787367 -3.926244 5.995810
v 20.805668 -3.926244 -0.000000
v 20.829996 0.000000 -6.311739
v 17.719053 0.000000 -12.005641
v 12.873645 0.000000 -16.524348
v 6.768075 0.000000 -19.425534
v 0.000000 0.000000 -20.425215
v -6.768075 0.000000 -19.425533
v -12.873642 0.000000 -16.524344
v -17.719046 0.000000 -12.005638
v -20.829988 0.000000 -6.311737
v -21.901945 0.000000 0.000000
v -20.829988 0.000000 6.311737
v -17.719045 0.000000 12.005636
v -12.873639 0.000000 16.524340
v -6.768073 0.000000 19.425527
v -0.000001 0.000000 20.425207
v 6.768071 0.000000 19.425526
v 12.873637 0.000000 16.524339
v 17.719041 0.000000 12.005635
v 20.829983 0.000000 6.311736
v 21.901939 0.000000 0.000000
v 20.573544 2.608663 -6.234031
v 17.500902 2.608663 -11.857832
v 12.715149 2.608663 -16.320905
v 6.684749 2.608663 -19.186374
v 0.000000 2.608663 -20.173747
v -6.684749 2.608663 -19.186373
v -12.715146 2.608663 -16.320902
v -17.500895 2.608663 -11.857829
v -20.573536 2.608663 -6.234029
v -21.632296 2.608663 0.000000
v -20.573536 2.608663 6.234029
v -17.500894 2.608663 11.857827
v -12.715144 2.608663 16.320898
v -6.684747 2.608663 19.186366
v -0.000001 2.608663 20.173740
v 6.684745 2.608663 19.186366
v 12.715141 2.608663 16.320897
v 17.500890 2.608663 11.857826
v 20.573532 2.608663 6.234028
v 21.632291 2.608663 0.000000
v 19.810504 5.153096 -6.002821
v 16.851821 5.153096 -11.418044
v 12.243564 5.153096 -15.715588
v 6.436822 5.153096 -18.474782
v 0.000000 5.153096 -19.425534
v -6.436822 5.153096 -18.474781
v -12.243562 5.153096 -15.715586
v -16.851816 5.153096 -11.418040
v -19.810496 5.153096 -6.002819
v -20.829988 5.153096 0.000000
v -19.810496 5.153096 6.002819
v -16.851814 5.153096 11.418039
v -12.243559 5.153096 15.715582
v -6.436820 5.153096 18.474774
v -0.000001 5.153096 19.425527
v 6.436818 5.153096 18.474773
v 12.243556 5.153096 15.715581
v 16.851810 5.153096 11.418038
v 19.810491 5.153096 6.002818
v 20.829983 5.153096 0.000000
v 18.559662 7.570641 -5.623801
v 15.787792 7.570641 -10.697105
v 11.470501 7.570641 -14.723302
v 6.030399 7.570641 -17.308277
v 0.000000 7.570641 -18.198999
v -6.030399 7.570641 -17.308277
v -11.470499 7.570641 -14.723298
v -15.787786 7.570641 -10.697101
v -18.559655 7.570641 -5.623798
v -19.514776 7.570641 0.000000
v -18.559655 7.570641 5.623798
v -15.787786 7.570641 10.697101
v -11.470497 7.570641 14.723296
v -6.030397 7.570641 17.308271
v -0.000001 7.570641 18.198993
v 6.030396 7.570641 17.308270
v 11.470495 7.570641 14.723294
v 15.787782 7.570641 10.697100
v 18.559650 7.570641 5.623798
v 19.514771 7.570641 0.000000
v 16.851821 9.801771 -5.106304
v 14.335015 9.801771 -9.712768
v 10.414997 9.801771 -13.368478
v 5.475487 9.801771 -15.715587
v 0.000000 9.801771 -16.524345
v -5.475487 9.801771 -15.715586
v -10.414995 9.801771 -13.368476
v -14.335010 9.801771 -9.712765
v -16.851814 9.801771 -5.106302
v -17.719045 9.801771 0.000000
v -16.851814 9.801771 5.106302
v -14.335009 9.801771 9.712764
v -10.414993 9.801771 13.368472
v -5.475486 9.801771 15.715581
v -0.000001 9.801771 16.524340
v 5.475484 9.801771 15.715581
v 10.414991 9.801771 13.368471
v 14.335006 9.801771 9.712763
v 16.851810 9.801771 5.106301
v 17.719041 9.801771 0.000000
v 14.729031 11.791549 -4.463074
v 12.529262 11.791549 -8.489270
v 9.103041 11.791549 -11.684478
v 4.785752 11.791549 -13.735927
v 0.000000 11.791549 -14.442808
v -4.785752 11.791549 -13.735926
v -9.103039 11.791549 -11.684475
v -12.529257 11.791549 -8.489268
v -14.729026 11.791549 -4.463072
v -15.487013 11.791549 0.000000
v -14.729026 11.791549 4.463072
v -12.529257 11.791549 8.489267
v -9.103037 11.791549 11.684473
v -4.785750 11.791549 13.735921
v -0.000000 11.791549 14.442802
v 4.785749 11.791549 13.735921
v 9.103035 11.791549 11.684472
v 12.529254 11.791549 8.489266
v 14.729022 11.791549 4.463071
v 15.487010 11.791549 0.000000
v 12.243564 13.490981 -3.709947
v 10.414998 13.490981 -7.056739
v 7.566938 13.490981 -9.712768
v 3.978175 13.490981 -11.418043
v 0.000000 13.490981 -12.005640
v -3.978175 13.490981 -11.418042
v -7.566937 13.490981 -9.712765
v -10.414994 13.490981 -7.056736
v -12.243559 13.490981 -3.709946
v -12.873639 13.490981 0.000000
v -12.243559 13.490981 3.709946
v -10.414993 13.490981 7.056736
v -7.566935 13.490981 9.712764
v -3.978173 13.490981 11.418038
v -0.000000 13.490981 12.005635
v 3.978172 13.490981 11.418038
v 7.566934 13.490981 9.712763
v 10.414991 13.490981 7.056735
v 12.243556 13.490981 3.709945
v 12.873637 13.490981 0.000000
v 9.456620 14.858219 -2.865470
v 8.044282 14.858219 -5.450448
v 5.844513 14.858219 -7.501897
v 3.072642 14.858219 -8.819008
v 0.000000 14.858219 -9.272854
v -3.072642 14.858219 -8.819008
v -5.844511 14.858219 -7.501895
v -8.044279 14.858219 -5.450446
v -9.456617 14.858219 -2.865469
v -9.943275 14.858219 0.000000
v -9.456617 14.858219 2.865469
v -8.044278 14.858219 5.450445
v -5.844510 14.858219 7.501894
v -3.072641 14.858219 8.819005
v -0.000000 14.858219 9.272851
v 3.072640 14.858219 8.819005
v 5.844509 14.858219 7.501894
v 8.044277 14.858219 5.450445
v 9.456615 14.858219 2.865468
v 9.943273 14.858219 0.000000
v 6.436823 15.859599 -1.950435
v 5.475489 15.859599 -3.709947
v 3.978175 15.859599 -5.106304
v 2.091450 15.859599 -6.002821
v 0.000000 15.859599 -6.311739
v -2.091450 15.859599 -6.002820
v -3.978174 15.859599 -5.106303
v -5.475487 15.859599 -3.709946
v -6.436820 15.859599 -1.950434
v -6.768073 15.859599 0.000000
v -6.436820 15.859599 1.950434
v -5.475486 15.859599 3.709946
v -3.978174 15.859599 5.106302
v -2.091450 15.859599 6.002818
v -0.000000 15.859599 6.311736
v 2.091449 15.859599 6.002818
v 3.978173 15.859599 5.106302
v 5.475485 15.859599 3.709945
v 6.436819 15.859599 1.950434
v 6.768072 15.859599 0.000000
v 3.258529 16.470463 -0.987374
v 2.771871 16.470463 -1.878096
v 2.013882 16.470463 -2.584978
v 1.058760 16.470463 -3.038823
v 0.000000 16.470463 -3.195208
v -1.058760 16.470463 -3.038823
v -2.013882 16.470463 -2.584977
v -2.771870 16.470463 -1.878096
v -3.258528 16.470463 -0.987373
v -3.426219 16.470463 0.000000
v -3.258528 16.470463 0.987373
v -2.771870 16.470463 1.878095
v -2.013881 16.470463 2.584977
v -1.058760 16.470463 3.038822
v -0.000000 16.470463 3.195207
v 1.058760 16.470463 3.038822
v 2.013881 16.470463 2.584976
v 2.771869 16.470463 1.878095
v 3.258528 16.470463 0.987373
v 3.426218 16.470463 0.000000
v 0.000000 16.675769 0.000000
vt 0.000000 0.400000
vt 0.050000 0.400000
vt 0.100000 0.400000
vt 0.150000 0.400000
vt 0.200000 0.400000
vt 0.250000 0.400000
vt 0.300000 0.400000
vt 0.350000 0.400000
vt 0.400000 0.400000
vt 0.450000 0.400000
vt 0.500000 0.400000
vt 0.550000 0.400000
vt 0.600000 0.400000
vt 0.650000 0.400000
vt 0.700000 0.400000
vt 0.750000 0.400000
vt 0.800000 0.400000
vt 0.850000 0.400000
vt 0.900000 0.400000
vt 0.950000 0.400000
vt 1.000000 0.400000
vt 0.000000 0.450000
vt 0.050000 0.450000
vt 0.100000 0.450000
vt 0.150000 0.450000
vt 0.200000 0.450000
vt 0.250000 0.450000
vt 0.300000 0.450000
vt 0.350000 0.450000
vt 0.400000 0.450000
vt 0.450000 0.450000
vt 0.500000 0.450000
vt 0.550000 0.450000
vt 0.600000 0.450000
vt 0.650000 0.450000
vt 0.700000 0.450000
vt 0.750000 0.450000
vt 0.800000 0.450000
vt 0.850000 0.450000
vt 0.900000 0.450000
vt 0.950000 0.450000
vt 1.000000 0.450000
vt 0.000000 0.500000
vt 0.050000 0.500000
vt 0.100000 0.500000
vt 0.150000 0.500000
vt 0.200000 0.500000
vt 0.250000 0.500000
vt 0.300000 0.500000
vt 0.350000 0.500000
vt 0.400000 0.500000
vt 0.450000 0.500000
vt 0.500000 0.500000
vt 0.550000 0.500000
vt 0.600000 0.500000
vt 0.650000 0.500000
vt 0.700000 0.500000
vt 0.750000 0.500000
vt 0.800000 0.500000
vt 0.850000 0.500000
vt 0.900000 0.500000
vt 0.950000 0.500000
vt 1.000000 0.500000
vt 0.000000 0.550000
vt 0.050000 0.550000
vt 0.100000 0.550000
vt 0.150000 0.550000
vt 0.200000 0.550000
vt 0.250000 0.550000
vt 0.300000 0.550000
vt 0.350000 0.550000
vt 0.400000 0.550000
vt 0.450000 0.550000
vt 0.500000 0.550000
vt 0.550000 0.550000
vt 0.600000 0.550000
vt 0.650000 0.550000
vt 0.700000 0.550000
vt 0.750000 0.550000
vt 0.800000 0.550000
vt 0.850000 0.550000
vt 0.900000 0.550000
vt 0.950000 0.550000
vt 1.000000 0.550000
vt 0.000000 0.600000
vt 0.050000 0.600000
vt 0.100000 0.600000
vt 0.150000 0.600000
vt 0.200000 0.600000
vt 0.250000 0.600000
vt 0.300000 0.600000
vt 0.350000 0.600000
vt 0.400000 0.600000
vt 0.450000 0.600000
vt 0.500000 0.600000
vt 0.550000 0.600000
vt 0.600000 0.600000
vt 0.650000 0.600000
vt 0.700000 0.600000
vt 0.750000 0.600000
vt 0.800000 0.600000
vt 0.850000 0.600000
vt 0.900000 0.600000
vt 0.950000 0.600000
vt 1.000000 0.600000
vt 0.000000 0.650000
vt 0.050000 0.650000
vt 0.100000 0.650000
vt 0.150000 0.650000
vt 0.200000 0.650000
vt 0.250000 0.650000
vt 0.300000 0.650000
vt 0.350000 0.650000
vt 0.400000 0.650000
vt 0.450000 0.650000
vt 0.500000 0.650000
vt 0.550000 0.650000
vt 0.600000 0.650000
vt 0.650000 0.650000
vt 0.700000 0.650000
vt 0.750000 0.650000
vt 0.800000 0.650000
vt 0.850000 0.650000
vt 0.900000 0.650000
vt 0.950000 0.650000
vt 1.000000 0.650000
vt 0.000000 0.700000
vt 0.050000 0.700000
vt 0.100000 0.700000
vt 0.150000 0.700000
vt 0.200000 0.700000
vt 0.250000 0.700000
vt 0.300000 0.700000
vt 0.350000 0.700000
vt 0.400000 0.700000
vt 0.450000 0.700000
vt 0.500000 0.700000
vt 0.550000 0.700000
vt 0.600000 0.700000
vt 0.650000 0.700000
vt 0.700000 0.700000
vt 0.750000 0.700000
vt 0.800000 0.700000
vt 0.850000 0.700000
vt 0.900000 0.700000
vt 0.950000 0.700000
vt 1.000000 0.700000
vt 0.000000 0.750000
vt 0.050000 0.750000
vt 0.100000 0.750000
vt 0.150000 0.750000
vt 0.200000 0.750000
vt 0.250000 0.750000
vt 0.300000 0.750000
vt 0.350000 0.750000
vt 0.400000 0.750000
vt 0.450000 0.750000
vt 0.500000 0.750000
vt 0.550000 0.750000
vt 0.600000 0.750000
vt 0.650000 0.750000
vt 0.700000 0.750000
vt 0.750000 0.750000
vt 0.800000 0.750000
vt 0.850000 0.750000
vt 0.900000 0.750000
vt 0.950000 0.750000
vt 1.000000 0.750000
vt 0.000000 0.800000
vt 0.050000 0.800000
vt 0.100000 0.800000
vt 0.150000 0.800000
vt 0.200000 0.800000
vt 0.250000 0.800000
vt 0.300000 0.800000
vt 0.350000 0.800000
vt 0.400000 0.800000
vt 0.450000 0.800000
vt 0.500000 0.800000
vt 0.550000 0.800000
vt 0.600000 0.800000
vt 0.650000 0.800000
vt 0.700000 0.800000
vt 0.750000 0.800000
vt 0.800000 0.800000
vt 0.850000 0.800000
vt 0.900000 0.800000
vt 0.950000 0.800000
vt 1.000000 0.800000
vt 0.000000 0.850000
vt 0.050000 0.850000
vt 0.100000 0.850000
vt 0.150000 0.850000
vt 0.200000 0.850000
vt 0.250000 0.850000
vt 0.300000 0.850000
vt 0.350000 0.850000
vt 0.400000 0.850000
vt 0.450000 0.850000
vt 0.500000 0.850000
vt 0.550000 0.850000
vt 0.600000 0.850000
vt 0.650000 0.850000
vt 0.700000 0.850000
vt 0.750000 0.850000
vt 0.800000 0.850000
vt 0.850000 0.850000
vt 0.900000 0.850000
vt 0.950000 0.850000
vt 1.000000 0.850000
vt 0.000000 0.900000
vt 0.050000 0.900000
vt 0.100000 0.900000
vt 0.150000 0.900000
vt 0.200000 0.900000
vt 0.250000 0.900000
vt 0.300000 0.900000
vt 0.350000 0.900000
vt 0.400000 0.900000
vt 0.450000 0.900000
vt 0.500000 0.900000
vt 0.550000 0.900000
vt 0.600000 0.900000
vt 0.650000 0.900000
vt 0.700000 0.900000
vt 0.750000 0.900000
vt 0.800000 0.900000
vt 0.850000 0.900000
vt 0.900000 0.900000
vt 0.950000 0.900000
vt 1.000000 0.900000
vt 0.000000 0.950000
vt 0.050000 0.950000
vt 0.100000 0.950000
vt 0.150000 0.950000
vt 0.200000 0.950000
vt 0.250000 0.950000
vt 0.300000 0.950000
vt 0.350000 0.950000
vt 0.400000 0.950000
vt 0.450000 0.950000
vt 0.500000 0.950000
vt 0.550000 0.950000
vt 0.600000 0.950000
vt 0.650000 0.950000
vt 0.700000 0.950000
vt 0.750000 0.950000
vt 0.800000 0.950000
vt 0.850000 0.950000
vt 0.900000 0.950000
vt 0.950000 0.950000
vt 1.000000 0.950000
vt 0.025000 1.000000
vt 0.075000 1.000000
vt 0.125000 1.000000
vt 0.175000 1.000000
vt 0.225000 1.000000
vt 0.275000 1.000000
vt 0.325000 1.000000
vt 0.375000 1.000000
vt 0.425000 1.000000
vt 0.475000 1.000000
vt 0.525000 1.000000
vt 0.575000 1.000000
vt 0.625000 1.000000
vt 0.675000 1.000000
vt 0.725000 1.000000
vt 0.775000 1.000000
vt 0.825000 1.000000
vt 0.875000 1.000000
vt 0.925000 1.000000
vt 0.975000 1.000000
vn 0.739430 -0.621991 -0.257625
vn 0.621994 -0.615067 -0.484578
vn 0.717164 -0.416540 -0.558722
vn 0.855765 -0.422809 -0.298157
vn 0.445846 -0.606820 -0.658021
vn 0.511823 -0.409163 -0.755396
vn 0.231909 -0.600385 -0.765347
vn 0.265339 -0.403474 -0.875673
vn -0.000000 -0.597980 -0.801511
vn -0.000000 -0.401363 -0.915919
vn -0.231910 -0.600384 -0.765347
vn -0.265340 -0.403474 -0.875673
vn -0.445846 -0.606819 -0.658021
vn -0.511823 -0.409163 -0.755396
vn -0.621995 -0.615066 -0.484578
vn -0.717164 -0.416540 -0.558722
vn -0.739430 -0.621991 -0.257625
vn -0.855765 -0.422809 -0.298158
vn -0.780866 -0.624698 0.000000
vn -0.905062 -0.425279 0.000000
vn -0.739430 -0.621991 0.257626
vn -0.855765 -0.422809 0.298158
vn -0.621994 -0.615067 0.484578
vn -0.717164 -0.416540 0.558722
vn -0.445846 -0.606819 0.658021
vn -0.511823 -0.409163 0.755396
vn -0.231909 -0.600384 0.765347
vn -0.265340 -0.403474 0.875673
vn 0.000000 -0.597980 0.801511
vn 0.000000 -0.401363 0.915919
vn 0.231909 -0.600385 0.765347
vn 0.265340 -0.403474 0.875673
vn 0.445846 -0.606819 0.658021
vn 0.511823 -0.409163 0.755396
vn 0.621995 -0.615067 0.484578
vn 0.717164 -0.416540 0.558722
vn 0.739430 -0.621991 0.257626
vn 0.855765 -0.422809 0.298158
vn 0.780866 -0.624698 0.000001
vn 0.905062 -0.425279 0.000001
vn 0.783197 -0.119582 -0.610166
vn 0.937302 -0.121738 -0.326565
vn 0.557068 -0.117069 -0.822174
vn 0.288062 -0.115148 -0.950663
vn -0.000000 -0.114439 -0.993430
vn -0.288063 -0.115148 -0.950663
vn -0.557069 -0.117069 -0.822174
vn -0.783197 -0.119582 -0.610166
vn -0.937302 -0.121738 -0.326566
vn -0.992457 -0.122593 0.000000
vn -0.937302 -0.121738 0.326567
vn -0.783197 -0.119582 0.610166
vn -0.557068 -0.117069 0.822174
vn -0.288062 -0.115148 0.950663
vn 0.000000 -0.114439 0.993430
vn 0.288063 -0.115148 0.950663
vn 0.557068 -0.117069 0.822174
vn 0.783197 -0.119582 0.610166
vn 0.937302 -0.121738 0.326566
vn 0.992457 -0.122592 0.000001
vn 0.773548 0.196054 -0.602649
vn 0.925343 0.199500 -0.322399
vn 0.550486 0.192032 -0.812459
vn 0.284767 0.188954 -0.939789
vn 0.000000 0.187816 -0.982204
vn -0.284768 0.188954 -0.939789
vn -0.550486 0.192032 -0.812458
vn -0.773548 0.196054 -0.602649
vn -0.925342 0.199500 -0.322400
vn -0.979619 0.200865 0.000000
vn -0.925342 0.199500 0.322400
vn -0.773548 0.196054 0.602649
vn -0.550486 0.192032 0.812459
vn -0.284767 0.188954 0.939789
vn 0.000000 0.187816 0.982204
vn 0.284768 0.188954 0.939789
vn 0.550486 0.192032 0.812459
vn 0.773548 0.196054 0.602649
vn 0.925342 0.199500 0.322400
vn 0.979619 0.200865 0.000001
vn 0.729934 0.379222 -0.568671
vn 0.871479 0.385139 -0.303632
vn 0.520608 0.372271 -0.768363
vn 0.269765 0.366919 -0.890279
vn -0.000000 0.364935 -0.931033
vn -0.269765 0.366919 -0.890279
vn -0.520609 0.372271 -0.768363
vn -0.729935 0.379222 -0.568671
vn -0.871479 0.385139 -0.303633
vn -0.921881 0.387473 -0.000000
vn -0.871479 0.385139 0.303633
vn -0.729934 0.379221 0.568671
vn -0.520608 0.372271 0.768363
vn -0.269765 0.366919 0.890279
vn 0.000000 0.364935 0.931033
vn 0.269765 0.366919 0.890279
vn 0.520608 0.372271 0.768363
vn 0.729935 0.379222 0.568671
vn 0.871479 0.385139 0.303633
vn 0.921881 0.387473 0.000001
vn 0.663909 0.540088 -0.517233
vn 0.790506 0.547031 -0.275420
vn 0.475010 0.531860 -0.701064
vn 0.246728 0.525472 -0.814251
vn -0.000000 0.523092 -0.852277
vn -0.246728 0.525472 -0.814251
vn -0.475010 0.531860 -0.701064
vn -0.663909 0.540088 -0.517232
vn -0.790506 0.547031 -0.275421
vn -0.835326 0.549755 -0.000000
vn -0.790506 0.547031 0.275421
vn -0.663909 0.540088 0.517233
vn -0.475010 0.531860 0.701064
vn -0.246728 0.525471 0.814251
vn 0.000000 0.523091 0.852277
vn 0.246728 0.525471 0.814251
vn 0.475010 0.531860 0.701064
vn 0.663909 0.540088 0.517233
vn 0.790506 0.547031 0.275421
vn 0.835326 0.549755 0.000001
vn 0.582637 0.674162 -0.453916
vn 0.691683 0.680807 -0.240989
vn 0.418318 0.666210 -0.617393
vn 0.217866 0.659979 -0.719001
vn -0.000000 0.657645 -0.753328
vn -0.217866 0.659979 -0.719000
vn -0.418318 0.666210 -0.617393
vn -0.582637 0.674162 -0.453916
vn -0.691683 0.680807 -0.240990
vn -0.730046 0.683398 -0.000000
vn -0.691683 0.680807 0.240990
vn -0.582637 0.674162 0.453916
vn -0.418318 0.666210 0.617393
vn -0.217866 0.659979 0.719001
vn 0.000000 0.657645 0.753328
vn 0.217866 0.659979 0.719000
vn 0.418318 0.666210 0.617393
vn 0.582637 0.674162 0.453916
vn 0.691683 0.680807 0.240990
vn 0.730046 0.683398 0.000001
vn 0.492540 0.781127 -0.383724
vn 0.583078 0.786606 -0.203150
vn 0.354820 0.774510 -0.523677
vn 0.185280 0.769277 -0.611460
vn -0.000000 0.767307 -0.641280
vn -0.185280 0.769277 -0.611460
vn -0.354820 0.774510 -0.523677
vn -0.492541 0.781127 -0.383724
vn -0.583078 0.786606 -0.203151
vn -0.614740 0.788730 0.000000
vn -0.583078 0.786606 0.203151
vn -0.492541 0.781127 0.383724
vn -0.354820 0.774510 0.523677
vn -0.185280 0.769277 0.611461
vn -0.000000 0.767307 0.641281
vn 0.185280 0.769277 0.611460
vn 0.354820 0.774509 0.523677
vn 0.492541 0.781127 0.383724
vn 0.583078 0.786606 0.203151
vn 0.614740 0.788730 0.000001
vn 0.398389 0.863108 -0.310374
vn 0.470476 0.867054 -0.163919
vn 0.287835 0.858303 -0.424814
vn 0.150649 0.854474 -0.497171
vn -0.000000 0.853025 -0.521870
vn -0.150649 0.854474 -0.497171
vn -0.287835 0.858303 -0.424814
vn -0.398389 0.863108 -0.310373
vn -0.470476 0.867054 -0.163919
vn -0.495556 0.868576 0.000000
vn -0.470476 0.867054 0.163919
vn -0.398389 0.863108 0.310373
vn -0.287835 0.858303 0.424814
vn -0.150649 0.854474 0.497171
vn 0.000000 0.853025 0.521870
vn 0.150649 0.854474 0.497171
vn 0.287835 0.858303 0.424814
vn 0.398389 0.863108 0.310373
vn 0.470476 0.867054 0.163919
vn 0.495556 0.868576 0.000001
vn 0.303387 0.923088 -0.236360
vn 0.357595 0.925528 -0.124590
vn 0.219709 0.920097 -0.324268
vn 0.115207 0.917699 -0.380206
vn -0.000000 0.916788 -0.399375
vn -0.115207 0.917699 -0.380205
vn -0.219709 0.920097 -0.324267
vn -0.303387 0.923088 -0.236360
vn -0.357595 0.925528 -0.124590
vn -0.376379 0.926466 0.000000
vn -0.357595 0.925528 0.124591
vn -0.303387 0.923088 0.236360
vn -0.219709 0.920097 0.324267
vn -0.115207 0.917699 0.380206
vn 0.000000 0.916788 0.399375
vn 0.115207 0.917699 0.380206
vn 0.219709 0.920097 0.324267
vn 0.303387 0.923088 0.236360
vn 0.357595 0.925528 0.124590
vn 0.376379 0.926466 0.000000
vn 0.210087 0.963885 -0.163673
vn 0.247285 0.965105 -0.086157
vn 0.152400 0.962384 -0.224926
vn 0.080020 0.961175 -0.264084
vn -0.000000 0.960714 -0.277541
vn -0.080021 0.961175 -0.264084
vn -0.152400 0.962384 -0.224926
vn -0.210087 0.963885 -0.163673
vn -0.247285 0.965105 -0.086157
vn -0.260137 0.965572 0.000000
vn -0.247285 0.965105 0.086157
vn -0.210087 0.963885 0.163673
vn -0.152400 0.962384 0.224926
vn -0.080021 0.961174 0.264084
vn 0.000000 0.960714 0.277541
vn 0.080021 0.961175 0.264084
vn 0.152400 0.962384 0.224926
vn 0.210087 0.963885 0.163673
vn 0.247285 0.965105 0.086157
vn 0.260137 0.965572 0.000000
vn 0.124395 0.987489 -0.096913
vn 0.146300 0.987926 -0.050972
vn 0.090329 0.986949 -0.133316
vn 0.047468 0.986512 -0.156653
vn -0.000000 0.986346 -0.164687
vn -0.047468 0.986512 -0.156653
vn -0.090329 0.986949 -0.133316
vn -0.124395 0.987489 -0.096912
vn -0.146300 0.987926 -0.050973
vn -0.153855 0.988093 0.000000
vn -0.146300 0.987926 0.050973
vn -0.124395 0.987489 0.096913
vn -0.090329 0.986948 0.133316
vn -0.047468 0.986512 0.156653
vn 0.000000 0.986346 0.164687
vn 0.047468 0.986512 0.156653
vn 0.090329 0.986949 0.133316
vn 0.124395 0.987489 0.096912
vn 0.146300 0.987926 0.050973
vn 0.153855 0.988093 0.000000
vn -0.000000 1.000000 0.000000
s 1
g Bush
usemtl initialShadingGroup
f 1/1/1 2/2/2 22/23/3 21/22/4
f 2/2/2 3/3/5 23/24/6 22/23/3
f 3/3/5 4/4/7 24/25/8 23/24/6
f 4/4/7 5/5/9 25/26/10 24/25/8
f 5/5/9 6/6/11 26/27/12 25/26/10
f 6/6/11 7/7/13 27/28/14 26/27/12
f 7/7/13 8/8/15 28/29/16 27/28/14
f 8/8/15 9/9/17 29/30/18 28/29/16
f 9/9/17 10/10/19 30/31/20 29/30/18
f 10/10/19 11/11/21 31/32/22 30/31/20
f 11/11/21 12/12/23 32/33/24 31/32/22
f 12/12/23 13/13/25 33/34/26 32/33/24
f 13/13/25 14/14/27 34/35/28 33/34/26
f 14/14/27 15/15/29 35/36/30 34/35/28
f 15/15/29 16/16/31 36/37/32 35/36/30
f 16/16/31 17/17/33 37/38/34 36/37/32
f 17/17/33 18/18/35 38/39/36 37/38/34
f 18/18/35 19/19/37 39/40/38 38/39/36
f 19/19/37 20/20/39 40/41/40 39/40/38
f 20/20/39 1/21/1 21/42/4 40/41/40
f 21/22/4 22/23/3 42/44/41 41/43/42
f 22/23/3 23/24/6 43/45/43 42/44/41
f 23/24/6 24/25/8 44/46/44 43/45/43
f 24/25/8 25/26/10 45/47/45 44/46/44
f 25/26/10 26/27/12 46/48/46 45/47/45
f 26/27/12 27/28/14 47/49/47 46/48/46
f 27/28/14 28/29/16 48/50/48 47/49/47
f 28/29/16 29/30/18 49/51/49 48/50/48
f 29/30/18 30/31/20 50/52/50 49/51/49
f 30/31/20 31/32/22 51/53/51 50/52/50
f 31/32/22 32/33/24 52/54/52 51/53/51
f 32/33/24 33/34/26 53/55/53 52/54/52
f 33/34/26 34/35/28 54/56/54 53/55/53
f 34/35/28 35/36/30 55/57/55 54/56/54
f 35/36/30 36/37/32 56/58/56 55/57/55
f 36/37/32 37/38/34 57/59/57 56/58/56
f 37/38/34 38/39/36 58/60/58 57/59/57
f 38/39/36 39/40/38 59/61/59 58/60/58
f 39/40/38 40/41/40 60/62/60 59/61/59
f 40/41/40 21/42/4 41/63/42 60/62/60
f 41/43/42 42/44/41 62/65/61 61/64/62
f 42/44/41 43/45/43 63/66/63 62/65/61
f 43/45/43 44/46/44 64/67/64 63/66/63
f 44/46/44 45/47/45 65/68/65 64/67/64
f 45/47/45 46/48/46 66/69/66 65/68/65
f 46/48/46 47/49/47 67/70/67 66/69/66
f 47/49/47 48/50/48 68/71/68 67/70/67
f 48/50/48 49/51/49 69/72/69 68/71/68
f 49/51/49 50/52/50 70/73/70 69/72/69
f 50/52/50 51/53/51 71/74/71 70/73/70
f 51/53/51 52/54/52 72/75/72 71/74/71
f 52/54/52 53/55/53 73/76/73 72/75/72
f 53/55/53 54/56/54 74/77/74 73/76/73
f 54/56/54 55/57/55 75/78/75 74/77/74
f 55/57/55 56/58/56 76/79/76 75/78/75
f 56/58/56 57/59/57 77/80/77 76/79/76
f 57/59/57 58/60/58 78/81/78 77/80/77
f 58/60/58 59/61/59 79/82/79 78/81/78
f 59/61/59 60/62/60 80/83/80 79/82/79
f 60/62/60 41/63/42 61/84/62 80/83/80
f 61/64/62 62/65/61 82/86/81 81/85/82
f 62/65/61 63/66/63 83/87/83 82/86/81
f 63/66/63 64/67/64 84/88/84 83/87/83
f 64/67/64 65/68/65 85/89/85 84/88/84
f 65/68/65 66/69/66 86/90/86 85/89/85
f 66/69/66 67/70/67 87/91/87 86/90/86
f 67/70/67 68/71/68 88/92/88 87/91/87
f 68/71/68 69/72/69 89/93/89 88/92/88
f 69/72/69 70/73/70 90/94/90 89/93/89
f 70/73/70 71/74/71 91/95/91 90/94/90
f 71/74/71 72/75/72 92/96/92 91/95/91
f 72/75/72 73/76/73 93/97/93 92/96/92
f 73/76/73 74/77/74 94/98/94 93/97/93
f 74/77/74 75/78/75 95/99/95 94/98/94
f 75/78/75 76/79/76 96/100/96 95/99/95
f 76/79/76 77/80/77 97/101/97 96/100/96
f 77/80/77 78/81/78 98/102/98 97/101/97
f 78/81/78 79/82/79 99/103/99 98/102/98
f 79/82/79 80/83/80 100/104/100 99/103/99
f 80/83/80 61/84/62 81/105/82 100/104/100
f 81/85/82 82/86/81 102/107/101 101/106/102
f 82/86/81 83/87/83 103/108/103 102/107/101
f 83/87/83 84/88/84 104/109/104 103/108/103
f 84/88/84 85/89/85 105/110/105 104/109/104
f 85/89/85 86/90/86 106/111/106 105/110/105
f 86/90/86 87/91/87 107/112/107 106/111/106
f 87/91/87 88/92/88 108/113/108 107/112/107
f 88/92/88 89/93/89 109/114/109 108/113/108
f 89/93/89 90/94/90 110/115/110 109/114/109
f 90/94/90 91/95/91 111/116/111 110/115/110
f 91/95/91 92/96/92 112/117/112 111/116/111
f 92/96/92 93/97/93 113/118/113 112/117/112
f 93/97/93 94/98/94 114/119/114 113/118/113
f 94/98/94 95/99/95 115/120/115 114/119/114
f 95/99/95 96/100/96 116/121/116 115/120/115
f 96/100/96 97/101/97 117/122/117 116/121/116
f 97/101/97 98/102/98 118/123/118 117/122/117
f 98/102/98 99/103/99 119/124/119 118/123/118
f 99/103/99 100/104/100 120/125/120 119/124/119
f 100/104/100 81/105/82 101/126/102 120/125/120
f 101/106/102 102/107/101 122/128/121 121/127/122
f 102/107/101 103/108/103 123/129/123 122/128/121
f 103/108/103 104/109/104 124/130/124 123/129/123
f 104/109/104 105/110/105 125/131/125 124/130/124
f 105/110/105 106/111/106 126/132/126 125/131/125
f 106/111/106 107/112/107 127/133/127 126/132/126
f 107/112/107 108/113/108 128/134/128 127/133/127
f 108/113/108 109/114/109 129/135/129 128/134/128
f 109/114/109 110/115/110 130/136/130 129/135/129
f 110/115/110 111/116/111 131/137/131 130/136/130
f 111/116/111 112/117/112 132/138/132 131/137/131
f 112/117/112 113/118/113 133/139/133 132/138/132
f 113/118/113 114/119/114 134/140/134 133/139/133
f 114/119/114 115/120/115 135/141/135 134/140/134
f 115/120/115 116/121/116 136/142/136 135/141/135
f 116/121/116 117/122/117 137/143/137 136/142/136
f 117/122/117 118/123/118 138/144/138 137/143/137
f 118/123/118 119/124/119 139/145/139 138/144/138
f 119/124/119 120/125/120 140/146/140 139/145/139
f 120/125/120 101/126/102 121/147/122 140/146/140
f 121/127/122 122/128/121 142/149/141 141/148/142
f 122/128/121 123/129/123 143/150/143 142/149/141
f 123/129/123 124/130/124 144/151/144 143/150/143
f 124/130/124 125/131/125 145/152/145 144/151/144
f 125/131/125 126/132/126 146/153/146 145/152/145
f 126/132/126 127/133/127 147/154/147 146/153/146
f 127/133/127 128/134/128 148/155/148 147/154/147
f 128/134/128 129/135/129 149/156/149 148/155/148
f 129/135/129 130/136/130 150/157/150 149/156/149
f 130/136/130 131/137/131 151/158/151 150/157/150
f 131/137/131 132/138/132 152/159/152 151/158/151
f 132/138/132 133/139/133 153/160/153 152/159/152
f 133/139/133 134/140/134 154/161/154 153/160/153
f 134/140/134 135/141/135 155/162/155 154/161/154
f 135/141/135 136/142/136 156/163/156 155/162/155
f 136/142/136 137/143/137 157/164/157 156/163/156
f 137/143/137 138/144/138 158/165/158 157/164/157
f 138/144/138 139/145/139 159/166/159 158/165/158
f 139/145/139 140/146/140 160/167/160 159/166/159
f 140/146/140 121/147/122 141/168/142 160/167/160
f 141/148/142 142/149/141 162/170/161 161/169/162
f 142/149/141 143/150/143 163/171/163 162/170/161
f 143/150/143 144/151/144 164/172/164 163/171/163
f 144/151/144 145/152/145 165/173/165 164/172/164
f 145/152/145 146/153/146 166/174/166 165/173/165
f 146/153/146 147/154/147 167/175/167 166/174/166
f 147/154/147 148/155/148 168/176/168 167/175/167
f 148/155/148 149/156/149 169/177/169 168/176/168
f 149/156/149 150/157/150 170/178/170 169/177/169
f 150/157/150 151/158/151 171/179/171 170/178/170
f 151/158/151 152/159/152 172/180/172 171/179/171
f 152/159/152 153/160/153 173/181/173 172/180/172
f 153/160/153 154/161/154 174/182/174 173/181/173
f 154/161/154 155/162/155 175/183/175 174/182/174
f 155/162/155 156/163/156 176/184/176 175/183/175
f 156/163/156 157/164/157 177/185/177 176/184/176
f 157/164/157 158/165/158 178/186/178 177/185/177
f 158/165/158 159/166/159 179/187/179 178/186/178
f 159/166/159 160/167/160 180/188/180 179/187/179
f 160/167/160 141/168/142 161/189/162 180/188/180
f 161/169/162 162/170/161 182/191/181 181/190/182
f 162/170/161 163/171/163 183/192/183 182/191/181
f 163/171/163 164/172/164 184/193/184 183/192/183
f 164/172/164 165/173/165 185/194/185 184/193/184
f 165/173/165 166/174/166 186/195/186 185/194/185
f 166/174/166 167/175/167 187/196/187 186/195/186
f 167/175/167 168/176/168 188/197/188 187/196/187
f 168/176/168 169/177/169 189/198/189 188/197/188
f 169/177/169 170/178/170 190/199/190 189/198/189
f 170/178/170 171/179/171 191/200/191 190/199/190
f 171/179/171 172/180/172 192/201/192 191/200/191
f 172/180/172 173/181/173 193/202/193 192/201/192
f 173/181/173 174/182/174 194/203/194 193/202/193
f 174/182/174 175/183/175 195/204/195 194/203/194
f 175/183/175 176/184/176 196/205/196 195/204/195
f 176/184/176 177/185/177 197/206/197 196/205/196
f 177/185/177 178/186/178 198/207/198 197/206/197
f 178/186/178 179/187/179 199/208/199 198/207/198
f 179/187/179 180/188/180 200/209/200 199/208/199
f 180/188/180 161/189/162 181/210/182 200/209/200
f 181/190/182 182/191/181 202/212/201 201/211/202
f 182/191/181 183/192/183 203/213/203 202/212/201
f 183/192/183 184/193/184 204/214/204 203/213/203
f 184/193/184 185/194/185 205/215/205 204/214/204
f 185/194/185 186/195/186 206/216/206 205/215/205
f 186/195/186 187/196/187 207/217/207 206/216/206
f 187/196/187 188/197/188 208/218/208 207/217/207
f 188/197/188 189/198/189 209/219/209 208/218/208
f 189/198/189 190/199/190 210/220/210 209/219/209
f 190/199/190 191/200/191 211/221/211 210/220/210
f 191/200/191 192/201/192 212/222/212 211/221/211
f 192/201/192 193/202/193 213/223/213 212/222/212
f 193/202/193 194/203/194 214/224/214 213/223/213
f 194/203/194 195/204/195 215/225/215 214/224/214
f 195/204/195 196/205/196 216/226/216 215/225/215
f 196/205/196 197/206/197 217/227/217 216/226/216
f 197/206/197 198/207/198 218/228/218 217/227/217
f 198/207/198 199/208/199 219/229/219 218/228/218
f 199/208/199 200/209/200 220/230/220 219/229/219
f 200/209/200 181/210/182 201/231/202 220/230/220
f 201/211/202 202/212/201 222/233/221 221/232/222
f 202/212/201 203/213/203 223/234/223 222/233/221
f 203/213/203 204/214/204 224/235/224 223/234/223
f 204/214/204 205/215/205 225/236/225 224/235/224
f 205/215/205 206/216/206 226/237/226 225/236/225
f 206/216/206 207/217/207 227/238/227 226/237/226
f 207/217/207 208/218/208 228/239/228 227/238/227
f 208/218/208 209/219/209 229/240/229 228/239/228
f 209/219/209 210/220/210 230/241/230 229/240/229
f 210/220/210 211/221/211 231/242/231 230/241/230
f 211/221/211 212/222/212 232/243/232 231/242/231
f 212/222/212 213/223/213 233/244/233 232/243/232
f 213/223/213 214/224/214 234/245/234 233/244/233
f 214/224/214 215/225/215 235/246/235 234/245/234
f 215/225/215 216/226/216 236/247/236 235/246/235
f 216/226/216 217/227/217 237/248/237 236/247/236
f 217/227/217 218/228/218 238/249/238 237/248/237
f 218/228/218 219/229/219 239/250/239 238/249/238
f 219/229/219 220/230/220 240/251/240 239/250/239
f 220/230/220 201/231/202 221/252/222 240/251/240
f 221/232/222 222/233/221 241/253/241
f 222/233/221 223/234/223 241/254/241
f 223/234/223 224/235/224 241/255/241
f 224/235/224 225/236/225 241/256/241
f 225/236/225 226/237/226 241/257/241
f 226/237/226 227/238/227 241/258/241
f 227/238/227 228/239/228 241/259/241
f 228/239/228 229/240/229 241/260/241
f 229/240/229 230/241/230 241/261/241
f 230/241/230 231/242/231 241/262/241
f 231/242/231 232/243/232 241/263/241
f 232/243/232 233/244/233 241/264/241
f 233/244/233 234/245/234 241/265/241
f 234/245/234 235/246/235 241/266/241
f 235/246/235 236/247/236 241/267/241
f 236/247/236 237/248/237 241/268/241
f 237/248/237 238/249/238 241/269/241
f 238/249/238 239/250/239 241/270/241
f 239/250/239 240/251/240 241/271/241
f 240/251/240 221/252/222 241/272/241
g default
v -13.724272 24.416354 6.476877
v 7.104528 12.873056 16.918258
v -7.104528 15.199214 -16.918258
v 13.724272 3.655917 -6.476877
vt 0.000000 0.000000
vt 1.000000 0.000000
vt 0.000000 1.000000
vt 1.000000 1.000000
vn 0.541772 0.822962 -0.170931
vn 0.541772 0.822962 -0.170931
vn 0.541772 0.822962 -0.170931
vn 0.541772 0.822962 -0.170931
s off
g Bush pPlane5 Leaf
usemtl lambert2SG
f 242/273/242 243/274/243 245/276/244 244/275/245
g default
v -17.457999 9.108419 -2.998403
v 3.370801 -2.434879 7.442978
v -3.370801 30.507149 -7.442978
v 17.457999 18.963852 2.998403
vt 0.000000 0.000000
vt 1.000000 0.000000
vt 0.000000 1.000000
vt 1.000000 1.000000
vn -0.254585 0.354477 0.899740
vn -0.254585 0.354477 0.899740
vn -0.254585 0.354477 0.899740
vn -0.254585 0.354477 0.899740
s off
g Bush Leaf pPlane6
usemtl lambert2SG
f 246/277/246 247/278/247 249/280/248 248/279/249
g default
v -12.631662 21.623283 -10.996855
v -3.928399 26.391689 13.036966
v 3.928399 1.680581 -13.036966
v 12.631662 6.448987 10.996855
vt 0.000000 0.000000
vt 1.000000 0.000000
vt 0.000000 1.000000
vt 1.000000 1.000000
vn 0.694520 0.614926 -0.373507
vn 0.694520 0.614926 -0.373507
vn 0.694520 0.614926 -0.373507
vn 0.694520 0.614926 -0.373507
s off
g Bush pPlane5 Leaf1
usemtl lambert2SG
f 250/281/250 251/282/251 253/284/252 252/283/253
g default
v -13.381120 3.657247 -7.160924
v -4.677856 8.425653 16.872898
v 4.677856 19.646618 -16.872898
v 13.381120 24.415024 7.160924
vt 0.000000 0.000000
vt 1.000000 0.000000
vt 0.000000 1.000000
vt 1.000000 1.000000
vn -0.636874 0.766965 0.078460
vn -0.636874 0.766965 0.078460
vn -0.636874 0.766965 0.078460
vn -0.636874 0.766965 0.078460
s off
g Bush Leaf1 pPlane6
usemtl lambert2SG
f 254/285/254 255/286/255 257/288/256 256/287/257
g default
v -25.299893 16.174401 2.702929
v -5.764646 24.292091 17.821999
v -8.312563 3.780179 -12.591611
v 11.222684 11.897869 2.527460
vt 0.000000 0.000000
vt 1.000000 0.000000
vt 0.000000 1.000000
vt 1.000000 1.000000
vn 0.093525 0.821783 -0.562072
vn 0.093525 0.821783 -0.562072
vn 0.093525 0.821783 -0.562072
vn 0.093525 0.821783 -0.562072
s off
g Bush pPlane5 Leaf2
usemtl lambert2SG
f 258/289/258 259/290/259 261/292/260 260/291/261
g default
v -18.022145 -0.706757 2.363186
v 1.513102 7.410933 17.482257
v -15.590311 20.661337 -12.251868
v 3.944936 28.779027 2.867202
vt 0.000000 0.000000
vt 1.000000 0.000000
vt 0.000000 1.000000
vt 1.000000 1.000000
vn -0.653306 0.476662 0.588204
vn -0.653306 0.476662 0.588204
vn -0.653306 0.476662 0.588204
vn -0.653306 0.476662 0.588204
s off
g Bush Leaf2 pPlane6
usemtl lambert2SG
f 262/293/262 263/294/263 265/296/264 264/295/265
g default
v 21.070883 20.055199 -8.012110
v 9.754394 28.369527 13.872088
v 4.900224 -0.297257 -8.641700
v -6.416264 8.017071 13.242498
vt 0.000000 0.000000
vt 1.000000 0.000000
vt 0.000000 1.000000
vt 1.000000 1.000000
vn 0.651023 -0.533947 0.539508
vn 0.651023 -0.533947 0.539508
vn 0.651023 -0.533947 0.539508
vn 0.651023 -0.533947 0.539508
s off
g Bush pPlane5 Leaf3
usemtl lambert2SG
f 266/297/266 267/298/267 269/300/268 268/299/269
g default
v 4.521572 16.820847 -15.341079
v -6.794917 25.135175 6.543118
v 21.449535 2.937096 -1.312730
v 10.133047 11.251424 20.571467
vt 0.000000 0.000000
vt 1.000000 0.000000
vt 0.000000 1.000000
vt 1.000000 1.000000
vn 0.621898 0.782724 0.024213
vn 0.621898 0.782724 0.024213
vn 0.621898 0.782724 0.024213
vn 0.621898 0.782724 0.024213
s off
g Bush Leaf3 pPlane6
usemtl lambert2SG
f 270/301/270 271/302/271 273/304/272 272/303/273
g default
v 27.469137 9.577889 -1.735313
v 12.973290 31.158549 -1.230730
v 9.079189 -3.086279 11.589015
v -5.416658 18.494381 12.093598
vt 0.000000 0.000000
vt 1.000000 0.000000
vt 0.000000 1.000000
vt 1.000000 1.000000
vn 0.434749 0.271950 0.858508
vn 0.434749 0.271950 0.858508
vn 0.434749 0.271950 0.858508
vn 0.434749 0.271950 0.858508
s off
g Bush pPlane5 Leaf4
usemtl lambert2SG
f 274/305/274 275/306/275 277/308/276 276/307/277
g default
v 12.621967 -0.289836 -6.234654
v -1.873880 21.290824 -5.730071
v 23.926359 6.781447 16.088356
v 9.430513 28.362106 16.592938
vt 0.000000 0.000000
vt 1.000000 0.000000
vt 0.000000 1.000000
vt 1.000000 1.000000
vn 0.707249 0.487044 -0.512433
vn 0.707249 0.487044 -0.512433
vn 0.707249 0.487044 -0.512433
vn 0.707249 0.487044 -0.512433
s off
g Bush Leaf4 pPlane6
usemtl lambert2SG
f 278/309/278 279/310/279 281/312/280 280/311/281
g default
v -0.562986 11.421896 30.688798
v 8.747974 -8.028733 16.159926
v 7.777264 28.598228 13.038787
v 17.088225 9.147599 -1.490084
vt 0.000000 0.000000
vt 1.000000 0.000000
vt 0.000000 1.000000
vt 1.000000 1.000000
vn 0.876865 0.063842 0.476478
vn 0.876865 0.063842 0.476478
vn 0.876865 0.063842 0.476478
vn 0.876865 0.063842 0.476478
s off
g Bush pPlane5 Leaf5
usemtl lambert2SG
f 282/313/282 283/314/283 285/316/284 284/315/285
g default
v -7.793029 19.180049 15.669075
v 1.517932 -0.270579 1.140204
v 15.007307 20.840074 28.058509
v 24.318267 1.389445 13.529638
vt 0.000000 0.000000
vt 1.000000 0.000000
vt 0.000000 1.000000
vt 1.000000 1.000000
vn -0.320753 -0.660575 0.678792
vn -0.320753 -0.660575 0.678792
vn -0.320753 -0.660575 0.678792
vn -0.320753 -0.660575 0.678792
s off
g Bush Leaf5 pPlane6
usemtl lambert2SG
f 286/317/286 287/318/287 289/320/288 288/319/289
g default
v 10.684230 -8.861664 20.708055
v 20.752467 -3.193189 -2.585894
v 10.198627 16.446175 26.656711
v 20.266864 22.114650 3.362762
vt 0.000000 0.000000
vt 1.000000 0.000000
vt 0.000000 1.000000
vt 1.000000 1.000000
vn 0.921803 -0.071854 0.380941
vn 0.921803 -0.071854 0.380941
vn 0.921803 -0.071854 0.380941
vn 0.921803 -0.071854 0.380941
s off
g Bush pPlane5 Leaf6
usemtl lambert2SG
f 290/321/290 291/322/291 293/324/292 292/323/293
g default
v -9.633899 11.533097 23.651116
v -6.321074 15.511088 -1.830443
v 15.448452 5.058407 25.901259
v 18.761276 9.036398 0.419701
vt 0.000000 0.000000
vt 1.000000 0.000000
vt 0.000000 1.000000
vt 1.000000 1.000000
vn -0.230783 -0.956342 -0.179301
vn -0.230783 -0.956342 -0.179301
vn -0.230783 -0.956342 -0.179301
vn -0.230783 -0.956342 -0.179301
s off
g Bush Leaf6 pPlane6
usemtl lambert2SG
f 294/325/294 295/326/295 297/328/296 296/327/297
g default
v 16.943718 -8.861664 11.461500
v 27.011954 -3.193189 -11.832449
v 16.458115 16.446175 17.410156
v 26.526352 22.114650 -5.883793
vt 0.000000 0.000000
vt 1.000000 0.000000
vt 0.000000 1.000000
vt 1.000000 1.000000
vn 0.921803 -0.071854 0.380941
vn 0.921803 -0.071854 0.380941
vn 0.921803 -0.071854 0.380941
vn 0.921803 -0.071854 0.380941
s off
g Bush Leaf6 pPlane7
usemtl lambert2SG
f 298/329/298 299/330/299 301/332/300 300/331/301
g default
v -1.463991 9.645081 -5.631890
v -16.342229 24.428796 9.736547
v 6.532152 -3.859301 15.099787
v -8.346086 10.924414 30.468224
vt 0.000000 0.000000
vt 1.000000 0.000000
vt 0.000000 1.000000
vt 1.000000 1.000000
vn 0.760280 0.637973 0.122330
vn 0.760280 0.637973 0.122330
vn 0.760280 0.637973 0.122330
vn 0.760280 0.637973 0.122330
s off
g Bush pPlane5 Leaf7
usemtl lambert2SG
f 302/333/302 303/334/303 305/336/304 304/335/305
g default
v -16.022957 23.364798 1.925289
v -8.750941 -1.509170 -0.198985
v -12.891203 22.078665 27.706039
v -5.619187 -2.795303 25.581765
vt 0.000000 0.000000
vt 1.000000 0.000000
vt 0.000000 1.000000
vt 1.000000 1.000000
vn -0.952511 -0.287129 0.101384
vn -0.952511 -0.287129 0.101384
vn -0.952511 -0.287129 0.101384
vn -0.952511 -0.287129 0.101384
s off
g Bush Leaf7 pPlane6
usemtl lambert2SG
f 306/337/306 307/338/307 309/340/308 308/339/309
g default
v 15.320381 7.056047 10.194099
v -4.342167 -1.846601 -4.305422
v -1.185074 22.416096 23.145851
v -20.847622 13.513448 8.646330
vt 0.000000 0.000000
vt 1.000000 0.000000
vt 0.000000 1.000000
vt 1.000000 1.000000
vn 0.158863 0.730630 -0.664035
vn 0.158863 0.730630 -0.664035
vn 0.158863 0.730630 -0.664035
vn 0.158863 0.730630 -0.664035
s off
g Bush pPlane5 Leaf8
usemtl lambert2SG
f 310/341/310 311/342/311 313/344/312 312/343/313
g default
v 5.002273 5.237114 25.303124
v -14.660275 -3.665534 10.803603
v 9.133034 24.235029 8.036826
v -10.529514 15.332381 -6.462695
vt 0.000000 0.000000
vt 1.000000 0.000000
vt 0.000000 1.000000
vt 1.000000 1.000000
vn 0.634774 -0.590723 -0.498104
vn 0.634774 -0.590723 -0.498104
vn 0.634774 -0.590723 -0.498104
vn 0.634774 -0.590723 -0.498104
s off
g Bush Leaf8 pPlane6
usemtl lambert2SG
f 314/345/314 315/346/315 317/348/316 316/347/317
g default
v 8.577766 9.414502 9.125312
v 9.274458 -6.196117 -11.657668
v 7.250780 30.156474 -6.498989
v 7.947473 14.545855 -27.281969
vt 0.000000 0.000000
vt 1.000000 0.000000
vt 0.000000 1.000000
vt 1.000000 1.000000
vn 0.998337 0.056890 -0.009265
vn 0.998337 0.056890 -0.009265
vn 0.998337 0.056890 -0.009265
vn 0.998337 0.056890 -0.009265
s off
g Bush pPlane5 Leaf9
usemtl lambert2SG
f 318/349/318 319/350/319 321/352/320 320/351/321
g default
v -5.065161 19.045855 1.433618
v -4.368468 3.435235 -19.349361
v 20.893707 20.525122 1.192704
v 21.590399 4.914502 -19.590276
vt 0.000000 0.000000
vt 1.000000 0.000000
vt 0.000000 1.000000
vt 1.000000 1.000000
vn 0.051034 -0.797704 0.600886
vn 0.051034 -0.797704 0.600886
vn 0.051034 -0.797704 0.600886
vn 0.051034 -0.797704 0.600886
s off
g Bush Leaf9 pPlane6
usemtl lambert2SG
f 322/353/322 323/354/323 325/356/324 324/355/325
g default
v 8.782617 -4.794039 -5.406830
v 2.784735 5.212419 -28.644844
v 6.342642 18.747938 5.360290
v 0.344760 28.754396 -17.877724
vt 0.000000 0.000000
vt 1.000000 0.000000
vt 0.000000 1.000000
vt 1.000000 1.000000
vn 0.968497 0.179379 -0.172733
vn 0.968497 0.179379 -0.172733
vn 0.968497 0.179379 -0.172733
vn 0.968497 0.179379 -0.172733
s off
g Bush pPlane5 Leaf10
usemtl lambert2SG
f 326/357/326 327/358/327 329/360/328 328/359/329
g default
v -5.028846 4.644828 2.222443
v -11.026728 14.651286 -21.015571
v 20.154105 9.309071 -2.268983
v 14.156223 19.315529 -25.506997
vt 0.000000 0.000000
vt 1.000000 0.000000
vt 0.000000 1.000000
vt 1.000000 1.000000
vn 0.093838 -0.905388 -0.414087
vn 0.093838 -0.905388 -0.414087
vn 0.093838 -0.905388 -0.414087
vn 0.093838 -0.905388 -0.414087
s off
g Bush Leaf10 pPlane6
usemtl lambert2SG
f 330/361/330 331/362/331 333/364/332 332/363/333
g default
v -3.094590 18.817068 -27.336833
v -17.773118 -1.690130 -21.004009
v -1.831331 25.650487 -2.280544
v -16.509860 5.143289 4.052280
vt 0.000000 0.000000
vt 1.000000 0.000000
vt 0.000000 1.000000
vt 1.000000 1.000000
vn -0.823993 0.555812 -0.110039
vn -0.823993 0.555812 -0.110039
vn -0.823993 0.555812 -0.110039
vn -0.823993 0.555812 -0.110039
s off
g Bush pPlane5 Leaf11
usemtl lambert2SG
f 334/365/334 335/366/335 337/368/336 336/367/337
g default
v 8.249813 15.007641 -13.378061
v -6.428716 -5.499558 -7.045237
v -13.175734 29.459915 -16.239317
v -27.854262 8.952716 -9.906493
vt 0.000000 0.000000
vt 1.000000 0.000000
vt 0.000000 1.000000
vt 1.000000 1.000000
vn -0.048583 -0.262803 -0.963626
vn -0.048583 -0.262803 -0.963626
vn -0.048583 -0.262803 -0.963626
vn -0.048583 -0.262803 -0.963626
s off
g Bush Leaf11 pPlane6
usemtl lambert2SG
f 338/369/338 339/370/339 341/372/340 340/371/341
g default
v 13.642310 12.945670 -22.501730
v -8.343511 -0.256807 -26.794438
v 2.816270 24.217164 -1.720504
v -19.169551 11.014687 -6.013212
vt 0.000000 0.000000
vt 1.000000 0.000000
vt 0.000000 1.000000
vt 1.000000 1.000000
vn -0.334234 0.744503 -0.577930
vn -0.334234 0.744503 -0.577930
vn -0.334234 0.744503 -0.577930
vn -0.334234 0.744503 -0.577930
s off
g Bush pPlane5 Leaf12
usemtl lambert2SG
f 342/373/342 343/374/343 345/376/344 344/375/345
g default
v 12.574678 8.902095 -4.597424
v -9.411142 -4.300382 -8.890132
v 3.883901 28.260739 -19.624810
v -18.101920 15.058262 -23.917518
vt 0.000000 0.000000
vt 1.000000 0.000000
vt 0.000000 1.000000
vt 1.000000 1.000000
vn 0.416353 -0.433484 -0.799213
vn 0.416353 -0.433484 -0.799213
vn 0.416353 -0.433484 -0.799213
vn 0.416353 -0.433484 -0.799213
s off
g Bush Leaf12 pPlane6
usemtl lambert2SG
f 346/377/346 347/378/347 349/380/348 348/379/349
g default
v 13.542730 -0.635367 10.038048
v -3.188728 -10.183555 -7.426186
v 2.199974 22.686344 8.154242
v -14.531484 13.138156 -9.309992
vt 0.000000 0.000000
vt 1.000000 0.000000
vt 0.000000 1.000000
vt 1.000000 1.000000
vn 0.629015 0.246371 -0.737320
vn 0.629015 0.246371 -0.737320
vn 0.629015 0.246371 -0.737320
vn 0.629015 0.246371 -0.737320
s off
g Bush pPlane5 Leaf13
usemtl lambert2SG
f 350/381/350 351/382/351 353/384/352 352/383/353
g default
v -0.306503 7.822405 18.682084
v -17.037961 -1.725782 1.217849
v 16.049207 14.228571 -0.489793
v -0.682251 4.680383 -17.954027
vt 0.000000 0.000000
vt 1.000000 0.000000
vt 0.000000 1.000000
vt 1.000000 1.000000
vn 0.436225 -0.896917 0.072448
vn 0.436225 -0.896917 0.072448
vn 0.436225 -0.896917 0.072448
vn 0.436225 -0.896917 0.072448
s off
g Bush Leaf13 pPlane6
usemtl lambert2SG
f 354/385/354 355/386/355 357/388/356 356/387/357
g default
v 10.784062 -3.446392 -6.636796
v -10.551609 4.272432 -19.337897
v 2.164993 8.230356 14.938057
v -19.170678 15.949180 2.236956
vt 0.000000 0.000000
vt 1.000000 0.000000
vt 0.000000 1.000000
vt 1.000000 1.000000
vn 0.465665 0.842742 -0.270078
vn 0.465665 0.842742 -0.270078
vn 0.465665 0.842742 -0.270078
vn 0.465665 0.842742 -0.270078
s off
g Bush pPlane5 Leaf14
usemtl lambert2SG
f 358/389/358 359/390/359 361/392/360 360/391/361
g default
v 0.420400 -8.564550 7.661928
v -20.915271 -0.845726 -5.039173
v 12.528656 13.348514 0.639333
v -8.807015 21.067338 -12.061768
vt 0.000000 0.000000
vt 1.000000 0.000000
vt 0.000000 1.000000
vt 1.000000 1.000000
vn 0.331476 -0.449069 -0.829735
vn 0.331476 -0.449069 -0.829735
vn 0.331476 -0.449069 -0.829735
vn 0.331476 -0.449069 -0.829735
s off
g Bush Leaf14 pPlane6
usemtl lambert2SG
f 362/393/362 363/394/363 365/396/364 364/395/365
g default
v -28.475246 13.153980 -5.368532
v -25.078887 -10.537873 4.793647
v -12.039556 23.040662 12.187967
v -8.643196 -0.651192 22.350146
vt 0.000000 0.000000
vt 1.000000 0.000000
vt 0.000000 1.000000
vt 1.000000 1.000000
vn -0.763806 0.158842 0.625595
vn -0.763806 0.158842 0.625595
vn -0.763806 0.158842 0.625595
vn -0.763806 0.158842 0.625595
s off
g Bush pPlane5 Leaf15
usemtl lambert2SG
f 366/397/366 367/398/367 369/400/368 368/399/369
g default
v -10.327121 20.556806 -15.414405
v -6.930761 -3.135048 -5.252226
v -30.187681 24.687020 0.852386
v -26.791322 0.995167 11.014565
vt 0.000000 0.000000
vt 1.000000 0.000000
vt 0.000000 1.000000
vt 1.000000 1.000000
vn -0.632091 -0.380226 -0.675195
vn -0.632091 -0.380226 -0.675195
vn -0.632091 -0.380226 -0.675195
vn -0.632091 -0.380226 -0.675195
s off
g Bush Leaf15 pPlane6
usemtl lambert2SG
f 370/401/370 371/402/371 373/404/372 372/403/373
g default
v -24.167718 -8.019028 -16.527074
v -14.212736 -5.204185 7.328408
v -22.905707 17.706973 -20.089272
v -12.950724 20.521816 3.766210
vt 0.000000 0.000000
vt 1.000000 0.000000
vt 0.000000 1.000000
vt 1.000000 1.000000
vn -0.922533 0.096978 0.373534
vn -0.922533 0.096978 0.373534
vn -0.922533 0.096978 0.373534
vn -0.922533 0.096978 0.373534
s off
g Bush Leaf15 pPlane8
usemtl lambert2SG
f 374/405/374 375/406/375 377/408/376 376/407/377
g default
v -28.475246 8.596562 -29.411344
v -25.078887 -15.095291 -19.249165
v -12.039556 18.483244 -11.854845
v -8.643196 -5.208610 -1.692666
vt 0.000000 0.000000
vt 1.000000 0.000000
vt 0.000000 1.000000
vt 1.000000 1.000000
vn -0.763806 0.158842 0.625595
vn -0.763806 0.158842 0.625595
vn -0.763806 0.158842 0.625595
vn -0.763806 0.158842 0.625595
s off
g Bush Leaf15 pPlane9
usemtl lambert2SG
f 378/409/378 379/410/379 381/412/380 380/411/381
g default
v -25.000334 13.815771 27.161270
v -25.931963 11.555434 1.274362
v -11.186480 -8.167481 28.583618
v -12.118108 -10.427819 2.696710
vt 0.000000 0.000000
vt 1.000000 0.000000
vt 0.000000 1.000000
vt 1.000000 1.000000
vn -0.846451 -0.526946 0.076473
vn -0.846451 -0.526946 0.076473
vn -0.846451 -0.526946 0.076473
vn -0.846451 -0.526946 0.076473
s off
g Bush Leaf15 pPlane10
usemtl lambert2SG
f 382/413/382 383/414/383 385/416/384 384/415/385
g default
v -8.313792 12.750280 -21.712903
v -20.427550 -8.122645 -12.033705
v -2.613683 20.625434 2.403476
v -14.727442 -0.247492 12.082675
vt 0.000000 0.000000
vt 1.000000 0.000000
vt 0.000000 1.000000
vt 1.000000 1.000000
vn -0.857265 0.513693 0.034876
vn -0.857265 0.513693 0.034876
vn -0.857265 0.513693 0.034876
vn -0.857265 0.513693 0.034876
s off
g Bush pPlane5 Leaf16
usemtl lambert2SG
f 386/417/386 387/418/387 389/420/388 388/419/389
g default
v 5.681605 10.009310 -10.108143
v -6.432153 -10.863616 -0.428944
v -16.609081 23.366405 -9.201284
v -28.722839 2.493479 0.477915
vt 0.000000 0.000000
vt 1.000000 0.000000
vt 0.000000 1.000000
vt 1.000000 1.000000
vn -0.219217 -0.302866 -0.927478
vn -0.219217 -0.302866 -0.927478
vn -0.219217 -0.302866 -0.927478
vn -0.219217 -0.302866 -0.927478
s off
g Bush Leaf16 pPlane6
usemtl lambert2SG
f 390/421/390 391/422/391 393/424/392 392/423/393
g default
v 16.416968 6.298572 7.346423
v -4.082686 -9.548280 5.166855
v 7.507734 14.667120 30.296412
v -12.991920 -1.179732 28.116844
vt 0.000000 0.000000
vt 1.000000 0.000000
vt 0.000000 1.000000
vt 1.000000 1.000000
vn -0.510931 0.724565 -0.462552
vn -0.510931 0.724565 -0.462552
vn -0.510931 0.724565 -0.462552
vn -0.510931 0.724565 -0.462552
s off
g Bush pPlane5 Leaf17
usemtl lambert2SG
f 394/425/394 395/426/395 397/428/396 396/427/397
g default
v 28.503508 -1.972504 8.169888
v 12.294790 -10.700275 -10.193459
v 25.263427 22.320715 -0.516333
v 9.054709 13.592944 -18.879680
vt 0.000000 0.000000
vt 1.000000 0.000000
vt 0.000000 1.000000
vt 1.000000 1.000000
vn 0.771941 -0.120238 -0.624220
vn 0.771941 -0.120238 -0.624220
vn 0.771941 -0.120238 -0.624220
vn 0.771941 -0.120238 -0.624220
s off
g Bush Leaf17 pPlane6
usemtl lambert2SG
f 398/429/398 399/430/399 401/432/400 400/431/401
