# This file uses centimeters as units for non-parametric coordinates.

mtllib Tether_WoodPost.mtl
g default
v 110.324815 -824.624129 -110.324815
v 0.000000 -824.624129 -156.022841
v -110.324815 -824.624129 -110.324815
v -156.022841 -824.624129 0.000000
v -110.324815 -824.624129 110.324815
v 0.000000 -824.624129 156.022841
v 110.324815 -824.624129 110.324815
v 156.022841 -824.624129 0.000000
v 103.408571 304.518858 -103.408571
v 146.241838 304.518858 0.000000
v 103.408571 304.518858 103.408571
v 0.000005 304.518858 146.241838
v -103.408571 304.518858 103.408571
v -146.241838 304.518858 0.000000
v -103.408571 304.518858 -103.408571
v 0.000005 304.518858 -146.241838
v 103.408571 -452.951293 -103.408571
v 146.241838 -452.951293 0.000000
v 103.408571 -452.951293 103.408571
v 0.000005 -452.951293 146.241838
v -103.408571 -452.951293 103.408571
v -146.241838 -452.951293 0.000000
v -103.408571 -452.951293 -103.408571
v 0.000005 -452.951293 -146.241838
v 68.495305 776.899743 -68.495338
v -0.000006 776.899743 -96.867050
v -0.000006 776.899743 0.000010
v -68.495324 776.899743 -68.495338
v -96.867022 730.535624 0.000010
v -68.495324 730.535624 68.495324
v -0.000006 776.899743 96.867050
v 68.495301 776.899743 68.495338
v 96.867022 776.899743 0.000010
v 81.506281 814.870564 -81.506327
v 78.046136 812.361776 -78.046146
v 75.953971 807.973092 -75.954018
v -0.000006 814.870564 -115.267366
v -0.000007 812.361776 -110.373964
v -0.000007 807.973092 -107.415193
v -81.909738 815.007107 -81.909738
v -78.120431 812.259738 -78.120459
v -75.829300 807.453561 -75.829300
v -116.115944 759.496345 0.000009
v -110.511041 758.928745 0.000010
v -106.789110 755.015601 0.000011
v -82.106334 759.496345 82.106334
v -78.143076 758.928745 78.143076
v -75.511306 755.015601 75.511306
v -0.000006 815.007107 115.837884
v -0.000007 812.259738 110.479013
v -0.000007 807.453561 107.238862
v 81.506281 814.870564 81.506327
v 78.046136 812.361776 78.046183
v 75.953971 807.973092 75.954032
v 115.267366 814.870564 0.000009
v 110.373926 812.361776 0.000010
v 107.415193 807.973092 0.000011
v 110.221384 816.846895 -110.221384
v 108.504717 821.606082 -108.504717
v 104.561677 822.673602 -104.561686
v 0.000000 816.846895 -155.876585
v -0.000000 821.606082 -153.448836
v -0.000001 822.673602 -147.872557
v -110.223857 817.033081 -110.223857
v -108.548295 821.678286 -108.548295
v -104.699666 822.720296 -104.699666
v -155.875878 743.254003 0.000000
v -154.009719 748.536359 0.000000
v -149.009565 751.624299 0.000002
v -110.220909 743.254003 110.220909
v -108.901330 748.536359 108.901330
v -105.365663 751.624299 105.365663
v 0.000000 817.033081 155.880081
v -0.000000 821.678286 153.510465
v -0.000001 822.720296 148.067702
v 110.221384 816.846895 110.221384
v 108.504717 821.606082 108.504717
v 104.561677 822.673602 104.561686
v 155.876585 816.846895 0.000000
v 153.448836 821.606082 0.000001
v 147.872557 822.673602 0.000002
v 103.408571 -74.216218 -103.408571
v 146.241838 -74.216218 0.000000
v 103.408571 -74.216218 103.408571
v 0.000001 -74.216218 146.241838
v -103.408571 -74.216218 103.408571
v -146.241838 -74.216218 0.000000
v -103.408571 -74.216218 -103.408571
v 0.000001 -74.216218 -146.241838
vt 0.385350 0.028158
vt 0.446330 0.027912
vt 0.445268 0.226712
vt 0.384213 0.226618
vt 0.510073 0.028871
vt 0.505068 0.227274
vt 0.443168 0.631637
vt 0.381948 0.631112
vt 0.502980 0.631725
vt 0.441950 0.866231
vt 0.380212 0.904849
vt 0.505687 0.866048
vt 0.141362 0.026405
vt 0.202398 0.026248
vt 0.201024 0.225125
vt 0.139942 0.224943
vt 0.263383 0.027317
vt 0.262091 0.225816
vt 0.198296 0.630193
vt 0.137100 0.629601
vt 0.259508 0.630396
vt 0.196426 0.904179
vt 0.135153 0.903362
vt 0.257732 0.904103
vt 0.704921 0.805186
vt 0.669892 0.837996
vt 0.647099 0.778456
vt 0.725036 0.813509
vt 0.679695 0.858014
vt 0.619359 0.839009
vt 0.707206 0.757520
vt 0.728367 0.814988
vt 0.681226 0.861379
vt 0.617206 0.860968
vt 0.727593 0.750094
vt 0.580492 0.798095
vt 0.675569 0.720851
vt 0.731042 0.748921
vt 0.731847 0.816523
vt 0.682810 0.864887
vt 0.616673 0.864860
vt 0.567521 0.806905
vt 0.686156 0.702277
vt 0.583659 0.753280
vt 0.624915 0.715578
vt 0.687988 0.699028
vt 0.734635 0.747683
vt 0.753331 0.826067
vt 0.692176 0.886651
vt 0.615605 0.868782
vt 0.564447 0.808811
vt 0.570231 0.743202
vt 0.624368 0.693680
vt 0.624177 0.689778
vt 0.689864 0.695656
vt 0.756844 0.739962
vt 0.757010 0.827685
vt 0.693733 0.890367
vt 0.607649 0.890060
vt 0.560793 0.810321
vt 0.567351 0.741034
vt 0.623436 0.685790
vt 0.701060 0.674747
vt 0.760637 0.738637
vt 0.760505 0.829245
vt 0.695186 0.893919
vt 0.605855 0.893582
vt 0.538228 0.818189
vt 0.563850 0.739212
vt 0.617317 0.663953
vt 0.702911 0.671173
vt 0.764256 0.737391
vt 0.603655 0.896268
vt 0.534211 0.819149
vt 0.541989 0.729363
vt 0.615848 0.660283
vt 0.704689 0.667789
vt 0.530227 0.819534
vt 0.538067 0.728070
vt 0.613885 0.657412
vt 0.534144 0.727299
vt 0.324408 0.027121
vt 0.323161 0.225960
vt 0.320691 0.630949
vt 0.318996 0.904881
vt 0.016533 0.025420
vt 0.080366 0.025297
vt 0.078864 0.224213
vt 0.019012 0.224028
vt 0.075876 0.629358
vt 0.016047 0.628731
vt 0.073835 0.903500
vt 0.010663 0.863142
vt 0.260799 0.428106
vt 0.199660 0.427659
vt 0.138521 0.427272
vt 0.077370 0.426786
vt 0.504024 0.429499
vt 0.017530 0.426379
vt 0.444218 0.429175
vt 0.383081 0.428865
vt 0.321926 0.428454
vn 0.706862 0.026307 -0.706862
vn 0.000000 0.026307 -0.999654
vn 0.000000 0.013467 -0.999909
vn 0.707043 0.013467 -0.707043
vn -0.706862 0.026307 -0.706862
vn -0.707043 0.013467 -0.707043
vn -0.999654 0.026307 0.000000
vn -0.999909 0.013467 0.000000
vn -0.706862 0.026307 0.706862
vn -0.707043 0.013467 0.707043
vn 0.000000 0.026307 0.999654
vn 0.000000 0.013467 0.999909
vn 0.706862 0.026307 0.706862
vn 0.707043 0.013467 0.707043
vn 0.999654 0.026307 -0.000000
vn 0.999909 0.013467 -0.000000
vn 0.000000 1.000000 -0.000001
vn 0.000000 1.000000 0.000000
vn -0.199767 0.976343 0.082746
vn -0.226934 0.947102 0.226934
vn -0.412972 0.862809 0.291571
vn -0.498188 0.862809 0.085843
vn -0.320934 0.947102 0.000000
vn 0.000000 1.000000 0.000001
vn 0.000000 1.000000 -0.000001
vn 0.707107 0.000000 -0.707107
vn 1.000000 0.000000 0.000000
vn 0.707107 0.000000 0.707107
vn -0.000000 0.000000 1.000000
vn -0.707107 0.000000 0.707107
vn -1.000000 0.000000 0.000000
vn -0.707107 0.000000 -0.707107
vn -0.000000 0.000000 -1.000000
vn -0.655643 0.374518 0.655644
vn -0.000034 0.375719 0.926734
vn -0.001732 0.321444 0.946927
vn -0.669579 0.321444 0.669580
vn 0.552727 0.377522 0.742947
vn 0.589003 0.319551 0.742269
vn 0.876642 0.453163 0.161684
vn 0.919530 0.372699 0.124741
vn 0.505553 0.453163 -0.734207
vn 0.562001 0.372699 -0.738411
vn -0.134506 0.377521 -0.916180
vn -0.108376 0.319552 -0.941351
vn -0.655323 0.375719 -0.655276
vn -0.670803 0.321444 -0.668354
vn -0.927220 0.374518 0.000000
vn -0.946928 0.321445 0.000000
vn -0.177257 0.968070 0.177257
vn -0.430351 0.793472 0.430350
vn -0.608606 0.793472 0.000000
vn -0.250680 0.968070 0.000000
vn 0.005155 0.793299 0.608810
vn 0.000014 0.967931 0.251215
vn 0.242231 0.760670 0.602250
vn -0.050165 0.919242 0.390484
vn 0.566608 0.551594 0.612127
vn -0.198256 0.928922 0.312727
vn 0.054797 0.814883 0.577029
vn 0.694007 0.660089 -0.287466
vn 0.694007 0.660089 -0.287466
vn 0.100666 0.994046 -0.041698
vn -0.361320 0.928922 -0.080943
vn 0.100666 0.994046 -0.041698
vn -0.032181 0.551592 -0.833493
vn -0.254571 0.760667 -0.597143
vn -0.369274 0.814878 -0.446778
vn -0.311585 0.919242 -0.240641
vn -0.426848 0.793298 -0.434142
vn -0.177626 0.967931 -0.177646
vn 0.999939 -0.011069 0.000000
vn 0.707063 -0.011069 -0.707063
vn 0.707029 -0.014883 -0.707028
vn 0.999889 -0.014883 -0.000000
vn 0.707047 -0.011070 0.707080
vn 0.706988 -0.014907 0.707069
vn 0.010598 -0.011300 0.999880
vn 0.032824 -0.015442 0.999342
vn -0.699139 -0.011846 0.714887
vn -0.682876 -0.017525 0.730324
vn -0.999868 -0.011846 -0.011136
vn -0.999283 -0.017525 -0.033551
vn -0.699528 -0.011300 -0.714516
vn -0.683431 -0.015442 -0.729851
vn -0.000023 -0.011070 -0.999939
vn -0.000057 -0.014907 -0.999889
vn -0.093471 0.991225 0.093469
vn 0.000091 0.991180 0.132519
vn -0.130016 0.940049 0.315285
vn -0.298273 0.905010 0.303300
vn -0.425376 0.905010 -0.003554
vn -0.314876 0.940049 -0.131003
vn -0.093642 0.991181 -0.093767
vn -0.132188 0.991225 0.000000
vn 0.835719 0.426316 -0.346163
vn 0.835719 0.426316 -0.346163
vn 0.132954 0.982164 -0.132956
vn 0.188025 0.982164 -0.000000
vn 0.000765 0.982137 -0.188163
vn 0.346163 0.426310 -0.835722
vn 0.346163 0.426310 -0.835722
vn -0.076989 0.979196 -0.187743
vn -0.345525 0.426319 -0.835981
vn -0.345526 0.426319 -0.835981
vn -0.511957 0.796016 0.322891
vn -0.513525 0.814427 0.270187
vn -0.923566 0.354255 -0.146728
vn -0.932568 0.344110 0.109111
vn -0.554170 0.814426 0.172063
vn -0.736576 0.344111 0.582275
vn -0.590329 0.796015 0.133689
vn -0.549301 0.354254 0.756817
vn 0.078306 0.979195 0.187206
vn 0.133588 0.982137 0.132518
vn 0.346808 0.426316 0.835451
vn 0.346808 0.426316 0.835452
vn 0.835719 0.426316 0.346163
vn 0.835719 0.426316 0.346163
s 1
g Spoke1
usemtl initialShadingGroup
f 1/17/1 2/82/2 24/83/3 17/18/4
f 2/82/2 3/1/5 23/4/6 24/83/3
f 3/1/5 4/2/7 22/3/8 23/4/6
f 4/2/7 5/5/9 21/6/10 22/3/8
f 5/86/9 6/87/11 20/88/12 21/89/10
f 6/87/11 7/13/13 19/16/14 20/88/12
f 7/13/13 8/14/15 18/15/16 19/16/14
f 8/14/15 1/17/1 17/18/4 18/15/16
s 2
f 25/25/17 26/26/18 27/27/19
f 26/26/18 28/30/20 27/27/19
f 28/30/20 29/36/21 27/27/19
f 29/36/21 30/44/22 27/27/19
f 30/44/22 31/45/23 27/27/19
f 31/45/23 32/37/24 27/27/19
f 32/37/24 33/31/25 27/27/19
f 33/31/25 25/25/17 27/27/19
s 1
f 18/15/16 17/18/4 82/94/26 83/95/27
f 19/16/14 18/15/16 83/95/27 84/96/28
f 20/88/12 19/16/14 84/96/28 85/97/29
f 21/89/10 20/88/12 85/97/29 86/99/30
f 22/3/8 21/6/10 86/98/30 87/100/31
f 23/4/6 22/3/8 87/100/31 88/101/32
f 24/83/3 23/4/6 88/101/32 89/102/33
f 17/18/4 24/83/3 89/102/33 82/94/26
s 3
f 36/28/34 39/29/35 26/26/36 25/25/37
f 39/29/35 42/34/38 28/30/39 26/26/36
f 42/34/38 45/42/40 29/36/41 28/30/39
f 45/42/40 48/52/42 30/44/43 29/36/41
f 48/52/42 51/53/44 31/45/45 30/44/43
f 51/53/44 54/43/46 32/37/47 31/45/45
f 54/43/46 57/35/48 33/31/49 32/37/47
f 57/35/48 36/28/34 25/25/37 33/31/49
f 34/39/50 35/32/51 56/38/52 55/47/53
f 35/32/51 36/28/34 57/35/48 56/38/52
f 36/28/34 35/32/51 38/33/54 39/29/35
f 35/32/51 34/39/50 37/40/55 38/33/54
f 39/29/35 38/33/54 41/41/56 42/34/38
f 38/33/54 37/40/55 40/50/57 41/41/56
f 42/34/38 41/41/56 44/51/58 45/42/40
f 41/41/56 40/50/57 43/60/59 44/51/60
f 45/42/40 44/51/61 47/61/62 48/52/42
f 44/51/63 43/60/59 46/69/64 47/61/65
f 48/52/42 47/61/66 50/54/67 51/53/44
f 47/61/68 46/69/64 49/62/69 50/54/67
f 51/53/44 50/54/67 53/46/70 54/43/46
f 50/54/67 49/62/69 52/55/71 53/46/70
f 54/43/46 53/46/70 56/38/52 57/35/48
f 53/46/70 52/55/71 55/47/53 56/38/52
s 1
f 10/19/72 9/21/73 58/24/74 79/22/75
f 11/20/76 10/19/72 79/22/75 76/23/77
f 12/90/78 11/20/76 76/23/77 73/92/79
f 13/91/80 12/90/78 73/92/79 70/93/81
f 14/7/82 13/9/80 70/12/81 67/10/83
f 15/8/84 14/7/82 67/10/83 64/11/85
f 16/84/86 15/8/84 64/11/85 61/85/87
f 9/21/73 16/84/86 61/85/87 58/24/74
s 3
f 60/48/88 63/49/89 37/40/55 34/39/50
f 63/49/89 66/59/90 40/50/57 37/40/55
f 66/59/90 69/68/91 43/60/59 40/50/57
f 69/68/91 72/75/92 46/69/64 43/60/59
f 72/75/92 75/70/93 49/62/69 46/69/64
f 75/70/93 78/63/94 52/55/71 49/62/69
f 78/63/94 81/56/95 55/47/53 52/55/71
f 81/56/95 60/48/88 34/39/50 55/47/53
s 1
f 58/65/74 59/57/96 80/64/97 79/72/75
s 3
f 59/57/98 60/48/88 81/56/95 80/64/99
f 60/48/88 59/57/98 62/58/100 63/49/89
s 1
f 59/57/101 58/65/74 61/66/87 62/58/102
s 3
f 63/49/89 62/58/100 65/67/103 66/59/90
s 1
f 62/58/104 61/66/87 64/73/85 65/67/105
s 3
f 66/59/90 65/67/106 68/74/107 69/68/91
s 1
f 65/67/108 64/73/85 67/78/83 68/74/109
s 3
f 69/68/91 68/74/107 71/79/110 72/75/92
s 1
f 68/74/109 67/78/83 70/81/81 71/79/111
s 3
f 72/75/92 71/79/110 74/76/112 75/70/93
s 1
f 71/79/111 70/81/81 73/80/79 74/76/113
s 3
f 75/70/93 74/76/114 77/71/115 78/63/94
s 1
f 74/76/116 73/80/79 76/77/77 77/71/117
s 3
f 78/63/94 77/71/115 80/64/99 81/56/95
s 1
f 77/71/118 76/77/77 79/72/75 80/64/119
f 83/95/27 82/94/26 9/21/73 10/19/72
f 84/96/28 83/95/27 10/19/72 11/20/76
f 85/97/29 84/96/28 11/20/76 12/90/78
f 86/99/30 85/97/29 12/90/78 13/91/80
f 87/100/31 86/98/30 13/9/80 14/7/82
f 88/101/32 87/100/31 14/7/82 15/8/84
f 89/102/33 88/101/32 15/8/84 16/84/86
f 82/94/26 89/102/33 16/84/86 9/21/73
g default
v 186.904461 448.306922 -60.728940
v 158.990413 448.306922 -115.513308
v 115.513308 448.306922 -158.990413
v 60.728940 448.306922 -186.904426
v 0.000000 448.306922 -196.522957
v -60.728940 448.306922 -186.904426
v -115.513273 448.306922 -158.990378
v -158.990366 448.306922 -115.513273
v -186.904391 448.306922 -60.728911
v -196.522911 448.306922 0.000000
v -186.904391 448.306922 60.728911
v -158.990366 448.306922 115.513249
v -115.513249 448.306922 158.990366
v -60.728911 448.306922 186.904379
v -0.000006 448.306922 196.522864
v 60.728893 448.306922 186.904344
v 115.513226 448.306922 158.990331
v 158.990331 448.306922 115.513249
v 186.904344 448.306922 60.728911
v 196.522840 448.306922 0.000000
v 186.904461 566.001311 -60.728940
v 158.990413 566.001311 -115.513308
v 115.513308 566.001311 -158.990413
v 60.728940 566.001311 -186.904426
v 0.000000 566.001311 -196.522957
v -60.728940 566.001311 -186.904426
v -115.513273 566.001311 -158.990378
v -158.990366 566.001311 -115.513273
v -186.904391 566.001311 -60.728911
v -196.522911 566.001311 0.000000
v -186.904391 566.001311 60.728911
v -158.990366 566.001311 115.513249
v -115.513249 566.001311 158.990366
v -60.728911 566.001311 186.904379
v -0.000006 566.001311 196.522864
v 60.728893 566.001311 186.904344
v 115.513226 566.001311 158.990331
v 158.990331 566.001311 115.513249
v 186.904344 566.001311 60.728911
v 196.522840 566.001311 0.000000
v 147.981726 433.550949 -48.082190
v 125.880753 433.550949 -91.457720
v 91.457720 433.550949 -125.880788
v 48.082161 433.550949 -147.981679
v -0.000005 433.550949 -155.597196
v -48.082178 433.550949 -147.981679
v -91.457702 433.550949 -125.880753
v -125.880753 433.550949 -91.457702
v -147.981679 433.550949 -48.082169
v -155.597149 433.550949 -0.000007
v -147.981679 433.550949 48.082140
v -125.880753 433.550949 91.457679
v -91.457685 433.550949 125.880729
v -48.082161 433.550949 147.981609
v -0.000010 433.550949 155.597114
v 48.082131 433.550949 147.981609
v 91.457661 433.550949 125.880694
v 125.880694 433.550949 91.457661
v 147.981609 433.550949 48.082140
v 155.597114 433.550949 -0.000007
v 147.981726 580.757340 -48.082190
v 125.880753 580.757340 -91.457720
v 91.457720 580.757340 -125.880788
v 48.082161 580.757340 -147.981679
v -0.000005 580.757340 -155.597196
v -48.082178 580.757340 -147.981679
v -91.457702 580.757340 -125.880753
v -125.880753 580.757340 -91.457702
v -147.981679 580.757340 -48.082169
v -155.597149 580.757340 -0.000007
v -147.981679 580.757340 48.082140
v -125.880753 580.757340 91.457679
v -91.457685 580.757340 125.880729
v -48.082161 580.757340 147.981609
v -0.000010 580.757340 155.597114
v 48.082131 580.757340 147.981609
v 91.457661 580.757340 125.880694
v 125.880694 580.757340 91.457661
v 147.981609 580.757340 48.082140
v 155.597114 580.757340 -0.000007
v 202.973818 536.574781 -65.950176
v 202.973818 477.733508 -65.950176
v 213.419112 477.733508 0.000003
v 213.419112 536.574781 0.000003
v 202.973654 477.733508 65.950146
v 202.973654 536.574781 65.950146
v 172.659697 477.733508 125.444629
v 172.659697 536.574781 125.444629
v 125.444617 477.733508 172.659732
v 125.444617 536.574781 172.659732
v 65.950129 477.733508 202.973654
v 65.950129 536.574781 202.973654
v -0.000004 477.733508 213.419159
v -0.000004 536.574781 213.419159
v -65.950146 477.733508 202.973701
v -65.950146 536.574781 202.973701
v -125.444629 477.733508 172.659732
v -125.444629 536.574781 172.659732
v -172.659732 477.733508 125.444629
v -172.659732 536.574781 125.444629
v -202.973701 477.733508 65.950146
v -202.973701 536.574781 65.950146
v -213.419159 477.733508 0.000003
v -213.419159 536.574781 0.000003
v -202.973701 477.733508 -65.950146
v -202.973701 536.574781 -65.950146
v -172.659732 477.733508 -125.444653
v -172.659732 536.574781 -125.444653
v -125.444653 477.733508 -172.659767
v -125.444653 536.574781 -172.659767
v -65.950176 477.733508 -202.973772
v -65.950170 536.574781 -202.973772
v 0.000002 477.733508 -213.419230
v 0.000002 536.574781 -213.419230
v 65.950176 477.733508 -202.973772
v 65.950176 536.574781 -202.973772
v 125.444688 477.733508 -172.659814
v 125.444688 536.574781 -172.659814
v 172.659814 477.733508 -125.444688
v 172.659814 536.574781 -125.444688
vt 0.868067 0.834650
vt 0.914881 0.834515
vt 0.915009 0.878660
vt 0.868195 0.878795
vt 0.867941 0.791104
vt 0.914755 0.790968
vt 0.941200 0.834439
vt 0.941328 0.878584
vt 0.915135 0.922181
vt 0.868320 0.922317
vt 0.841876 0.878871
vt 0.841748 0.834727
vt 0.841622 0.791180
vt 0.867815 0.747557
vt 0.914630 0.747421
vt 0.941074 0.790892
vt 0.973336 0.834346
vt 0.973463 0.878491
vt 0.941454 0.922105
vt 0.842001 0.922393
vt 0.809740 0.878964
vt 0.809612 0.834819
vt 0.809487 0.791273
vt 0.841496 0.747633
vt 0.867688 0.703412
vt 0.914502 0.703276
vt 0.940949 0.747345
vt 0.973210 0.790799
vt 0.973589 0.922013
vt 0.809866 0.922486
vt 0.809361 0.747726
vt 0.841368 0.703488
vt 0.867353 0.659891
vt 0.914585 0.659754
vt 0.940821 0.703200
vt 0.973084 0.747252
vt 0.809233 0.703581
vt 0.841112 0.659967
vt 0.940826 0.659678
vt 0.972956 0.703107
vt 0.808976 0.660060
vt 0.972962 0.659586
vt 0.912972 0.440798
vt 0.867699 0.440929
vt 0.867571 0.396763
vt 0.912845 0.396632
vt 0.913690 0.483636
vt 0.867229 0.483771
vt 0.841612 0.441004
vt 0.841485 0.396838
vt 0.867443 0.352630
vt 0.912717 0.352499
vt 0.938931 0.396556
vt 0.939059 0.440722
vt 0.841104 0.483846
vt 0.939815 0.483561
vt 0.809477 0.441097
vt 0.809349 0.396931
vt 0.841357 0.352705
vt 0.867316 0.308497
vt 0.912589 0.308366
vt 0.938803 0.352423
vt 0.971067 0.396463
vt 0.971194 0.440629
vt 0.808968 0.483939
vt 0.971951 0.483468
vt 0.809221 0.352798
vt 0.841229 0.308572
vt 0.867188 0.264331
vt 0.912462 0.264200
vt 0.938676 0.308290
vt 0.970939 0.352330
vt 0.809094 0.308665
vt 0.841101 0.264406
vt 0.866470 0.221492
vt 0.912931 0.221358
vt 0.938548 0.264124
vt 0.970811 0.308197
vt 0.808966 0.264499
vt 0.840346 0.221568
vt 0.939056 0.221282
vt 0.970683 0.264031
vt 0.808210 0.221661
vt 0.971191 0.221189
vt 0.867019 0.616412
vt 0.914668 0.616274
vt 0.840855 0.616488
vt 0.866890 0.571832
vt 0.914539 0.571694
vt 0.940831 0.616199
vt 0.808720 0.616581
vt 0.840726 0.571908
vt 0.866761 0.527252
vt 0.914410 0.527114
vt 0.940702 0.571618
vt 0.972967 0.616106
vt 0.808591 0.572001
vt 0.840597 0.527327
vt 0.940573 0.527038
vt 0.972838 0.571525
vt 0.808462 0.527420
vt 0.972709 0.526945
vt 0.865751 0.178014
vt 0.913399 0.177877
vt 0.839588 0.178090
vt 0.865622 0.133434
vt 0.913270 0.133296
vt 0.939562 0.177801
vt 0.807452 0.178183
vt 0.839459 0.133509
vt 0.865493 0.088853
vt 0.913141 0.088715
vt 0.939433 0.133220
vt 0.971698 0.177708
vt 0.807323 0.133602
vt 0.839330 0.088929
vt 0.865367 0.045373
vt 0.913015 0.045236
vt 0.939304 0.088639
vt 0.971569 0.133127
vt 0.807194 0.089022
vt 0.839204 0.045449
vt 0.939178 0.045160
vt 0.971440 0.088546
vt 0.807069 0.045542
vt 0.971314 0.045067
vn 0.518248 -0.767883 -0.376530
vn 0.609238 -0.767883 -0.197953
vn 0.322581 -0.940721 -0.104813
vn 0.274403 -0.940721 -0.199366
vn 0.376529 -0.767883 -0.518248
vn 0.199366 -0.940721 -0.274403
vn 0.197953 -0.767883 -0.609238
vn 0.104813 -0.940721 -0.322580
vn 0.000000 -0.767883 -0.640590
vn -0.000000 -0.940721 -0.339181
vn -0.197953 -0.767883 -0.609238
vn -0.104813 -0.940721 -0.322580
vn -0.376530 -0.767883 -0.518248
vn -0.199366 -0.940721 -0.274403
vn -0.518249 -0.767883 -0.376530
vn -0.274403 -0.940721 -0.199366
vn -0.609238 -0.767883 -0.197953
vn -0.322581 -0.940721 -0.104813
vn -0.640591 -0.767882 0.000000
vn -0.339181 -0.940721 -0.000000
vn -0.609238 -0.767882 0.197953
vn -0.322581 -0.940721 0.104813
vn -0.518249 -0.767883 0.376530
vn -0.274403 -0.940721 0.199366
vn -0.376530 -0.767883 0.518249
vn -0.199366 -0.940721 0.274403
vn -0.197953 -0.767883 0.609238
vn -0.104813 -0.940721 0.322580
vn 0.000000 -0.767883 0.640590
vn 0.000000 -0.940721 0.339181
vn 0.197953 -0.767883 0.609238
vn 0.104813 -0.940721 0.322581
vn 0.376530 -0.767883 0.518249
vn 0.199366 -0.940721 0.274403
vn 0.518249 -0.767883 0.376530
vn 0.274403 -0.940721 0.199366
vn 0.609238 -0.767883 0.197953
vn 0.322581 -0.940721 0.104813
vn 0.640590 -0.767883 0.000001
vn 0.339181 -0.940721 0.000000
vn 0.609238 0.767883 -0.197953
vn 0.518248 0.767883 -0.376530
vn 0.274404 0.940721 -0.199366
vn 0.322582 0.940721 -0.104813
vn 0.376529 0.767883 -0.518248
vn 0.199366 0.940721 -0.274404
vn 0.197953 0.767883 -0.609237
vn 0.104813 0.940721 -0.322582
vn 0.000000 0.767883 -0.640590
vn -0.000000 0.940721 -0.339182
vn -0.197953 0.767883 -0.609237
vn -0.104813 0.940721 -0.322582
vn -0.376530 0.767883 -0.518248
vn -0.199367 0.940721 -0.274404
vn -0.518249 0.767883 -0.376530
vn -0.274404 0.940721 -0.199366
vn -0.609238 0.767883 -0.197953
vn -0.322582 0.940721 -0.104813
vn -0.640591 0.767883 0.000000
vn -0.339182 0.940721 0.000000
vn -0.609238 0.767883 0.197953
vn -0.322582 0.940721 0.104813
vn -0.518249 0.767883 0.376530
vn -0.274404 0.940721 0.199366
vn -0.376530 0.767883 0.518249
vn -0.199366 0.940721 0.274404
vn -0.197953 0.767883 0.609238
vn -0.104813 0.940721 0.322582
vn 0.000000 0.767883 0.640590
vn 0.000000 0.940721 0.339182
vn 0.197953 0.767883 0.609238
vn 0.104813 0.940721 0.322582
vn 0.376529 0.767883 0.518248
vn 0.199366 0.940721 0.274404
vn 0.518248 0.767883 0.376530
vn 0.274404 0.940721 0.199366
vn 0.609238 0.767883 0.197953
vn 0.322582 0.940721 0.104813
vn 0.640590 0.767883 0.000001
vn 0.339182 0.940721 0.000000
vn 0.935327 0.181120 -0.303905
vn 0.935327 -0.181120 -0.303905
vn 0.795636 -0.181120 -0.578064
vn 0.795636 0.181120 -0.578064
vn 0.983461 0.181120 0.000001
vn 0.983461 -0.181120 0.000001
vn 0.935327 0.181120 0.303906
vn 0.935327 -0.181120 0.303906
vn 0.795637 0.181120 0.578064
vn 0.795637 -0.181120 0.578064
vn 0.578064 0.181120 0.795637
vn 0.578064 -0.181120 0.795637
vn 0.303906 0.181120 0.935327
vn 0.303906 -0.181120 0.935327
vn 0.000000 0.181120 0.983461
vn 0.000000 -0.181120 0.983461
vn -0.303906 0.181120 0.935327
vn -0.303906 -0.181120 0.935327
vn -0.578064 0.181120 0.795637
vn -0.578064 -0.181120 0.795637
vn -0.795637 0.181120 0.578064
vn -0.795637 -0.181120 0.578064
vn -0.935327 0.181120 0.303906
vn -0.935327 -0.181120 0.303906
vn -0.983461 0.181120 0.000000
vn -0.983461 -0.181120 0.000000
vn -0.935327 0.181120 -0.303906
vn -0.935327 -0.181120 -0.303906
vn -0.795637 0.181120 -0.578064
vn -0.795637 -0.181120 -0.578064
vn -0.578064 0.181120 -0.795636
vn -0.578064 -0.181120 -0.795636
vn -0.303906 0.181120 -0.935327
vn -0.303906 -0.181120 -0.935327
vn 0.000000 0.181120 -0.983461
vn 0.000000 -0.181120 -0.983461
vn 0.303906 0.181120 -0.935327
vn 0.303906 -0.181120 -0.935327
vn 0.578064 0.181120 -0.795637
vn 0.578064 -0.181120 -0.795637
s 1
g Spoke1 String
usemtl initialShadingGroup
f 91/110/120 90/109/121 130/119/122 131/120/123
f 92/121/124 91/110/120 131/120/123 132/131/125
f 93/221/126 92/225/124 132/228/125 133/226/127
f 94/215/128 93/221/126 133/226/127 134/222/129
f 95/210/130 94/215/128 134/222/129 135/216/131
f 96/183/132 95/210/130 135/216/131 136/186/133
f 97/179/134 96/183/132 136/186/133 137/184/135
f 98/173/136 97/179/134 137/184/135 138/180/137
f 99/164/138 98/173/136 138/180/137 139/174/139
f 100/155/140 99/164/138 139/174/139 140/165/141
f 101/156/142 100/155/140 140/165/141 141/166/143
f 102/158/144 101/156/142 141/166/143 142/168/145
f 103/201/146 102/158/144 142/168/145 143/204/147
f 104/197/148 103/201/146 143/204/147 144/202/149
f 105/192/150 104/197/148 144/202/149 145/198/151
f 106/141/152 105/192/150 145/198/151 146/144/153
f 107/137/154 106/141/152 146/144/153 147/142/155
f 108/129/156 107/137/154 147/142/155 148/138/157
f 109/118/158 108/129/156 148/138/157 149/130/159
f 90/109/121 109/118/158 149/130/159 130/119/122
f 110/114/160 111/113/161 151/123/162 150/124/163
f 111/113/161 112/122/164 152/132/165 151/123/162
f 112/224/164 113/218/166 153/223/167 152/227/165
f 113/218/166 114/212/168 154/217/169 153/223/167
f 114/212/168 115/207/170 155/211/171 154/217/169
f 115/207/170 116/182/172 156/185/173 155/211/171
f 116/182/172 117/176/174 157/181/175 156/185/173
f 117/176/174 118/170/176 158/175/177 157/181/175
f 118/170/176 119/161/178 159/169/179 158/175/177
f 119/161/178 120/152/180 160/160/181 159/169/179
f 120/152/180 121/151/182 161/159/183 160/160/181
f 121/151/182 122/157/184 162/167/185 161/159/183
f 122/157/184 123/200/186 163/203/187 162/167/185
f 123/200/186 124/194/188 164/199/189 163/203/187
f 124/194/188 125/189/190 165/193/191 164/199/189
f 125/189/190 126/140/192 166/143/193 165/193/191
f 126/140/192 127/134/194 167/139/195 166/143/193
f 127/134/194 128/126/196 168/133/197 167/139/195
f 128/126/196 129/115/198 169/125/199 168/133/197
f 129/115/198 110/114/160 150/124/163 169/125/199
f 170/103/200 171/104/201 208/105/202 209/106/203
f 171/104/201 170/103/200 173/107/204 172/108/205
f 172/108/205 173/107/204 175/116/206 174/117/207
f 174/117/207 175/116/206 177/127/208 176/128/209
f 176/128/209 177/127/208 179/135/210 178/136/211
f 178/136/211 179/135/210 181/187/212 180/188/213
f 180/188/213 181/187/212 183/190/214 182/191/215
f 182/191/215 183/190/214 185/195/216 184/196/217
f 184/196/217 185/195/216 187/150/218 186/149/219
f 186/149/219 187/150/218 189/146/220 188/145/221
f 188/145/221 189/146/220 191/147/222 190/148/223
f 190/148/223 191/147/222 193/153/224 192/154/225
f 192/154/225 193/153/224 195/162/226 194/163/227
f 194/163/227 195/162/226 197/171/228 196/172/229
f 196/172/229 197/171/228 199/177/230 198/178/231
f 198/178/231 199/177/230 201/205/232 200/206/233
f 200/206/233 201/205/232 203/208/234 202/209/235
f 202/209/235 203/208/234 205/213/236 204/214/237
f 204/214/237 205/213/236 207/219/238 206/220/239
f 206/111/239 207/112/238 209/106/203 208/105/202
f 90/109/121 91/110/120 208/105/202 171/104/201
f 91/110/120 92/121/124 206/111/239 208/105/202
f 92/225/124 93/221/126 204/214/237 206/220/239
f 93/221/126 94/215/128 202/209/235 204/214/237
f 94/215/128 95/210/130 200/206/233 202/209/235
f 95/210/130 96/183/132 198/178/231 200/206/233
f 96/183/132 97/179/134 196/172/229 198/178/231
f 97/179/134 98/173/136 194/163/227 196/172/229
f 98/173/136 99/164/138 192/154/225 194/163/227
f 99/164/138 100/155/140 190/148/223 192/154/225
f 100/155/140 101/156/142 188/145/221 190/148/223
f 101/156/142 102/158/144 186/149/219 188/145/221
f 102/158/144 103/201/146 184/196/217 186/149/219
f 103/201/146 104/197/148 182/191/215 184/196/217
f 104/197/148 105/192/150 180/188/213 182/191/215
f 105/192/150 106/141/152 178/136/211 180/188/213
f 106/141/152 107/137/154 176/128/209 178/136/211
f 107/137/154 108/129/156 174/117/207 176/128/209
f 108/129/156 109/118/158 172/108/205 174/117/207
f 109/118/158 90/109/121 171/104/201 172/108/205
f 173/107/204 170/103/200 110/114/160 129/115/198
f 175/116/206 173/107/204 129/115/198 128/126/196
f 177/127/208 175/116/206 128/126/196 127/134/194
f 179/135/210 177/127/208 127/134/194 126/140/192
f 181/187/212 179/135/210 126/140/192 125/189/190
f 183/190/214 181/187/212 125/189/190 124/194/188
f 185/195/216 183/190/214 124/194/188 123/200/186
f 187/150/218 185/195/216 123/200/186 122/157/184
f 189/146/220 187/150/218 122/157/184 121/151/182
f 191/147/222 189/146/220 121/151/182 120/152/180
f 193/153/224 191/147/222 120/152/180 119/161/178
f 195/162/226 193/153/224 119/161/178 118/170/176
f 197/171/228 195/162/226 118/170/176 117/176/174
f 199/177/230 197/171/228 117/176/174 116/182/172
f 201/205/232 199/177/230 116/182/172 115/207/170
f 203/208/234 201/205/232 115/207/170 114/212/168
f 205/213/236 203/208/234 114/212/168 113/218/166
f 207/219/238 205/213/236 113/218/166 112/224/164
f 209/106/203 207/112/238 112/122/164 111/113/161
f 170/103/200 209/106/203 111/113/161 110/114/160
